<?xml version="1.0" encoding="UTF-8"?>
<svg width="336.53" height="229.73" enable-background="new 0 0 336.532 229.732" viewBox="0 0 336.532 229.732" xmlns="http://www.w3.org/2000/svg">
 <g fill-rule="evenodd">
  <path d="m272.62,2.728s-19.024-.297-20.808.892-11.593,9.215-11.593,9.215l5.945,3.567 25.512-7.224 .95-6.45z" fill="#e31836"/>
  <path d="m143.62,59.502s-2.081-12.484 1.783-19.916 17.538-18.429 17.538-18.429l32.1-12.187 3.567-8.323 5.647.297-2.675,8.026 10.998,60.341-28.239,15.754-40.72-25.563z" fill="#e31836"/>
  <path d="m270.46,4.895c6.614.524 11.885,2.392 14.072,7.342-4.236-.659-5.674-4.115-11.625-3.059 .63-2.875-2.85-1.631-2.44-4.283z" fill="#e31836"/>
  <path d="m263.73,70.97c-4.027.103-1.655-4.68-1.835-7.342-.349-5.146-1.009-10.409-3.671-12.848 1.128-7.17-6.086-11.403-3.671-15.907-1.054-.986-2.875-1.204-3.671-2.447-5.877-10.265-15.955-19.489-28.755-20.802-5.304-4.646-13.435,1.377-20.19,2.447-1.96,3.75-3.566,7.854-3.059,14.072-4.977-3.858.042-12.661 1.835-17.13 39.89-13.109 68.15,22.223 63.01,59.957z" fill="#e31836"/>
  <path d="m271.68,9.177c-1.276.966-3.218,1.269-5.506,1.224 .33-1.871 4.4-2.027 5.51-1.224z" fill="#e31836"/>
  <path d="m265.56 9.789c-2.585 2.922-6.413 4.6-10.401 6.118 2.84-2.67 5.14-5.877 10.4-6.118z" fill="#e31836"/>
  <path d="m190.92,10.401c2.105,1.736-1.573,7.081-2.447,9.789-1.823-.012-.785-2.886-1.836-3.671-2.203,1.271-1.314,2.854-1.224,5.506-3.064.617-2.153-2.741-4.282-3.059-1.997-.161-1.768,1.903-3.06,2.447-5.247-1.876-8.824,2.925-14.684,2.447 6.92-6.742 18.01-9.312 27.53-13.459z" fill="#e31836"/>
  <path d="m264.34,44.662c-.771-5.734 5.799-9.241 8.564-13.46-3.477.202-5.507,7.13-9.788,8.565 2.065-5.48 5.731-9.36 10.4-12.236 2.58-.104-.011.94 0,1.835 1.825-1.244 6.141-5.272 11.013-5.506-2.063-1.823-4.8.884-7.342.612 .115-2.332 3.414-1.48 3.671-3.671-.693-1.24-2.712,1.319-4.895.612 1.358-1.905 3.872-2.654 6.729-3.059 2.08.572 2.169,3.134 5.507,2.447-.864-2.689-2.345-1.597 0-3.671-.154-2.089-3.241-1.246-3.671-3.059-.095-1.521.961-1.894 1.224-3.059 4.641,2.293 7.107,6.478 11.013,9.789 6.759,5.732 15.576,8.087 22.637,12.848 5.766,3.888 8.725,10.042 11.624,16.519 9.734,29.163-12.805,47.87-30.59,60.569-1.55-3.189-1.672-7.6 2.447-7.954 .077,1.098-.749,1.291-.612,2.447 13.018-12.668 35.027-27.354 26.92-53.227-2.021,3.443.385,12.384-3.671,15.295-1.947-5.541 3.072-9.599.611-15.295 .157-1.271 2.688-.167 3.06-1.224-.73-2.471-2.095-.763-3.671-1.835v-4.283c-3.984-3.036-8.747-8.007-13.46-10.401-1.716.978.859,2.754 0,4.895-2.86-.811-1.453-5.889-3.671-7.342-2.22,2.471-1.564,7.816-5.506,8.565-.995-2.504 4.818-5.908 1.835-10.401-2.913,4.429-6.906,7.777-9.177,12.848-.188,1.912 1.768-1.555 1.835.612 .063,1.954-3.177,4.114-3.671,1.835-3.417,3.924-6.823,7.859-11.013,11.012 4.033-10.65 13.355-16.011 18.967-25.084-6.94,2.035-8.972,14.276-17.743,16.519 4.648-6.772 10.039-12.803 15.907-18.354-14.037,7.111-20.571,26.185-30.591,37.932 5.285-1.853 6.018-8.258 11.625-9.789-3.966,5.62-9.027,10.144-14.071,14.684-3.303-20.154 12.076-27.402 20.801-40.379-3.094,1.813-3.249,2.641-7.342,1.224 4.605-2.532 9.146-5.129 15.296-6.118-.341-1.495-1.436-2.235-2.447-3.059-15.65.331-18.82,11.219-28.78,20.792zm21.41-21.413c.779.834 2.997.945 3.059-.612-.91-.97-2.5-.45-3.06.612zm.61,13.459c3.758-2.157 6.343-5.485 9.789-7.954-3.67-.108-7.56,4.597-9.79,7.954z" fill="#e31836"/>
  <path d="m310.22,13.46c3.035,1.735-.696,5.308-3.059,5.506-.21-3.068 2.71-3.003 3.06-5.506z" fill="#e31836"/>
  <path d="m215.39,15.295c-.801,1.85-2.744,2.558-5.506,2.447-.17-2.584 4.37-5.018 5.51-2.447z" fill="#e31836"/>
  <path d="m253.94,14.071c-1.562,1.292-1.919,3.791-4.282,4.283-.85-1.607 1.7-4.16 4.28-4.283z" fill="#e31836"/>
  <path d="m280.24,14.684c-.745,1.701-3.758,1.136-6.118,1.224 .86-2.936 3.3-.908 6.12-1.224z" fill="#e31836"/>
  <path d="m304.72,18.966c.014,1.441-1.054,1.802-.611,3.671-2.121-.122-3.978-.509-3.671-3.059 .78-.843 2.65-.606 4.28-.612z" fill="#e31836"/>
  <path d="m272.29 20.189c-1.567 2.308-3.996 3.754-6.729 4.895 1.17-2.709 3.43-4.325 6.73-4.895z" fill="#e31836"/>
  <path d="m215.39,23.249c-1.869-.442-2.229.625-3.671.612-.13-1.277 3.7-3.308 3.67-.612z" fill="#e31836"/>
  <path d="m288.81,22.637c-.062,1.557-2.279,1.446-3.059.612 .56-1.062 2.15-1.582 3.06-.612z" fill="#8b0f04"/>
  <path d="m274.13,23.249c-.762,1.685-1.927,2.968-4.282,3.059 .92-1.523 2.09-2.797 4.28-3.059z" fill="#e31836"/>
  <path d="m203.16,24.472c.596.017.476.749.612,1.224-.82,2.239-2.806,3.312-4.895,4.283 .64-2.614 2.21-4.312 4.28-5.507z" fill="#e31836"/>
  <path d="m211.11 24.472c-1.418 1.438-2.006 3.705-4.895 3.671 1.82-1.027 2.01-3.696 4.89-3.671z" fill="#e31836"/>
  <path d="m161.55,25.696c.473,2.384-2.023,3.41-3.06,2.447-.08-1.923 1.57-2.101 3.06-2.447z" fill="#e31836"/>
  <path d="m289.42 25.696c-1.345 2.742-8.006 5.449-12.849 6.73 2.44-4.093 8.92-4.135 12.85-6.73z" fill="#e31836"/>
  <path d="m173.18,26.919c1.65-1.211 5.467.628 5.507,3.059-2.04-.822-3.1-2.618-5.51-3.059z" fill="#e31836"/>
  <path d="m221.51,39.768c.747,2.924 3.806,3.537 3.671,7.342-2.414-1.053-2.729-4.205-4.895-5.506-2.254,3.056 1.956,6.367 3.671,9.177 2.966,4.859 4.954,10.421 6.118,17.13-7.514.987-7.583-5.469-9.789-9.789 2.829-1.554 3.427,3.73 5.507,4.895-2.776-8.848-7.312-15.937-14.072-20.801-.014-1.441 1.054-1.801.612-3.671 6.165,1.842 7.899-11.524 11.013-12.236 3.26-.746 6.348,2.963 6.117,6.118-.25,3.499-5.33,4.798-7.95,7.341z" fill="#e31836"/>
  <path d="m168.9,28.143c1.746,1.999 6.485-.765 6.729,3.671-3.288.433-5.013-.698-7.342-1.224-.08-1.097.74-1.29.61-2.447z" fill="#e31836"/>
  <path d="m296.15 28.755c-3.446 2.468-6.031 5.796-9.789 7.954 2.23-3.358 6.12-8.063 9.79-7.954z" fill="#8b0f04"/>
  <path d="m263.12,30.59c1.91,1.364-1.204,2.827-1.224,4.283-1.8-1.247.82-3.202 1.22-4.283z" fill="#e31836"/>
  <path d="m167.67,31.814c2.164.691 5.311.399 5.506,3.059h-6.118c-.2-1.419.1-2.349.61-3.059z" fill="#e31836"/>
  <path d="m189.08,31.814c2.822,2.072 3.412,6.376 7.953,6.73 3.069-1.214 4.381-4.185 7.954-4.895-1.367,2.479-.048,3.797 1.835,1.835 1.406,2.239-4.497,2.505-1.224,5.506-1.952.524-1.892-.963-3.059-1.224-2.331.116-.375,4.519-1.836,5.506-1.225-.814-1.362-2.716-1.835-4.283-2.45,2.641-8.494,3.215-10.4-.612-3.036-.565-7.448.678-7.954.612 .086-2.77 4.149-1.561 6.73-1.835 .27-2.259-.43-5.247 1.84-7.34z" fill="#e31836"/>
  <path d="m214.17,31.814c-.547,3.528-4.92.497-6.729,1.835 1.03-1.823 4.16-1.552 6.73-1.835z" fill="#e31836"/>
  <path d="m244.15,34.261c1.277.967 3.07,1.417 3.06,3.671-2.92.713-3.88-2.546-3.06-3.671z" fill="#e31836"/>
  <path d="m250.27 36.708c2.851 1.609 5.062 5.112 4.283 8.565-2.91-1.099-4.97-5.868-4.28-8.565z" fill="#e31836"/>
  <path d="m307.16,37.32c.988-.172 1.054.578 1.835.612-1.592,1.059-.252,5.049-3.059,4.895 .1-.711-.135-1.089-.611-1.224 .31-1.727 1.48-2.599 1.83-4.283z" fill="#e31836"/>
  <path d="m314.51,37.32c1.852.799 2.434,2.869 2.447,5.506-1.92-.732-2.27-3.035-2.45-5.506z" fill="#e31836"/>
  <path d="m205.6 44.05c1.118 1.125 2.419 2.067 3.06 3.671-1.56 1.495-4.74-1.918-3.06-3.671z" fill="#e31836"/>
  <path d="m303.49,44.05c.06,6.182-5.959,11.576-10.4,15.295 2.15-6.415 6.14-10.994 10.4-15.295z" fill="#e31836"/>
  <path d="m307.78 44.662c1.673 5.205-4.681 12.255-8.565 15.907 2.42-5.733 6.35-9.957 8.56-15.907z" fill="#e31836"/>
  <path d="m310.84,44.662c.988-.172 1.053.578 1.835.612-.61,2.244.313,6.023-2.447,6.118-.6-3.13-.29-4.035.61-6.73z" fill="#e31836"/>
  <path d="m240.48 45.886c5.603 1.785 7.499 10.386 8.565 14.683-1.84-5.903-7.45-8.049-8.56-14.683z" fill="#e31836"/>
  <path d="m195.82,47.109c1.998.18 1.52,4.619-.611,4.283-.88-1.88-.28-2.751.61-4.283z" fill="#e31836"/>
  <path d="m156.66,47.721c.616,1.714-.888,5.841-4.283,5.506-1.9-2.99 1.58-5.148 4.28-5.506z" fill="#8b0f04"/>
  <path d="m214.17,51.392c-.752,3.618 2.656,8.349 3.671,12.236 2.046-1.692-1.17-3.275-.611-5.506 3.154,1.74 4.247,5.542 5.506,9.177-13.715,1.886-18.038-10.359-20.189-19.578 1.601.847.925,3.97 2.447,4.894 .533-1.666 1.588-3.585 3.059-1.223 1.78-.532.688-.916.612-2.447 3.8-.465 3.488,2.61 6.729,1.224-.095,2.949 2.633,3.078 1.836,6.729-2.04-.826-1.75-3.973-3.07-5.506z" fill="#e31836"/>
  <path d="m247.82,47.721c1.347.896 2.866,1.621 2.447,4.283-1.37-.831-3.67-2.762-2.45-4.283z" fill="#e31836"/>
  <path d="m235.58,48.333c1.729-.506 1.585.862 3.06.612 .18,1.588-4.14,2.125-3.06-.612z" fill="#e31836"/>
  <path d="m94.255,49.557c.048,2.291-2.399,2.087-4.283,2.447-.455,2.494 1.972,2.106 1.224,4.894-4.467.048-1.61-3.505-3.059-6.118 1.614-.833 4.172-.723 6.118-1.223z" fill="#e31836"/>
  <path d="m228.24,49.557c2.467,1.695 3.302.704 6.117,0v2.447c-2.27.358-6.3,1.182-6.12-2.447z" fill="#e31836"/>
  <path d="m182.97,51.392c2.793.075.333,3.471 0,4.282-1.65-.723 0-3.19 0-4.282z" fill="#e31836"/>
  <path d="m244.15,56.286c-1.479,2.854.049,5.12 2.447,5.506 .289,1.921-1.646,1.617-1.835,3.059 1.986.355 2.846-.417 4.282-.612-1.703,2.341-3.808,3.34-3.671,6.118 .093,1.131 2.072.375 2.447,1.224-1.914,4.66-3.191,10.057-3.671,15.907-2.279.647-1.975-1.288-3.059-1.835 4.094-10.821 2.856-27.235-6.73-31.202 3.14-5.242 6.04.886 9.79,1.835z" fill="#e31836"/>
  <path d="m255.16,52.004c3.885,1.214 3.211,6.985 4.283,11.012-5,.218-5.54-6.973-4.28-11.012z" fill="#e31836"/>
  <path d="m230.08,55.674c6.158.775 9.125,4.743 9.789,11.013-6.73,4.07-7.39-6.862-9.79-11.013zm6.73,10.401c-.642-3.233-.978-6.772-3.671-7.954 1.71,2.164 1.52,6.227 3.67,7.954z" fill="#e31836"/>
  <path d="m41.64,64.24c2.472-6.239 18.45-5.641 26.308-6.73 4.258,1.044 7.406,3.199 8.565,7.342-1.752-.899-2.297-3.005-4.283-3.671-.694.116-.34.614 0,.612-8.431-2.418-22.933-3.5-30.59,2.447z" fill="#e31836"/>
  <path d="m233.14 58.122c2.693 1.182 3.029 4.72 3.671 7.954-2.15-1.728-1.96-5.791-3.67-7.954z" fill="#8b0f04"/>
  <path d="m80.795,59.957c2.327-.881 4.41,3.734 4.895,6.73-2.374-1.501-2.51-5.239-4.895-6.73z" fill="#e31836"/>
  <path d="m95.479 59.345c1.725 1.765-1.698 3.574-1.835 5.506-2.171-2.21 1.118-4.153 1.835-5.506z" fill="#8b0f04"/>
  <path d="m91.196,59.957c-2.258,4.121 2.528,11.656-1.835,15.295-1.29-2.976.511-11.541-1.224-14.072 .09-1.337 1.541-1.313 3.059-1.223z" fill="#e31836"/>
  <path d="m99.761 63.016c1.017-1.227 1.643-2.844 3.671-3.059-1.01 1.227-1.64 2.844-3.669 3.059z" fill="#8b0f04"/>
  <path d="m302.88,60.569c3.576,9.396-8.035,14.354-10.401,23.249 5.411-1.523 6.263-7.605 11.013-9.789-3.028,4.925-6.77,9.138-9.177,14.684-2.935-1.349-6.012-2.554-6.118-6.73 6.505-1.652 7.818-8.496 12.236-12.236-1.986-.354-2.847.417-4.283.612 1.47-4.034 4.98-6.033 6.73-9.79z" fill="#e31836"/>
  <path d="m157.27 62.404c1.784-1.544 3.771 1.914 4.895 3.059-1.82 1.586-3.01-2.664-4.89-3.059z" fill="#e31836"/>
  <path d="m164.61,61.792c1.934.116 1.419,4.52.612,5.506-1.93-.115-1.41-4.518-.61-5.506z" fill="#e31836"/>
  <path d="m230.08,61.792c1.434.927 3.223,3.672 1.835,5.506-1.69-.766-1.59-3.308-1.84-5.506z" fill="#e31836"/>
  <path d="m182.97,63.628h1.836c-.188,5.083 1.9,7.888 2.447,12.236-3.79-1.726-2.95-8.07-4.29-12.236z" fill="#8b0f04"/>
  <path d="m328.58,64.852c2.574.353.538,5.53-1.224,5.506-.57-2.808 1.52-2.956 1.22-5.506z" fill="#e31836"/>
  <path d="m252.71,65.463c2.686-.442 2.446,2.04 2.447,4.283-2.005-.995-2.339.138-4.895,0v-2.447c1.93.828 2.11.19 2.45-1.836z" fill="#e31836"/>
  <path d="m289.42,65.463c-.25,4.243-3.794,10.477-9.178,11.625 1.52-5.415 6.67-7.204 9.18-11.625z" fill="#e31836"/>
  <path d="m68.559,70.358c-7.402-5.489-21.99-2.694-28.755,1.224 6.584-5.892 26.317-9.062 31.202,0-5.025-1.331-20.005-3.216-27.531.612 4.87-4.601 18.097-4.615 25.084-1.836z" fill="#e31836"/>
  <path d="m171.34,66.075c2.531,1.339.006,6.948.611,8.565-4.23-.721-1.21-5.811-.61-8.565z" fill="#e31836"/>
  <path d="m256.38,66.075c1.961-.171 2.225,2.68 1.224,3.671-1.56-.068-1.21-2.049-1.22-3.671z" fill="#e31836"/>
  <path d="m178.07,66.687c2.282-.243.257,3.822 1.836,4.283-1.39,1.746-2.04-2.404-1.84-4.283z" fill="#e31836"/>
  <path d="m311.45,66.687c1.386,5.31-6.939,11.377-10.4,15.907-2.264-.363 2.061-3.81 3.06-4.895-.83-6.945 5.84-6.391 7.34-11.012z" fill="#e31836"/>
  <path d="m240.48,69.746c.515,1.525.802,3.278.612,5.506-1.348.552-2.628-.087-4.895.612-.443,1.871 1.056,1.799.611,3.671-5.565-5.659-17.382-6.988-25.695-5.506 1.912,2.778 9.435-.054 9.789,4.283-4.458.644-11.638-2.73-17.131-1.224-1.715.601.889,1.632-.612,2.447-10.631,2.013-17.039,8.249-20.801,17.13-1.912-1.351-1.712-4.814-3.06-6.729 8.159-10.406 15.934-19.204 29.367-21.414 9.31-1.535 19.58,3.566 31.8,1.224z" fill="#e31836"/>
  <path d="m119.95 69.134c2.844 2.663 6.257 4.755 7.342 9.177-2.61-2.896-5.9-5.106-7.34-9.177z" fill="#e31836"/>
  <path d="m133.41 81.982c-3.894-3.856-7.467-8.032-10.4-12.848 4.53 3.22 8 7.504 10.4 12.848z" fill="#e31836"/>
  <path d="m126.07 69.746c5.059 4.118 9.208 9.146 11.625 15.907-3.83-5.354-7.68-10.681-11.63-15.907z" fill="#e31836"/>
  <path d="m69.783 74.641c-6.038-2.418-12.653-3.599-20.801-2.447 5.67-2.954 17.544-2.371 20.801 2.447z" fill="#e31836"/>
  <path d="m321.24,70.358c3.071,1.692.141,7.298-2.447,7.342-.9-1.997.9-5.825 2.45-7.342z" fill="#e31836"/>
  <path d="m118.73,72.193c1.831-.99 4.427,2.488 4.895,4.895-2-1.26-3.36-3.166-4.89-4.895z" fill="#e31836"/>
  <path d="m290.03,71.582c-1.005,3.686-3.641,5.74-6.729,7.342-.1-2.501 3.94-5.74 6.73-7.342z" fill="#e31836"/>
  <path d="m48.37,72.193c-1.692.959-3.402,1.9-5.506,2.447 .799-1.851 2.868-2.433 5.506-2.447z" fill="#e31836"/>
  <path d="m42.251 72.805c-7.177 4.855-14.148 9.917-20.802 15.295 4.717-7.316 11.869-12.196 20.802-15.295z" fill="#e31836"/>
  <path d="m134.63 75.252c5.928 1.621 9.398 10.993 10.401 19.578-2.95-7.038-4.59-15.386-10.4-19.578z" fill="#e31836"/>
  <path d="m291.26,75.252c-.257,3.414-2.354,4.987-4.895,6.118-.74-2.197 1.95-5.634 4.9-6.118z" fill="#e31836"/>
  <path d="m325.52 75.252c-1.654 2.22-2.056 5.694-4.895 6.73 1.67-2.211 1.52-6.237 4.9-6.73z" fill="#e31836"/>
  <path d="m312.67,75.864c.988-.172 1.054.578 1.836.612-1.99,7.798-8.887,10.691-13.46,15.907 .43-6.505 9.71-9.449 11.62-16.519z" fill="#e31836"/>
  <path d="m153.6 77.088c5.265 4.071 9.644 11.757 8.565 20.189-1.39-8.187-4.77-14.396-8.56-20.189z" fill="#e31836"/>
  <path d="m170.73,77.088c9.678,13.375 16.998,33.874 15.907,58.122-.543,12.074-.98,21.79-4.282,31.203-.946,2.695-1.829,6.674-4.895,7.342 4.32-15.358 9.175-35.405 7.342-55.063-1.52-16.33-9.13-30.203-14.07-41.602z" fill="#e31836"/>
  <path d="m178.07,77.088c1.423.616 1.973,2.106 1.836,4.283-2.44.399-1.75-2.327-1.84-4.283z" fill="#e31836"/>
  <path d="m214.78,78.923c-2.772,1.864-5.589.379-7.342,0 .99-2.258 6.22.167 7.34,0z" fill="#e31836"/>
  <path d="m108.33 78.312c1.97 1.497 1.604 5.33 1.835 8.565-1.08-2.384-1.45-5.48-1.83-8.565z" fill="#8b0f04"/>
  <path d="m157.88 78.923c3.973 4.223 7.531 11.995 6.729 18.966-1.43-7.129-3.85-13.274-6.73-18.966z" fill="#e31836"/>
  <path d="m209.28 81.371c-2.735 2.567-7.246 3.359-10.4 5.506 1.57-3.728 5.48-5.123 10.4-5.506z" fill="#e31836"/>
  <path d="m297.99,83.818c1.171,1.203 3.769,3.13 4.282,0 2.189,1.991-4.051,5.033-5.506,7.341-.137,1.826 2.259,2.081.611,3.671-2.918.063-2.724-2.987-3.671-4.894 2.04-1.432 3.94-3.003 4.29-6.118z" fill="#e31836"/>
  <path d="m191.53,88.101c.325,2.176-2.427,6.535-5.506,7.341 .56-3.726 3.62-4.952 5.51-7.341z" fill="#e31836"/>
  <path d="m164.61,88.712c8.461,12.021 11.579,35.36 8.565,53.227-.823-13.842-.36-33.654-5.506-46.498-1.38.456-.239,3.432-.612,4.895-1.63-3.061-1.4-7.983-2.45-11.628z" fill="#e31836"/>
  <path d="m308.39,88.712c-.787,1.048-1.265,2.406-3.059,2.447 .11-1.721 1.06-2.606 3.06-2.447z" fill="#e31836"/>
  <path d="m198.88,89.324c-.346,1.49-.523,3.147-2.447,3.059 .34-1.49.52-3.147 2.45-3.059z" fill="#e31836"/>
  <path d="m96.09,89.936c.711-.1 1.089.135 1.224.612-.794,6.959-.625,18.133-1.835,22.637v-3.059c-.395-7.32.528-13.333.611-20.184z" fill="#e31836"/>
  <path d="m200.1 92.383c-1.226 1.222-1.787 3.107-3.671 3.671 1.11-1.337 1-3.892 3.67-3.671z" fill="#e31836"/>
  <path d="m308.39 92.383c-2.854 3.061-6.076 5.752-9.789 7.954 1.84-4.074 5.24-6.591 9.79-7.957z" fill="#e31836"/>
  <path d="m301.66,92.995c.356,2.804-2.043,2.852-3.06,4.282-2.52-.978 1.27-3.806 3.06-4.282z" fill="#e31836"/>
  <path d="m75.901,98.501c-2.804,14.86-7.804,35.669-6.118,55.062-2.441-8.48-1.251-21.178 0-31.813-6.242,22.599-1.35,50.684 7.954,67.911-2.864-1.841-4.161-6.121-5.506-9.789-7.378-20.114-9.95-49.033-1.224-70.97 .903,2.754-2.002,6.959-1.224,11.625 2.063-7.31 3.224-15.53 6.118-22.019z" fill="#e31836"/>
  <path d="m239.87,98.501c2.151,2.419 2.26,9.168 1.224,12.848-1.295-1.399.272-2.167-.612-4.283-8.247,15.523-6.276,37.497-14.071,53.228 .86-11.172 5.287-18.777 6.118-29.979-3.166,1.058-.508,5.53-2.447,8.565-1.221-4.811-1.028-9.7 3.059-11.012 .1-11.93 6.07-17.99 6.73-29.369z" fill="#8b0f04"/>
  <path d="m222.74,99.725c2.291,3.941-1.914,11.384-2.447,16.519-1.29-5.17-.03-13.07 2.45-16.515z" fill="#e31836"/>
  <path d="m231.3,99.725c1.36,7.17-3.227,18.462-4.895,26.308-.22-8.18 3.27-17.94 4.9-26.305z" fill="#8b0f04"/>
  <path d="m234.97,99.725c1.715,7.257-2.69,18.9-4.282,26.92 .49-9.9 3.49-17.31 4.28-26.915z" fill="#8b0f04"/>
  <path d="m301.66,99.725c1.888,1.342-.861,3.17-2.447,3.059-.46-2.29 2.34-1.33 2.45-3.055z" fill="#e31836"/>
  <path d="m25.732,102.17c-.899,8.484-2.699,21.364-1.835,33.649-2.504-10.17-1.066-23.91 1.835-33.65z" fill="#8b0f04"/>
  <path d="m257.61,102.17c1.399-.368 2.224,4.234 0,3.671 .05-2.28.68-1.74 0-3.67z" fill="#e31836"/>
  <path d="m30.627,104.62c.504,7.645-1.354,18.221-.612,28.144-2.232-7.9-1.467-20.77.612-28.14z" fill="#8b0f04"/>
  <path d="m279.02,105.23c1.912-.28 1.956,1.307 1.836,3.059-1.92.28-1.96-1.31-1.84-3.06z" fill="#e31836"/>
  <path d="m268.01,108.29c2.533-.086.637,4.257 1.223,6.118-2.53.09-.63-4.26-1.22-6.12z" fill="#e31836"/>
  <path d="m264.34,108.9c2.211-.58.853,2.41 1.224,3.671-1.56-.07-1.21-2.05-1.22-3.67z" fill="#e31836"/>
  <path d="m211.72,110.12c.622.397.633,1.407 1.836,1.224-2.468,5.078-3.267,11.825-4.895,17.743-1.22-7.47 1.76-12.35 3.06-18.96z" fill="#e31836"/>
  <path d="m75.901,111.35c1.588,5.267-1.721,10.917-.612,17.743-2.43-4.08.029-12.71.612-17.74z" fill="#e31836"/>
  <path d="m132.8,111.35c3.138.787 5.043,9.63 0,9.789 .331,5.022-2.442,6.938-4.895,9.177 2.351-5.822-.248-10.831-1.224-16.519 1.079.534 1.894,2.047 2.447,0 1.612.427 1.293,2.785 3.059,3.059-.034-2.209-1.525-2.961-1.835-4.895 2.842.829 3.272,4.069 3.671,7.342 1.94-2.58-.92-5.59-1.23-7.95zm-3.06,7.34c-3.4-8.978 2.529,13.467 1.224,2.447-1.16-1.82-1.02-1.93-1.22-2.45z" fill="#e31836"/>
  <path d="m199.49,111.35h1.836c.442,3.093-.896,4.407-2.447,5.506-2.56-.83.14-3.98.61-5.51z" fill="#e31836"/>
  <path d="m214.78,111.35c.711-.1 1.088.135 1.224.612-2.443,8.365-3.198,18.42-6.73,25.696 .58-9.41 2.81-17.63 5.51-26.31z" fill="#e31836"/>
  <path d="m217.84,111.35c2.948,1.047-.591,5.279-.611,7.342-1.62-1.85.54-5.14.61-7.34z" fill="#e31836"/>
  <path d="m124.23 113.18c3.784 4.218 5.95 17.851 0 21.413 3.16-6.51 2.16-14.6 0-21.41z" fill="#e31836"/>
  <path d="m72.842,116.86c1.904,4.017-1.459,13.169-.612,20.189-2.974-5.79.34-13.8.612-20.19z" fill="#e31836"/>
  <path d="m278.41,116.86c1.271.971 3.255,1.231 4.895,1.835-.294,7.864-5.253,11.062-7.342,17.13 1.73-8.08 1.45-10.64 2.45-18.97z" fill="#e31836"/>
  <path d="m17.779 121.14c1.889 12.183 3.843 24.3 6.118 36.096-3.642-10.43-5.873-22.28-6.118-36.1z" fill="#8b0f04"/>
  <path d="m79.572,126.03c1.419,3.067.21,8.763.612,12.848-1.91-2.72-1.372-9.27-.612-12.85z" fill="#e31836"/>
  <path d="m36.745,130.93c.855-.014.935,5.98 1.224,8.565-1.767-1.5-1.1-5.43-1.224-8.57z" fill="#8b0f04"/>
  <path d="m56.323,131.54c1.148,4.417.639,12.755 1.224,18.966-2.057-4.68-.938-12.53-1.224-18.97z" fill="#8b0f04"/>
  <path d="m283.3,133.37c-.194,2.458-1.105,4.197-3.06,4.895 1.14-1.51.7-4.6 3.06-4.89z" fill="#e31836"/>
  <path d="m31.239,134.6c1.597-1.556-.431,5.703 1.224,6.118-2.088,2.04-.943-4.33-1.224-6.12z" fill="#8b0f04"/>
  <path d="m39.192,157.23c-3.788-5.186-2.99-14.956-4.283-22.637 2.309-.929 1.043,4.27 1.224,5.507 .791,5.42 1.977,12.69 3.059,17.13z" fill="#8b0f04"/>
  <path d="m223.96,135.82c1.689,1.436 1.125,10.801-1.224,12.236-.12-4.6 1.46-7.52 1.22-12.24z" fill="#8b0f04"/>
  <path d="m243.54,136.43c1.149,5.364-3.219,14.275-4.283,20.19-.88-6.59 3.08-13.63 4.28-20.19z" fill="#8b0f04"/>
  <path d="m28.18,137.66c2.675,2.832.538,10.475 1.224,15.295-2.177-3.34-.866-10.15-1.224-15.3z" fill="#8b0f04"/>
  <path d="m37.357 140.72c1.869 2.21 1.463 6.694 1.835 10.4-1.448-2.63-1.161-7-1.835-10.4z" fill="#8b0f04"/>
  <path d="m260.67 141.33c1.429 3.233-1.119 9.027-2.447 13.459-2.96-4.2 1.7-9.15 2.45-13.46z" fill="#e31836"/>
  <path d="m248.43,142.55c-1.732,10.505-8.007,21.767-12.236,31.813-2.871-1.173-1.466-5.682-1.224-8.565 1.964-.536 1.269,1.587 2.447,1.836 4.62-7.42 7.1-16.97 11.01-25.09z" fill="#8b0f04"/>
  <path d="m286.36,143.78h2.447c.073,3.948-2.909,4.84-3.671,7.953-2.9-1.75.9-5.55 1.22-7.95z" fill="#e31836"/>
  <path d="m30.627 148.06c1.295 2.987 1.558 7.008 1.835 11.013-1.696-2.59-1.936-6.63-1.835-11.01z" fill="#8b0f04"/>
  <path d="m282.08 148.67c-2.241 4.896-2.705 11.569-7.342 14.071 2.97-4.16 1.51-12.77 7.34-14.07z" fill="#e31836"/>
  <path d="m213.56,149.89c1.495.605 1.644,3.727-.612,3.67 .91-1.86-.21-2.38.61-3.67z" fill="#8b0f04"/>
  <path d="m56.935 151.12c2.27 2.625 1.545 8.244 3.059 11.625-2.729-2.16-2.102-7.69-3.059-11.62z" fill="#8b0f04"/>
  <path d="m39.192,151.73c.966,1.277 1.269,3.218 1.224,5.506-.966-1.28-1.269-3.22-1.224-5.51z" fill="#8b0f04"/>
  <path d="m283.92,152.95c1.74.816-.472,2.721-.611,3.671-1.78-.85.17-3.02.61-3.67z" fill="#e31836"/>
  <path d="m252.1,173.14c-1.768-3.09-.957,2.33-3.671,1.836 2.082-6.891 5.117-12.829 7.953-18.967 2.78,5.26-5,11.73-4.28,17.13z" fill="#e31836"/>
  <path d="m260.06,162.74c-.777,2.893-2.929,4.413-3.671,7.342-1.729.506-1.585-.862-3.059-.612 .98-3.5 3.64-5.33 6.73-6.73z" fill="#e31836"/>
  <path d="m274.13,163.35c1.41.863-.045,3.985-1.835,3.671-.04-1.86 1.28-2.38 1.83-3.67z" fill="#e31836"/>
  <path d="m265.56,173.14c2.171,2.894-3.972,7.776-6.73,9.789 .8-4.7 4.93-6.09 6.73-9.79z" fill="#e31836"/>
  <path d="m42.251 186.6c3.254 1.955-2.922 3.082-3.059 5.507-2.424-2.87 1.887-4.21 3.059-5.51z" fill="#e31836"/>
  <path d="m84.466,196.39c1.118,1.554 2.3,3.407 1.224,5.506-1.683-.764-1.312-3.582-3.059-4.282-1.963,1.509 2.32,4.137 0,6.118-3.309-.91-3.474-8.47 1.835-7.35z" fill="#e31836"/>
  <path d="m95.479,203.73c.229,1.402 2.447.815 3.059,1.835-1.168,1.623-5.592.981-7.342,2.447-.412-3.26 4.55-1.16 4.283-4.28z" fill="#e31836"/>
  <path d="m138.92 212.3c-1.826-2.465 3.94-2.564 4.282-4.895 2.02 2.66-3.25 3.26-4.28 4.9z" fill="#e31836"/>
  <path d="m172.57,182.93c-2.76,1.931-4.318,5.063-5.507,8.565 .544,1.468 1.863-1.33 1.836-2.447 1.632,1.279-1.524,2.922-1.224,4.895-3.448-.299-2.103,2.388-5.507,3.059-8.35,13.444-18.692,24.226-37.932,25.696-9.727.744-16.35,5.641-26.308,6.73-9.038.988-18.969-.65-27.531-1.836-7.106-.984-17.282-5.436-23.249-9.177-8.41-5.272-18.659-14.817-26.308-23.861-10.21-12.06-15.588-26.64-18.972-44.66-4.977-26.506.122-53.961 13.459-71.582 7.562-9.991 27.994-23.562 40.379-25.084 8.675-1.066 20.218,3.905 29.979,2.447 .664-.151.415-1.216 1.224-1.223 .327-2.367-1.092-2.987-.612-5.506 2.835-1.154 6.949-1.784 9.789-1.224 1.247,2.269-.476,3.582-1.224,5.506 1.54,1.093 3.199-1.784 4.895-2.447 12.883-1.754 30.194-1.982 41.604,3.671 1.046.026 1.584-.455 1.835-1.224 1.62,4.585 8.433,1.739 9.789,5.506 3.941.067 2.526-5.224 6.118-5.506 3.188,2.637-.399,8.662 3.059,10.4 1.187-.853.913-3.167 1.836-4.283 2.091.25.777,1.652 3.059.612 1.544,2.716-2.013,6.713 0,9.789 2.833-1.337 1.008-6.686 1.836-8.565 1.861.586 3.659,1.235 5.506,1.835-1.086,4.677-2.322,9.513.612,12.236 1.531-3.053 2.141-7.11 1.224-11.013 1.279-.352 1.746-1.517 3.671-1.224 3.462,4.588-.829,13.143 4.282,15.907 2.898-.569 4.236-2.698 6.118-4.283-.901-3.993-2.999-6.79-3.671-11.013 3.807,1.292 2.49,7.707 4.895,10.401 1.406-.633 2.815-1.264 3.671-2.447-.663-3.15-5.48-4.93-3.671-8.565 2.624,1.659 2.342,6.223 4.895,7.954 4.539-1.203-.854-4.192 0-7.342 2.01,1.253 2.049,4.477 3.671,6.118 .905-.318 1.542-.905 2.447-1.224-.191-2.46-2.88-2.422-2.447-5.506 1.872.779 1.799,3.503 3.671,4.283 2.813-1.387-1.816-3.729-1.224-6.73 2.679.788 1.418,5.516 4.895,5.506 1.24-5.044-5.426-12.423-7.954-17.742-4.317,2.635 4.182,7.29.612,9.177-2.346.111-.222-.5-.612-1.835-2.518.133-1.706,3.596-5.506,2.447-.833-1.614-.723-4.171-1.224-6.118-3.374-.519-.79,4.92-2.447,6.118-1.927-4.046 1.803-9.682 0-12.236-3.464,2.042-1.466,9.547-4.282,12.236-.452-2.899.688-4.206.611-6.729-2.254.601-1.661,4.048-1.835,6.729-1.924,1.622-2.582-1.728-4.895,0-.037-2.28.616-3.87 1.224-5.506-3.42.048-2.271,4.664-6.118,4.283 2.415-4.314 6.516-6.944 9.177-11.012-4.81-.247-6.52,7.7-11.624,9.177 1.024-3.462 4.674-4.299 6.118-7.341 .455-1.883-1.68-1.176-1.224-3.059-1.757.283-3.371.708-3.671,2.447 .067,1.498 2.022.13 1.835-.612 .87,2.114-3.342,4.393-4.282,6.73-1.916-.328-2.205-2.282-2.447-4.283 2.925-2.582 6.469-4.544 9.177-7.342-5.276-.382-5.663,4.125-10.4,4.283 2.921-4.632 8.016-4.297 11.624-7.342-4.413-.978-10.229,4.628-14.684,3.671 .375-4.448-1.359-7.259 1.224-9.177-.116-.496-.613-.61-.611-1.224-5.019-1.295-14.995.715-15.907,7.342 2.782-.48 3.571-2.955 6.729-3.059 .373,2.819-2.712,2.183-3.671,3.671 .424,1.918 1.633.797 3.06.612-.108,1.931-.43,3.649-2.447,3.671 .166,2.145 2.709-1.105 2.447.612-.327,2.639-2.282,1.324-4.282,1.224-1.68,1.32.608,2.81-.612,4.283-2.52-.48-3.14.939-5.506.612 .999-2.01.529-3.007-1.224-3.671 1.361-12.506 7.978-19.758 16.519-25.084 .821-.402 1.14-1.308 1.224-2.447 5.73.428 9.101-1.504 10.4-5.506 7.723-1.658 13.572-5.19 21.413-6.729-.16-3.206.47-5.635 1.82-7.341h4.895c-2.245,8.67-13.788,26.095-3.06,35.485 .762-1.602-1.938-4.976-2.447-7.342 1.411-.187.68,1.768 1.836,1.835 1.722-1.794-.965-2.631-1.836-3.671 .027-9.354 3.095-15.668 7.342-20.801-.484-3.541.936-6.349 3.671-4.895-.253,2.601-1.738,3.971-2.447,6.118 5.671-.897 16.518-3.651 25.085-1.835 2.397,2.701 6.307,3.889 9.788,5.506 5.063-3.738 13.697-12.197 22.025-6.73-8.665.104-13.585,3.954-17.742,8.565 .151.664 1.217.415 1.224,1.224 6.604-4.395 15.576-9.042 25.084-8.565 .242-1.466-2.787.339-1.835-1.835 13.199-3.688 21.751,6.412 28.755,12.848 2.534.334 2.071-4.353 4.282-2.447 .233,2.273-2.479,1.599-1.835,4.282 4.5.014 6.872-2.1 9.789-3.671-.045-2.601-.768-3.971 0-6.118 3.549.938 8.042.93 10.4,3.059 .863,6.519-3.72,7.649-6.118,12.236h-5.506c4.474,5.811 12.965,6.286 18.354,11.013 2.701,2.369 3.198,6.05 6.73,7.342 2.093,5.657 3.937,11.562 4.895,18.354-.714,1.734-.849,4.046-2.447,4.895 .18,1.248 1.655,1.2 1.835,2.447-2.078,19.403-16.079,31.444-26.92,44.05-3.326-.064-2.867,3.658-6.729,3.059-2.27,24.917-9.602,49.9-24.473,64.24-.549,2.51-1.871,4.246-3.059,6.118-1.522-.067-1.894-1.146-3.06,0-7.68,13.765-31.655,12.266-50.779,14.071 .323-.492.638-.993.611-1.836-18.309,3.47-29.82-13.684-39.768-24.472-1.446.797-1.18,3.307-1.835,4.895-3.5-.849-3.9,1.402-6.118,1.835 1.487,3.462-1.211,6.558-3.671,7.954 .74-1.53 2.47-2.05 2.48-4.28zm9.79-37.93c6.483-38.522-11.281-73.492-34.873-87.489-5.811-.924-11.57-5.147-17.131-4.282 4.289.288 7.85,6.05 12.236,7.341 1.017.3 1.578-1.054 2.447-.612 12.372,6.292 24.763,27.608 29.366,42.215 .971,3.079 2.878,9.274 3.06,12.236 .025.417-1.208,1.986-1.224,2.447-.394,11.122 2.546,23.829-2.447,35.485-.064-2.949 2.014-8.791 0-9.789-1.401,11.651-5.052,24.313-10.401,29.979 4.004-7.826 8.511-18.407 8.565-28.144-4.822,19.243-12.555,35.574-26.308,45.886 10.031-4.113 16.535-10.982 22.637-20.189-.353.371-1.432,2.902 0,3.059 6.784-10.229 8.786-28.212 10.401-41.603 1.324,15.279-4.097,24.366-5.507,34.873 1.965-4.154 4.447-7.79 5.507-12.849-1.059,21.171-11.791,32.668-20.802,45.886 14.63-10.97 20.98-33.88 24.45-54.46zm34.87-88.102c.797-3.652-1.931-3.78-1.836-6.729-3.241,1.386-2.93-1.689-6.729-1.224 .076,1.531 1.168,1.915-.612,2.447-1.471-2.362-2.525-.442-3.059,1.223-1.522-.924-.847-4.047-2.447-4.894 2.151,9.218 6.475,21.463 20.189,19.578-1.259-3.636-2.352-7.437-5.506-9.177-.559,2.231 2.657,3.814.611,5.506-1.015-3.887-4.423-8.618-3.671-12.236 1.33,1.533 1.04,4.68 3.07,5.506zm55.67-47.721c5.951-1.056 7.389,2.4 11.625,3.059-2.188-4.95-7.458-6.818-14.072-7.342-.4,2.653 3.08,1.409 2.45,4.283zm-72.19,1.836c-1.793,4.47-6.812,13.272-1.835,17.13-.508-6.218 1.099-10.322 3.059-14.072 6.756-1.07 14.887-7.093 20.19-2.447 12.8,1.312 22.878,10.537 28.755,20.802 .796,1.243 2.617,1.461 3.671,2.447-2.415,4.504 4.799,8.737 3.671,15.907 2.662,2.439 3.322,7.702 3.671,12.848 .18,2.662-2.192,7.445 1.835,7.342 5.15-37.734-23.11-73.066-63.01-59.957zm65.46-.612c2.288.045 4.229-.257 5.506-1.224-1.11-.803-5.18-.647-5.51,1.224zm-11.01,5.506c3.988-1.519 7.816-3.196 10.401-6.118-5.26.241-7.56,3.448-10.4,6.118zm-91.77,7.953c5.859.478 9.437-4.323 14.684-2.447 1.292-.544 1.062-2.608 3.06-2.447 2.129.318 1.218,3.676 4.282,3.059-.091-2.652-.979-4.235 1.224-5.506 1.051.785.013,3.659 1.836,3.671 .874-2.708 4.553-8.053 2.447-9.789-9.52,4.147-20.61,6.717-27.53,13.459zm129.7,0c1.012.824 2.106,1.564 2.447,3.059-6.149.989-10.69,3.586-15.296,6.118 4.093,1.417 4.248.59 7.342-1.224-8.725,12.978-24.104,20.226-20.801,40.379 5.044-4.54 10.105-9.064 14.071-14.684-5.607,1.531-6.34,7.937-11.625,9.789 10.02-11.747 16.554-30.821 30.591-37.932-5.868,5.552-11.259,11.582-15.907,18.354 8.771-2.243 10.803-14.484 17.743-16.519-5.611,9.073-14.934,14.434-18.967,25.084 4.189-3.153 7.596-7.088 11.013-11.012 .494,2.279 3.734.119 3.671-1.835-.067-2.167-2.022,1.3-1.835-.612 2.271-5.071 6.264-8.419 9.177-12.848 2.983,4.493-2.83,7.896-1.835,10.401 3.941-.749 3.286-6.095 5.506-8.565 2.218,1.453.811,6.531 3.671,7.342 .859-2.141-1.716-3.917 0-4.895 4.713,2.394 9.476,7.365 13.46,10.401v4.283c1.576,1.073 2.94-.635 3.671,1.835-.371,1.056-2.902-.047-3.06,1.224 2.461,5.696-2.559,9.754-.611,15.295 4.056-2.911 1.65-11.852 3.671-15.295 8.107,25.874-13.902,40.559-26.92,53.227-.137-1.157.689-1.35.612-2.447-4.119.354-3.997,4.765-2.447,7.954 17.785-12.699 40.324-31.406 30.59-60.569-2.899-6.478-5.858-12.631-11.624-16.519-7.061-4.761-15.878-7.116-22.637-12.848-3.905-3.311-6.372-7.496-11.013-9.789-.263,1.165-1.318,1.537-1.224,3.059 .43,1.813 3.517.97 3.671,3.059-2.345,2.074-.864.981 0,3.671-3.338.687-3.427-1.875-5.507-2.447-2.857.405-5.371,1.154-6.729,3.059 2.183.707 4.201-1.852 4.895-.612-.257,2.191-3.556,1.339-3.671,3.671 2.542.272 5.278-2.435 7.342-.612-4.872.234-9.188,4.263-11.013,5.506-.011-.896 2.58-1.939 0-1.835-4.669,2.876-8.335,6.756-10.4,12.236 4.281-1.435 6.312-8.364 9.788-8.565-2.766,4.219-9.336,7.726-8.564,13.46 9.97-9.566 13.14-20.454 28.76-20.795zm-32.42-7.341c1.892-.759 3.793-1.509 4.895-3.059-2.238-.403-2.348,1.324-4.283,1.224 .002-.34-.495-.695-.611,0 1.04.25-.13.788 0,1.835zm46.49,2.447c2.362-.198 6.094-3.771 3.059-5.506-.35,2.503-3.27,2.438-3.06,5.506zm-97.27-1.224c2.762.111 4.705-.597 5.506-2.447-1.15-2.571-5.69-.137-5.51,2.447zm39.77.612c2.363-.492 2.72-2.99 4.282-4.283-2.58.123-5.13,2.676-4.28,4.283zm24.47-2.447c2.36-.087 5.373.478 6.118-1.224-2.83.317-5.27-1.711-6.12,1.224zm26.31,3.671c-.307,2.55 1.55,2.937 3.671,3.059-.442-1.869.625-2.229.611-3.671-1.63.006-3.5-.231-4.28.612zm-34.88,5.506c2.733-1.141 5.162-2.587 6.729-4.895-3.3.57-5.56,2.186-6.73,4.895zm-53.84-1.224c1.441.014 1.802-1.054 3.671-.612 .03-2.695-3.8-.664-3.67.612zm58.12,2.448c2.355-.091 3.521-1.374 4.282-3.059-2.18.262-3.35,1.536-4.28,3.059zm-70.96,3.671c2.089-.97 4.074-2.043 4.895-4.283-.137-.475-.017-1.207-.612-1.224-2.08,1.195-3.65,2.893-4.29,5.507zm7.34-1.836c2.889.034 3.477-2.233 4.895-3.671-2.89-.025-3.08,2.644-4.9,3.671zm-47.72,0c1.036.963 3.532-.063 3.06-2.447-1.5.346-3.15.524-3.06,2.447zm118.07,4.283c4.843-1.281 11.504-3.988 12.849-6.73-3.93,2.595-10.41,2.637-12.85,6.73zm-97.89-2.447c-.04-2.431-3.856-4.27-5.507-3.059 2.42.44 3.48,2.236 5.51,3.059zm50.78,2.447c.23-3.155-2.857-6.864-6.117-6.118-3.113.712-4.848,14.078-11.013,12.236 .441,1.87-.626,2.229-.612,3.671 6.76,4.865 11.296,11.953 14.072,20.801-2.08-1.165-2.678-6.448-5.507-4.895 2.206,4.32 2.275,10.776 9.789,9.789-1.164-6.709-3.152-12.271-6.118-17.13-1.715-2.81-5.925-6.122-3.671-9.177 2.166,1.301 2.48,4.454 4.895,5.506 .135-3.805-2.924-4.418-3.671-7.342 2.62-2.542 7.7-3.841 7.95-7.341zm-61.18-1.836c2.329.526 4.054,1.657 7.342,1.224-.244-4.436-4.983-1.672-6.729-3.671 .14,1.157-.68,1.35-.61,2.447zm93.61,4.283c.02-1.456 3.134-2.918 1.224-4.283-.39,1.081-3.01,3.036-1.22,4.283zm-94.83,0h6.118c-.195-2.66-3.342-2.368-5.506-3.059-.51.71-.81,1.64-.61,3.059zm20.19,4.283c-2.581.274-6.645-.934-6.73,1.835 .506.066 4.918-1.177 7.954-.612 1.906,3.827 7.95,3.252 10.4.612 .473,1.567.61,3.468 1.835,4.283 1.461-.987-.495-5.39 1.836-5.506 1.167.261 1.106,1.748 3.059,1.224-3.273-3.001 2.63-3.267 1.224-5.506-1.883,1.962-3.202.643-1.835-1.835-3.573.709-4.885,3.68-7.954,4.895-4.541-.354-5.131-4.658-7.953-6.73-2.27,2.091-1.57,5.079-1.83,7.34zm20.19-5.507c1.81-1.339 6.183,1.693 6.729-1.835-2.57.283-5.7.012-6.73,1.835zm57.51,12.237c-.241,4.32.594,7.564 3.06,9.177 2.661-6.923 7.728-11.441 11.012-17.742-4.047,2.274-5.928,6.716-9.177,9.789-.012-5.376 7.871-7.99 9.789-13.46-8.12.538-7.82,12.441-14.68,12.236zm-17.74-7.954c.011-2.254-1.782-2.704-3.06-3.671-.82,1.125.14,4.384 3.06,3.671zm-80.76,2.447c2.647-.004 3.882-1.42 6.729-1.224-1.541-2.637 1.154-.758 1.224-3.059h-5.506c-.453,2.084 2.254,1.008 2.447,2.447-2.28.848-4.56.343-4.89,1.836zm88.1,4.895c.779-3.453-1.433-6.957-4.283-8.565-.69,2.696 1.37,7.465 4.28,8.565zm50.78-3.671c.477.135.711.512.611,1.224 2.807.155 1.467-3.835 3.059-4.895-.781-.034-.847-.784-1.835-.612-.35,1.684-1.52,2.556-1.83,4.283zm11.62,1.224c-.014-2.638-.596-4.707-2.447-5.506 .19,2.47.54,4.773 2.45,5.506zm-108.29,4.894c-.641-1.604-1.941-2.546-3.06-3.671-1.68,1.753 1.5,5.166 3.06,3.671zm84.43,11.624c4.441-3.719 10.46-9.113 10.4-15.295-4.26,4.301-8.25,8.88-10.4,15.295zm-9.79,3.059c-1.028-2.172 2.071-4.929-.612-4.895-3.447,5.934-10.055,8.707-12.848,15.295 5.159.405 8.339-9.559 12.848-9.789-2.879,3.646-6.634,6.418-9.177,10.401 .61.817 1.653,1.202 1.835,2.447 7.612,1.178 8.812-10.211 12.236-15.295 4.075-6.051 10.754-10.755 12.236-15.907-6.76,4.663-9.67,13.166-16.52,17.743zm15.91-1.835c3.885-3.652 10.238-10.702 8.565-15.907-2.21,5.95-6.14,10.174-8.57,15.907zm11.01-9.177c2.761-.095 1.837-3.875 2.447-6.118-.782-.034-.847-.784-1.835-.612-.9,2.695-1.21,3.6-.62,6.73zm-61.18,9.177c-1.066-4.297-2.963-12.898-8.565-14.683 1.11,6.634 6.72,8.78 8.56,14.683zm-53.84-9.177c2.131.336 2.609-4.103.611-4.283-.88,1.532-1.48,2.403-.61,4.283zm55.07.612c.419-2.662-1.101-3.386-2.447-4.283-1.22,1.521 1.08,3.452 2.45,4.283zm-11.63-3.059c-1.475.25-1.33-1.118-3.06-.612-1.08,2.737 3.24,2.2 3.06.612zm-150.5,1.835c1.449,2.612-1.409,6.166 3.059,6.118 .749-2.788-1.678-2.4-1.224-4.894 1.883-.36 4.331-.157 4.283-2.447-1.946.5-4.504.39-6.118,1.223zm146.22,1.224v-2.447c-2.815.704-3.65,1.695-6.117,0-.18,3.629 3.85,2.805 6.12,2.447zm-51.39,3.67c.333-.811 2.793-4.207 0-4.282 0,1.092-1.65,3.559 0,4.282zm51.39-1.223c9.587,3.967 10.824,20.381 6.73,31.202 1.084.547.779,2.483 3.059,1.835 .479-5.851 1.757-11.247 3.671-15.907-.375-.848-2.354-.092-2.447-1.224-.137-2.778 1.968-3.777 3.671-6.118-1.437.195-2.296.967-4.282.612 .188-1.442 2.124-1.138 1.835-3.059-2.398-.386-3.927-2.652-2.447-5.506-3.75-.949-6.65-7.077-9.79-1.835zm25.08,8.565c-1.072-4.027-.398-9.798-4.283-11.012-1.26,4.039-.72,11.23 4.28,11.012zm-166.41-2.447c-.39-2.261.792-6.094-.612-7.341-1.913,6.73 1.297,12.066-.611,18.966 2.981-.077-.503-6.621 3.059-6.118 .16,1.791-1.383,1.88-1.224,3.671 2.408.98.213-2.642 1.835-2.447 .806,1.896-1.813,3.394 0,4.283-.033-1.053.471-1.568 1.224-1.835-.061,1.896.277,3.394 1.224,4.283 .615-.813.579-2.276 1.835-2.447 .133,6.393 8.053,1.156 6.73-1.224 3.782.713 8.751-2.662 11.013-5.506 6.238-.312 9.708-1.005 14.072-.612-7.384-4.702-21.209-.066-25.696,1.835 3.084-3.85 9.3-4.567 15.295-5.506-7.459-1.477-13.468,2.507-18.966,4.895 3.508-3.426 7.46-6.407 14.684-6.118-5.659-3.545-11.698,2.931-15.907,4.895 1.828-4.698 8.356-4.695 12.236-7.342-2.059-.386-4.46,2.011-5.506.612 .987-.848 3.154-.517 3.671-1.835-5.023-2.023-8.494,1.86-11.625,3.671 .697-2.362 3.813-2.305 4.895-4.283-5.155,1.72-7.672,2.423-11.599,5.503zm146.84,6.118c-.664-6.27-3.631-10.237-9.789-11.013 2.4,4.151 3.06,15.083 9.79,11.013zm-158.46.612c.108-3.924.43.608 2.447,0-1.716-3.79-3.813-7.2-7.342-9.177-.808,1.531 2.419,1.916.612,2.447-1.368-2.003-5.06-4.242-6.118-3.059 4.558,2.172 7.28,6.18 10.401,9.789zm-50.168,3.671c2.863-4.07 9.538-4.33 14.072-6.73-19.371,1.731-35.295,21.512-40.992,40.99-2.139,7.313-3.188,19.996-1.224,26.308-2.038,9.336 2.352,22.409 6.73,29.366-.483-4.615-1.899-8.298-2.447-12.848 .809.007.559,1.072 1.224,1.224-3.611-15.861-2.369-43.079 6.729-56.286-.57,2.592-1.721,4.337 0,6.118-8.274,9.547-7.503,33.971-1.835,45.886-5.472-17.79-3.683-39.58 7.342-50.169-9.252,10.792-13.263,36.093-4.895,50.78-2.407-9.58-5.973-24.051-1.224-33.649 .224,4.141-1.185,8.605-1.224,13.46-.067,8.427 1.5,18.782 5.506,21.413-4.122-13.302-6.015-26.013-.612-39.768-4.507,19.086-.753,43.735 8.565,57.51-.858-3.23-2.89-8.517-1.835-11.624 .307,3.16.815,6.119 2.447,7.953-3.375-18.289-4.503-44.987 2.447-62.404-4.669,17.317-5.317,50.904 1.224,69.135-.491-5.205-2.704-9.271-1.224-13.46 .422,5.695 2.135,10.102 4.283,14.071 .878-2.749-2.081-4.806-.612-6.118 2.031,1.247 1.707,8.062 4.283,6.73-3.024-7.334-7.37-18.63-5.506-26.92 1.378,11.266 3.388,21.9 8.565,29.367-4.692-13.052-9.642-29.105-7.954-46.498-.095,2.97.032,4.566 1.224,1.835-1.217,16.792 2.317,29.246 6.118,39.768 1.829,5.062 2.904,10.779 6.73,12.848-2.965-5.808-6.951-13.847-7.342-20.189 2.969,6.208 5.071,13.283 8.565,18.966-5.62-15.375-10.935-33.683-8.565-52.615 .661,7.904.153,16.978 2.447,23.249-.097-7.075-1.563-14.369 0-22.025 .974,14.784-.061,28.479 6.118,38.544-1.984-7.732-3.773-16.078-4.283-25.084-.239-4.218-1.137-11.83 1.224-14.684-.617,15.135 1.27,32.962 6.73,44.05-2.697-13.632-7.213-28.193-4.283-42.826 .173,19.2 2.735,36.013 9.177,48.944-3.247-13.681-8.711-28.404-6.729-45.273 2.107,16.858 3.055,34.877 9.789,47.109-3.737-14.233-9.174-33.213-5.506-50.78-.31,15.197.134,29.641 4.895,39.768 .335-.89-.715-3.162.612-3.06 1.191,2.888.797,7.36 3.671,8.565-3.151-10.086-5.403-21.005-5.506-31.813-.184-19.306 9.535-37.005 15.295-49.557-7.835,9.907-12.515,22.97-16.519,36.708 1.345-15.787 10.009-27.515 15.295-37.32-.171,1.257-1.634,1.221-2.447,1.835 .174-2.096 5.22-2.494 3.059-4.895-9.193,7.733-14.709,19.144-19.578,31.202 2.397-14.122 9.17-23.868 18.354-31.202-14.513,4.249-18.542,18.982-24.472,31.814 2.554-9.097 6.005-18.537 11.012-24.473 2.254-2.672 7.311-4.655 6.118-6.729-6.598-1.312-16.577,11.399-21.413,19.578 3.248-8.784 9.961-14.104 15.907-20.189-9.122,4.541-14.044,13.283-20.189,20.801 3.314-5.613 6.153-11.331 11.013-15.907 3.644-3.431 10.802-4.338 11.012-9.789-1.029.447-3.511,2.542-4.283,1.224 2.172-.887 4.766-1.353 6.118-3.059-4.07.229-6.63,2.769-8.565,1.835 .18-1.248 1.656-1.2 1.835-2.447-7.84-1.419-15.314,4.556-21.413,8.565 3.942-5.032 10.38-7.566 16.519-10.401-22.89,3.016-30.671,26.427-29.979,55.063-1.826-12.312.198-23.231 1.835-31.814-1.989,4.333-2.878,9.766-4.283,14.684 1.663-16.553 11.586-34.329 26.308-38.544 13.116-3.755 26.127.528 35.485,6.73-.278,3-4.005,5.764-2.447,8.565 1.215-1.843.923-5.195 3.059-6.118 .486,4.982-3.743,8.481-1.835,12.848 1.512-4.198 1.379-10.041 4.283-12.848-1.105,5.269-4.493,14.607-1.224,20.189-.207-8.933.417-13.725 3.059-20.189-1.825,12.445-3.162,31.8-.612,41.603 .322-15.717-.889-29.271 2.447-41.603-.805,6.669-1.192,15.167-1.224,20.801 3.185-5.176-.72-17.443 3.671-21.413-.472,3.821-1.393,10.423 0,14.071 1.728-4.874-1.23-10.645 1.835-14.071 .412,3.195-.225,10.282-.611,14.683 2.851-1.292.186-12.121 3.059-15.295-.295,1.927 1.878,1.385 1.224,3.671-2.378-.109-2.434,5.28-1.224,6.729 2.305-.822.879-8.838 3.059-11.624 .364,1.268-.756,4.019.612,4.283 1.72-.728-.897-5.792 1.835-5.506-1.194,15.3-.514,36.423.612,53.839 2.359-14.063-2.504-38.411 1.224-52.615 .364,1.268-.756,4.019.612,4.283 1.118-1.421-1.195-4.95.612-6.73 1.234,2.641.252,7.498 1.835,9.789 2.16-2.814-1.202-7.989.612-10.4 .601,2.663.707,5.82 1.835,7.954 .352-1.076-.739-3.595.612-3.671-.216,4.149 1.521,9.545 1.224,10.4 .609-1.755-.937-4.213.612-6.729 .084,1.139.402,2.044 1.224,2.447 1.577-4.417-.29-8.015.612-12.236 1.002,3.28 1.167,7.398 2.447,10.401 .798-5.497-3.349-9.285-1.224-14.072 .793,1.858.396,4.906 1.835,6.118 .452-2.722-2.079-5.635-.612-7.342 .161,1.709 1.151,5.736 1.835,4.895 .107-1.779-2.149-4.322-.612-5.506 .175.915.787,4.42 1.835,2.447 .36-1.366-.931-3.84.612-4.895 .86.812.848,5.624 1.835,4.283 .164-2.203-1.13-2.949-1.224-4.895 .544-1.292 2.608-1.062 2.447-3.059-13.479,4.161-21.439,17.642-40.991,14.072-7.049-1.287-12.415-6.573-18.966-7.342-25.002-2.934-35.112,17.091-44.662,35.485 2.301-12.383 12.593-20.036 17.131-28.143-6.16,4.445-11.328,9.881-16.519,15.295 2.231-5.195 4.5-7.004 3.671-9.177 5.1-6.729 12.197-11.46 19.578-15.907-5.415-.862-10.41,7.078-15.295,6.73 9.139-8.116 27.681-15.885 42.827-12.848 1.744.35 4.5,3.683 6.118,1.224-4.183-1.935-9.264-2.972-14.684-3.671 6.248-1.396 11.069,1.308 15.907,3.059-12.277-12.507-32.451,1.278-42.806,4.898zm29.978,65.46c2.139-15.807 6.248-29.645 12.236-41.603-13.705,17.848-19.465,58.044-6.118,80.759-1.622-11.445-8.821-23.787-4.895-36.708-.008,15.376 2.875,29.694 8.565,40.992-10.212-24.627-6.895-57.323 1.224-80.147-5.397,10.507-6.571,25.247-11.012,36.707zm11.013-74.638c-.34.002-.694-.496 0-.612 1.986.666 2.531,2.771 4.283,3.671-1.16-4.143-4.307-6.297-8.565-7.342-7.858,1.089-23.835.491-26.308,6.73 7.657-5.946 22.159-4.864 30.59-2.447zm13.46,4.895c-.485-2.996-2.568-7.611-4.895-6.73 2.385,1.491 2.521,5.229 4.895,6.73zm2.447-5.506c1.735,2.531-.066,11.096 1.224,14.072 4.363-3.639-.423-11.175 1.835-15.295-1.518-.091-2.969-.115-3.059,1.223zm208.01,9.177c1.437-.195 2.297-.966 4.283-.612-4.418,3.74-5.731,10.584-12.236,12.236 .106,4.176 3.184,5.381 6.118,6.73 2.407-5.546 6.148-9.758 9.177-14.684-4.75,2.184-5.602,8.266-11.013,9.789 2.366-8.895 13.978-13.853 10.401-23.249-1.75,3.758-5.26,5.757-6.73,9.79zm-133.98-4.895c-1.124-1.146-3.11-4.604-4.895-3.059 1.87.395 3.06,4.645 4.89,3.059zm3.05,1.836c.807-.987 1.321-5.39-.612-5.506-.8.987-1.32,5.39.61,5.506zm66.69,0c1.388-1.834-.401-4.58-1.835-5.506 .25,2.197.15,4.739 1.83,5.506zm95.44,3.059c1.762.024 3.798-5.153 1.224-5.506 .31,2.55-1.78,2.698-1.22,5.506zm-77.08-3.059v2.447c2.556.138 2.89-.995 4.895,0-.001-2.243.238-4.725-2.447-4.283-.34,2.026-.52,2.664-2.44,1.836zm29.97,9.789c5.384-1.147 8.928-7.381 9.178-11.625-2.51,4.421-7.66,6.21-9.18,11.625zm-236.76-4.895c7.526-3.828 22.506-1.942 27.531-.612-4.885-9.062-24.618-5.892-31.202,0 6.765-3.917 21.353-6.712 28.755-1.224-6.987-2.778-20.214-2.764-25.084,1.836zm128.48,2.448c-.605-1.618 1.92-7.226-.611-8.565-.61,2.753-3.63,7.843.61,8.565zm85.65-4.895c1.001-.991.737-3.842-1.224-3.671 0,1.622-.35,3.603 1.22,3.671zm-77.7,1.224c-1.579-.461.446-4.525-1.836-4.283-.2,1.879.45,6.029 1.84,4.283zm124.2,6.73c-.999,1.085-5.323,4.532-3.06,4.895 3.461-4.53 11.786-10.598 10.4-15.907-1.5,4.62-8.17,4.066-7.34,11.012zm-95.45-9.178c-13.434,2.21-21.208,11.007-29.367,21.414 1.348,1.916 1.147,5.378 3.06,6.729 3.762-8.881 10.17-15.118 20.801-17.13 1.501-.815-1.103-1.847.612-2.447 5.493-1.507 12.673,1.867 17.131,1.224-.354-4.336-7.877-1.505-9.789-4.283 8.313-1.482 20.13-.153 25.695,5.506 .444-1.872-1.055-1.8-.611-3.671 2.267-.699 3.547-.06 4.895-.612 .189-2.229-.098-3.981-.612-5.506-12.21,2.342-22.48-2.759-31.81-1.224zm-81.37,9.79c-1.084-4.422-4.498-6.515-7.342-9.177 1.44,4.07 4.73,6.28 7.34,9.177zm10.4,7.341c-2.417-6.761-6.565-11.789-11.625-15.907 3.96,5.226 7.81,10.553 11.63,15.907zm-14.68-16.519c2.933,4.816 6.507,8.992 10.4,12.848-2.4-5.344-5.87-9.628-10.4-12.848zm-74.029,3.059c8.148-1.151 14.764.029 20.801,2.447-3.256-4.817-15.13-5.4-20.801-2.447zm269.81,5.507c2.588-.043 5.519-5.649 2.447-7.342-1.55,1.517-3.35,5.345-2.45,7.342zm-68.52,64.85c-.056-.965-1.561-.479-1.224-1.836 3.935-13.798 7.361-27.391 4.895-42.215 .873-.146 1.032-1.007 1.836-1.224 .857,1.513 2.107,1.08 3.671.612-.03,1.865.556,3.115 1.835,3.671 .364-1.268-.756-4.019.612-4.283 3.586,1.9 6.341-2.341 7.953,1.835 .806-1.896-1.813-3.394 0-4.283 6.895.369 9.862-3.189 15.295-4.282 6.913,5.074 12.164,22.665 8.565,34.873-.05.168-1.18-.629-1.224-.612-.756,1.979 1.979.467 1.224,2.447-.873-.239-1.031-.734-1.835,0 2.148,20.159-10.647,35.803-19.578,48.945 .369-2.282 2.301-3.002 2.447-5.507-4.938,3.064-2.791,10.128-9.789,11.625v-2.447c-4.184,4.789-9.383,8.562-15.295,11.624-2.982-2.291-8.243-1.758-9.789,1.835 13.235,3.776 23.185-2.902 29.979-8.564 13.648-11.374 19.085-34.808 26.92-49.557-.834-11.536 1.446-20.44-.612-29.979-4.768-22.098-20.243-31.609-45.273-34.261-1.786,5.556-2.38,12.304-3.671,18.354 5.912,2.524 11.862-3.523 17.131-5.506-1.924-.616-3.331-.424-5.507-1.835 1.098-1.146 3.756-.731 4.283-2.447-2.471-1.825-5.479,3.054-7.342,1.835-2.048-.553-.534-1.369 0-2.447-1.838.032-3.614,3.273-4.895,1.835-.674-3.121 1.8-3.095 3.059-4.283-.179.375-1.521,2.355 0,2.447 1.803-2.921 4.847-3.403 9.178-2.447-.089.723-1.09,1.387 0,1.835 1.783-1.679 2.413.027 2.447,1.224 2.822.129-.976-2.87 2.447-2.447 2.535,3.25 4.503,3.537 9.177,4.895-4.599.35-9.707-1.53-12.236,1.835 5.522-1.642 16.063-.312 16.519,3.059-14.55-6.623-26.917,11.293-37.932,2.447-9.507-3.419-20.724,6.446-26.92-1.835 1.396-2.938 4.851.228 6.73.612 5.336-.986 10.617-2.027 16.519-2.447 .296-2.335-.174-3.905-1.224-4.895-3.237,2.148-3.226-1.328-5.507-1.835-.446,1.389-2.586,1.084-3.671,1.835-.827-1.212-2.133-1.945-3.67-2.447-.303,1.921 2.108,1.616.611,3.059-1.214-1.829-3.235-2.459-4.282,0-1.153-.718-3.997-2.89-5.507-1.224 1.601-.172 2.632.223 2.447,1.835-5.694-.524-15.416,2.185-15.907,6.73 1.957-1.658 9.018-6.109 10.401-2.447-12.618,1.695-19.15,12.612-20.19,23.86 1.14.585 2.045-1.833 2.447,0-2.28,5.174-.726,15.937-1.224,19.578 5.093-7.275-.131-20.666 4.895-27.532 .679-2.367-2.162-2.176-.611-3.671 4.18,1.69 6.844-9.643 12.236-8.565-2.438,2.049-3.294,5.679-5.507,7.953 4.38.301 3.114-5.043 7.342-4.894 .55,1.791.55,1.879 0,3.67 2.056.775 3.236-2.396 4.283-.612-1.576,1.279-2.242,3.469-1.836,6.73 3.113.054 1.627-4.491 4.283-4.895 .002,1.093-1.648,3.56 0,4.283 1.371-1.892 1.649-4.876 5.506-4.283-.052,8.106-3.504,12.811-4.282,20.19-6.996,6.056-4.086,22.018-8.565,30.591 .17-8.193 3.011-17.407 1.835-23.249-2.061,9.031-3.354,20.478-3.671,29.979-.098,2.936 1.737,5.757-1.224,7.342-.462-7.548 2.826-16 0-23.249-.76,1.881.111,5.855-1.835,7.954 .601-3.682.937-7.629 1.224-11.625-4.793,1.224.184-3.738-3.06-4.282-1.056.371.047,2.902-1.224,3.059 1.076-4.917-.567-8.293.612-12.236-1.053-.242-1.568.908-1.836,0 .216-3.67 2.253-8.745 1.224-11.625-3.443,12.636-2.027,33.084-3.059,47.109-1.051-2.793-.524-7.71-3.06-7.342 .743-2.562-.452-6.875 0-11.013-2.344,3.264-1.56,13.72 0,17.131-.032-1.053.472-1.568 1.224-1.836-1.655,6.357 3.261,11.943 1.224,14.684-1.365-1.897-.55-5.976-2.447-7.342-.759,4.646 2.432,8.566 1.224,11.625-3.39-7.649-2.625-18.054-3.671-29.367-3.296-.237-.695,5.423-2.447,6.729-2.057-8.378 1.718-22.575-1.835-26.307 .172.181-.264,1.442-.611,1.224 .158-2.808.65-2.956 0-5.506-5.375-1.008-3.083,8.781-1.225,9.789-.726,8.214.414,14.537.612,20.189-.838-2.222-.37-5.748-2.447-6.729-.59,15.885 8.442,22.147 10.4,35.484-4.221-.433-7.512-6.111-7.341-10.4 .973,2.697 1.921,5.42 4.282,6.729-1.325-3.568-1.554-8.235-4.895-9.789-1.912-.187 1.555,1.768-.612,1.836-1.706-2.169-.662-7.088-3.67-7.954-.867,4.068-.039,5.496 1.224,8.565-1.662-.387-1.762-4.177-3.671-2.447 2.053,7.329 9.064,15.735 15.906,20.802 9.098,6.736 20.307,10.533 35.485,7.342 3.056-2.858 5.226-6.603 7.953-9.789 5.489.187 8.678-1.928 8.565-7.342-2.175.951-.369-2.078-1.835-1.835-.364,1.507-2.65,4.236-3.671,3.059 .6-4.302 4.861-8.18 3.671-12.236-3.302,4.245-3.641,11.451-8.565,14.072 1.132-2.6 3.39-4.675 1.224-7.342 10.687-13.989 14.561-34.792 20.802-53.228-1.001-3.859-1.149-7.631-1.224-11.013-3.617,1.889-1.012,10.001-3.671,12.848-.14-1.084.616-3.064-1.224-2.447-3.048,11.229-4.239,27.574-9.789,34.261 1.19-3.31 2.89-6.09 3.11-10.36zm6.11,13.46c-2.836,6.138-5.871,12.076-7.953,18.967 2.714.494 1.903-4.926 3.671-1.836-.72-5.4 7.06-11.87 4.28-17.13zm-3.05,13.46c1.474-.25 1.329,1.118 3.059.612 .742-2.929 2.894-4.449 3.671-7.342-3.09,1.4-5.75,3.23-6.73,6.73zm-129.71-92.382c-.467-2.407-3.064-5.885-4.895-4.895 1.54,1.729 2.9,3.635 4.9,4.895zm6.73-4.895c4.509,4.668 7.647,10.707 11.013,16.519-1.85-6.917-6.44-14.356-11.01-16.519zm14.69,22.637c-1.003-8.585-4.474-17.957-10.401-19.578 5.8,4.192 7.44,12.54 10.4,19.578zm138.26-15.907c3.089-1.602 5.725-3.656 6.729-7.342-2.79,1.603-6.83,4.842-6.73,7.342zm-240.44-4.282c2.104-.547 3.814-1.488 5.506-2.447-2.637.013-4.706.595-5.506,2.447zm-21.413,13.46c6.654-5.379 13.625-10.44 20.802-15.295-8.934,3.098-16.086,7.978-20.802,15.295zm264.91-6.73c2.54-1.131 4.638-2.705 4.895-6.118-2.95.483-5.64,3.92-4.9,6.118zm34.26.611c2.839-1.036 3.24-4.51 4.895-6.73-3.38.493-3.23,4.519-4.9,6.73zm-158.45,15.295c1.078-8.433-3.301-16.119-8.565-20.189 3.79,5.793 7.17,12.002 8.57,20.189zm-18.97-21.413c4.83,5.163 10.255,9.731 12.236,17.742 1.798,5.817-.978-6.598-.612-6.729 2.39,1.077.745,6.189 3.06,7.341 .352-1.075-.739-3.594.611-3.67 .405,1.635.257,3.822 1.224,4.894 .851-7.828-4.134-15.003-9.177-18.966-.585,1.14 1.832,2.045 0,2.447-.061-1.415-2.69-3.363-3.671-1.835 1.482.965 2.706,2.188 3.671,3.671-2.51-1.564-3.99-4.165-7.34-4.895zm157.85,16.519c4.573-5.215 11.47-8.108 13.46-15.907-.782-.034-.848-.784-1.836-.612-1.91,7.07-11.19,10.014-11.62,16.519zm-116.25,26.307c1.833,19.658-3.021,39.705-7.342,55.063 3.065-.668 3.948-4.646 4.895-7.342 3.302-9.413 3.739-19.129 4.282-31.203 1.091-24.248-6.229-44.747-15.907-58.122 4.94,11.399 12.55,25.272 14.07,41.602zm-4.89-37.319c.137-2.177-.413-3.667-1.836-4.283 .09,1.956-.6,4.682 1.84,4.283zm27.53-2.448c1.753.379 4.569,1.864 7.342,0-1.12.167-6.35-2.258-7.34,0zm-42.83,18.966c.802-6.971-2.757-14.743-6.729-18.966 2.88,5.692 5.3,11.837 6.73,18.966zm34.27-11.012c3.154-2.147 7.665-2.939 10.4-5.506-4.92.383-8.83,1.778-10.4,5.506zm94.82,3.059c.947,1.907.753,4.958 3.671,4.894 1.647-1.59-.748-1.845-.611-3.671 1.455-2.309 7.695-5.351 5.506-7.341-.514,3.13-3.111,1.203-4.282,0-.35,3.115-2.25,4.686-4.29,6.118zm-107.67,5.506c3.079-.806 5.831-5.166 5.506-7.341-1.9,2.389-4.96,3.615-5.51,7.341zm-18.97,4.898c.373-1.463-.768-4.439.612-4.895 5.146,12.844 4.683,32.656 5.506,46.498 3.014-17.867-.104-41.207-8.565-53.227 1.04,3.644.81,8.566 2.44,11.627zm138.27-9.181c1.794-.041 2.271-1.398 3.059-2.447-2-.159-2.95.726-3.06,2.447zm-108.9,1.224c1.924.088 2.102-1.569 2.447-3.059-1.93-.088-2.11,1.569-2.45,3.059zm-100.95,17.737v3.059c1.211-4.504 1.042-15.678 1.835-22.637-.135-.477-.512-.711-1.224-.612-.083,6.856-1.006,12.869-.611,20.189zm100.95-14.066c1.884-.563 2.445-2.449 3.671-3.671-2.67-.221-2.56,2.334-3.67,3.671zm102.17,4.286c3.713-2.201 6.936-4.893 9.789-7.954-4.55,1.363-7.95,3.88-9.79,7.954zm0-3.063c1.017-1.43 3.416-1.478 3.06-4.282-1.79.476-5.58,3.304-3.06,4.282zm-228.82,23.253c-.779-4.665 2.127-8.87 1.224-11.625-8.726,21.938-6.155,50.856 1.224,70.97 1.346,3.668 2.643,7.948 5.506,9.789-9.303-17.228-14.196-45.312-7.954-67.911-1.251,10.636-2.441,23.333 0,31.813-1.686-19.394 3.314-40.203 6.118-55.062-2.894,6.492-4.055,14.712-6.118,22.032zm150.51-4.29c.533-5.135 4.738-12.578 2.447-16.519-2.48,3.449-3.74,11.349-2.45,16.519zm78.92-13.46c1.586.111 4.335-1.717 2.447-3.059-.11,1.729-2.91.769-2.45,3.059zm-41.6,3.06c2.224.563 1.399-4.039 0-3.671 .68,1.93.05,1.39 0,3.67zm23.25,2.45c.12-1.752.076-3.339-1.836-3.059-.12,1.75-.08,3.34 1.84,3.06zm-11.63,6.12c-.586-1.861 1.311-6.205-1.223-6.118 .59,1.86-1.31,6.21 1.22,6.12zm-3.67-1.84c-.371-1.261.987-4.25-1.224-3.671 .01,1.62-.34,3.6 1.22,3.67zm-3.67,44.66c2.65-1.224 2.454-5.295 3.671-7.953 .09,4.137 3.152-1.264 4.282-1.835 .1,5.34-2.164,6.69-4.282,8.564-.109,3.437 2.066-2.126 2.447,0-.995,3.271-8.234,4.099-4.283,8.565-6.127,7.944-11.479,16.665-17.742,24.473 10.798-6.537 14.499-20.17 24.472-27.531-1.815-10.874 3.96-17.575 4.283-28.144-3.021,1.263-.943,7.623-4.283,8.565-.067-2.167-2.022,1.3-1.835-.611 .789-2.312-.884-3.29 1.835-3.671-.352.371-1.432,2.902 0,3.059 1.011-5.591-1.916-12.92 1.836-16.519 .22,3.687-1.443,5.49-1.224,9.177 4.79-4.176 7.439-18.943 2.447-23.86v5.506c-1.165,1.146-1.537.067-3.06,0 1.18,6.51-2.213,11.473-5.506,15.295-.652-3.56 2.403-11.43-.611-15.907-2.132,14.649-7.766,30.385-12.849,44.05 6.4-6.245 6.86-21.688 14.684-24.472-1.917,7.668-3.885,15.285-6.118,22.637 2.429-.427 1.35-4.36 3.671-4.895-.36,2.1-2.05,2.86-1.84,5.51zm-53.23-28.14c1.628-5.917 2.427-12.665 4.895-17.743-1.203.183-1.214-.826-1.836-1.224-1.3,6.6-4.28,11.48-3.06,18.96zm-133.37,0c-1.109-6.826 2.2-12.476.612-17.743-.583,5.03-3.042,13.66-.612,17.74zm58.731-9.79c-.398-3.273-.829-6.513-3.671-7.342 .31,1.933 1.801,2.686 1.835,4.895-1.766-.274-1.446-2.632-3.059-3.059-.553,2.047-1.369.534-2.447,0 .976,5.688 3.575,10.697 1.224,16.519 2.452-2.239 5.226-4.155 4.895-9.177 5.043-.159 3.138-9.002 0-9.789 .33,2.36 3.19,5.37 1.24,7.95zm64.86-2.44c1.552-1.1 2.89-2.413 2.447-5.506h-1.836c-.47,1.53-3.17,4.68-.61,5.51zm10.4,20.8c3.532-7.276 4.287-17.331 6.73-25.696-.136-.477-.513-.711-1.224-.612-2.71,8.68-4.94,16.9-5.51,26.31zm7.95-18.97c.021-2.063 3.56-6.295.611-7.342-.07,2.2-2.23,5.49-.61,7.34zm-93,15.91c5.95-3.562 3.784-17.195 0-21.413 2.16,6.8 3.16,14.89 0,21.41zm-52,2.44c-.848-7.021 2.516-16.172.612-20.189-.272,6.4-3.586,14.41-.612,20.19zm203.73-1.22c2.089-6.068 7.048-9.267 7.342-17.13-1.64-.604-3.623-.864-4.895-1.835-.99,8.33-.71,10.89-2.44,18.96zm-195.78,3.06c-.402-4.085.807-9.78-.612-12.848-.76,3.58-1.298,10.13.612,12.85zm200.06-.61c1.954-.697 2.865-2.437 3.06-4.895-2.36.28-1.92,3.37-3.06,4.89zm-22.02,16.52c1.328-4.432 3.876-10.226 2.447-13.459-.75,4.31-5.41,9.26-2.45,13.46zm26.92-3.06c.762-3.113 3.744-4.005 3.671-7.953h-2.447c-.32,2.4-4.12,6.2-1.22,7.95zm-10.4,11.01c4.637-2.502 5.101-9.175 7.342-14.071-5.83,1.3-4.37,9.91-7.34,14.07zm8.56-6.12c.14-.95 2.352-2.854.611-3.671-.43.65-2.38,2.82-.61,3.67zm-11.01,10.4c1.79.314 3.245-2.808 1.835-3.671-.54,1.29-1.86,1.81-1.83,3.67zm-13.46,15.91c2.759-2.013 8.901-6.896 6.73-9.789-1.8,3.7-5.93,5.09-6.73,9.79zm-219.64,9.18c.137-2.425 6.313-3.552 3.059-5.507-1.172,1.3-5.483,2.64-3.059,5.51zm43.439,11.62c2.32-1.981-1.963-4.609 0-6.118 1.747.7 1.376,3.519 3.059,4.282 1.076-2.099-.106-3.952-1.224-5.506-5.309-1.11-5.144,6.45-1.835,7.35zm60.569,3.67c-.342,2.33-6.108,2.43-4.282,4.895 1.03-1.64 6.3-2.24 4.28-4.9zm-6.12,5.51c-4.131-.18-9.388,6.868-14.683,5.507 4.418-1.088 8.061-2.952 11.012-5.507-5.584,2.555-15.514,5.03-17.742,8.565 3.339.661 8.955-2.146 11.625-1.835-.995-.184-1.65.826-.612,1.224 10.596-3.264 22.088-7.676 28.143-17.131-3.965.733-5.574,7.059-9.177,6.118 3.377-1.11 4.638-4.336 6.729-6.73-6.787,4.635-13.595,12.507-22.024,13.46 2.68-.77 4.6-2.33 6.72-3.67zm-45.884-4.89c1.75-1.466 6.173-.824 7.342-2.447-.612-1.02-2.83-.433-3.059-1.835 .267,3.11-4.695,1.01-4.283,4.28z" fill="#8b0f04"/>
  <path d="m260.67,14.684c.116-.695.613-.34.611,0 1.936.1 2.045-1.626 4.283-1.224-1.102,1.55-3.003,2.299-4.895,3.059-.12-1.047 1.05-1.585.01-1.835z" fill="#e31836"/>
  <path d="m279.63,33.649c-1.918,5.47-9.801,8.084-9.789,13.46 3.249-3.073 5.13-7.515 9.177-9.789-3.284,6.301-8.351,10.819-11.012,17.742-2.466-1.613-3.301-4.856-3.06-9.177 6.86.206 6.56-11.697 14.68-12.236z" fill="#e31836"/>
  <path d="m171.34,38.544c-.193-1.439-2.9-.363-2.447-2.447h5.506c-.069,2.301-2.765.422-1.224,3.059-2.848-.197-4.082,1.22-6.729,1.224 .33-1.494 2.61-.989 4.89-1.836z" fill="#e31836"/>
  <path d="m299.82,44.662c-1.482,5.151-8.161,9.856-12.236,15.907-3.424,5.084-4.624,16.473-12.236,15.295-.182-1.246-1.225-1.63-1.835-2.447 2.543-3.982 6.298-6.754 9.177-10.401-4.509.23-7.688,10.194-12.848,9.789 2.793-6.588 9.4-9.362 12.848-15.295 2.684-.034-.416,2.722.612,4.895 6.86-4.578 9.77-13.081 16.53-17.743z" fill="#e31836"/>
  <path d="m104.66,55.062c-1.081,1.978-4.198,1.92-4.895,4.283 3.131-1.811 6.601-5.694 11.625-3.671-.517,1.318-2.684.987-3.671,1.835 1.046,1.399 3.448-.998 5.506-.612-3.88,2.646-10.409,2.644-12.236,7.342 4.209-1.964 10.248-8.44 15.907-4.895-7.223-.289-11.176,2.692-14.684,6.118 5.498-2.388 11.507-6.371 18.966-4.895-5.996.939-12.211,1.657-15.295,5.506 4.487-1.901 18.312-6.538 25.696-1.835-4.364-.393-7.834.3-14.072.612-2.262,2.844-7.231,6.219-11.013,5.506 1.323,2.38-6.597,7.617-6.73,1.224-1.257.171-1.221,1.634-1.835,2.447-.946-.889-1.284-2.386-1.224-4.283-.752.267-1.256.783-1.224,1.835-1.813-.889.806-2.386 0-4.283-1.623-.195.572,3.427-1.835,2.447-.159-1.791 1.383-1.88 1.224-3.671-3.562-.503-.077,6.041-3.059,6.118 1.909-6.899-1.301-12.235.611-18.966 1.404,1.247.222,5.081.612,7.341 3.898-3.076 6.415-3.779 11.6-5.503zm-11.017,9.79c.138-1.932 3.56-3.741 1.835-5.506-.716,1.352-4.005,3.295-1.835,5.506zm9.787-4.895c-2.028.215-2.654,1.833-3.671,3.059 2.031-.215 2.661-1.832 3.671-3.059zm1.23,9.789c3.568-1.53 7.465-2.732 11.013-4.283-4.44.659-8.86,1.337-11.01,4.283z" fill="#e31836"/>
  <path d="m71.006,57.51c1.058-1.183 4.75,1.056 6.118,3.059 1.807-.532-1.419-.916-.612-2.447 3.529,1.978 5.625,5.387 7.342,9.177-2.018.608-2.339-3.924-2.447,0-3.121-3.609-5.843-7.617-10.401-9.789z" fill="#e31836"/>
  <path d="m74.065,66.075c-4.838-1.751-9.66-4.456-15.907-3.059 5.42.699 10.5,1.736 14.684,3.671-1.618,2.459-4.375-.874-6.118-1.224-15.146-3.037-33.688,4.732-42.827,12.848 4.886.348 9.881-7.592 15.295-6.73-7.381,4.447-14.478,9.179-19.578,15.907 .829,2.172-1.44,3.981-3.671,9.177 5.191-5.414 10.359-10.85 16.519-15.295-4.538,8.107-14.83,15.76-17.131,28.143 9.55-18.394 19.66-38.418 44.662-35.485 6.552.769 11.917,6.055 18.966,7.342 19.552,3.57 27.512-9.911 40.991-14.072 .161,1.997-1.903,1.768-2.447,3.059 .093,1.946 1.387,2.691 1.224,4.895-.988,1.341-.975-3.471-1.835-4.283-1.542,1.055-.251,3.528-.612,4.895-1.048,1.973-1.66-1.532-1.835-2.447-1.538,1.185.719,3.727.612,5.506-.685.841-1.674-3.185-1.835-4.895-1.467,1.707 1.064,4.62.612,7.342-1.439-1.212-1.042-4.26-1.835-6.118-2.125,4.787 2.022,8.575 1.224,14.072-1.28-3.003-1.445-7.121-2.447-10.401-.901,4.221.965,7.819-.612,12.236-.821-.402-1.14-1.308-1.224-2.447-1.548,2.517-.002,4.975-.612,6.729 .297-.855-1.44-6.251-1.224-10.4-1.351.076-.26,2.595-.612,3.671-1.129-2.134-1.235-5.291-1.835-7.954-1.814,2.411 1.548,7.586-.612,10.4-1.583-2.291-.602-7.147-1.835-9.789-1.807,1.78.506,5.309-.612,6.73-1.368-.264-.248-3.015-.612-4.283-3.728,14.205 1.135,38.552-1.224,52.615-1.125-17.416-1.806-38.539-.612-53.839-2.732-.286-.115,4.779-1.835,5.506-1.368-.264-.248-3.015-.612-4.283-2.18,2.786-.754,10.802-3.059,11.624-1.21-1.45-1.155-6.838 1.224-6.729 .654-2.286-1.519-1.744-1.224-3.671-2.873,3.174-.208,14.003-3.059,15.295 .386-4.401 1.023-11.488.611-14.683-3.065,3.426-.107,9.197-1.835,14.071-1.393-3.648-.472-10.25 0-14.071-4.391,3.97-.486,16.237-3.671,21.413 .031-5.634.418-14.132 1.224-20.801-3.336,12.333-2.125,25.886-2.447,41.603-2.55-9.803-1.213-29.158.612-41.603-2.642,6.465-3.266,11.256-3.059,20.189-3.269-5.583.118-14.921 1.224-20.189-2.904,2.807-2.771,8.65-4.283,12.848-1.907-4.366 2.322-7.866 1.835-12.848-2.136.922-1.844,4.274-3.059,6.118-1.558-2.801 2.169-5.564 2.447-8.565-9.357-6.202-22.369-10.485-35.485-6.73-14.722,4.215-24.645,21.991-26.308,38.544 1.404-4.918 2.294-10.35 4.283-14.684-1.638,8.583-3.661,19.502-1.835,31.814-.692-28.636 7.089-52.047 29.979-55.063-6.139,2.834-12.577,5.369-16.519,10.401 6.099-4.01 13.573-9.985 21.413-8.565-.18,1.248-1.655,1.2-1.835,2.447 1.935.933 4.496-1.606 8.565-1.835-1.353,1.707-3.946,2.172-6.118,3.059 .772,1.318 3.254-.777 4.283-1.224-.21,5.451-7.369,6.358-11.012,9.789-4.86,4.576-7.699,10.294-11.013,15.907 6.146-7.518 11.067-16.26 20.189-20.801-5.946,6.086-12.659,11.405-15.907,20.189 4.836-8.178 14.815-20.889 21.413-19.578 1.192,2.074-3.864,4.058-6.118,6.729-5.007,5.936-8.458,15.375-11.012,24.473 5.931-12.832 9.959-27.565 24.472-31.814-9.184,7.334-15.957,17.081-18.354,31.202 4.869-12.058 10.385-23.469 19.578-31.202 2.161,2.4-2.885,2.798-3.059,4.895 .813-.615 2.276-.579 2.447-1.835-5.286,9.806-13.95,21.534-15.295,37.32 4.004-13.739 8.684-26.802 16.519-36.708-5.76,12.552-15.479,30.25-15.295,49.557 .103,10.809 2.355,21.728 5.506,31.813-2.874-1.205-2.48-5.678-3.671-8.565-1.327-.103-.277,2.17-.612,3.06-4.76-10.127-5.204-24.57-4.895-39.768-3.667,17.567 1.769,36.547 5.506,50.78-6.734-12.232-7.682-30.251-9.789-47.109-1.981,16.869 3.483,31.593 6.729,45.273-6.442-12.932-9.003-29.744-9.177-48.944-2.931,14.633 1.586,29.194 4.283,42.826-5.46-11.088-7.347-28.915-6.73-44.05-2.361,2.854-1.462,10.465-1.224,14.684 .51,9.006 2.298,17.352 4.283,25.084-6.179-10.065-5.144-23.76-6.118-38.544-1.563,7.657-.097,14.95 0,22.025-2.294-6.271-1.787-15.345-2.447-23.249-2.369,18.933 2.946,37.24 8.565,52.615-3.494-5.683-5.596-12.758-8.565-18.966 .391,6.343 4.377,14.382 7.342,20.189-3.826-2.068-4.901-7.786-6.73-12.848-3.801-10.521-7.335-22.976-6.118-39.768-1.192,2.73-1.319,1.134-1.224-1.835-1.688,17.392 3.262,33.446 7.954,46.498-5.177-7.467-7.187-18.102-8.565-29.367-1.863,8.29 2.482,19.586 5.506,26.92-2.576,1.332-2.251-5.483-4.283-6.73-1.469,1.312 1.49,3.369.612,6.118-2.148-3.97-3.86-8.376-4.283-14.071-1.48,4.189.733,8.255 1.224,13.46-6.541-18.23-5.893-51.817-1.224-69.135-6.95,17.417-5.823,44.115-2.447,62.404-1.632-1.834-2.14-4.793-2.447-7.953-1.054,3.107.977,8.394 1.835,11.624-9.318-13.774-13.072-38.424-8.565-57.51-5.403,13.754-3.51,26.465.612,39.768-4.006-2.631-5.573-12.986-5.506-21.413 .039-4.854 1.447-9.319 1.224-13.46-4.75,9.599-1.183,24.07 1.224,33.649-8.369-14.688-4.358-39.989 4.895-50.78-11.024,10.589-12.814,32.379-7.342,50.169-5.667-11.916-6.439-36.339 1.835-45.886-1.721-1.781-.57-3.525 0-6.118-9.099,13.208-10.341,40.425-6.729,56.286-.665-.151-.415-1.217-1.224-1.224 .548,4.55 1.964,8.232 2.447,12.848-4.378-6.957-8.768-20.03-6.73-29.366-1.965-6.312-.915-18.995 1.224-26.308 5.696-19.479 21.621-39.26 40.991-40.991-4.534,2.4-11.208,2.66-14.072,6.73 10.34-3.619 30.514-17.404 42.811-4.894zm36.095,20.802c-.232-3.235.135-7.069-1.835-8.565 .39,3.085.76,6.181 1.84,8.565zm-74.639,4.282c1.9-1.62 9.801-7.698 14.684-10.4-6.211,2.15-10.959,5.763-14.684,10.4zm1.836,2.447c4.307-4.666 9.824-8.122 15.295-11.624-6.244,2.324-13.157,7.233-15.295,11.624zm-.612,10.404c5.691-7.77 15.183-14.998 21.413-20.189-8.24,5.625-17.274,10.458-21.413,20.189zm1.224-7.956c3.357-4.396 10.762-7.996 12.848-11.624-3.927,3.826-11.881,6.876-12.848,11.624zm17.13-.612c2.604-1.08 6.056-4.532 6.118-6.118-2.189,1.889-4.411,3.745-6.118,6.118zm2.447,20.188c2.758-8.053 8.227-16.651 11.013-22.637-5.048,5.764-9.985,14.897-11.013,22.637zm-6.729,2.45c2.252-8.558 7.602-17.276 10.4-23.249-4.474,6.339-10.603,14.269-10.4,23.249zm-6.73-.61c3.818-5.882 8.457-15.678 9.177-20.802-1.95,6.212-6.963,12.992-9.177,20.802zm-20.19,18.35c-.864-12.286.937-25.165 1.835-33.649-2.901,9.74-4.339,23.48-1.835,33.65zm6.118-3.06c-.743-9.923 1.116-20.499.612-28.144-2.079,7.37-2.844,20.24-.612,28.14zm17.131-26.3c1.32-1.376-3.883,3.591-1.835,4.895 .084-2.17 1.75-2.75 1.835-4.9zm-23.249,50.77c-2.275-11.796-4.229-23.913-6.118-36.096 .245,13.83 2.476,25.68 6.118,36.1zm14.072-17.74c-.289-2.585-.369-8.58-1.224-8.565 .124,3.15-.543,7.08 1.224,8.57zm19.577,11.01c-.585-6.211-.075-14.549-1.224-18.966 .287,6.45-.832,14.3 1.224,18.97zm-25.084-9.78c-1.655-.415.374-7.674-1.224-6.118 .282,1.79-.863,8.16 1.224,6.12zm3.671-.62c-.181-1.237 1.085-6.436-1.224-5.507 1.292,7.681.495,17.451 4.283,22.637-1.082-4.44-2.268-11.71-3.059-17.13zm-6.73,12.85c-.686-4.82 1.452-12.464-1.224-15.295 .359,5.15-.952,11.96 1.224,15.29zm9.789-1.83c-.372-3.706.034-8.19-1.835-10.4 .674,3.4.387,7.77 1.835,10.4zm-6.73,7.95c-.278-4.005-.54-8.025-1.835-11.013-.101,4.38.139,8.42 1.835,11.01zm27.532,3.67c-1.514-3.381-.789-9-3.059-11.625 .957,3.93.33,9.46 3.059,11.62zm-19.578-5.51c.045-2.288-.257-4.229-1.224-5.506-.045,2.3.258,4.24 1.224,5.51z" fill="#e31836"/>
  <path d="m72.23 99.725c-8.118 22.824-11.436 55.521-1.224 80.147-5.69-11.298-8.574-25.615-8.565-40.992-3.927 12.921 3.272 25.263 4.895 36.708-13.347-22.715-7.586-62.911 6.118-80.759-5.989 11.958-10.097 25.796-12.236 41.603 4.44-11.46 5.614-26.2 11.012-36.705z" fill="#e31836"/>
  <path d="m115.67 65.463c-3.548 1.551-7.445 2.752-11.013 4.283 2.15-2.946 6.57-3.624 11.01-4.283z" fill="#8b0f04"/>
  <path d="m141.36 88.712c-3.36-5.812-6.5-11.851-11.01-16.519 4.57 2.163 9.16 9.602 11.01 16.519z" fill="#e31836"/>
  <path d="m165.84,80.147c2.075.384 4.664,5.524 5.507,9.177-2.39-2.51-3.6-6.199-5.51-9.177z" fill="#8b0f04"/>
  <path d="m50.205 80.759c-4.883 2.703-12.783 8.781-14.684 10.4 3.725-4.637 8.473-8.25 14.684-10.4z" fill="#8b0f04"/>
  <path d="m150.54,80.759c-.965-1.482-2.188-2.706-3.671-3.671 .98-1.527 3.61.42 3.671,1.835 1.832-.402-.585-1.308 0-2.447 5.043,3.962 10.027,11.138 9.177,18.966-.967-1.072-.818-3.259-1.224-4.894-1.351.076-.26,2.595-.611,3.67-2.314-1.152-.67-6.264-3.06-7.341-.365.132 2.41,12.546.612,6.729-1.981-8.011-7.406-12.579-12.236-17.742 3.35.73 4.83,3.331 7.34,4.895z" fill="#e31836"/>
  <path d="m52.652 81.982c-5.471 3.502-10.988 6.958-15.295 11.624 2.138-4.391 9.051-9.3 15.295-11.624z" fill="#8b0f04"/>
  <path d="m58.158 83.818c-6.23 5.192-15.722 12.419-21.413 20.189 4.139-9.731 13.173-14.564 21.413-20.192z" fill="#8b0f04"/>
  <path d="m50.817,84.43c-2.086,3.628-9.491,7.229-12.848,11.624 .967-4.748 8.921-7.798 12.848-11.624z" fill="#8b0f04"/>
  <path d="m61.217,89.324c-.062,1.585-3.515,5.038-6.118,6.118 1.707-2.373 3.929-4.229 6.118-6.118z" fill="#8b0f04"/>
  <path d="m205.6,89.936c.617,1.86-3.749,3.985-4.282,6.729-.62-1.865 2.78-4.951 4.28-6.729z" fill="#8b0f04"/>
  <path d="m68.559 92.995c-2.786 5.985-8.254 14.584-11.013 22.637 1.028-7.74 5.965-16.873 11.013-22.635z" fill="#8b0f04"/>
  <path d="m173.18 94.83c7.951 11.73 10.61 39.856 5.507 58.122 3.57-20.19 1.3-43.13-5.51-58.12z" fill="#8b0f04"/>
  <path d="m61.217,94.83c-2.798,5.973-8.148,14.691-10.4,23.249-.203-8.98 5.926-16.91 10.4-23.25z" fill="#8b0f04"/>
  <path d="m53.264,96.666c-.72,5.124-5.358,14.92-9.177,20.802 2.214-7.81 7.227-14.59 9.177-20.804z" fill="#8b0f04"/>
  <path d="m250.88,98.501c4.106,7.126 2.052,16.176 1.224,25.696-1.661.438.438-2.885-1.224-2.447-2.414,5.708-1.487,13.819-4.283,17.742 2.42-12.6 5.18-26.95 4.28-40.989z" fill="#8b0f04"/>
  <path d="m45.311,111.35c-2.048-1.303 3.156-6.271 1.835-4.895-.085,2.15-1.751,2.73-1.835,4.89z" fill="#8b0f04"/>
  <path d="m130.96,121.14c1.306,11.02-4.624-11.425-1.224-2.447 .2.52.06.63 1.22,2.45z" fill="#8b0f04"/>
  <path d="m193.98,162.13c-1.312-2.155-1.282-5.651-1.224-9.177 1.7-2.78.29,6.04 1.22,9.18z" fill="#8b0f04"/>
  <path d="m130.35,216.58c8.43-.953 15.237-8.825 22.024-13.46-2.092,2.395-3.353,5.62-6.729,6.73 3.603.94 5.212-5.385 9.177-6.118-6.055,9.455-17.547,13.867-28.143,17.131-1.039-.397-.383-1.407.612-1.224-2.669-.312-8.285,2.496-11.625,1.835 2.229-3.535 12.158-6.011 17.742-8.565-2.951,2.555-6.594,4.419-11.012,5.507 5.295,1.361 10.552-5.687 14.683-5.507-2.11,1.33-4.03,2.89-6.72,3.66zm5.51,0c3.12-1.173 8.43-3.386 8.565-5.506-2.02,2.67-6.82,2.56-8.56,5.51z" fill="#e31836"/>
  <path d="m144.42,211.07c-.136,2.12-5.445,4.333-8.565,5.506 1.74-2.95 6.54-2.84 8.56-5.51z" fill="#8b0f04"/>
  <path d="m157.88,199.45c9.011-13.218 19.743-24.715 20.802-45.886-1.06,5.059-3.542,8.694-5.507,12.849 1.41-10.507 6.831-19.594 5.507-34.873-1.615,13.391-3.617,31.373-10.401,41.603-1.432-.156-.353-2.688 0-3.059-6.102,9.207-12.605,16.076-22.637,20.189 13.753-10.312 21.485-26.643 26.308-45.886-.055,9.736-4.562,20.317-8.565,28.144 5.35-5.665 9-18.327 10.401-29.979 2.014.998-.064,6.84 0,9.789 4.993-11.656 2.054-24.364 2.447-35.485 .016-.461 1.249-2.03 1.224-2.447-.182-2.962-2.089-9.158-3.06-12.236-4.604-14.606-16.994-35.922-29.366-42.215-.869-.442-1.431.912-2.447.612-4.387-1.291-7.947-7.053-12.236-7.341 5.561-.865 11.32,3.358 17.131,4.282 23.592,13.997 41.356,48.967 34.873,87.489-3.44,20.6-9.79,43.51-24.45,54.47zm13.46-110.13c-.843-3.653-3.432-8.793-5.507-9.177 1.92,2.978 3.13,6.667 5.51,9.177zm7.34,63.626c5.104-18.266 2.444-46.392-5.507-58.122 6.82,14.992 9.09,37.932 5.51,58.122z" fill="#e31836"/>
  <path d="m247.21,152.95c5.55-6.688 6.741-23.032 9.789-34.261 1.84-.617 1.084,1.363 1.224,2.447 2.659-2.847.054-10.959 3.671-12.848 .074,3.382.223,7.154 1.224,11.013-6.241,18.436-10.115,39.238-20.802,53.228 2.166,2.667-.092,4.742-1.224,7.342 4.925-2.621 5.264-9.827 8.565-14.072 1.19,4.057-3.071,7.935-3.671,12.236 1.021,1.178 3.307-1.552 3.671-3.059 1.466-.243-.34,2.786 1.835,1.835 .112,5.414-3.076,7.528-8.565,7.342-2.728,3.187-4.897,6.931-7.953,9.789-15.179,3.191-26.388-.605-35.485-7.342-6.842-5.066-13.854-13.473-15.906-20.802 1.909-1.729 2.009,2.061 3.671,2.447-1.263-3.069-2.091-4.497-1.224-8.565 3.008.866 1.964,5.785 3.67,7.954 2.167-.068-1.3-2.022.612-1.836 3.341,1.554 3.569,6.221 4.895,9.789-2.361-1.31-3.31-4.032-4.282-6.729-.171,4.289 3.12,9.968 7.341,10.4-1.958-13.337-10.99-19.6-10.4-35.484 2.077.981 1.609,4.508 2.447,6.729-.198-5.652-1.338-11.975-.612-20.189-1.858-1.008-4.15-10.797 1.225-9.789 .65,2.55.158,2.698 0,5.506 .348.218.783-1.043.611-1.224 3.553,3.732-.222,17.929 1.835,26.307 1.752-1.307-.849-6.967 2.447-6.729 1.046,11.313.281,21.718 3.671,29.367 1.208-3.059-1.982-6.979-1.224-11.625 1.897,1.366 1.082,5.444 2.447,7.342 2.037-2.74-2.879-8.326-1.224-14.684-.752.268-1.256.783-1.224,1.836-1.56-3.411-2.344-13.867 0-17.131-.452,4.138.743,8.45 0,11.013 2.535-.368 2.009,4.549 3.06,7.342 1.031-14.025-.385-34.473 3.059-47.109 1.029,2.88-1.008,7.954-1.224,11.625 .268.908.783-.242 1.836,0-1.18,3.943.464,7.319-.612,12.236 1.271-.157.168-2.688 1.224-3.059 3.243.544-1.733,5.506 3.06,4.282-.287,3.996-.623,7.943-1.224,11.625 1.946-2.099 1.075-6.073 1.835-7.954 2.826,7.249-.462,15.701 0,23.249 2.961-1.585 1.126-4.406 1.224-7.342 .316-9.501 1.61-20.947 3.671-29.979 1.176,5.842-1.665,15.056-1.835,23.249 4.479-8.573 1.569-24.535 8.565-30.591 .778-7.379 4.23-12.083 4.282-20.19-3.856-.594-4.135,2.391-5.506,4.283-1.648-.723.002-3.19 0-4.283-2.656.403-1.17,4.948-4.283,4.895-.406-3.261.26-5.451 1.836-6.73-1.047-1.784-2.228,1.387-4.283.612 .55-1.791.55-1.879 0-3.67-4.228-.149-2.962,5.195-7.342,4.894 2.213-2.274 3.069-5.904 5.507-7.953-5.393-1.078-8.057,10.255-12.236,8.565-1.551,1.495 1.29,1.304.611,3.671-5.025,6.866.198,20.256-4.895,27.532 .498-3.642-1.057-14.404 1.224-19.578-.402-1.833-1.308.585-2.447,0 1.04-11.249 7.572-22.165 20.19-23.86-1.384-3.662-8.444.789-10.401,2.447 .491-4.545 10.213-7.254 15.907-6.73 .185-1.612-.847-2.008-2.447-1.835 1.51-1.667 4.354.506 5.507,1.224 1.047-2.459 3.068-1.829 4.282,0 1.497-1.443-.914-1.138-.611-3.059 1.537.502 2.843,1.235 3.67,2.447 1.085-.751 3.225-.446 3.671-1.835 2.281.507 2.27,3.983 5.507,1.835 1.05.989 1.52,2.559 1.224,4.895-5.901.42-11.183,1.461-16.519,2.447-1.88-.384-5.335-3.55-6.73-.612 6.196,8.282 17.413-1.583 26.92,1.835 11.015,8.846 23.382-9.07 37.932-2.447-.455-3.371-10.996-4.701-16.519-3.059 2.529-3.366 7.638-1.485 12.236-1.835-4.674-1.357-6.642-1.644-9.177-4.895-3.423-.423.375,2.576-2.447,2.447-.034-1.197-.664-2.903-2.447-1.224-1.09-.449-.089-1.112 0-1.835-4.331-.956-7.375-.474-9.178,2.447-1.521-.092-.179-2.072 0-2.447-1.259,1.188-3.732,1.162-3.059,4.283 1.28,1.438 3.057-1.803 4.895-1.835-.534,1.079-2.048,1.895 0,2.447 1.863,1.219 4.871-3.661 7.342-1.835-.527,1.716-3.186,1.301-4.283,2.447 2.176,1.411 3.583,1.22 5.507,1.835-5.269,1.983-11.219,8.031-17.131,5.506 1.291-6.05 1.885-12.799 3.671-18.354 25.03,2.652 40.506,12.164 45.273,34.261 2.059,9.539-.222,18.443.612,29.979-7.835,14.75-13.271,38.183-26.92,49.557-6.794,5.662-16.743,12.341-29.979,8.564 1.546-3.593 6.807-4.126 9.789-1.835 5.912-3.062 11.111-6.835 15.295-11.624v2.447c6.998-1.497 4.851-8.561 9.789-11.625-.146,2.505-2.078,3.225-2.447,5.507 8.931-13.142 21.727-28.786 19.578-48.945 .804-.734.962-.239 1.835,0 .756-1.98-1.979-.468-1.224-2.447 .044-.017 1.174.78 1.224.612 3.599-12.208-1.652-29.799-8.565-34.873-5.433,1.093-8.4,4.651-15.295,4.282-1.813.889.806,2.387 0,4.283-1.612-4.177-4.367.064-7.953-1.835-1.368.264-.248,3.015-.612,4.283-1.279-.556-1.865-1.806-1.835-3.671-1.563.468-2.813.901-3.671-.612-.804.216-.963,1.077-1.836,1.224 2.467,14.824-.96,28.417-4.895,42.215-.337,1.356 1.168.871 1.224,1.836-.25,4.22-1.95,7-3.09,10.35zm-45.89-56.284c.533-2.745 4.899-4.869 4.282-6.729-1.5,1.777-4.9,4.863-4.28,6.729zm19.58,29.364c2.86-.198-.201-6.319 3.059-6.118 .389,5.759-5.957,11.081-3.059,15.295 .104-1.73-.526-4.197 1.224-4.283 .429,2.672-1.041,3.446-.612,6.118-1.72-1.776-1.675.919-3.059,1.224-.86-2.532 1.745-4.726 0-6.118-1.146,3.137-.085,8.481-1.836,11.013 3.004-.556 2.33,2.564 4.895,2.447-.361-2.604.44-4.047.612-6.118-1.59.366-2.202-.245-1.836-1.835 .873.147 1.032,1.008 1.836,1.224 1.574-14.74 3.811-28.818 7.341-41.603-.135-.477-.512-.711-1.223-.612-1.08,11.165-6.7,17.785-7.33,29.385zm12.24,1.84c-4.087,1.312-4.279,6.201-3.059,11.012 1.939-3.035-.719-7.507 2.447-8.565-.831,11.201-5.258,18.807-6.118,29.979 7.795-15.73 5.824-37.705 14.071-53.228 .885,2.115-.683,2.883.612,4.283 1.036-3.68.928-10.429-1.224-12.848-.66,11.378-6.63,17.438-6.73,29.368zm9.17-14.07c-1.335.39-1.946-1.734-1.836.612-2.688,18.246-8.948,39.471-11.624,57.51 5.649-11.073 4.981-28.464 10.4-39.768-.065-3.328.178-6.348 1.224-8.565 2.341,1.179 1.137,7.593.612,9.789 2.917.878-.47-4.548 2.447-3.67 1.159,1.401-1.193,4.449.611,6.118 3.486-6.106 3.236-16.956 3.671-26.308 .185-3.961 2.416-8.449-1.224-10.401-.846,10.371-1.191,21.241-3.671,29.979-.633-10.9 1.993-21.569 1.224-30.591h-1.835c1.16,5.291.25,11.131.01,15.301zm4.29,25.69c2.796-3.923 1.869-12.035 4.283-17.742 1.661-.438-.438,2.885 1.224,2.447 .828-9.521 2.883-18.57-1.224-25.696 .9,14.036-1.86,28.386-4.28,40.986zm-20.19-13.46c1.668-7.846 6.255-19.138 4.895-26.308-1.63,8.368-5.12,18.128-4.89,26.308zm4.28.61c1.592-8.02 5.997-19.663 4.282-26.92-.79,9.61-3.79,17.02-4.28,26.92zm-7.95,21.42c2.349-1.436 2.913-10.8 1.224-12.236 .24,4.72-1.34,7.64-1.22,12.24zm-17.14,22.02c.146-5.825 4.757-7.859 1.224-12.849-.146.665-1.007,1.47-1.224.612-.738-5.479.234-12.759.612-18.966-1.185.089-.854-1.059-1.836-2.447-.56,10.69-1.05,24.09 1.23,33.66zm33.65-13.46c1.064-5.915 5.433-14.826 4.283-20.19-1.19,6.56-5.15,13.6-4.28,20.19zm-1.83,11.02c-1.179-.249-.483-2.372-2.447-1.836-.242,2.884-1.647,7.393 1.224,8.565 4.229-10.047 10.504-21.309 12.236-31.813-3.91,8.12-6.39,17.67-11.01,25.09zm-24.47-14.08c2.256.057 2.107-3.064.612-3.67-.82,1.29.3,1.81-.61,3.67zm-20.19-.61c-.059,3.525-.088,7.021 1.224,9.177-.93-3.14.48-11.96-1.22-9.18z" fill="#e31836"/>
  <path d="m242.31,98.501h1.835c.77,9.022-1.856,19.69-1.224,30.591 2.479-8.738 2.825-19.608 3.671-29.979 3.64,1.952 1.408,6.439 1.224,10.401-.435,9.352-.185,20.201-3.671,26.308-1.805-1.668.548-4.716-.611-6.118-2.917-.878.47,4.548-2.447,3.67 .524-2.195 1.729-8.61-.612-9.789-1.046,2.217-1.289,5.237-1.224,8.565-5.419,11.304-4.751,28.694-10.4,39.768 2.676-18.039 8.937-39.264 11.624-57.51-.11-2.346.501-.222 1.836-.612 .24-4.16 1.15-10 0-15.289z" fill="#8b0f04"/>
  <path d="m263.73,151.73c-2.321.534-1.242,4.468-3.671,4.895 2.233-7.353 4.201-14.969 6.118-22.637-7.823,2.784-8.283,18.227-14.684,24.472 5.083-13.665 10.717-29.4 12.849-44.05 3.015,4.477-.041,12.347.611,15.907 3.293-3.823 6.686-8.785 5.506-15.295 1.522.067 1.895,1.146 3.06,0v-5.506c4.992,4.917 2.343,19.684-2.447,23.86-.22-3.687 1.443-5.49 1.224-9.177-3.752,3.599-.825,10.927-1.836,16.519-1.432-.157-.352-2.688 0-3.059-2.719.381-1.046,1.359-1.835,3.671-.188,1.911 1.768-1.556 1.835.611 3.34-.942 1.263-7.303 4.283-8.565-.323,10.568-6.099,17.27-4.283,28.144-9.973,7.361-13.674,20.994-24.472,27.531 6.264-7.808 11.615-16.528 17.742-24.473-3.951-4.467 3.288-5.294 4.283-8.565-.381-2.126-2.557,3.437-2.447,0 2.118-1.874 4.382-3.225 4.282-8.564-1.13.571-4.192,5.972-4.282,1.835-1.217,2.658-1.021,6.729-3.671,7.953-.21-2.65 1.48-3.41 1.84-5.5z" fill="#e31836"/>
  <path d="m228.24,96.666c.711-.099 1.088.135 1.223.612-3.53,12.785-5.767,26.863-7.341,41.603-.804-.216-.963-1.077-1.836-1.224-.366,1.59.246,2.202 1.836,1.835-.172,2.071-.974,3.514-.612,6.118-2.564.117-1.891-3.003-4.895-2.447 1.751-2.531.689-7.875 1.836-11.013 1.745,1.393-.86,3.586 0,6.118 1.384-.305 1.339-3 3.059-1.224-.429-2.672 1.041-3.446.612-6.118-1.75.086-1.119,2.552-1.224,4.283-2.898-4.214 3.447-9.536 3.059-15.295-3.26-.201-.198,5.92-3.059,6.118 .62-11.61 6.24-18.23 7.33-29.374z" fill="#8b0f04"/>
  <path d="m204.38,136.43c.982,1.389.651,2.536 1.836,2.447-.378,6.208-1.351,13.488-.612,18.966 .217.857 1.077.053 1.224-.612 3.533,4.989-1.077,7.023-1.224,12.849-2.29-9.58-1.8-22.98-1.23-33.66z" fill="#8b0f04"/>
 </g>
</svg>
