<?xml version="1.0" encoding="UTF-8"?>
<svg enable-background="new 0 0 178.635 264.113" viewBox="0 0 178.635 264.113" xmlns="http://www.w3.org/2000/svg">
 <path d="m141.36.577c0,2.086-.967,8.048.654,8.952 .988.551 3.473-.566 4.41-.917 2.848-1.066 1.173.638 2.358,1.311 .424.241-.139,1.076 1.136,1.288 .874.146 2.04-.39 2.839-.153 3.919,1.163 1.479,4.624 6.463,4.345 3.048-.17 2.647,3.21 4.805,4.651 1.617,1.08 4.088.625 4.848,2.708 .183.501-2.856.964-.634,2.162 1.248.672 2.51.528 3.516,1.55 1.5,1.524-1.468,1.906 1.791,2.489 1.498.268 3.356-.604 4.957-.437 .546.057-.778,19.329-.896,21.836-1.397,29.937-1.631,59.957-1.987,89.92-.181,15.117-.285,30.235-.38,45.354-.052,8.222-.078,16.441-.078,24.663 0,3.235.009,6.471.022,9.706 .011,2.704.939,7.88-.153,10.415-1.596,3.701-7.495,3.515-10.958,4.147-6.862,1.255-13.695,2.686-20.524,4.105-13.737,2.857-27.426,5.996-41.231,8.521-14.396,2.633-28.656,6.091-43.039,8.775-7.075,1.32-14.252,2.008-21.383,2.943-3.271.43-6.512,1.019-9.759,1.595-.771.138-2.238,2.438-3.467,2.928-5.748,2.288-10.881-1.685-15.066-4.825-2.428-1.822-4.95-3.802-6.398-6.528-1.403-2.641-.405-7.242-.421-10.29-.083-15.363-.179-30.727-.257-46.091-.16-31.768-.304-63.535-.472-95.303-.074-13.943 1.168-28.7-.357-42.567-.603-5.48-4.613-14.147 2.328-16.98 1.64-.67 3.338-1.52 5.075-1.886 2.35-.495 4.312.872 6.834.611 13.635-1.412 27.768-8.289 40.677-12.619 14.304-4.797 28.6-9.622 42.947-14.29 7.394-2.406 14.787-4.809 22.191-7.182 3.651-1.17 17.132-7.381 19.609-4.907"/>
 <path d="m139.22,4.07c-25.924,9.709-52.598,18.111-78.26,28.255-11.459,4.53-23.41,7.907-34.98,12.228-2.602.972-5.462,2.407-7.904,2.271-2.075-.116-3.586-1.249-5.896-.786-1.968.394-2.464,1.217-1.048,2.838 1.152,1.318 1.569-.352 1.965-.131v-.699c1.56,3.237 4.828,4.848 8.167,5.677-4.713-1.545-12.094-4.018-13.445-9.55-1.113-4.557 3.976-1.7 5.007-1.894 12.829-2.416 24.289-7.415 36.577-11.487 14.165-4.694 28.304-9.468 42.502-14.062 13.246-4.286 26.928-7.233 40.022-11.832 1.795-.628 7.883-4.349 7.293-.828" fill="#fff"/>
 <path d="m139.569,10.141c-18.383,7.552-37.23,13.658-56.112,19.813-9.001,2.934-18.262,4.998-27.257,8.049-7.777,2.639-19.234,8.867-27.513,7.904 19.866-6.997 39.788-13.835 59.654-20.831 16.937-5.964 33.532-13.864 50.879-18.474-.218,1.286-.519,2.566.349,3.539" fill="#0f0"/>
 <path d="m146.992,10.839c.244.741-.136,1.136.395,1.79-36.142,11.429-71.891,24.373-108.786,33.278 19.625-6.57 39.502-12.289 59.282-18.369 9.848-3.027 19.547-6.446 29.211-10.011 6.416-2.367 13.163-5.789 19.898-6.688" fill="#0f0"/>
 <path d="m153.76 14.376c1.846 3.906-7.289 4.499-10.045 5.153-4.771 1.133-9.57 2.161-14.361 3.2-9.201 1.995-18.324 4.189-27.345 6.889 8.465-2.694 16.882-5.525 25.322-8.292 3.693-1.211 24.723-9.741 26.429-6.95" fill="#0f0"/>
 <path d="m162.24 21.801 1.79 0.35c-42.678 10.433-86.292 16.678-128.96 27.294 24.034-7.582 48.841-12.407 73.016-19.232 10.785-3.045 21.67-5.128 32.538-7.845 5.459-1.365 10.891-2.845 16.36-4.166 4.715-1.138 1.883 2.218 5.258 3.599" fill="#0f0"/>
 <path d="m165.771,24.29c.041,3.722-41.226,8.212-46.729,8.865 7.95-1.176 15.882-2.5 23.752-4.133 4.109-.853 8.221-1.691 12.313-2.626 2.82-.645 8.129-2.847 10.664-2.106" fill="#0f0"/>
 <path d="m168.96,29.225c-21.122,3.066-41.783,8.233-62.751,12.128-19.001,3.53-38.46,5.899-57.695,7.743 20.063-4.243 40.139-8.388 60.34-11.926 20.114-3.523 40.44-5.878 60.499-9.692-.028.174-.386,1.732-.393,1.747" fill="#0f0"/>
 <path d="m176.035,30.666c1.117,61.495-2.644,123.127-2.786,184.641-.006,2.595.028,5.173.106,7.767 .11,3.649 1.877,7.476-2.057,8.212-7.722,1.447-15.437,2.926-23.148,4.427-13.19,2.566-26.339,5.363-39.501,8.071-26.81,5.516-53.809,9.653-80.662,14.718-.649-61.332.245-122.719.611-184.052 .007-1.278-.44-20.316.266-20.395 7.59-.841 15.174-1.706 22.757-2.605 13.105-1.556 26.189-3.493 39.211-5.632 28.221-4.637 56.769-12.995 85.203-15.152" fill="#fff"/>
 <path d="m13.445,53.332c1.453.085 2.035.995 3.275,1.441 2.91,1.047 5.928.948 9.127,1.091-2.842,5.477-10.687.98-14.193-1.091-2.446-1.445-13.754-9.764-6.331-12.403-.802,5.056 4.594,8.64 8.122,10.962" fill="#fff"/>
 <path d="m21.219,49.794c-.397-.167-.738-.212-1.004-.699l5.633-2.49c.95,2.839-2.728,2.804-4.629,3.189" fill="#0f0"/>
 <path d="m157.955,50.886c.821.127 1.963.536 2.184,1.397 .214.832-2.461,2.329-2.489,3.231-.025.82 1.982,2.783 2.489,3.494-3.684,2.443-4.28,2.389-4.28,6.77-1.85-.267-4.007-1.489-5.873-1.048-3.011.71-2.141,1.638-3.735-.655-1.047-1.506.742-2.114-1.768-3.276-1.902-.881-2.377-1.63-1.9-3.362 .505-1.833 3.168-2.207 2.729-4.695-.625-3.546 1.196-1.148 3.561-1.55 1.964-.333 3.387-2.643 4.781-1.463 1.418,1.2 2.521,3.5 4.301,1.157"/>
 <path d="m32.181,49.794-5.634.743c1.665-1.126 3.866-.659 5.634-.743" fill="#0f0"/>
 <path d="m23.01,60.8c.836-.485 1.932-.783 2.838-1.092l-1.08,196.663c-.016,2.934 1.209,4.354-2.37,5.057-5.292,1.04-9.969-3.267-13.735-6.332-5.799-4.722-3.787-13.53-3.843-20.417-.066-8.156-.13-16.313-.195-24.47-.232-29.286-.46-58.573-.667-87.859-.102-14.362-.2-28.723-.292-43.084-.059-9.154.89-19.316-.833-28.378 5.292,5.509 12.188,10.343 20.177,9.912" fill="#fff"/>
 <path d="m25.499,52.982-1.441,1.092c.508-1.618.04-.84-.699-2.489l1.048-.699c.207.858.841,1.412 1.092,2.096" fill="#0f0"/>
 <path d="m155.509,54.729c.383-.311.671-.506.742-1.005-1.089,3.401-7.051-.648-8.079,4.062-.847,3.877 3.259,4.192 5.939,4.411v.743c-1.795-.435-4.022-1.463-5.328.349 .196-2.501-1.716-4.604-4.235-4.629 1.937-1.377 2.897-3.679 2.489-6.027 2.004.074 5.31,3.649 5.284-.699 1.07,1.066 1.54,2.935 3.188,2.795" fill="#ff0"/>
 <path d="m154.111,57.568c-.635,4.838-6.96-.705 0,0" fill="#f00"/>
 <path d="m156.208,59.009c.015-.582.028-1.165.043-1.747l1.048,1.048c-.055.039-1.07.672-1.091.699" fill="#ff0"/>
 <path d="m114.414,61.499c.263,2.201-1.767,10.252 0,11.704 .995.818 4.479-.691 5.677-.743-.802,3.426 1.952,7.977-1.877,9.783-2.22,1.047-4.682-1.3-4.477,3.079 .136,2.896-.519,6.164 1.746,8.428 1.492,1.492 4.729-3.362 5.35-4.52 3.52-6.557 4.907-20.533 16.377-18.386 2.271.425 10.432,2.477 10.591,4.651 .362,4.957-1.579,10.343.634,15.045 2.259-2.994 3.479-8.438 7.293-8.604 4.997-.217 2.298,3.155.873,5.765-2.099,3.844-6.36,14.03-12.228,10.7-3.037-1.724-2.855-5.885-3.363-8.909-5.707,8.579-10.847,17.168-19.128,6.376-3.169,2.92-3.83,8.312-9.39,6.922-4.283-1.071-3.592-4.741-5.503-7.621-1.7,5.391-7.836,13.404-14.192,7.774-4.462,5.731-9.59,5.973-12.01-1.747-2.931,5.11-12.379,17.109-16.944,6.834-1.571-3.535-.778-9.235 0-12.927 .499-2.365 2.727-5.338 2.402-7.402-1.618,2.652-3.495,5.085-5.481,7.468-1.655,1.986-6.148,4.675-4.625,6.964 1.663,2.5 5.481,6.383 4.909,9.02-.269,1.24-2.736,3.988-3.799,4.673-4.054,2.61-4.641-3.21-6.725-6.419-3.532-5.439-7.544-10.596-10.525-16.377-1.691,1.553-2.492,3.891-3.188,6.027-2.352-2.507-6.206-6.12-4.696-8.966 4.339-8.182 10.799-15.462 19.086-19.792 12.489-6.524 21.667,4.98 15.395,16.704l.349.349c1.545-2.083 3.745-3.355 6.245-3.93 1.981-.456 5.6.763 7.206.043 1.984-.889.663-4.296 4.281-1.397 .021-4.011 2.537-8.065 6.244-9.651 5.486-2.348 9.454-.052 12.534,4.323 .899-.553 4.687-.929 4.541-2.162-.268-2.257-1.115-8.098.044-9.542 2.558,2.707 3.953-3.447 6.374-3.537"/>
 <path d="m111.925,75.691c1.603,2.191 3.862-.324 6.027-.742 0,.792.391,4.605-.314,4.648-1.499.092-5.257-.489-5.473,1.16-.467,3.554-1.084,7.304-.262,10.852 1.168,5.041 4.363,5.911 7.84,2.861-1.349,1.885-2.225,4.668-4.303,5.874-3.616,2.098-5.509-3.666-6.175-6.335-.891-3.567-.558-7.337.036-10.918 .278-1.677-.142-5.27-2.313-2.072-1.586-3.784 2.483-2.687 3.233-5.678 .736-2.938-3.08-7.571 1.702-8.865 .002,3.072.002,6.144.002,9.215" fill="#f00"/>
 <path d="m64.454,72.459c5.715,6.378-.166,15.387-4.598,20.65-1.414,1.679-8.186,6.408-7.892,8.129 .193,1.13 1.715.763 2.271,1.441 1.136,1.387 2.081,3.032 3.101,4.563 .982,1.475 1.985,3.2 1.004,4.913-1.766,3.086-2.93.798-4.324-.568-3.127-3.063-5.542-8.011-7.877-11.708-.764-1.21-5.813-10.499-6.469-10.281-2.046.683-2.607,3.896-3.559,5.568-7.244-4.617 16.977-33.082 28.343-22.707" fill="#f00"/>
 <path d="m141.708,76.041c3.754,0 4.153.265 3.888,3.887-2.145-2.366-7.234,9.393-8.316,11.403-1.881,3.492-6.4,10.633-11.052,6.415-4.821-4.371-2.324-12.479.066-17.569 2.03-4.323 12.678-12.544 15.414-4.136" fill="#f00"/>
 <path d="m101.313,77.438c.803,1.73.224,3.892-1.79,4.28-.413-8.394-15.059-2.677-4.936,3.494 5.362,3.269 13.293,4.018 8.953,12.752-1.627,3.273-5.816,5.972-9.303,3.582 2.554-2.04 7.306-.435 8.319-4.499 1.618-6.486-5.219-7.615-9.804-9.477-14.815-6.015 3.189-20.629 8.561-10.132" fill="#f00"/>
 <path d="m141.708,77.438c.452,2.505-3.78,8.994-4.89,11.092-1.407,2.661-5.51,11.23-9.39,6.9-3.576-3.992.575-13.631 3.316-16.995 4.531-5.558 6.091-1.725 10.964-.997"/>
 <path d="m62.664,78.836c.444,6.856-3.599,12.173-8.297,16.486-.979.898-1.636,2.432-2.839,3.035-2.136,1.07-1.735-1.037-2.402-1.834-2.105-2.515-3.677-6.113-5.437-8.926-1.405-2.246 2.128-4.773 3.934-6.383 4.741-4.231 10.334-7.472 15.041-2.378"/>
 <path d="m139.22,78.137c-2.064,5.969-5.318,11.653-9.564,16.333-2.64-3.955.153-11.113 2.664-14.63 2.591-3.631 3.526-1.372 6.9-1.703" fill="#fff"/>
 <path d="m60.567,79.185c1.512,7.106-4.917,12.115-9.564,16.333l-5.161-8.318c-.599-.965 3.842-5.387 4.637-6.094 2.377-2.114 7.565-5.297 10.088-1.921" fill="#fff"/>
 <path d="m106.247,83.814c.894.526.551,4.646.044,6.376-1.204-2.743-3.205-5.655-6.419-6.027 3.18-.673 4.128-2.49 4.279-5.633 .662,1.847-.736,5.634 2.096,5.284" fill="#fff"/>
 <path d="m96.685,80.233c-.612,1.241.021,2.512.74,3.581-1.064-.445-3.78-1.776-3.886-3.057-.184-2.242 2.278-1.51 3.146-.524" fill="#fff"/>
 <path d="m147.692,93.378c3.39-1.208 6.237-9.452 8.559-8.865-1.472,3.303-7.962,15.564-11.792,10.874-2.54-3.11-.518-9.761.787-12.97 .092,3.686-.125,8.21 2.446,10.961" fill="#f00"/>
 <path d="m83.582,95.475c-2.713-3.661-6.003,6.874-7.336,8.866-1.892,2.826-6.246,7.931-9.739,4.192-2.886-3.089-1.073-12.771.456-16.265 1.854-4.236 5.002-7.708 9.894-7.404-5.389,1.798-7.052,7.354-7.773,12.402-.333,2.329-1.632,8.342 1.223,9.695 4.901,2.323 12.714-19.406 12.577-23.496 1.279,3.735.719,8.304.698,12.01" fill="#f00"/>
 <path d="m99.172,92.287c1.969,2.713-.515,7.915-3.493,4.979 4.348,1.5 3.052-3.134.699-4.891-2.413-1.802-5.393-1.297-7.25,1.113-1.019,1.322.407,10.411-2.882,5.831-1.963-2.735-.743-12.234-.873-15.154 2.395,5.566 8.806,6.355 13.799,8.122" fill="#fff"/>
 <path d="m79.695,88.443c-2.096,5.61-5.568,10.549-8.123,15.94-.242-4.461-.538-9.87 1.92-13.826 .863-1.389 2.724-4.176 4.587-4.211 1.584-.028 2.481.541 1.616,2.097" fill="#fff"/>
 <path d="m94.894,94.427c-1.091.895-1.991,2.12-1.704,3.537-4.294.683-1.199-7.46 1.704-3.537" fill="#f00"/>
 <path d="m85.329,102.943c2.891-.01 5.012.137 6.07-2.839 .118.069.57.308.699.349-1.48,1.737-3.179,5.307-5.875,4.892-3.944-.608-2.947-6.625-2.947-9.127 .414,2.308.27,5.104 2.053,6.725" fill="#f00"/>
 <path d="m150.88,102.593c2.457-.765 3.038.436 2.467,2.38-.649,2.214-.068,1.402.634,2.686 .623,1.138 2.938.375 1.267,2.882-.56.84-2.911.65-3.625,1.747-.479.738.656,2.844 0,3.756-1.107,1.54-1.187.131-2.488.218-.907.061-1.568-.838-2.796-.611-1.462.271-1.811,2.639-3.537,1.354-.693-.516-.213-2.096-.655-2.751-.782-1.16-1.593-1.028-2.228-1.703-1.382-1.468-2.367-.071-1.483-2.708 .499-1.491 2.774-1.84 3.077-3.56 .313-1.774-1.784-2.365.021-3.69 .87-.639 2.657.897 3.823,0 2.232-1.718 3.934,2.666 5.523,0"/>
 <path d="m150.182,106.131 .698-1.048c-.08.909-.422,1.967-.698,2.838-4.029-5.438-8.777,4.676-3.844,4.935-.532.649-1.422,1.351-2.139,1.791 .45-3.091-.866-3.691-3.582-3.93 1.803-1.522 3.756-3.587 2.14-5.983 1.453,1.099 2.581,1.863 3.648.114 .444-.726 2.658,1.476 3.777,1.283" fill="#ff0"/>
 <path d="m132.102,107.877c5.729,8.866-9.838,17.701-11.923,9.695-.513-1.968.868-5.106 3.036-5.503 2.959-.542 5.158,4.02 2.51,4.367-1.575.207-.491-3.952-3.012-1.921-.675.543-1.214,2.122-.831,2.97 1.085,2.407 4.773,1.253 6.311.306 2.778-1.712 4.646-4.575 2.992-7.773-2.997-5.799-9.734-2.1-13.494.742-10.731,8.112-18.236,19.547-31.828,23.544-6.441,1.894-26.86,1.258-22.871-10.77 2.907-8.769 13.25,1.668 6.397,2.817-3.739.627 2.337-2.69-.087-4.455-2.969-2.161-5.314,2.565-4.717,4.891 1.57,6.113 11.49,7.75 16.552,6.987 7.75-1.168 14.173-5.604 19.937-10.656 6.278-5.501 22.374-25.951 31.028-15.241"/>
 <path d="m153.021,108.969c-.684.561-1.645.907-2.49,1.048v-1.398c.983.75 1.516.184 2.49.35" fill="#ff0"/>
 <path d="m146.992,110.716-.654-.699c.489-.357 1.169-.886 1.747-1.048 .582,1.268-.232,1.176-1.093,1.747" fill="#f00"/>
 <path d="m86.77,109.668c.983,2.767 2.71.195 4.542.393 4.568.494-1.489,4.41 1.529,7.424 2.738,2.734-3.306,2.933-4.891,4.804-.78.921-.538,3.377-1.835,3.712-1.062.274-2.342-1.938-3.669-2.183-2.303-.426-6.75,2.875-4.869-2.031 1.708-4.455-2.064-1.949-2.817-4.651-.464-1.665 1.834-1.728 2.794-2.665 .716-.699 1.908-3.963 2.14-4.105 1.292-.793 1.887-.186 3.167.502 2.039,1.098 1.103-2.555 3.909-1.2"/>
 <path d="m90.308,112.506c-1.12,1.851-1.787,4.326.393,5.678-.511.342-1.527.677-2.14.742 .437-3.374-3.472-6.508-6.026-3.319-2.765,3.452 2.214,7.027 4.935,4.018-.814,1.165-1.63,2.329-2.444,3.494-1.224-2.868-3.471-1.167-5.679-.698 1.084-2.434 2.506-5.445-1.397-5.634 1.838-.536 3.003-2.438 3.188-4.28 1.628,1.127 3.693,2.629 4.237-.699 1.455,2.309 2.831,2.354 4.933.698" fill="#ff0"/>
 <path d="m149.134,113.948-1.398-1.092c.372-.168 1.311-.316 1.746-.349l-.348,1.441" fill="#ff0"/>
 <path d="m86.071,117.791c-.646.333-1.262.578-2.096.393l.699-1.397c.668.2 1.138.609 1.397,1.004" fill="#f00"/>
 <path d="m160.1 120.28c-0.119 5.058-3.854-3.162 0 0"/>
 <path d="m154.811,122.42c-1.171,3.886 1.605,1.619 1.921,2.489 .781,2.154.219.013-.48,1.572-.548,1.222-3.115.4-1.44,3.406 .143.255 2.624.996 3.188,1.791 3.624-9.61 6.66,5.15 7.056,9.053 .873,8.594-3.613,16.94-10.243,22.435 2.266,1.53.522,10.063.439,12.943-.141,4.891-.143,9.776-.095,14.669 .067,6.88-.058,14.987-.388,20.601-.109,1.854-.195,4.631.043,6.726 .585,5.135 1.132.731 3.537,2.926 1.667,1.521-1.641,1.383-1.966,1.835-1.321,1.837-.422,3.223-1.571,5.153-1.278-.82-.822-1.956-1.616-2.796-.268-.283.097-1.271-.174-1.483-.717-.561-4.444.352-5.489.485-7.121.911-14.19,2.078-21.23,3.486-14.303,2.858-28.771,4.354-43.002,7.6-10.15,2.314-20.169,4.496-30.287,6.856-2.565.599-5.157,1.095-7.73,1.66-.769.169-3.296.308-3.843.873-.858.887.292,4.958-.961,5.328-2.312.683-1.056-3.498-.938-4.083 .431-2.157-2.96.433-3.363-1.311-.234-1.014 3.123-.87 3.123-2.552v-9.349c0-2.972 1.858-14.844-1.048-16.42 1.533-1.693 1.411-3.485 1.432-6.369 .05-6.56.324-13.118.472-19.676 .162-7.187.221-14.361.11-21.549-.052-3.372-.276-6.737-.514-10.1-.201-2.832 1.388-8.336.029-10.479-.502-.792-3.661.698-2.511-1.267 .617-1.055 2.598-1.198 3.472-2.096 .115-.118-1.391-3.257.655-2.097 1.002.568.204,2.776 1.092,3.494 .785.635 5.692-.596 6.721-.703 13.837-1.447 27.621-3.814 41.251-6.58 12.596-2.555 25.135-5.325 37.691-8.063 6.712-1.463 13.406-3.013 20.132-4.393 .775-.159 3.925.017 4.389-.437 .477-.467.082-1.49.393-1.833 .771-.857-.95-3.458 1.743-1.745"/>
 <path d="m152.32 128.1c0.244 2.668-2.148 4.91-1.791 8.167-0.792-1.579-2.646-3.215-4.542-2.49-2.833 1.082-2.139 5.896-2.139 8.167-0.912-2.109-3.905-9.881-2.142-12.054 1.131-1.391 8.809-1.736 10.614-1.79" fill="#f00"/>
 <path d="m139.918,138.753c-2.538,1.259-1.655,5.676-1.791,8.123 .044.047-.66-.332-.698-.349 2.642-2.535-1.45-2.28-2.859-1.944-2.358.563-4.796.646-7.054,1.595 .367-4.174-.702-11.066 2.882-13.364 2.105-1.351 6.733-1.857 9.172-2.227l.348,8.166" fill="#f00"/>
 <path d="m160.794,130.543c3.712,12.665 2.879,22.784-8.432,31.169-11.817,8.761-20.982,20.326-31.637,30.449-3.549,3.372-7.35,6.257-11.246,9.174-4.11,3.077-8.614,9.446-11.313,14.324-.569,1.029-3.084,9.023-3.58,9.171-1.847.549-2.455-2.194-2.357-3.385 .573-6.977 4.722-12.332 9.267-17.333 2.875-3.163 5.851-6.27 9.817-7.669 1.814-.64 6.029-.842 3.451-3.844 3.083-.982 6.207-5.388 8.634-7.597 3.238-2.947 6.612-5.874 9.467-9.205 2.169-2.53 5.365-5.653 5.48-9.139 .084-2.546-1.648-5.317-2.314-7.729 2.094,2.205 6.947,8.377 8.473,2.14 .821-3.359-2.343-8.273-2.796-11.704 1.696,1.927 2.478,4.496 4.236,6.354 2.529,2.671 5.188.95 4.936-2.489-.205-2.775-2.085-5.035-2.577-7.708-.383-2.082-1.046-3.537 1.529-.742 1.645,1.785 1.653,6.454 4.41,7.249 3.369.972 2.56-3.293 2.184-5.502-.571-3.36-2.285-6.557-2.664-9.913 3.581.646 3.199,10.446 6.813,8.777 4.647-2.145-1.455-12.012.219-14.848" fill="#bfdfff"/>
 <path d="m159.744,140.5c.015.364.029.728.044,1.092-.677-1.713-1.424-3.368-2.467-4.892-1.188-1.732-4.01-1.978-3.865-3.318 .336-3.124 6.58,4.31 6.288,7.118" fill="#bfdfff"/>
 <path d="m125.375,146.876c-2.348.671-4.738,1.741-6.682-.327-1.114-1.186-4.866-.848-5.175-1.464-.778-1.55-2.357-6.932-.895-8.471 .698-.735 5.631-.978 6.855-1.311 2.22-.604 4.402-1.325 6.638-1.879-.262,4.494-.942,8.938-.741,13.452" fill="#f00"/>
 <path d="m151.622,139.103c1.621,3.373 2.609,6.923 3.188,10.612-1.404-2.813-4.103-10.673-8.473-8.473 .117-1.659.233-3.318.351-4.978 2.196.404 2.432,4.978 4.934,2.839" fill="#bfdfff"/>
 <path d="m110.484,141.199c-1.551-.372-2.896.027-2.797,1.79-3.459-.917 1.482,3.818 1.442,5.066-.061,1.912-2.37-2.362-2.62-2.664-2.074-2.501-5.861-4.341-9.085-3.45-1.393-4.364 9.733-4.389 12.754-4.979 .111,1.355.26,3.07.306,4.237" fill="#f00"/>
 <path d="m94.894,139.801c1.197,5.041-4.884,7.528-2.795,12.403-9.027,2.191-4.328,10.188-7.074,15.94-.06-1.755-.512-3.451-.613-5.197-.114-1.963.966-3.778.962-5.415-.005-2.235-1.422-5.101-1.485-7.643-.067-2.705.229-5.319-.611-7.948 3.838-.739 7.917-1.434 11.616-2.14" fill="#f00"/>
 <path d="m37.509 141.9c-1.489 4.302-3.125-3.77 0 0"/>
 <path d="m143.457,145.086c2.904-1.304 5.37,6.908 4.978,9.607-2.091-1.582-2.491-4.279-4.127-6.201-.782-.919-3.358-1.127-3.69-1.616-.653-.963 0-4.413 0-5.634 1.31,1.077 1.566,2.998 2.839,3.844" fill="#bfdfff"/>
 <path d="m81.442,156.79c-1.296.247-2.592.495-3.888.742 1.369-3.003 1.439-5.334-.698-7.927-1.705-2.068-6.041-2.698-6.333-4.825 3.649-.731 7.322-1.37 10.961-2.14 .001,4.663.144,9.674-.042,14.15" fill="#f00"/>
 <path d="m110.134,144.736-.654-1.397h.699c-.011-.261.055,1.863-.045,1.397" fill="#0f0"/>
 <path d="m103.802,145.435c-2.138-.51-4.586-.724-6.07,1.201-1.056,1.37-1.019,7.328-3.232,5.524-1.432-1.167-.352-5.801 1.551-6.026 1.498-.178 1.803-1.618 2.927-2.336 1.45-.927 3.707,1.067 4.824,1.637" fill="#ff0"/>
 <path d="m68.34,146.178c-5.811-.406-10.512,2.351-13.058,7.468-.246-4.601-.227-6.649 4.236-7.468 2.898-.531 5.932-.76 8.865-1.048 .002.016-.038,1.119-.043,1.048" fill="#f00"/>
 <path d="m105.2,149.016c3.068,5.359-4.308.219-6.727,1.049 1.023-3.409 4.704-4.055 6.727-1.049" fill="#f00"/>
 <path d="m52.794,154.3c.768.748.484,1.379 1.747,1.441-1.098,3.16-3.575.347-5.983.743-3.283.54-3.714,3.938-6.419,5.284-.093-3.58-1.725-12.078.83-13.582 2.229-1.312 7.894-.704 10.524-.961-.228,2.317-.476,4.916-.699,7.075" fill="#f00"/>
 <path d="m133.15,147.226c-1.022,2.108.895,3.847.437,6.026-5.605-5.129-4.646,5.06-3.778,7.665 .921,2.766 3.931,6.75 3.604,9.542-.276,2.357-2.931,4.276-4.455,5.852 .82-1.204 3.545-5.747.044-5.677-2.57.052.264,6.518-3.975,5.284 3.197-5.866 3.071-10.787 2.654-17.33-.133-2.075-1.122-9.474.949-10.228 1.446-.525 3.153-.852 4.52-1.134" fill="#f00"/>
 <path d="m121.839,151.854c.461,3.611-1.139,5.87-4.259,7.512-1.033.543-6.263.53-6.136.394-.972,1.05.401,2.72 1.463,2.97 6.908,1.624 13.562-6.723 10.722-13.015l1.746-.35c-.277,5.699-.731,11.892-7.292,14.412-2.101.808-3.359.197-4.893-.044-.801-.126-1.704-2.476-2.576-.306-.403,1.004.18,2.192-.392,3.188-.853,1.483-3.065.64-2.535,2.971-2.976-.549-4.7-1.002-4.628-4.586 .051-2.53 2.359-7.743 4.979-4.323-2.556-1.431-4.985,2.975-3.494,5.152 2.224,3.248 6.018-1.556 6.027-4.018 .009-2.224-2.808-4.795-4.979-4.498-3.115.426-4.441,4.882-4.564,7.445-.055,1.142.416,3.703-.72,3.734-1.4.038-1.435-3.256-1.463-3.975-.09-2.267.475-4.653 1.921-6.441 .76-.938 4.064-.616 4.084-1.593 .077-3.893-5.229-.205-6.093.851-2.003,2.447-2.265,5.983-2.031,9.063-1.249-1.844-3.696-4.994-1.899-8.254 1.117-2.024 2.498-6.085 5.395-6.026 1.011.021 6.918,2.808 8.144,3.646 1.986,1.357 1.896,3.41 4.586,3.822 2.171.331 3.791-1 5.132-2.577 4.246-4.994 1.627-7.799-3.669-9.433 2.936.358 5.744,1.977 7.424,4.279" fill="#ff0"/>
 <path d="m139.22,149.365c.495,3.961 2.108,7.687 2.488,11.661-1.942-.918-4.748-6.575-7.423-4.193-2.116,1.885 1.663,8.822 1.396,11.312-3.189-3.588-4.258-8.792-4.586-13.451 5.843,5.261 4.285-3.733 4.237-7.118 .712,1.55 2.254,2.669 3.888,1.789" fill="#bfdfff"/>
 <path d="m74.716,150.414c8.167,8.17-11.728,13.68-15.021,16.866-3.778,3.657-7.467,6.691-12.535,3.31-2.194-1.464-3.196-3.422-2.795-5.983 .316-2.02 1.876-4.652 3.756-5.437 2.751-1.148 3.924,1.669 6.463,1.55 2.258-.105 4.974-3.145 5.24-5.283 .51-4.094-2.547.396-3.144,1.396 1.943-4.372 3.727-8.047 8.865-8.56 3.176-.316 6.499.371 9.171,2.141" fill="#dfdfbf"/>
 <path d="m118.302,151.155c-2.478-.241-7.32-.32-5.373,3.801 1.222,2.586 1.668-3.365 4.673-1.311-.667,1.486-1.774,2.999-3.341,3.603-3.819,1.473-3.034-4.725-3.034-6.485 1.175,1.376 4.357-2.659 7.075.392" fill="#ff0"/>
 <path d="m108.388,150.763c.189.582.618,1.748.044,2.489 .024-.82-.064-1.752-.044-2.489" fill="#f00"/>
 <path d="m94.544,154.3c-.148.62-.599,1.271-1.005,1.791-2.952-3.211-5.464,5.064-4.279,7.424 .843,1.679 6.958,5.786 8.165,4.63 .367.375 1.164,1.322 1.398,1.79l-7.074-.349c4.384-.346-2.611-3.416-3.406-4.936-2.222-4.245.845-11.608 6.201-10.35" fill="#ff0"/>
 <path d="m92.448,163.908c-2.255-1.527-1.503-5.202.349-6.726-.357,2.216-.383,4.484-.349,6.726" fill="#f00"/>
 <path d="m82.141,174.172c-1.65.772-3.351.396-5.043.895-2.318.683-1.928,2.495.436,2.358 .765-.044 4.968-1.424 5.016-.461 .214,4.347 1.375,6.162-2.417,8.059-1.586.794-4.15,2.297-5.59,1.508-1.714-.939-.897-3.504-1.703-4.018-4.964-3.164-1.401,3.615-.917,4.761-1.411.521-2.818.375-4.236-.067-1.292-.402-2.022-2.356-2.228-2.423-2.759-.891-3.986,5.083-7.73,5.678 .75-1.957 1.697-4.017 1.966-6.114 .28-2.184-1.281-4.001-1.223-5.59 .067-1.816 2.771-5.363 4.192-6.376l-1.048-1.049c.992-.764 2.017-1.396 3.188-1.746-1.168.952-1.297,3.418.479,3.887 1.083.286 1.229-1.882 2.599-1.987 1.122-.087 1.545-1.069 2.467-1.463 1.933-.825 6.749-3.781 5.852.698-.504,2.52-3.197,6.323-6.07,5.59 4.557-.425 1.4-4.09-1.048-2.489-2.973,1.944 1.398,3.704-.349,5.328-1.057-1.835-5.768-5.158-4.28-1.092 .148.404 3.115,3.222 3.668,3.406 1.637.547 4.045-1.646 2.751-3.057 4.298.141 10.504-7.937 6.486-11.333-2.334-1.974-4.951-.759-7.185.578-5.703,3.412-2.204.637-2.14-1.647 4.087-.246 5.44-4.511 8.735-6.158 1.599-.8 3.406-.37 5.066-.567 .116,4.928.451,10.04.306,14.891" fill="#f00"/>
 <path d="m123.629,163.166c.464-.875 1.177-1.678 1.746-2.489 .116,1.193.233,2.388.35,3.581-.671-.35-1.512-.617-2.096-1.092" fill="#f00"/>
 <path d="m149.832,167.751-1.397.044 5.327-3.537c.322,2.266-2.265,2.954-3.93,3.493" fill="#f00"/>
 <path d="m120.791,166.703c-2.067,2.658-6.672,2.107-10.265,2.532 .851-.444 1.295-1.901 1.879-2.183 .872-.42 1.104.135 2.314-.131 1.787-.391 5.121-1.4 6.072-.218" fill="#ff0"/>
 <path d="m125.375,167.053c.017.727 0,1.455 0,2.183 .295-1.593-.658-2.909-2.095-3.58 .852.321 1.511.925 2.095,1.397" fill="#ff0"/>
 <path d="m64.104 167.05c-2.63 2.05-5.736 5.954-8.472 7.119 0.681-2.029 6.576-7.146 8.472-7.119" fill="#dfdfbf"/>
 <path d="m122.888,170.24-.656.742c.656-1.343 1.002-2.935-.35-3.887 1.182.802 1.674,2.054 1.006,3.145" fill="#ff0"/>
 <path d="m51.352,174.172c.797.584 3.538,3.788 3.538,4.432 0,2.266-10.563,2.056-12.402,2.293-.117-4.483-.233-8.968-.35-13.451 1.625,3.551 5.202,6.592 9.214,6.726" fill="#f00"/>
 <path d="m88.909,170.24c-1.97,1.111-2.562-.554-1.092-2.096 1.266.674 1.263,1.196 1.092,2.096" fill="#f00"/>
 <path d="m153.021,180.504c-3.457,1.421-7.256,1.949-10.962,2.184 .251-3.671-1.246-9.879 2.839-12.054 2.5-1.331 5.836-.133 8.472-1.746 .361,3.845-.548,7.9-.349,11.616" fill="#f00"/>
 <path d="m119.698,170.59c-.209,6.998-2.986,14.796-9.127,18.298-.556.316-1.588,1.48-2.229,1.484-1.103.006-1.279-1.589-1.571-1.571-1.29.076-1.954-.041-1.921,1.66-4.367-.775-7.898-4.021-9.957-7.817 2.546-.617 5.166-3.327.785-4.236 .54-.35.853-1.06 1.398-1.398-1.118-1.103-2.771-1.188-4.28-1.091 2.169-1.333-.683-2.059.35-3.406 .962-1.255 6.544-.46 8.208-.481 6.093-.081 12.516-.248 18.344-1.442" fill="#bfbfbf"/>
 <path d="m89.958,172.729c.452-.267.524-.603 1.092-.699v1.398c-2.128-1.056-7.871,2.715-6.375-2.097 1.054,1.89 3.394,2.076 5.283,1.398" fill="#f00"/>
 <path d="m123.28,174.172c.441-.957.932-1.894 1.396-2.84-.184,1.197-.739,1.938-1.396,2.84" fill="#ff0"/>
 <path d="m116.56 173.43c-3.35 1.975-0.556-4.402 0 0"/>
 <path d="m108 175.57c-3.269-0.167 0.153-3.327 0 0"/>
 <path d="m98.125,174.172c-.63,3.749-3.278-.802 0,0"/>
 <path d="m103.453,174.87c-.837,1.17-2.316,1.073-2.49-.698 1.059-.232 1.768.081 2.49.698"/>
 <path d="m85.329 181.6c-1.704-4.909-0.249-5.395 4.629-6.725-2.688 1.214-1.972 5.293-4.629 6.725" fill="#f00"/>
 <path d="m117.95 176.31c-2.765 3.2-1.983-3.749 0 0"/>
 <path d="m127.17 178.06-13.8 12.403c4.344-3.857 7.12-8.838 8.166-14.543 1.614 1.283 3.446 3.465 5.634 2.14" fill="#f00"/>
 <path d="m136.031,183.691-3.537.393 7.424-8.166c-.177,2.665 1.124,9.695-3.887,7.773" fill="#f00"/>
 <path d="m112.27 177.36c-0.085 4.508-3.83-2.051 0 0"/>
 <path d="m105.548,180.504c-1.315,1.125-3.257,2.077-2.837-.655 1.268-.289 2.156.036 2.837.655"/>
 <path d="m109.784,180.853c-1.04,1.276-1.611.829-1.746-1.004 1.168-.158 1.291.377 1.746,1.004"/>
 <path d="m57.335,184.434-1.354,4.979c-1.389-.387-7.091-9.313-7.447-5.022-.266,3.216 1.959,3.703 3.254,5.721 2.771,4.317-2.319,1.636-5.24,3.102-4.392,2.203 2.538,2.104 3.755,1.878-1.239,3.101-5.621,1.314-8.167,2.096v-14.498c4.244.316 8.116-.55 12.272-1.136 5.254-.743 1.131.42 2.927,2.88" fill="#f00"/>
 <path d="m65.153,182.293c-1.543.581-6.698.003-3.538-1.353 1.181-.506 3.469.418 3.538,1.353"/>
 <path d="m114.76 182.64c-3.924 2.437 0.728-5.015 0 0"/>
 <path d="m93.495,182.992c-.797,2.367 1.741,3.673 2.533,5.678l-8.908,2.14c-.041-1.863-1.052-6.388-.262-7.686 1.105-1.814 4.634-.629 6.637-.132" fill="#f00"/>
 <path d="m152.671,194.347c-3.585.84-7.305,1.112-10.963,1.442 0-3.896-2.049-10.523 2.469-10.919 2.853-.25 6.141-1.676 8.844-1.484-.116,3.613-.235,7.504-.35,10.961" fill="#f00"/>
 <path d="m100.96 184.78c-1.773 3.764-2.93-2.546 0 0"/>
 <path d="m104.851,184.434c.799,4.4-4.316.448 0,0"/>
 <path d="m109.086,184.783c.192,1.194.416,1.918-1.048,2.49-.434-1.46-.233-2.556 1.048-2.49"/>
 <path d="m113.37 185.83c-1.729 3.745-3.15-2.842 0 0"/>
 <path d="m69.04,193.604c-.75-.003-1.354-.095-1.311,1.049 .082,2.171 4.653,1.324 5.495,1.273 3.406-.21 2.623,2.966 3.305,5.997 .562,2.495 1.525,5.457 1.333,7.533-.198,2.136 1.264,2.055-1.959,2.897-2.863.749-5.942.771-8.881.771-6.073,0-12.26-1.107-18.158-2.489l5.327-12.402c3.181,4.995 9.529-1.718 4.281-5.635 2.203-.399 2.854-2.122 4.586-3.188 2.812-1.729 2.297-.451 4.978,0 4.974.837 11.246-1.014 15.242-3.93-3.695,3.927-8.004,10.266-14.238,8.124" fill="#dfdfbf"/>
 <path d="m139.57 196.09-10.963 2.141c0-3.919-1.603-9.307 2.01-11.225 2.528-1.342 6.215-0.611 8.953-1.527v10.611" fill="#f00"/>
 <path d="m82.84,191.509c-.772.152-1.656.029-2.446.044 1.623-1.726 3.633-3.164 4.63-5.372-.231,1.885 1.107,6.038-2.184,5.328" fill="#f00"/>
 <path d="m99.522,190.81c-2.108,3.94-6.647,5.389 1.092,6.027-.672,2.779.194,5.878-2.84,7.468-1.042.546-3.882.526-5.239.96-1.838.587-3.46,1.339-5.415,1.529v-7.613c0-3.193-.638-4.971 1.31-6.318 2.214-1.533 8.439-2.38 11.092-2.053" fill="#f00"/>
 <path d="m116.205,200.374c-.102-2.901 7.598-7.839 9.912-9.913 0,1.061.443,8.042-.23,8.164l-9.682,1.749" fill="#f00"/>
 <path d="m112.273,193.256c-.44,2.663-9.873,1.269-12.401,1.135 1.645-3.2 5.473-1.323 8.209-1.419 1.848-.065 3.55-2.237 4.192.284" fill="#bfbfbf"/>
 <path d="m84.63,209.938c-.979-.827-1.729-.009-3.057.523-2.003.801-1.922-3.388-2.271-4.826-.797-3.287-.429-8.957-1.748-10.896 2.203-1.033 4.752-1.032 7.12-1.441 .001,5.518.189,11.207-.044,16.64" fill="#f00"/>
 <path d="m58.776,195.745c-.06.886-.517,2.1-1.484,2.183-2.16.185-1.066-3.213-.961-4.279 1.139.269 2.086,1.17 2.445,2.096" fill="#dfdfbf"/>
 <path d="m46.024,212.428c1.003,1.813 3.468.072 5.328.698-1.735.354-3.433.92-5.174,1.223-.754.132-1.792.485-2.555.35-2.28-.406-1.383.304-2.096-1.703-.751-2.112.486-6.496.611-8.778 .244-4.424-.909-5.149 3.93-5.634-2.128,4.842 6.346-2.306 7.424-3.144-2.146,5.811-5.422,11.171-7.468,16.988" fill="#f00"/>
 <path d="m141.36,210.287c.065-2.276-1.066-10.499.348-12.053 2.035-2.236 8.483.26 10.963-2.097v12.566c0,.586-10.022,1.425-11.311,1.584" fill="#f00"/>
 <path d="m105.2,197.186c-.713.794-1.679,1.443-2.489,2.141-.094-.702.141-1.808.349-2.489 .787.512 1.298.114 2.14.348" fill="#f00"/>
 <path d="m139.22,210.637c-3.664.74-7.331,1.463-11.006,2.14 0-3.21-1.739-11.692 1.682-12.381 3.134-.63 6.148-1.712 9.324-2.161v12.402" fill="#f00"/>
 <path d="m125.725,201.073c0,2.116 1.305,10.953 0,12.402-.865.961-8.647,1.529-10.263,1.79-.097-2.049-.782-11.406.393-12.752 1.098-1.257 7.984-.786 9.87-1.44" fill="#f00"/>
 <path d="m113.366,215.615c-3.083.632-6.013,1.839-9.215,1.441 .455-4.635 2.11-13.853 8.822-13.845 .131,4.136.262,8.269.393,12.404" fill="#f00"/>
 <path d="m95.636,207.099c-1.873,2.617-3.784,7.998-6.376,9.216 1.273.601.724,2.085.349,3.581-1.145-1.658-3.45-3.211-1.048-4.979-1.786-1.385-.744-3.74-1.44-5.677 2.902-.384 5.711-2.11 8.515-2.141" fill="#f00"/>
 <path d="m83.931,215.266c-1.851.38-3.241-.149-2.729-2.03 .328-1.203 2.995-1.089 3.823-2.25 .097,1.535.395,3.442-1.094,4.28" fill="#f00"/>
 <path d="m152.671,221.248-11.311,1.791v-10.023c0-.658 5.097-1.118 5.896-1.2 .667-.068 5.415-.61 5.415.136v9.296" fill="#f00"/>
 <path d="m97.382,212.776c.923,2.825-1.976,7.798-4.323,6.813 .69-1.728 3.246-6.657 4.323-6.813"/>
 <path d="m139.22,223.389-11.355,2.14c-.016-1.277.314-2.215 1.093-2.838-1.821-1.334 1.211-3.667-.743-3.888 0-4.277.131-3.67 3.953-4.279 2.363-.377 4.705-.932 7.053-1.397-.001,3.42-.001,6.841-.001,10.262" fill="#f00"/>
 <path d="m78.996,213.476c.085.31.048.512.35.742-2.521-.259-4.938.421-7.424.698 2.391-.231 4.757-.821 7.074-1.44" fill="#f00"/>
 <path d="m100.222,218.41c-.967-.686.919-2.967 1.789-4.585 .13,1.796.243,4.185-1.789,4.585" fill="#f00"/>
 <path d="m60.917,214.916c.452,2.799-4.214,3.201-6.114,4.368-4.294,2.637-6.035,5.166-5.59,10.175-2.468.008-5.012-.284-7.424.35v-9.034c0-3.596-.502-3.4 2.707-3.936 1.697-.283 8.187-2.451 7.97-.066-.232,2.568 2.424,4.293 2.424,1.311 0-4.661.864-3.851 6.027-3.168" fill="#f00"/>
 <path d="m126.117,225.878c-3.405.582-6.812,1.207-10.263,1.441v-1.092c.733.069.89-.178 1.398-.35-1.787-.668-2.769-6.616-1.398-8.166 1.026-1.161 7.926-1.997 9.87-2.097 .139,3.421-.265,6.883.393,10.264" fill="#f00"/>
 <path d="m70.48,223.389c1.665.208 6.928,1.954 6.551-.917-.407-3.093-7.716-1.268-5.721-4.629 1.992-3.355 11.764-.592 14.192,1.397 4.441,3.637.935,6.398-2.293,9.192-5.616,4.864-23.477,7.316-29.674,2.599-6.063-4.615 1.723-10.829 6.682-11.485 .285,3.025-.536,6.858 4.28,6.552 4.85-.309 4.155-5.344-1.092-4.806l3.188-4.978c2.603,1.743.42,6.233 3.887,7.075" fill="#ffff40"/>
 <path d="m112.974,228.019c-3.132.071-6.045,1.41-9.172,1.44-.009-.463.543-3.096.523-3.122-.756-1.038-.771-3.083-.523-4.302 .515-2.538.271-2.086 3.078-2.62 2.041-.39 4.078-.802 6.094-1.311v9.915" fill="#f00"/>
 <path d="m101.313,220.55c-.089,2.216.824,5.547-1.091,7.119l1.441.35c-.908,3.544-7.979,2.945-11.705,3.537-.001-.368.196-.411.35-.699-2.55-1.018-1.994-4.399-.35-6.026 1.839,2.029 4.445,4.345 6.857,1.746 1.71-1.843.409-3.581 1.31-5.633 1.057-.085 2.201-.314 3.188-.394" fill="#f00"/>
 <path d="m160.79 225.53c-3.58 4.843-2.517-4.853 0 0"/>
 <path d="m87.469,231.162c-.784,2.686-11.565,3.082-14.499,4.28v-.698c3.454-.951 6.878-2.085 10.066-3.735 2.822-1.46 2.924-2.192 4.433.153" fill="#f00"/>
 <path d="m53.143,233.651c.021,1.193-.682,5.02.698,5.721 2.533,1.287 1.773-3.607 1.792-4.628 4.693,1.578 10.125.875 14.891,0-3.267,2.471-7.512,2.61-11.354,3.536-5.914,1.425-11.722,2.897-17.73,3.931 .132-2.962.098-6.023 1.135-8.21 .535-1.128.459-.643.306-1.703 3.425-1.578 7.492-.829 10.262,1.353" fill="#f00"/>
 <path d="m37.509 249.64c-2.855 2.572-1.04-4.961 0 0"/>
 <path d="m58.427,178.757c.999-2.165 1.91-5.104 4.062-6.289l-.874-1.136c.933-1.006 1.943-1.663 3.188-1.746-1.003.742-.919,2.193-.787,3.144-.167-.147.183-.136.132-.218 1.521,1.937 5.466-2.985 7.861-3.888 7.946-2.993 3.043,8.909-1.878,7.687 4.415-1.119.888-4.11-1.267-2.401-2.205,1.749.552,2.812.393,3.799-.279,1.728-.241,1.455-2.008-.305-1.457-1.451-4.328-1.81-2.795.654 1.836.815 3.014,4.409 5.328,2.97 .09,1.024-.21,2.289.132,3.231 .296.816 1.925,1.222 1.877,2.228-.139,2.953-4.996.177-6.245-.48-1.342-.707.998-2.654-1.878-1.092-.731.397-1.253,2.263-1.79,2.926-1.092,1.35-2.196,2.674-4.149,2.621 1.442-3.699 3.384-8.144.698-11.705" fill="#fff"/>
</svg>
