<?xml version="1.0" encoding="UTF-8"?>
<!DOCTYPE svg  PUBLIC '-//W3C//DTD SVG 1.1//EN'  'http://www.w3.org/Graphics/SVG/1.1/DTD/svg11.dtd'>
<svg enable-background="new 0 0 46 29.45" version="1.1" viewBox="0 0 46 29.45" xml:space="preserve" xmlns="http://www.w3.org/2000/svg" xmlns:xlink="http://www.w3.org/1999/xlink">
<symbol id="r" viewBox="0 -29.462 37.35 29.462">
		<g clip-rule="evenodd" fill-rule="evenodd">
				<linearGradient id="m" x1="16281" x2="16340" y1="-16342" y2="-16342" gradientTransform="matrix(-.75 0 0 -.75 12255 -12277)" gradientUnits="userSpaceOnUse">
				<stop stop-color="#fff" offset="0"/>
				<stop stop-color="#A9CAD1" offset="1"/>
			</linearGradient>
			<path d="m37.35-20.613c0-1.025-1.775-1.887-5.325-2.587-3.549-0.725-7.825-1.087-12.824-1.087-5 0-9.275 0.363-12.825 1.087-3.55 0.7-5.325 1.563-5.325 2.587s1.775 1.9 5.325 2.625c3.549 0.725 7.824 1.088 12.824 1.088s9.275-0.363 12.824-1.088c3.551-0.725 5.326-1.6 5.326-2.625z" fill="url(#m)"/>
			<path d="m37.274-20.313h-1.162l0.037 0.112c0 0.8-1.649 1.5-4.949 2.1-3.325 0.575-7.3 0.862-11.926 0.862-4.625 0-8.587-0.288-11.887-0.862-3.301-0.6-4.95-1.3-4.95-2.1v-0.112h-1.312c0.375 0.95 2.287 1.762 5.737 2.438 3.475 0.65 7.588 0.975 12.338 0.975s8.862-0.325 12.337-0.975c3.45-0.675 5.362-1.487 5.737-2.438z" fill="#fff"/>
			<path d="m33.037-23.388c-0.275-0.125-2.05-0.438-5.325-0.938-3.225-0.525-5.225-0.8-6-0.825-1-0.075-6.938 0.7-17.813 2.325l0.638 2.175 1.612 1.012 0.9 0.45c0.675 0.325 1.125 0.487 1.35 0.487 0.15 0 0.588 0.088 1.313 0.263 0.7 0.2 1.225 0.3 1.575 0.3 0.625 0 2.8 0.138 6.525 0.413 0.025 0 0.862 0.1 2.513 0.3 1.375 0.15 2.212 0.138 2.512-0.037 0.301-0.2 0.85-0.4 1.65-0.6 0.85-0.2 1.3-0.313 1.35-0.337 0.25-0.125 1.213-0.038 2.888 0.262l0.638-0.075c0.425-0.075 0.663-0.188 0.713-0.338 0.1-0.225 0.899-0.712 2.399-1.462 0.175-0.1 0.45-0.35 0.825-0.75 0.425-0.425 0.65-0.7 0.675-0.825 0.075-0.175 0-0.475-0.225-0.9-0.2-0.45-0.437-0.75-0.713-0.9z" fill="#BF5D00"/>
			<path d="m16.35-22.038l-1.013-1.087c-0.225 0.475-0.375 0.875-0.449 1.2l-0.226 1.275v0.487c0 0.325 0.025 0.475 0.075 0.45l1.35-0.788 0.263-1.537z" fill="#FFCF1C"/>
			<path d="m16.575-20.988c1.45-0.05 2.212-0.15 2.287-0.3s-0.025-0.65-0.3-1.5h-0.938l-2.288-0.337-0.036 0.413v0.9l1.275 0.824z" fill="#DB9D00"/>
			<path d="m17.513-19.225l0.938-1.125c0.149-0.225 0.287-0.538 0.412-0.938-1.35-0.275-2.213-0.425-2.588-0.45l-0.975-0.075c-0.325 0.775-0.5 1.325-0.525 1.65l-0.037 0.45 2.775 0.488z" fill="#FFDC57"/>
			<path d="m19.05-17.538l-1.05-1.087c-0.226 0.45-0.363 0.85-0.413 1.2l-0.262 1.238v0.487c0 0.325 0.024 0.488 0.074 0.488l1.351-0.825 0.3-1.501z" fill="#FFCF1C"/>
			<path d="m19.237-16.525c1.45-0.025 2.213-0.113 2.287-0.263 0.075-0.15-0.024-0.65-0.3-1.5l-0.938-0.038c-0.375 0-0.862-0.05-1.462-0.15l-0.824-0.149-0.038 0.375v0.938l1.275 0.787z" fill="#DB9D00"/>
			<path d="m20.175-14.725l0.938-1.163c0.15-0.225 0.288-0.525 0.412-0.9-1.35-0.275-2.2-0.425-2.55-0.45l-1.013-0.075c-0.325 0.75-0.5 1.287-0.524 1.612l-0.038 0.488 2.775 0.488z" fill="#FFDC57"/>
			<path d="m4.95-20.763l-1.013-1.05c-0.25 0.45-0.4 0.85-0.45 1.2l-0.225 1.238c-0.025 0.15-0.038 0.313-0.038 0.487 0 0.325 0.025 0.488 0.075 0.488l1.388-0.825 0.263-1.538z" fill="#FFCF1C"/>
			<path d="m3.938-21.813l-0.076 1.313 1.313 0.788 1.088-0.038c0.75-0.05 1.149-0.125 1.199-0.225 0.075-0.175-0.037-0.675-0.337-1.5l-0.9-0.038c-0.625 0-1.388-0.099-2.287-0.3z" fill="#DB9D00"/>
			<path d="m6.075-17.913l0.975-1.163c0.15-0.225 0.288-0.525 0.412-0.9-1.375-0.275-2.237-0.425-2.587-0.45l-1.013-0.074c-0.325 0.75-0.5 1.287-0.525 1.612l-0.037 0.488 2.775 0.487z" fill="#FFDC57"/>
			<path d="m10.612-18.288l-1.875 1.538-0.262 1.05 0.938-0.038c0.75 0 1.425 0.038 2.025 0.113 0.675 0.075 1.438 0.1 2.287 0.075 1-2.35 1.351-3.625 1.05-3.825-0.3-0.2-1.688 0.162-4.163 1.087z" fill="#E8512E"/>
			<path d="m8.475-15.7l0.3-0.6c0.375-0.5 1.013-1.012 1.913-1.537 1.4-0.775 2.513-1.238 3.337-1.388 0.425-0.075 0.713-0.075 0.863 0l-0.9-2.063c-1.1-0.1-2.45 0.288-4.05 1.163-1.45 0.8-2.275 1.513-2.476 2.137l1.013 2.288z" fill="#BA2400"/>
			<path d="m13.013-15.925c-0.425-1.025-1-1.512-1.726-1.462-0.5 0.025-0.887 0.213-1.162 0.563-0.25 0.35-0.25 0.588 0 0.712 0.125 0.075 0.65 0.125 1.575 0.15 0.449 0.024 0.887 0.037 1.313 0.037z" fill="#CC2700"/>
			<path d="m13.575-16.188l0.375-0.825c0.225-0.625 0.325-1.075 0.3-1.35-0.025-0.325-0.325-0.387-0.9-0.188-0.6 0.2-0.875 0.488-0.825 0.863 0.025 0.175 0.201 0.475 0.525 0.9 0.175 0.225 0.35 0.426 0.525 0.6z" fill="#CC2700"/>
			<path d="m11.475-16.413c0.075-0.225 0.013-0.363-0.188-0.413-0.149-0.05-0.287-0.038-0.412 0.038-0.1 0.075-0.138 0.163-0.112 0.263 0.024 0.075 0.149 0.112 0.375 0.112h0.337z" fill="#D69635"/>
			<path d="m13.35-17.238c0.175-0.2 0.238-0.35 0.188-0.45-0.025-0.1-0.062-0.175-0.112-0.225-0.075-0.05-0.188-0.025-0.338 0.075-0.149 0.1-0.149 0.237 0 0.412 0.074 0.076 0.162 0.138 0.262 0.188z" fill="#D69635"/>
			<path d="m13.2-17.425c0.074 0.05 0.125 0.013 0.149-0.112 0-0.1-0.025-0.163-0.075-0.188-0.05 0-0.087 0.038-0.112 0.112-0.025 0.075-0.012 0.138 0.038 0.188z" fill="#fff"/>
			<path d="m11.1-16.525c0.125-0.125 0.063-0.15-0.188-0.075-0.05 0.05-0.037 0.087 0.038 0.112 0.074 0.025 0.125 0.013 0.15-0.037z" fill="#fff"/>
			<path d="m23.325-16.563l-2.25 0.75-0.638 0.788 0.862 0.262c0.7 0.25 1.313 0.5 1.838 0.75 0.625 0.275 1.337 0.525 2.137 0.75 1.75-1.7 2.525-2.688 2.325-2.962-0.199-0.25-1.624-0.363-4.274-0.338z" fill="#E8512E"/>
			<path d="m26.888-16.337c0.425 0.05 0.687 0.137 0.787 0.262l-0.112-2.025c-0.976-0.425-2.375-0.512-4.2-0.263-1.025 0.15-1.838 0.375-2.438 0.675l-0.638 0.413 0.15 2.25 0.487-0.413c0.525-0.3 1.3-0.538 2.325-0.712 1.576-0.25 2.789-0.313 3.639-0.187z" fill="#BA2400"/>
			<path d="m24.712-13.788c0-0.25-0.037-0.512-0.112-0.788-0.175-0.575-0.487-0.912-0.938-1.012-0.5-0.125-0.925-0.075-1.274 0.15-0.375 0.2-0.475 0.4-0.301 0.6 0.1 0.1 0.576 0.3 1.426 0.6 0.399 0.151 0.8 0.3 1.199 0.45z" fill="#CC2700"/>
			<path d="m25.35-13.825l0.638-0.6c0.45-0.475 0.713-0.825 0.787-1.05 0.1-0.325-0.162-0.487-0.787-0.487-0.625-0.025-0.988 0.15-1.088 0.525-0.024 0.15 0.038 0.462 0.188 0.938l0.262 0.674z" fill="#CC2700"/>
			<path d="m23.475-14.688c0.15-0.175 0.15-0.313 0-0.413-0.125-0.075-0.263-0.1-0.412-0.075-0.125 0-0.188 0.05-0.188 0.15-0.025 0.075 0.075 0.15 0.3 0.225 0.1 0.051 0.2 0.088 0.3 0.113z" fill="#D69635"/>
			<path d="m25.537-14.8l0.188-0.112c0.1-0.1 0.15-0.175 0.15-0.225 0-0.1-0.013-0.175-0.038-0.225-0.05-0.075-0.162-0.087-0.337-0.037s-0.226 0.163-0.15 0.337l0.187 0.262z" fill="#D69635"/>
			<path d="m25.462-15.025c0.05 0.075 0.1 0.062 0.15-0.038s0.05-0.163 0-0.188-0.087-0.013-0.112 0.038c-0.05 0.075-0.062 0.138-0.038 0.188z" fill="#fff"/>
			<path d="m23.175-14.875c0.2-0.1 0.137-0.15-0.188-0.15-0.025 0.025-0.013 0.062 0.037 0.112 0.051 0.051 0.101 0.063 0.151 0.038z" fill="#fff"/>
			<path d="m31.649-20.5l-0.75-0.788c-0.475 0.9-1.012 1.725-1.612 2.475l-1.237 1.95 1.162 1.5c0.825 1 1.338 1.45 1.538 1.35 0.325-0.15 0.737-1.513 1.237-4.087l-0.338-2.4z" fill="#E8512E"/>
			<path d="m32.813-13.675c0.65-0.875 1.013-2.225 1.087-4.05 0.1-1.65-0.074-2.725-0.524-3.225l-2.476-0.337c0.475 0.35 0.688 1.35 0.638 3-0.05 1.6-0.225 2.8-0.524 3.6l-0.45 0.712 2.249 0.3z" fill="#BA2400"/>
			<path d="m28.725-17.313l0.9 0.038c0.625-0.075 1.037-0.313 1.237-0.713 0.25-0.45 0.288-0.887 0.112-1.313-0.149-0.4-0.337-0.525-0.563-0.375-0.149 0.075-0.475 0.488-0.975 1.238l-0.711 1.125z" fill="#CC2700"/>
			<path d="m28.649-16.675l0.525 0.75c0.4 0.5 0.725 0.825 0.975 0.975 0.301 0.15 0.513-0.075 0.638-0.675 0.15-0.625 0.05-1.013-0.3-1.163-0.15-0.075-0.5-0.075-1.05 0l-0.788 0.113z" fill="#CC2700"/>
			<path d="m29.925-18.363l0.15 0.113c0.125 0.075 0.225 0.063 0.3-0.038 0.125-0.125 0.188-0.25 0.188-0.375s-0.05-0.2-0.15-0.225c-0.075-0.025-0.175 0.05-0.3 0.225l-0.188 0.3z" fill="#D69635"/>
			<path d="m29.662-16.3l0.263 0.375h0.263c0.1-0.025 0.137-0.125 0.112-0.3-0.025-0.275-0.238-0.3-0.638-0.075z" fill="#D69635"/>
			<path d="m29.925-16.337c-0.1 0.025-0.1 0.075 0 0.15 0.075 0.074 0.137 0.087 0.187 0.037 0.025-0.025 0.013-0.075-0.037-0.15-0.05-0.05-0.1-0.062-0.15-0.037z" fill="#fff"/>
			<path d="m30.225-18.625c0.025 0.1 0.063 0.112 0.112 0.038 0.05-0.05 0.075-0.1 0.075-0.15-0.025-0.05-0.075-0.05-0.149 0-0.051 0.024-0.063 0.062-0.038 0.112z" fill="#fff"/>
			<polygon points="29.362 -20.575 28.912 -23.013 27.375 -24.363 24.862 -21.738 24.563 -20.388" fill="#FF6945"/>
			<path d="m31.95-19.712l-0.187-1.088-1.65-1.275c-1.525-0.525-2.4-0.675-2.625-0.45-0.125 0.15-0.65 0.55-1.575 1.2l-1.35 0.938 3.188 0.375c0.898 0.099 2.299 0.199 4.199 0.3z" fill="#E8512E"/>
			<path d="m32.287-21.888c-0.575-0.625-1.562-1.212-2.962-1.762l-1.95-0.713-0.3 2.175 2.55 1.012c1.375 0.625 2.15 1.113 2.325 1.463l0.337-2.175z" fill="#BA2400"/>
			<path d="m25.912-20.35l4.425 0.45c0.301 0.025 0.438-0.038 0.413-0.188-0.05-0.15-0.263-0.313-0.638-0.488-0.325-0.125-0.787-0.162-1.388-0.112-0.65 0.075-1.087 0.125-1.313 0.15l-1.499 0.188z" fill="#CC2700"/>
			<path d="m25.35-20.5l2.063-0.225c0.425-0.05 0.75-0.137 0.976-0.263 0.225-0.125 0.25-0.237 0.074-0.337-0.625-0.475-1.187-0.575-1.688-0.3-0.399 0.2-0.762 0.45-1.087 0.75l-0.338 0.375z" fill="#CC2700"/>
			<path d="m28.95-20.238l0.449 0.075c0.325 0.05 0.513 0.05 0.563 0 0.125-0.175-0.012-0.263-0.412-0.263l-0.6 0.188z" fill="#D69635"/>
			<path d="m26.925-21.063l0.45-0.038c0.275-0.025 0.425-0.087 0.45-0.188 0-0.1-0.063-0.175-0.188-0.225-0.15-0.05-0.263-0.038-0.338 0.038l-0.374 0.413z" fill="#D69635"/>
			<path d="m27.487-21.175c0.05 0.025 0.1 0.025 0.15 0 0.05-0.05 0.062-0.087 0.037-0.112-0.025-0.075-0.087-0.087-0.188-0.038s-0.099 0.1 1e-3 0.15z" fill="#fff"/>
			<path d="m29.662-20.163c0.1 0.025 0.175 0.012 0.226-0.038 0.024-0.05-0.013-0.087-0.113-0.112s-0.174-0.013-0.225 0.038c-0.05 0.05-0.013 0.087 0.112 0.112z" fill="#fff"/>
			<polygon points="9.487 -20.65 14.587 -20.013 14.513 -21.25 11.888 -24.513 10.2 -23.2" fill="#D6340D"/>
			<path d="m14.587-20.013l-2.962-2.512c-0.2-0.275-1.138-0.2-2.813 0.225l-1.8 1.2-0.301 1.125 7.876-0.038z" fill="#E8512E"/>
			<path d="m6.712-19.975c0.226-0.35 1.088-0.788 2.588-1.313s2.413-0.813 2.737-0.862l-0.149-2.363c0.1-0.05-0.601 0.15-2.101 0.6-1.525 0.475-2.612 1.013-3.263 1.613l0.188 2.325z" fill="#BA2400"/>
			<path d="m13.162-20.125c-0.45-0.125-0.975-0.237-1.575-0.337-0.575-0.125-1.037-0.212-1.387-0.263-0.65-0.1-1.15-0.1-1.5 0-0.425 0.125-0.65 0.275-0.676 0.45-0.05 0.175 0.088 0.262 0.413 0.262l4.725-0.112z" fill="#CC2700"/>
			<path d="m13.763-20.238c-0.275-0.45-0.75-0.887-1.426-1.313-0.524-0.325-1.125-0.262-1.8 0.188-0.175 0.1-0.149 0.225 0.075 0.375 0.225 0.15 0.563 0.263 1.013 0.338l2.138 0.412z" fill="#CC2700"/>
			<path d="m9.938-20.275c-0.126-0.125-0.338-0.2-0.638-0.225-0.45-0.05-0.6 0.025-0.45 0.225 0.075 0.05 0.275 0.062 0.601 0.037 0.174 0 0.336-0.012 0.487-0.037z" fill="#D69635"/>
			<path d="m12.149-20.95l-0.375-0.487c-0.074-0.075-0.188-0.1-0.337-0.075-0.15 0.05-0.226 0.125-0.226 0.225s0.163 0.188 0.488 0.263c0.151 0.024 0.301 0.049 0.45 0.074z" fill="#D69635"/>
			<path d="m11.55-21.138c0.175-0.05 0.112-0.1-0.188-0.15-0.025 0.05-0.013 0.1 0.037 0.15 0.051 0.026 0.101 0.026 0.151 0z" fill="#fff"/>
			<path d="m9.188-20.238c0.125 0 0.163-0.025 0.112-0.075-0.05-0.075-0.125-0.1-0.225-0.075-0.125 0.025-0.163 0.063-0.113 0.113 0.025 0.05 0.1 0.062 0.226 0.037z" fill="#fff"/>
			<polygon points="16.575 -14.875 20.024 -16.863 18.712 -17.8 13.912 -19.113 14.287 -17.238" fill="#D6340D"/>
			<path d="m20.024-16.863c-2.424-0.275-3.837-0.462-4.237-0.563-0.25-0.075-0.538 0.163-0.862 0.713l-0.45 0.825 0.263 1.875 1.013 1.05 4.273-3.9z" fill="#E8512E"/>
			<path d="m15.75-12.962c-0.25-0.4-0.238-1.175 0.037-2.325s0.487-1.825 0.638-2.025l-2.513-1.8c-0.025-0.1-0.212 0.4-0.563 1.5-0.225 0.675-0.313 1.363-0.263 2.063l0.15 0.825 2.514 1.762z" fill="#BA2400"/>
			<path d="m19.125-16.263c-0.4 0.125-0.8 0.3-1.2 0.525-0.45 0.2-0.8 0.363-1.05 0.488-0.45 0.225-0.713 0.462-0.788 0.712-0.1 0.3-0.087 0.525 0.038 0.675 0.149 0.15 0.313 0.15 0.487 0l2.513-2.4z" fill="#CC2700"/>
			<path d="m19.313-16.638c-0.625-0.225-1.337-0.337-2.138-0.337-0.6 0-0.862 0.35-0.787 1.05 0.024 0.175 0.174 0.263 0.449 0.263 0.25 0 0.538-0.087 0.863-0.263l1.613-0.713z" fill="#CC2700"/>
			<path d="m17.212-14.8c-0.2-0.025-0.399 0.025-0.6 0.15-0.3 0.175-0.3 0.3 0 0.375 0.151 0.05 0.35-0.125 0.6-0.525z" fill="#D69635"/>
			<path d="m17.7-16.413l-0.713-0.187c-0.125-0.05-0.2-0.012-0.225 0.112-0.05 0.1-0.025 0.188 0.074 0.263 0.176 0.125 0.464 0.062 0.864-0.188z" fill="#D69635"/>
			<path d="m17.212-16.263c0.025-0.1-0.024-0.15-0.149-0.15s-0.163 0.038-0.112 0.112c0.024 0.05 0.074 0.087 0.149 0.113 0.05 0 0.088-0.025 0.112-0.075z" fill="#fff"/>
			<path d="m16.837-14.388c0.05-0.075 0.038-0.125-0.037-0.15-0.1 0-0.175 0.025-0.225 0.075-0.025 0.05 0 0.087 0.074 0.112 0.076 0.026 0.138 0.013 0.188-0.037z" fill="#fff"/>
			<path d="m19.725-23.313l-2.362 0.6-0.675 0.825 0.862 0.375c0.65 0.325 1.237 0.65 1.763 0.975 0.575 0.375 1.262 0.725 2.063 1.05 1.9-1.7 2.75-2.712 2.55-3.037-0.176-0.3-1.576-0.562-4.201-0.788z" fill="#E8512E"/>
			<path d="m16.688-21.888l0.524-0.413c0.55-0.275 1.351-0.45 2.4-0.525 1.6-0.125 2.813-0.087 3.638 0.113 0.4 0.125 0.65 0.25 0.75 0.375l0.075-2.25c-0.225-0.15-0.575-0.287-1.051-0.412-0.95-0.25-2-0.337-3.149-0.263-1.025 0.05-1.863 0.213-2.513 0.488l-0.638 0.412-0.036 2.475z" fill="#BA2400"/>
			<path d="m20.85-20.163c0.075-1.1-0.225-1.775-0.899-2.025-0.475-0.2-0.913-0.188-1.313 0.038-0.375 0.2-0.475 0.4-0.301 0.6 0.1 0.125 0.55 0.388 1.351 0.788 0.399 0.224 0.787 0.424 1.162 0.599z" fill="#CC2700"/>
			<path d="m21.487-20.125l0.675-0.6c0.5-0.45 0.8-0.8 0.9-1.05 0.125-0.325-0.125-0.525-0.75-0.6s-1 0.075-1.125 0.45c-0.05 0.15-0.013 0.5 0.112 1.05l0.188 0.75z" fill="#CC2700"/>
			<path d="m19.688-21.212c0.175-0.175 0.188-0.338 0.037-0.488-0.125-0.1-0.263-0.138-0.412-0.112-0.125 0-0.188 0.05-0.188 0.15-0.025 0.1 0.062 0.2 0.263 0.3 0.099 0.049 0.199 0.099 0.3 0.15z" fill="#D69635"/>
			<path d="m21.75-21.175c0.25-0.125 0.362-0.225 0.337-0.3v-0.263c-0.024-0.1-0.125-0.125-0.3-0.075-0.175 0.025-0.237 0.138-0.188 0.337l0.151 0.301z" fill="#D69635"/>
			<path d="m21.712-21.4c0.025 0.1 0.075 0.1 0.15 0 0.05-0.1 0.05-0.175 0-0.225-0.025-0.05-0.063-0.038-0.112 0.038-0.05 0.074-0.062 0.137-0.038 0.187z" fill="#fff"/>
			<path d="m19.425-21.475c0.15-0.075 0.087-0.125-0.188-0.15-0.05 0-0.05 0.038 0 0.112 0.051 0.05 0.113 0.063 0.188 0.038z" fill="#fff"/>
			<path d="m12.787-14.95l0.188-1.837c0.125-0.275 0.075-0.775-0.149-1.5-0.201-0.7-0.301-1.35-0.301-1.95l-1.462 0.637h-0.113c-0.351 1.25-0.325 2.113 0.074 2.587l1.763 2.063z" fill="#DB9D00"/>
			<path d="m12.524-20.238c-1 0.15-1.837 0.325-2.512 0.525l-1.238 0.375c-0.425 0.925-0.65 1.462-0.675 1.612v0.225l3.338 0.15c0.175-0.4 0.425-0.837 0.75-1.313l0.337-1.574z" fill="#FFCF1C"/>
			<path d="m12.75-14.95c-0.025-0.35-0.112-0.938-0.263-1.762-0.15-0.725-0.25-1.363-0.3-1.913-0.15-0.05-0.9 0.112-2.25 0.487l-1.913 0.638c1.051 0.675 2 1.237 2.851 1.688 0.875 0.449 1.5 0.737 1.875 0.862z" fill="#FFDC57"/>
			<path d="m25.35-18.813l-2.513-0.225-0.938 0.563 0.713 0.638c0.55 0.55 1.025 1.062 1.425 1.537 0.475 0.525 1.05 1.075 1.726 1.65 2.424-0.95 3.6-1.6 3.524-1.95-0.099-0.375-1.412-1.113-3.937-2.213z" fill="#E8512E"/>
			<path d="m25.087-18.4c1.625 0.425 2.813 0.887 3.563 1.387 0.375 0.25 0.588 0.45 0.638 0.6l0.788-2.138c-0.75-0.825-2.05-1.5-3.9-2.025-1.05-0.3-1.938-0.438-2.662-0.413l-0.75 0.15-0.863 2.362 0.638-0.225c0.649-0.073 1.498 0.027 2.548 0.302z" fill="#BA2400"/>
			<path d="m25.462-15.4l0.226-0.863c0.075-0.65-0.075-1.125-0.45-1.425-0.4-0.325-0.837-0.463-1.313-0.413-0.425 0.075-0.6 0.238-0.525 0.487 0.075 0.15 0.438 0.563 1.088 1.238 0.324 0.351 0.649 0.676 0.974 0.976z" fill="#CC2700"/>
			<path d="m26.1-15.175l0.862-0.337c0.625-0.275 1.025-0.513 1.2-0.712 0.226-0.25 0.05-0.525-0.524-0.825-0.601-0.275-1.025-0.262-1.275 0.038-0.1 0.15-0.175 0.5-0.225 1.05l-0.038 0.786z" fill="#CC2700"/>
			<path d="m24.675-16.825c0.2-0.125 0.25-0.275 0.15-0.45-0.1-0.125-0.213-0.212-0.338-0.263-0.125-0.025-0.212 0-0.263 0.075-0.05 0.075 0.013 0.2 0.188 0.375 0.075 0.101 0.163 0.188 0.263 0.263z" fill="#D69635"/>
			<path d="m26.7-16.075l0.188-0.038c0.125-0.05 0.2-0.1 0.225-0.15 0.075-0.15 0.112-0.237 0.112-0.262 0-0.1-0.1-0.163-0.3-0.188-0.175-0.025-0.263 0.075-0.263 0.3l0.038 0.338z" fill="#D69635"/>
			<path d="m26.7-16.337c0.024 0.075 0.074 0.087 0.149 0.037 0.1-0.075 0.138-0.137 0.112-0.188-0.024-0.05-0.074-0.05-0.149 0s-0.112 0.1-0.112 0.151z" fill="#fff"/>
			<path d="m24.45-17.163c0.174-0.025 0.137-0.1-0.113-0.225-0.05 0-0.062 0.038-0.037 0.113s0.075 0.112 0.15 0.112z" fill="#fff"/>
			<polygon points="15.6 -18.25 21 -16.788 21.112 -18.1 18.787 -22.038 16.763 -20.913" fill="#D6340D"/>
			<path d="m21-16.788l-2.813-3.188c-0.175-0.324-1.187-0.386-3.038-0.187l-2.175 1.013-0.487 1.2 8.513 1.162z" fill="#E8512E"/>
			<path d="m12.487-17.95l0.563-0.337c0.575-0.275 1.388-0.512 2.438-0.712 1.7-0.325 2.737-0.488 3.112-0.488l0.188-2.55c0.125-0.075-0.675 0.025-2.399 0.3-1.051 0.15-1.988 0.4-2.813 0.75l-0.938 0.487-0.151 2.55z" fill="#BA2400"/>
			<path d="m19.462-17.125c-0.449-0.225-1-0.425-1.649-0.6-0.601-0.225-1.075-0.387-1.425-0.487-0.676-0.225-1.213-0.3-1.613-0.225-0.475 0.075-0.75 0.188-0.824 0.337-0.075 0.175 0.062 0.288 0.412 0.337l5.099 0.638z" fill="#CC2700"/>
			<path d="m20.138-17.163c-0.226-0.525-0.676-1.075-1.351-1.65-0.4-0.35-1.063-0.375-1.987-0.075-0.2 0.1-0.188 0.237 0.037 0.413 0.226 0.2 0.576 0.375 1.051 0.525l2.25 0.787z" fill="#CC2700"/>
			<path d="m16.013-17.8c-0.125-0.15-0.338-0.262-0.638-0.337-0.475-0.125-0.65-0.063-0.525 0.188 0.05 0.075 0.263 0.125 0.638 0.15 0.174-1e-3 0.349-1e-3 0.525-1e-3z" fill="#D69635"/>
			<path d="m18.487-18.175c-0.1-0.25-0.2-0.437-0.3-0.563-0.075-0.125-0.2-0.175-0.375-0.15s-0.263 0.1-0.263 0.225c-0.025 0.1 0.125 0.212 0.45 0.337 0.176 0.051 0.338 0.101 0.488 0.151z" fill="#D69635"/>
			<path d="m17.888-18.475c0.149-0.025 0.162-0.075 0.037-0.15-0.1-0.075-0.175-0.088-0.225-0.038-0.025 0.05-0.025 0.1 0 0.15 0.05 0.05 0.113 0.063 0.188 0.038z" fill="#fff"/>
			<path d="m15.188-17.875c0.149 0.025 0.2 0 0.149-0.075-0.024-0.075-0.1-0.112-0.225-0.112s-0.175 0.025-0.15 0.075c0.025 0.074 0.1 0.112 0.226 0.112z" fill="#fff"/>
			<path d="m20.774-20.462c0.7 0.25 1.225 0.288 1.575 0.112l2.438-1.163-1.725-0.675c-0.25-0.175-0.75-0.25-1.5-0.225-0.45 0.025-0.913 0-1.388-0.075l-0.562-0.112 0.225 1.575v0.112l0.937 0.451z" fill="#DB9D00"/>
			<path d="m22.125-20.8l-1.088-1.087c-0.175-0.025-0.462-0.138-0.862-0.337l-0.563-0.376c-0.1 1-0.15 1.863-0.15 2.587l0.075 1.275 1.388 1.013 0.225 0.112 0.975-3.187z" fill="#FFDC57"/>
			<path d="m24.787-21.513c-0.35-0.075-0.95-0.138-1.8-0.188l-1.912-0.188c-0.1 0.125-0.138 0.9-0.113 2.325 0.025 0.975 0.075 1.638 0.15 1.987l2.362-2.325c0.651-0.748 1.089-1.286 1.313-1.611z" fill="#FFCF1C"/>
			<path d="m19.987-15.1l2.325 1.462 3.712 1.163c1.15 0.35 2.138 0.725 2.963 1.125l-0.112-1.575v-0.075c-1.575-1.15-2.813-1.737-3.713-1.763l-5.175-0.337z" fill="#FFDC57"/>
			<path d="m28.987-11.35c0.325-0.875 0.525-1.637 0.6-2.288 0.1-0.65 0.138-1.063 0.113-1.237-1.101-0.975-1.763-1.513-1.988-1.613l-0.337-0.188-1.95 2.475c0.475 0.4 0.975 0.9 1.5 1.5l2.062 1.351z" fill="#DB9D00"/>
			<path d="m19.8-15.063l1.388 0.337c1.075 0.3 2 0.587 2.774 0.862l2.888 1.125c0.175-0.05 0.35-0.737 0.525-2.063 0.1-0.925 0.112-1.575 0.037-1.95-1.475 0.35-2.774 0.7-3.899 1.05-0.676 0.225-1.5 0.4-2.476 0.525l-1.237 0.114z" fill="#FFCF1C"/>
			<path d="m34.575-18.7c0.75 0 1.112-0.05 1.087-0.15-0.025-0.075-0.375-0.475-1.05-1.2l-1.762-0.15-1.125 1.05 2.85 0.45z" fill="#FFDC57"/>
			<path d="m31.725-19.15l1.5-0.038 0.788-1.275c-0.175-1.375-0.351-2.087-0.525-2.138-0.1-0.05-0.412 0-0.938 0.15l-0.75 0.263 0.075 0.862c0.025 0.35 0 0.825-0.075 1.425l-0.075 0.751z" fill="#FFCF1C"/>
			<path d="m35.662-18.85l0.3-2.625c-0.65-0.425-1.112-0.7-1.387-0.825l-1.088-0.3c-0.175 1.3-0.263 2.113-0.263 2.438v0.975l0.75 0.15c0.525 0.125 0.9 0.188 1.125 0.188h0.563z" fill="#DB9D00"/>
				<linearGradient id="j" x1=".1001" x2="48.35" y1="-18.3" y2="-18.3" gradientTransform="matrix(.75 0 0 .75 1.0498 -11.35)" gradientUnits="userSpaceOnUse">
				<stop stop-color="#fff" offset="0"/>
				<stop stop-color="#A9CAD1" offset="1"/>
			</linearGradient>
			<path d="m19.087-24.138c4.275 0 8.101 0.325 11.476 0.975 3.3 0.625 5.55 1.45 6.75 2.475-0.725-2.5-2.788-4.588-6.188-6.263-3.425-1.675-7.4-2.512-11.925-2.512-4.476 0-8.425 0.825-11.851 2.475-3.35 1.6-5.425 3.625-6.225 6.075 1.325-0.95 3.6-1.725 6.825-2.325 3.326-0.599 7.038-0.9 11.138-0.9z" fill="url(#j)"/>
			<path d="m36.112-20.313h1.162l0.075-0.3c0-1.025-1.775-1.887-5.325-2.587-3.549-0.725-7.825-1.087-12.824-1.087-5 0-9.275 0.363-12.825 1.087-3.55 0.7-5.325 1.563-5.325 2.587 0 0.15 0.025 0.25 0.075 0.3h1.313c0.125-0.8 1.825-1.475 5.1-2.025 3.275-0.575 7.188-0.863 11.737-0.863 4.55 0 8.476 0.288 11.775 0.863 3.275 0.55 4.962 1.226 5.062 2.025z" fill="#fff"/>
				<linearGradient id="n" x1="16246" x2="16305" y1="-16342" y2="-16342" gradientTransform="matrix(-.7484 -.0486 .0486 -.7484 12997 -11456)" gradientUnits="userSpaceOnUse">
				<stop stop-color="#fff" offset="0"/>
				<stop stop-color="#A9CAD1" offset="1"/>
			</linearGradient>
			<path d="m31.843-13.311c3.563-0.47 5.377-1.216 5.444-2.239s-1.636-2.01-5.106-2.962c-3.496-0.954-7.75-1.593-12.765-1.919s-9.304-0.242-12.869 0.253c-3.589 0.494-5.417 1.251-5.484 2.274-0.065 0.998 1.65 1.974 5.146 2.927 3.496 0.954 7.738 1.593 12.728 1.917 5.014 0.326 9.316 0.242 12.906-0.251z" fill="url(#n)"/>
			<path d="m37.23-15.253l-1.16-0.076-5e-3 0.075c-0.054 0.823-1.746 1.415-5.076 1.775-3.305 0.361-7.291 0.39-11.956 0.087-4.64-0.301-8.575-0.845-11.806-1.631-3.256-0.788-4.857-1.593-4.803-2.417l5e-3 -0.074-1.31-0.086c0.313 0.973 2.169 1.895 5.569 2.767 3.451 0.875 7.533 1.467 12.249 1.773 4.715 0.307 8.84 0.249 12.375-0.173 3.484-0.425 5.457-1.098 5.918-2.02z" fill="#fff"/>
			<path d="m29.163-13.71c0.427-0.022 0.683-0.106 0.768-0.251 0.06-0.146 0.464-0.396 1.213-0.748 0.362-0.177 0.789-0.375 1.279-0.594 0.156-0.09 0.446-0.321 0.872-0.695 0.427-0.398 0.669-0.658 0.727-0.779 0.061-0.171 6e-3 -0.476-0.167-0.913-0.193-0.488-0.411-0.803-0.652-0.944-0.266-0.143-2.017-0.569-5.253-1.281-3.209-0.734-5.199-1.139-5.971-1.214-0.993-0.14-6.968 0.249-17.926 1.165l0.533 2.214 1.506 1.112 0.869 0.507c0.652 0.369 1.091 0.56 1.315 0.574 0.15 0.01 0.581 0.125 1.292 0.347 0.71 0.247 1.241 0.381 1.59 0.404 0.624 0.041 2.784 0.331 6.482 0.872 0.075 5e-3 0.893 0.146 2.453 0.423 1.362 0.239 2.199 0.28 2.509 0.125 0.313-0.181 0.874-0.344 1.686-0.492 0.861-0.144 1.317-0.227 1.369-0.249 0.258-0.108 1.225 0.042 2.902 0.452l0.604-0.035z" fill="#BF5D00"/>
			<path d="m16.463-18.369l-0.98-1.116c-0.253 0.434-0.417 0.825-0.489 1.17l-0.342 1.218c-0.01 0.149-0.02 0.312-0.031 0.486-0.021 0.324-7e-3 0.488 0.043 0.491l1.438-0.733 0.361-1.516z" fill="#FFCF1C"/>
			<path d="m15.483-19.485l-0.122 1.307 1.221 0.869c1.473 0.071 2.252 0.034 2.337-0.111 0.086-0.17 6e-3 -0.676-0.239-1.519l-0.896-0.096c-0.399-0.026-0.895-0.108-1.487-0.247l-0.814-0.203z" fill="#DB9D00"/>
			<path d="m17.401-15.452l1.048-1.097c0.164-0.215 0.321-0.505 0.47-0.872-1.354-0.364-2.205-0.569-2.553-0.617l-1.005-0.141c-0.373 0.728-0.583 1.252-0.629 1.575l-0.069 0.484 2.738 0.668z" fill="#FFDC57"/>
			<path d="m18.829-13.706l-0.94-1.151c-0.28 0.458-0.456 0.848-0.527 1.168l-0.345 1.255c-0.01 0.149-0.02 0.312-0.031 0.486-0.021 0.324-6e-3 0.476 0.045 0.454l1.436-0.696 0.362-1.516z" fill="#FFCF1C"/>
			<path d="m17.889-14.857l-0.16 1.305 1.219 0.906c1.476 0.045 2.255-4e-3 2.34-0.148 0.084-0.145 4e-3 -0.651-0.24-1.519l-0.898-0.059-2.261-0.485z" fill="#DB9D00"/>
			<path d="m19.769-10.826l1.046-1.06c0.165-0.215 0.322-0.518 0.473-0.909-1.354-0.364-2.205-0.569-2.553-0.617l-1.005-0.141c-0.375 0.752-0.585 1.29-0.631 1.613l-0.067 0.447 2.737 0.667z" fill="#FFDC57"/>
			<path d="m4.965-17.801l-0.94-1.151c-0.256 0.459-0.431 0.849-0.527 1.168l-0.304 1.22c-0.012 0.175-0.022 0.337-0.032 0.486-0.023 0.35-8e-3 0.513 0.043 0.492l1.398-0.698 0.362-1.517z" fill="#FFCF1C"/>
			<path d="m5.122-16.739c1.45 0.044 2.218-6e-3 2.302-0.151s0.018-0.65-0.202-1.516l-0.936-0.061-2.26-0.485-0.064 0.41-0.059 0.898 1.219 0.905z" fill="#DB9D00"/>
			<path d="m7.423-16.89c-1.329-0.362-2.18-0.568-2.553-0.617l-0.968-0.138c-0.374 0.752-0.584 1.277-0.628 1.575l-0.069 0.484 2.738 0.667 1.008-1.062c0.166-0.24 0.323-0.542 0.472-0.909z" fill="#FFDC57"/>
			<path d="m10.458-15.001l-1.934 1.415-0.367 1.028 0.936 0.061c0.748 0.049 1.419 0.13 2.013 0.244 0.669 0.118 1.429 0.18 2.28 0.186 1.15-2.28 1.583-3.53 1.296-3.749-0.287-0.22-1.695 0.052-4.224 0.815z" fill="#E8512E"/>
			<path d="m13.961-15.713c0.429-0.047 0.703-0.029 0.823 0.054l-0.764-2.117c-0.273-0.042-0.649-0.042-1.127 2e-3 -0.935 0.114-1.932 0.425-2.992 0.933-0.929 0.416-1.647 0.87-2.156 1.363l-0.453 0.609 0.865 2.311 0.338-0.579c0.43-0.448 1.111-0.905 2.043-1.371 1.449-0.707 2.59-1.109 3.423-1.205z" fill="#BA2400"/>
			<path d="m12.699-12.488c-0.333-1.049-0.863-1.572-1.589-1.569-0.501-7e-3 -0.9 0.167-1.199 0.523-0.272 0.333-0.3 0.569-0.083 0.708 0.146 0.06 0.668 0.131 1.564 0.215 0.447 0.054 0.883 0.095 1.307 0.123z" fill="#CC2700"/>
			<path d="m13.313-12.674l0.393-0.839c0.288-0.583 0.429-1.012 0.421-1.288-2e-3 -0.351-0.309-0.446-0.921-0.285-0.586 0.162-0.88 0.444-0.882 0.845 0.016 0.151 0.183 0.462 0.503 0.935 0.162 0.21 0.324 0.421 0.486 0.632z" fill="#CC2700"/>
			<path d="m11.234-13.072c0.088-0.194 0.035-0.336-0.16-0.424-0.148-0.035-0.286-0.031-0.414 0.011-0.13 0.067-0.186 0.151-0.167 0.252 0.02 0.076 0.154 0.123 0.404 0.139 0.125 8e-3 0.237 0.015 0.337 0.022z" fill="#D69635"/>
			<path d="m13.159-13.774c0.162-0.189 0.234-0.323 0.214-0.399-0.043-0.103-0.076-0.181-0.098-0.232-0.07-0.08-0.183-0.074-0.339 0.016s-0.165 0.227-0.027 0.411c0.07 0.08 0.153 0.148 0.25 0.204z" fill="#D69635"/>
			<path d="m13.021-13.971c0.07 0.08 0.109 0.058 0.117-0.067 6e-3 -0.1-0.015-0.164-0.063-0.192s-0.075-5e-3 -0.08 0.07c-0.029 0.073-0.021 0.136 0.026 0.189z" fill="#fff"/>
			<path d="m10.865-13.171c0.109-0.143 0.036-0.173-0.22-0.089-0.027 0.023-3e-3 0.05 0.07 0.08 0.072 0.054 0.121 0.057 0.15 9e-3z" fill="#fff"/>
			<path d="m23.068-12.454l-2.331 0.6-0.689 0.782 0.843 0.318c0.684 0.27 1.292 0.547 1.825 0.833 0.581 0.313 1.262 0.621 2.044 0.922 1.883-1.606 2.721-2.541 2.513-2.805-0.182-0.288-1.584-0.504-4.205-0.65z" fill="#E8512E"/>
			<path d="m20.561-11.451c0.57-0.289 1.371-0.475 2.403-0.558 1.588-0.147 2.79-0.132 3.605 0.046 0.42 0.078 0.677 0.182 0.769 0.313l0.059-2.063c-0.97-0.489-2.375-0.655-4.214-0.5-1.033 0.083-1.857 0.243-2.474 0.479l-0.625 0.373-0.036 2.29 0.513-0.38z" fill="#BA2400"/>
			<path d="m24.273-9.594c0.04-1-0.283-1.622-0.969-1.867-0.466-0.156-0.893-0.133-1.282 0.067-0.389 0.201-0.489 0.395-0.301 0.582 0.093 0.106 0.542 0.348 1.344 0.726 0.414 0.177 0.817 0.341 1.208 0.492z" fill="#CC2700"/>
			<path d="m24.912-9.59l0.675-0.557c0.453-0.422 0.726-0.755 0.816-1 0.145-0.291-0.096-0.457-0.719-0.498-0.622-0.065-0.994 0.073-1.117 0.416-0.06 0.146-0.018 0.462 0.126 0.948 0.061 0.23 0.134 0.46 0.219 0.691z" fill="#CC2700"/>
			<path d="m23.094-10.535c0.161-0.165 0.158-0.315-8e-3 -0.451-0.12-0.083-0.255-0.117-0.407-0.102-0.126 0.017-0.193 0.075-0.199 0.175-5e-3 0.075 0.103 0.157 0.322 0.246 0.096 0.057 0.194 0.1 0.292 0.132z" fill="#D69635"/>
			<path d="m25.125-10.554l0.356-0.277c0.01-0.15 0.016-0.237 0.017-0.262-0.045-0.078-0.157-0.098-0.334-0.059-0.178 0.038-0.235 0.147-0.171 0.327l0.132 0.271z" fill="#D69635"/>
			<path d="m25.064-10.783c0.045 0.078 0.095 0.081 0.149 0.01 0.082-0.095 0.085-0.157 0.012-0.187-0.023-0.027-0.062-0.017-0.114 0.03-0.053 0.047-0.069 0.096-0.047 0.147z" fill="#fff"/>
			<path d="m22.809-10.779c0.13-0.067 0.07-0.108-0.18-0.124-0.05-3e-3 -0.051 0.021-5e-3 0.075 0.047 0.052 0.109 0.069 0.185 0.049z" fill="#fff"/>
			<path d="m25.56-15.523l-1.651-1.761-1.078-0.183c0.136 0.986 0.173 1.965 0.11 2.938l0.114 2.3 1.842 0.57c1.231 0.331 1.903 0.399 2.016 0.206 0.194-0.312-0.256-1.669-1.353-4.07z" fill="#E8512E"/>
			<path d="m25.102-15.403c0.89 1.336 1.434 2.423 1.629 3.263 0.124 0.409 0.143 0.686 0.059 0.831l2.021-1.034c-4e-3 -1.103-0.494-2.424-1.471-3.966-0.544-0.887-1.09-1.536-1.64-1.948l-0.652-0.38-2.218 1.171 0.622 0.266c0.53 0.334 1.079 0.934 1.65 1.797z" fill="#BA2400"/>
			<path d="m23.367-12.998l0.745-0.478c0.479-0.42 0.682-0.858 0.612-1.313-0.067-0.505-0.294-0.871-0.681-1.096-0.361-0.224-0.587-0.213-0.678 0.031-0.06 0.146-0.081 0.659-0.063 1.537l0.065 1.319z" fill="#CC2700"/>
			<path d="m23.667-12.415l0.844 0.318c0.614 0.19 1.06 0.27 1.337 0.237 0.354-0.052 0.413-0.374 0.176-0.966-0.239-0.566-0.548-0.812-0.929-0.736-0.176 0.013-0.464 0.208-0.865 0.583l-0.563 0.564z" fill="#CC2700"/>
			<path d="m23.729-14.515l0.189-0.025c0.126-0.017 0.206-0.087 0.239-0.21 0.035-0.148 5e-3 -0.275-0.088-0.381-0.067-0.13-0.152-0.173-0.254-0.129-0.079 0.045-0.112 0.181-0.102 0.407l0.016 0.338z" fill="#D69635"/>
			<path d="m24.7-12.686l0.182 0.087c0.122 0.058 0.208 0.076 0.259 0.055l0.234-0.135c0.055-0.072 0.024-0.174-0.093-0.307-0.115-0.158-0.24-0.153-0.376 0.013l-0.206 0.287z" fill="#D69635"/>
			<path d="m24.899-12.86c-0.08 0.07-0.057 0.109 0.067 0.117 0.126-0.017 0.191-0.05 0.194-0.1s-0.032-0.077-0.107-0.082c-0.074-5e-3 -0.126 0.016-0.154 0.065z" fill="#fff"/>
			<path d="m23.828-14.884c0.145 0.085 0.162 0.011 0.052-0.222-0.021-0.051-0.048-0.041-0.077 0.033-0.032 0.097-0.023 0.161 0.025 0.189z" fill="#fff"/>
			<polygon points="29.351 -16.028 29.025 -18.53 27.579 -19.977 24.936 -17.48 24.512 -16.155" fill="#FF6945"/>
			<path d="m24.512-16.155l7.328 1.152-0.114-1.135-1.564-1.379c-1.462-0.621-2.314-0.814-2.555-0.579l-3.095 1.941z" fill="#E8512E"/>
			<path d="m31.84-15.002l0.48-2.186c-0.533-0.661-1.468-1.311-2.804-1.948l-1.937-0.84-0.406 2.191 0.477 0.181c0.488 0.207 1.143 0.538 1.965 0.992 1.333 0.688 2.074 1.224 2.225 1.61z" fill="#BA2400"/>
			<path d="m25.859-16.067l4.386 0.736c0.321 0.07 0.462 0.017 0.424-0.161-0.015-0.151-0.205-0.314-0.57-0.488-0.339-0.173-0.81-0.253-1.412-0.242-0.628 0.034-1.068 0.056-1.319 0.064l-1.509 0.091z" fill="#CC2700"/>
			<path d="m25.307-16.254l2.073-0.09c0.428-0.022 0.756-0.076 0.988-0.162 0.232-0.11 0.265-0.221 0.096-0.332-0.592-0.515-1.134-0.663-1.624-0.444-0.439 0.197-0.83 0.422-1.171 0.675l-0.362 0.353z" fill="#CC2700"/>
			<path d="m28.883-15.758l0.444 0.104c0.321 0.071 0.508 0.083 0.561 0.037 0.213-0.187 0.081-0.271-0.396-0.251-0.15-0.01-0.301 6e-3 -0.454 0.046l-0.155 0.064z" fill="#D69635"/>
			<path d="m26.953-16.71l0.452-8e-3c0.276-7e-3 0.417-0.061 0.424-0.16 0.031-0.098-0.026-0.177-0.172-0.237-0.148-0.035-0.261-0.029-0.339 0.016l-0.365 0.389z" fill="#D69635"/>
			<path d="m27.484-16.789c0.073 0.03 0.136 0.034 0.187 0.012 0.052-0.021 0.054-0.059 7e-3 -0.112-0.021-0.052-0.084-0.056-0.187-0.012s-0.105 0.081-7e-3 0.112z" fill="#fff"/>
			<path d="m29.586-15.6c0.098 0.031 0.174 0.023 0.227-0.023 0.028-0.048-7e-3 -0.088-0.105-0.12-0.098-0.031-0.173-0.024-0.227 0.023s-0.018 0.087 0.105 0.12z" fill="#fff"/>
			<polygon points="9.523 -17.392 14.573 -16.463 14.576 -17.665 12.168 -21.091 10.365 -19.931" fill="#D6340D"/>
			<path d="m14.573-16.463c-0.426-0.378-0.852-0.769-1.277-1.172-0.897-0.835-1.403-1.344-1.517-1.526-0.207-0.289-1.147-0.275-2.821 0.042l-1.914 1.115-0.373 1.104 7.902 0.437z" fill="#E8512E"/>
			<path d="m6.672-16.901l0.474-0.345c0.52-0.292 1.252-0.57 2.196-0.834 1.531-0.427 2.473-0.654 2.825-0.681l1e-3 -2.33c0.104-0.068-0.619 0.073-2.169 0.423-0.968 0.238-1.814 0.546-2.54 0.924l-0.823 0.51 0.036 2.333z" fill="#BA2400"/>
			<path d="m13.121-16.67c-0.441-0.154-0.958-0.288-1.552-0.401-0.565-0.162-1.009-0.278-1.33-0.35-0.642-0.142-1.141-0.174-1.497-0.097-0.433 0.097-0.679 0.231-0.74 0.403-0.06 0.146 0.073 0.23 0.397 0.251l4.722 0.194z" fill="#CC2700"/>
			<path d="m13.728-16.743c-0.246-0.467-0.691-0.934-1.337-1.402-0.504-0.333-1.108-0.297-1.811 0.107-0.181 0.088-0.164 0.215 0.05 0.379 0.215 0.165 0.545 0.286 0.991 0.366l2.107 0.55z" fill="#CC2700"/>
			<path d="m9.913-17.028c-0.118-0.108-0.313-0.196-0.584-0.264-0.496-0.082-0.65-0.018-0.463 0.195 0.045 0.078 0.23 0.115 0.556 0.111 0.176-0.013 0.339-0.027 0.491-0.042z" fill="#D69635"/>
			<path d="m12.164-17.559c-0.111-0.208-0.227-0.365-0.345-0.473-0.068-0.105-0.179-0.137-0.332-0.097-0.151 0.015-0.231 0.085-0.239 0.21-6e-3 0.1 0.151 0.185 0.472 0.256 0.148 0.035 0.296 0.07 0.444 0.104z" fill="#D69635"/>
			<path d="m11.613-17.745c0.101-0.019 0.104-0.068 0.01-0.15-0.097-0.056-0.171-0.061-0.225-0.015-0.028 0.048-0.018 0.086 0.03 0.115 0.047 0.054 0.109 0.07 0.185 0.05z" fill="#fff"/>
			<path d="m9.16-17.002c0.126-0.017 0.166-0.052 0.119-0.105-0.02-0.077-0.093-0.106-0.219-0.089-0.102 0.019-0.142 0.053-0.12 0.105 0.046 0.052 0.12 0.082 0.22 0.089z" fill="#fff"/>
			<polygon points="15.954 -9.947 17.146 -12.688 16.812 -14.476 13.009 -12.055 12.181 -10.869" fill="#D6340D"/>
			<path d="m17.475-11.389c-0.841-0.931-1.419-1.294-1.733-1.089l-3.562 1.61 2.184 1.082c0.629 0.341 1.627 0.794 2.993 1.359l0.529-1.206-0.411-1.756z" fill="#E8512E"/>
			<path d="m17.358-8.428l1.65-2.26c-0.048-0.805-0.431-1.657-1.149-2.555-0.438-0.579-0.739-0.962-0.902-1.148l-0.145-0.084-1.575 2.265 1.283 1.662c0.662 0.969 0.942 1.676 0.838 2.12z" fill="#BA2400"/>
			<path d="m13.211-10.539l3.059 1.514c0.219 0.09 0.36 0.049 0.421-0.123 0.086-0.17 0.025-0.387-0.183-0.651-0.162-0.211-0.478-0.356-0.949-0.438-0.547-0.061-0.92-0.11-1.118-0.147l-1.23-0.155z" fill="#CC2700"/>
			<path d="m12.854-10.825l1.714 0.224c0.348 0.047 0.636 0.042 0.865-0.019 0.256-0.083 0.352-0.203 0.287-0.357-0.185-0.639-0.532-0.874-1.044-0.707-0.458 0.121-0.896 0.305-1.313 0.554l-0.509 0.305z" fill="#CC2700"/>
			<path d="m15.413-9.719l0.287 0.207c0.218 0.114 0.366 0.149 0.444 0.104 0.103-0.043 0.145-0.103 0.125-0.18-0.045-0.078-0.142-0.134-0.29-0.169-0.123-0.033-0.248-0.029-0.376 0.013l-0.19 0.025z" fill="#D69635"/>
			<path d="m14.41-11.062l0.372 0.062c0.248 0.042 0.4 0.014 0.456-0.083 0.058-0.121 0.052-0.222-0.018-0.302s-0.157-0.085-0.262-0.017l-0.548 0.34z" fill="#D69635"/>
			<path d="m14.896-11.03c0.093 0.106 0.171 0.074 0.232-0.098 5e-3 -0.075-0.044-0.09-0.147-0.047-0.101 0.018-0.129 0.067-0.085 0.145z" fill="#fff"/>
			<path d="m15.922-9.46c0.073 0.03 0.136 0.034 0.188 0.012 0.026-0.023 0.016-0.062-0.03-0.115-0.047-0.053-0.109-0.057-0.187-0.012-0.078 0.02-0.067 0.058 0.029 0.115z" fill="#fff"/>
			<path d="m19.874-19.387l-2.359 0.448-0.765 0.777 0.836 0.43c0.629 0.342 1.195 0.691 1.698 1.05 0.574 0.413 1.238 0.807 1.99 1.182 2.006-1.573 2.932-2.515 2.776-2.826-0.179-0.313-1.571-0.667-4.176-1.061z" fill="#E8512E"/>
			<path d="m24.298-20.378c-0.215-0.164-0.556-0.324-1.021-0.479-0.907-0.31-1.937-0.464-3.089-0.464-1.026-0.017-1.873 0.091-2.539 0.324l-0.661 0.333-0.238 2.502 0.551-0.377c0.593-0.262 1.404-0.397 2.431-0.406 1.604 4e-3 2.81 0.133 3.621 0.386 0.391 0.15 0.632 0.292 0.724 0.423l0.221-2.242z" fill="#BA2400"/>
			<path d="m20.83-16.169c0.146-1.093-0.109-1.798-0.765-2.116-0.461-0.23-0.898-0.247-1.312-0.048-0.387 0.175-0.513 0.38-0.378 0.614 0.093 0.106 0.525 0.397 1.296 0.874 0.412 0.227 0.798 0.452 1.159 0.676z" fill="#CC2700"/>
			<path d="m21.463-16.09l0.715-0.592c0.503-0.418 0.813-0.749 0.929-0.992 0.146-0.316-0.091-0.532-0.709-0.647-0.619-0.115-1.003 0.01-1.152 0.376-0.06 0.146-0.045 0.498 0.044 1.055l0.173 0.8z" fill="#CC2700"/>
			<path d="m19.74-17.329c0.161-0.165 0.171-0.315 0.029-0.449-0.118-0.108-0.24-0.166-0.365-0.174-0.126 0.017-0.205 0.075-0.236 0.173-0.03 0.073 0.064 0.167 0.282 0.281 0.097 0.056 0.194 0.112 0.29 0.169z" fill="#D69635"/>
			<path d="m21.793-17.121l0.194-0.1c0.106-0.093 0.161-0.165 0.165-0.214 0.01-0.15 0.016-0.237 0.017-0.262-0.045-0.078-0.156-0.11-0.332-0.097-0.178 0.039-0.236 0.16-0.174 0.364l0.13 0.309z" fill="#D69635"/>
			<path d="m21.736-17.388c0.02 0.077 0.07 0.08 0.149 0.01 0.082-0.095 0.099-0.169 0.052-0.222-0.048-0.028-0.099-0.019-0.152 0.028-0.055 0.071-0.071 0.133-0.049 0.184z" fill="#fff"/>
			<path d="m19.458-17.611c0.206-0.086 0.16-0.14-0.14-0.16-0.05-3e-3 -0.052 0.035-7e-3 0.112 0.046 0.054 0.095 0.07 0.147 0.048z" fill="#fff"/>
			<path d="m8.497-17.797c0.014 0.177 0.052 0.354 0.116 0.534l0.104 1.285c-5e-3 0.074 0.013 0.188 0.053 0.341 0.053 0.329 0.205 0.689 0.456 1.082 0.358 0.65 0.594 1.266 0.707 1.85l1.303-0.968 0.077-0.033c0.083-1.272-0.126-2.1-0.627-2.483l-2.189-1.608z" fill="#FFDC57"/>
			<path d="m10.356-15.76l-0.432 1.438c0.039 0.178 0.056 0.493 0.051 0.943l-0.043 0.674 2.36-1.049c0.623-0.335 1.001-0.561 1.134-0.678 0.189-0.99 0.277-1.561 0.262-1.712l-0.061-0.229-3.271 0.613z" fill="#DB9D00"/>
			<path d="m8.535-17.795l1.393 3.436 0.344-0.09c0.386-0.15 0.968-0.438 1.747-0.864 0.857-0.47 1.419-0.822 1.685-1.055-1.15-0.426-2.206-0.757-3.167-0.995l-2.002-0.432z" fill="#FFCF1C"/>
			<path d="m31.323-15.148l-1.279 1.758-0.026 0.976 0.805-0.248c0.639-0.185 1.224-0.322 1.756-0.412 0.606-0.086 1.268-0.243 1.985-0.472 0.395-2.229 0.445-3.391 0.151-3.485-0.318-0.123-1.448 0.506-3.392 1.883z" fill="#E8512E"/>
			<path d="m30.018-12.415l0.151-0.592c0.21-0.537 0.661-1.122 1.354-1.753 1.042-1.01 1.9-1.68 2.573-2.012 0.361-0.152 0.603-0.211 0.726-0.179l-1.178-1.542c-0.962 0.163-2.057 0.818-3.284 1.966-0.692 0.631-1.182 1.226-1.469 1.784l-0.229 0.624 1.356 1.704z" fill="#BA2400"/>
			<path d="m33.86-13.706c-0.55-0.788-1.133-1.063-1.75-0.828-0.436 0.147-0.728 0.404-0.876 0.77-0.147 0.341-0.111 0.544 0.111 0.608 0.123 0.033 0.579-0.05 1.369-0.249 0.406-0.099 0.788-0.199 1.146-0.301z" fill="#CC2700"/>
			<path d="m34.333-14.051c0.212-0.963 0.269-1.636 0.168-2.018-0.107-0.283-0.396-0.264-0.868 0.056s-0.643 0.635-0.513 0.944c0.042 0.128 0.254 0.33 0.637 0.605 0.192 0.162 0.383 0.3 0.576 0.413z" fill="#CC2700"/>
			<path d="m32.473-13.759c0.013-0.199-0.068-0.292-0.245-0.279-0.149-0.01-0.264 0.02-0.344 0.09-0.081 0.095-0.099 0.181-0.055 0.259 0.022 0.052 0.134 0.059 0.337 0.022 0.102-0.017 0.204-0.048 0.307-0.092z" fill="#D69635"/>
			<path d="m33.938-14.903c0.09-0.22 0.111-0.356 0.064-0.41-0.07-0.08-0.117-0.133-0.14-0.159-0.071-0.055-0.162-0.01-0.271 0.133-0.108 0.118-0.077 0.22 0.093 0.306 0.071 0.055 0.156 0.098 0.254 0.13z" fill="#D69635"/>
			<path d="m33.758-15.028c0.073 0.03 0.101-6e-3 0.083-0.107-0.019-0.102-0.053-0.154-0.103-0.157-0.052 0.021-0.067 0.058-0.045 0.109-5e-3 0.076 0.016 0.127 0.065 0.155z" fill="#fff"/>
			<path d="m32.134-13.743c0.089-0.22 0.015-0.225-0.225-0.015-0.026 0.023-2e-3 0.038 0.072 0.042 0.074 0.03 0.124 0.021 0.153-0.027z" fill="#fff"/>
			<polygon points="15.432 -14.641 20.726 -12.831 20.923 -14.133 18.896 -18.211 16.765 -17.222" fill="#D6340D"/>
			<path d="m20.726-12.831c-0.395-0.477-0.788-0.978-1.18-1.504-0.835-1.032-1.296-1.65-1.383-1.856-0.178-0.337-1.197-0.466-3.056-0.386l-2.201 0.909-0.599 1.125 8.419 1.712z" fill="#E8512E"/>
			<path d="m12.307-14.543l0.583-0.3c0.59-0.212 1.416-0.384 2.476-0.516 1.719-0.239 2.766-0.346 3.14-0.322l0.39-2.53c0.103-0.043-0.702 4e-3 -2.415 0.144-1.059 0.107-2.024 0.307-2.895 0.601l-0.965 0.388-0.314 2.535z" fill="#BA2400"/>
			<path d="m19.251-13.265c-0.461-0.23-0.998-0.453-1.61-0.668-0.584-0.263-1.059-0.469-1.425-0.618-0.661-0.244-1.192-0.354-1.595-0.33-0.479 0.044-0.761 0.151-0.847 0.321-0.084 0.145 0.046 0.253 0.392 0.326 0.444 0.104 2.139 0.426 5.085 0.969z" fill="#CC2700"/>
			<path d="m19.887-13.224c-0.189-0.563-0.59-1.141-1.203-1.731-0.471-0.457-1.131-0.525-1.979-0.204-0.205 0.062-0.201 0.2 0.011 0.414 0.187 0.212 0.512 0.409 0.977 0.59 0.612 0.215 1.343 0.525 2.194 0.931z" fill="#CC2700"/>
			<path d="m15.85-14.125c-0.14-0.159-0.357-0.286-0.652-0.38-0.195-0.088-0.344-0.11-0.447-0.067-0.101 0.019-0.13 0.079-0.087 0.182 0.045 0.078 0.254 0.142 0.626 0.191 0.198 0.038 0.385 0.062 0.56 0.074z" fill="#D69635"/>
			<path d="m18.309-14.378c-0.083-0.256-0.171-0.45-0.263-0.581-0.068-0.104-0.189-0.163-0.364-0.174-0.151 0.015-0.244 0.084-0.276 0.208-0.032 0.098 0.111 0.22 0.427 0.366 0.17 0.06 0.329 0.121 0.476 0.181z" fill="#D69635"/>
			<path d="m17.764-14.677c0.126-0.017 0.142-0.066 0.047-0.147s-0.168-0.099-0.222-0.052c-0.053 0.047-0.057 0.097-0.01 0.15 0.022 0.051 0.084 0.067 0.185 0.049z" fill="#fff"/>
			<path d="m14.994-14.256c0.149 0.01 0.214-0.023 0.194-0.1-0.045-0.078-0.131-0.109-0.257-0.092-0.1-6e-3 -0.139 0.016-0.117 0.067-3e-3 0.051 0.056 0.092 0.18 0.125z" fill="#fff"/>
			<path d="m23.169-18.046c-0.262-0.218-0.755-0.337-1.48-0.359-0.476-6e-3 -0.936-0.061-1.379-0.165l-0.557-0.111 0.123 1.586-5e-3 0.075 0.906 0.51c0.657 0.293 1.166 0.364 1.527 0.212l2.545-1c-0.17-0.086-0.354-0.148-0.552-0.186l-1.128-0.562z" fill="#DB9D00"/>
			<path d="m22.108-16.762l-1.017-1.118c-0.171-0.062-0.438-0.204-0.799-0.428l-0.54-0.374c-0.189 0.99-0.294 1.835-0.315 2.535l-0.045 1.275 1.354 1.14 0.22 0.089 1.142-3.119z" fill="#FFDC57"/>
			<path d="m24.812-17.301l-3.683-0.577c-0.083 0.12-0.158 0.892-0.226 2.315-0.037 0.949-0.03 1.614 0.021 1.993l2.473-2.207c0.696-0.681 1.167-1.189 1.415-1.524z" fill="#FFCF1C"/>
			<path d="m14.173-17.24l-0.656 1.423 0.641-0.034c0.502-0.017 1.002 3e-3 1.5 0.06l2.572 0.317 1.417-0.396c0.201-0.012 0.367-0.051 0.496-0.118-1.556-0.728-2.6-1.247-3.13-1.557-0.313-0.196-0.875-0.22-1.687-0.072l-1.11 0.304-0.043 0.073z" fill="#FFDC57"/>
			<path d="m13.645-16.636l-0.128 0.818 0.693-0.255c0.485-0.144 0.816-0.223 0.993-0.236l1.445-0.845-0.145-2.979-0.267 0.058-1.779 0.786c-0.084 0.145-0.222 0.524-0.413 1.138-0.126 0.393-0.258 0.898-0.399 1.515z" fill="#DB9D00"/>
			<path d="m20.249-15.906c-0.766-0.55-1.4-1.193-1.904-1.927l-1.877-2.339c-0.17 0.314-0.396 0.901-0.678 1.76-0.251 0.785-0.415 1.376-0.491 1.771l-0.059 0.334 2.14 0.026c0.899 0.034 1.856 0.159 2.869 0.375z" fill="#FFCF1C"/>
			<path d="m21.059-8.713l0.268 0.506c0.18 0.312 0.297 0.445 0.35 0.398l0.622-1.463-0.681-1.661-1.431-0.543 0.872 2.763z" fill="#FFDC57"/>
			<path d="m20.187-11.476l0.703 1.323 1.492 0.172c1.153-0.777 1.71-1.254 1.671-1.432-0.012-0.202-0.383-0.651-1.115-1.35l-0.742 0.44c-0.314 0.206-0.74 0.403-1.278 0.593l-0.731 0.254z" fill="#FFCF1C"/>
			<path d="m24.177-8.699c0.076-0.771 0.11-1.308 0.104-1.609-0.03-0.303-0.106-0.671-0.229-1.104-1.229 0.396-1.998 0.671-2.309 0.827l-0.855 0.433 0.517 1.875 0.27 0.469 2.502-0.891z" fill="#DB9D00"/>
				<linearGradient id="k" x1="35.1" x2="83.35" y1="-17.675" y2="-17.675" gradientTransform="matrix(.7484 .0486 -.0486 .7484 -25.7 -10.85)" gradientUnits="userSpaceOnUse">
				<stop stop-color="#fff" offset="0"/>
				<stop stop-color="#A9CAD1" offset="1"/>
			</linearGradient>
			<path d="m19.294-20.29c4.241 0.275 8.037 0.848 11.388 1.717 3.275 0.864 5.479 1.834 6.612 2.91-0.562-2.542-2.485-4.746-5.771-6.613-3.334-1.896-7.258-2.99-11.774-3.283-4.465-0.29-8.447 0.266-11.945 1.667-3.473 1.402-5.689 3.3-6.646 5.693 1.361-0.889 3.694-1.526 7.001-1.913 3.332-0.384 7.044-0.444 11.135-0.178z" fill="url(#k)"/>
			<path d="m36.07-15.329l1.16 0.076 0.057-0.297c0.066-1.023-1.636-2.01-5.106-2.962-3.496-0.954-7.75-1.593-12.765-1.919s-9.304-0.242-12.869 0.253c-3.589 0.494-5.417 1.251-5.484 2.274l0.056 0.304 1.31 0.085c0.176-0.791 1.917-1.366 5.223-1.728 3.279-0.338 7.201-0.359 11.766-0.062 4.59 0.298 8.489 0.827 11.697 1.587 3.23 0.787 4.882 1.583 4.955 2.389z" fill="#fff"/>
			<path d="m4.291-22.467c0.019 0.101 0.055 0.116 0.11 0.044s0.084-0.132 0.087-0.182-0.034-0.053-0.112-7e-3c-0.077 0.02-0.105 0.069-0.085 0.145z" fill="#fff"/>
				<linearGradient id="o" x1="16285" x2="16340" y1="-16343" y2="-16343" gradientTransform="matrix(-.8 .0558 -.0558 -.8 12158 -13998)" gradientUnits="userSpaceOnUse">
				<stop stop-color="#fff" offset="0"/>
				<stop stop-color="#A9CAD1" offset="1"/>
			</linearGradient>
			<path d="m31.23-11.831c3.443-0.964 5.129-1.952 5.058-2.966-0.071-1.013-1.876-1.745-5.418-2.194-3.57-0.474-7.835-0.539-12.795-0.192-4.934 0.344-9.135 1-12.604 1.965-3.472 0.939-5.172 1.915-5.102 2.929 0.071 1.013 1.892 1.757 5.461 2.231 3.544 0.476 7.795 0.541 12.755 0.195s9.176-1.002 12.645-1.968z" fill="url(#o)"/>
			<path d="m36.231-14.471l-1.16 0.081 0.045 0.077c0.058 0.827-1.521 1.633-4.735 2.42-3.212 0.813-7.125 1.381-11.738 1.703-4.613 0.323-8.553 0.303-11.821-0.058-3.292-0.333-4.967-0.913-5.025-1.739l-6e-3 -0.08-1.32 0.092c0.438 0.907 2.401 1.574 5.887 2 3.458 0.402 7.534 0.439 12.227 0.111s8.737-0.931 12.133-1.811c3.367-0.905 5.205-1.836 5.513-2.796z" fill="#fff"/>
			<path d="m27.939-11.762l0.598-0.082c0.422-0.083 0.655-0.207 0.697-0.371 0.09-0.247 0.855-0.796 2.297-1.647 0.153-0.118 0.401-0.39 0.747-0.816 0.372-0.428 0.58-0.71 0.624-0.847 0.042-0.164-0.058-0.452-0.301-0.863-0.245-0.438-0.492-0.716-0.742-0.833-0.276-0.114-2.058-0.312-5.347-0.591-3.233-0.256-5.239-0.385-6.016-0.384-0.992-0.011-6.805 1.158-17.44 3.508l0.791 2.115 2.623 1.304c0.662 0.275 1.114 0.405 1.354 0.388 0.133-9e-3 0.565 0.041 1.297 0.15 0.706 0.138 1.219 0.196 1.539 0.174 0.641-0.044 2.811-0.049 6.511-0.012 0.027-2e-3 0.847 0.035 2.459 0.11 1.398 0.063 2.237-9e-3 2.518-0.216 0.253-0.205 0.773-0.442 1.558-0.711 0.812-0.271 1.256-0.423 1.334-0.455 0.232-0.123 1.199-0.097 2.899 0.079z" fill="#BF5D00"/>
			<path d="m22.423-13.627l-1.075-1.01c-0.208 0.47-0.327 0.88-0.356 1.23l-0.153 1.256c0.011 0.16 0.022 0.32 0.034 0.48 0.022 0.32 0.06 0.478 0.113 0.474l1.304-0.895 0.133-1.535z" fill="#FFCF1C"/>
			<path d="m21.348-14.638l0.012 1.325 1.335 0.711c1.437-0.154 2.19-0.3 2.261-0.439 0.069-0.165-0.072-0.651-0.423-1.458l-0.923 0.024-2.262-0.163z" fill="#DB9D00"/>
			<path d="m23.738-10.906l0.879-1.227c0.119-0.223 0.231-0.525 0.339-0.908-1.378-0.171-2.242-0.259-2.591-0.261l-1.005-0.01c-0.268 0.769-0.391 1.313-0.369 1.633l-6e-3 0.483 2.753 0.29z" fill="#FFDC57"/>
			<path d="m19.815-15.857l-0.06-1.443c-0.469 0.194-0.843 0.394-1.124 0.601l-0.993 0.752c-0.099 0.114-0.212 0.229-0.337 0.345-0.197 0.255-0.268 0.394-0.212 0.417l1.548 0.294 1.178-0.966z" fill="#FFCF1C"/>
			<path d="m19.277-14.936l0.853 0.704c0.594 0.441 0.943 0.644 1.047 0.61 0.183-0.066 0.434-0.513 0.75-1.339l-0.687-0.635-1.485-1.704-0.303 0.263-0.598 0.645 0.423 1.456z" fill="#DB9D00"/>
			<path d="m18.811-12.974l1.469-0.263c0.263-0.072 0.563-0.2 0.897-0.384-0.826-1.095-1.369-1.767-1.628-2.017l-0.696-0.755c-0.724 0.372-1.199 0.673-1.424 0.903l-0.341 0.305 1.723 2.211z" fill="#FFDC57"/>
			<path d="m4.241-12.681l-1.075-1.01c-0.208 0.47-0.327 0.88-0.356 1.23l-0.153 1.257c0.011 0.16 0.022 0.32 0.034 0.48 0.022 0.32 0.059 0.464 0.111 0.434l1.307-0.854 0.132-1.537z" fill="#FFCF1C"/>
			<path d="m3.166-13.69l0.012 1.325 1.336 0.711 1.074-0.156c0.743-0.105 1.138-0.2 1.186-0.284 0.069-0.166-0.072-0.651-0.423-1.458l-0.923 0.024c-0.587 0.042-1.341-0.013-2.262-0.162z" fill="#DB9D00"/>
			<path d="m5.556-9.959l0.879-1.227c0.118-0.223 0.231-0.525 0.338-0.908-1.378-0.172-2.242-0.259-2.591-0.261l-1.005-0.01c-0.241 0.767-0.364 1.312-0.369 1.634l-8e-3 0.442 2.756 0.33z" fill="#FFDC57"/>
			<path d="m10.011-10.631l-1.734 1.648-0.207 1.059 0.917-0.104c0.747-0.052 1.416-0.059 2.008-0.02 0.672 0.034 1.42-5e-3 2.243-0.116 0.825-2.389 1.084-3.666 0.778-3.833-0.308-0.192-1.643 0.263-4.005 1.366z" fill="#E8512E"/>
			<path d="m8.07-7.924c0.012-0.59 0.71-1.349 2.092-2.276 1.306-0.869 2.354-1.41 3.142-1.626 0.421-0.11 0.701-0.129 0.84-0.059l-1.022-1.978c-0.269-8e-3 -0.64 0.044-1.114 0.158-0.92 0.251-1.855 0.679-2.805 1.281-1.357 0.898-2.122 1.662-2.292 2.291l1.159 2.209z" fill="#BA2400"/>
			<path d="m12.493-8.473c-0.471-0.985-1.064-1.427-1.78-1.323-0.478 0.06-0.825 0.272-1.041 0.635s-0.212 0.604 0.01 0.723c0.137 0.044 0.646 0.048 1.528 0.014 0.456-5e-3 0.883-0.021 1.283-0.049z" fill="#CC2700"/>
			<path d="m13.076-8.755l0.302-0.866c0.199-0.603 0.274-1.05 0.228-1.342-0.051-0.345-0.362-0.39-0.934-0.136s-0.818 0.566-0.739 0.936c0.038 0.158 0.231 0.439 0.581 0.844 0.202 0.2 0.389 0.388 0.562 0.564z" fill="#CC2700"/>
			<path d="m10.979-8.85c0.065-0.219-0.011-0.348-0.228-0.386-0.11-0.045-0.229-0.024-0.357 0.065-0.103 0.061-0.138 0.144-0.104 0.248 0.032 0.079 0.155 0.11 0.369 0.095 0.107-7e-3 0.214-0.015 0.32-0.022z" fill="#D69635"/>
			<path d="m12.764-9.778c0.145-0.225 0.202-0.376 0.169-0.454-0.061-0.103-0.105-0.167-0.134-0.191-0.085-0.075-0.191-0.054-0.317 0.062-0.152 0.118-0.143 0.251 0.028 0.4 0.059 0.076 0.143 0.137 0.254 0.183z" fill="#D69635"/>
			<path d="m12.59-9.967c0.083 0.048 0.135 0.017 0.154-0.091-7e-3 -0.106-0.039-0.171-0.094-0.194-0.056-0.023-0.08 5e-3 -0.075 0.085-0.02 0.082-0.015 0.148 0.015 0.2z" fill="#fff"/>
			<path d="m24.506-12.005l-2.227 0.919-0.544 0.842 0.9 0.219c0.684 0.193 1.3 0.391 1.85 0.594 0.605 0.226 1.315 0.417 2.13 0.575 1.643-1.803 2.348-2.83 2.116-3.082-0.232-0.251-1.641-0.274-4.225-0.067z" fill="#E8512E"/>
			<path d="m21.734-10.244l0.452-0.434c0.511-0.357 1.268-0.651 2.27-0.882 2.452-0.573 3.907-0.648 4.365-0.224l-0.262-2.032c-0.988-0.333-2.38-0.316-4.177 0.051-0.976 0.229-1.76 0.511-2.353 0.847l-0.612 0.445 0.317 2.229z" fill="#BA2400"/>
			<path d="m26.059-9.339c-0.071-1.013-0.458-1.576-1.163-1.688-0.489-0.1-0.913-0.03-1.272 0.209-0.358 0.24-0.438 0.446-0.238 0.62 0.114 0.099 0.595 0.267 1.442 0.502 0.411 0.132 0.821 0.251 1.231 0.357z" fill="#CC2700"/>
			<path d="m26.695-9.424l0.598-0.645c0.396-0.483 0.624-0.848 0.688-1.093 0.086-0.301-0.192-0.442-0.833-0.424-0.613 0.042-0.948 0.24-1.003 0.592-0.042 0.164 0.033 0.467 0.224 0.909l0.326 0.661z" fill="#CC2700"/>
			<path d="m24.757-10.133c0.149-0.171 0.14-0.305-0.028-0.4-0.139-0.071-0.274-0.088-0.406-0.052-0.133 9e-3 -0.196 0.067-0.189 0.174 6e-3 0.08 0.118 0.152 0.337 0.218 0.082 0.021 0.177 0.041 0.286 0.06z" fill="#D69635"/>
			<path d="m26.789-10.396l0.298-0.342c-0.019-0.267-0.145-0.352-0.38-0.255-0.156 0.064-0.188 0.188-0.095 0.368l0.177 0.229z" fill="#D69635"/>
			<path d="m26.695-10.59c0.032 0.078 0.084 0.061 0.157-0.051 0.048-0.083 0.043-0.15-0.014-0.2-0.028-0.024-0.066 5e-3 -0.114 0.089-0.05 0.057-0.059 0.11-0.029 0.162z" fill="#fff"/>
			<path d="m24.463-10.313c0.128-0.089 0.058-0.125-0.208-0.106-0.026 2e-3 -0.011 0.027 0.046 0.077 0.056 0.049 0.111 0.059 0.162 0.029z" fill="#fff"/>
			<path d="m23.238-8.861l-2.33-0.561-1.015 0.432c0.643 0.759 1.22 1.549 1.733 2.371 0.336 0.593 0.767 1.206 1.294 1.839 2.448-0.626 3.66-1.113 3.636-1.459-0.024-0.347-1.13-1.221-3.318-2.622z" fill="#E8512E"/>
			<path d="m26.04-6.726c0.315 0.299 0.479 0.529 0.49 0.689l1.109-1.966c-0.6-0.922-1.73-1.755-3.39-2.497-0.94-0.417-1.748-0.655-2.421-0.715l-0.72 0.05-1.215 2.175 0.634-0.125c0.642-0.019 1.434 0.181 2.374 0.598 1.463 0.622 2.509 1.219 3.139 1.791z" fill="#BA2400"/>
			<path d="m22.784-5.574c0.579-0.925 0.634-1.665 0.167-2.222-0.348-0.377-0.736-0.565-1.165-0.562-0.427 0.03-0.618 0.164-0.575 0.401 0.038 0.158 0.31 0.595 0.815 1.31 0.268 0.384 0.52 0.741 0.758 1.073z" fill="#CC2700"/>
			<path d="m23.329-5.25l0.869-0.221c0.631-0.178 1.047-0.354 1.25-0.529 0.278-0.234 0.151-0.52-0.381-0.858-0.508-0.366-0.899-0.406-1.174-0.119-0.099 0.114-0.224 0.431-0.375 0.95-0.063 0.272-0.126 0.531-0.189 0.777z" fill="#CC2700"/>
			<path d="m22.278-7.066l0.154-0.091c0.075-0.086 0.095-0.181 0.061-0.286-0.063-0.129-0.15-0.23-0.262-0.303-0.137-0.044-0.229-0.024-0.277 0.06-0.05 0.057-0.015 0.175 0.104 0.354 0.061 0.103 0.134 0.191 0.22 0.266z" fill="#D69635"/>
			<path d="m24.036-6.063l0.2-0.014c0.16-0.011 0.252-0.044 0.274-0.1 0.023-0.055 0.058-0.138 0.104-0.249-6e-3 -0.08-0.09-0.141-0.254-0.183-0.166-0.069-0.268 5e-3 -0.306 0.222l-0.018 0.324z" fill="#D69635"/>
			<path d="m24.099-6.309c-0.019 0.109 0.023 0.132 0.126 0.072 0.103-0.061 0.153-0.118 0.149-0.171-0.031-0.052-0.072-0.063-0.123-0.032-0.078 0.032-0.129 0.076-0.152 0.131z" fill="#fff"/>
			<path d="m22.136-7.377c0.16-0.011 0.128-0.089-0.097-0.235-0.028-0.024-0.04 3e-3 -0.034 0.083 5e-3 0.08 0.049 0.13 0.131 0.152z" fill="#fff"/>
			<polygon points="26.432 -14.35 25.782 -16.756 24.17 -17.97 21.871 -15.197 21.646 -13.815" fill="#FF6945"/>
			<path d="m27.046-15.92c-1.555-0.4-2.431-0.473-2.627-0.218l-2.772 2.323 3.182 0.1c0.914 0.043 2.309 0.054 4.183 0.03l-0.275-1.066-1.691-1.169z" fill="#E8512E"/>
			<path d="m29.368-13.751l0.209-2.185c-0.629-0.573-1.657-1.09-3.083-1.554l-1.971-0.586-0.126 2.22 2.549 0.827c1.403 0.492 2.209 0.918 2.422 1.278z" fill="#BA2400"/>
			<path d="m23.006-13.91l4.431 0.133c0.295 6e-3 0.424-0.07 0.386-0.228-0.063-0.13-0.286-0.262-0.67-0.396-0.33-0.111-0.786-0.12-1.369-0.025-0.634 0.125-1.071 0.195-1.312 0.212l-1.466 0.304z" fill="#CC2700"/>
			<path d="m22.435-14.03l2.026-0.342c0.423-0.083 0.738-0.186 0.943-0.308 0.204-0.148 0.222-0.27 0.055-0.365-0.723-0.378-1.278-0.447-1.663-0.206-0.412 0.243-0.754 0.521-1.027 0.835l-0.334 0.386z" fill="#CC2700"/>
			<path d="m26.014-13.999l1.006 0.01c0.145-0.225 6e-3 -0.295-0.417-0.212-0.16 0.011-0.305 0.048-0.434 0.111l-0.155 0.091z" fill="#D69635"/>
			<path d="m23.958-14.66c0.585-0.067 0.873-0.168 0.863-0.301 0.019-0.108-0.053-0.184-0.217-0.226-0.135-0.018-0.241 3e-3 -0.317 0.062l-0.329 0.465z" fill="#D69635"/>
			<path d="m24.51-14.818c0.056 0.022 0.108 0.019 0.16-0.011 0.049-0.057 0.06-0.098 0.032-0.123-0.058-0.049-0.125-0.058-0.203-0.026-0.103 0.06-0.099 0.114 0.011 0.16z" fill="#fff"/>
			<path d="m26.74-13.969c0.108 0.019 0.174 1e-3 0.197-0.054 0.023-0.056-0.02-0.093-0.129-0.112-0.082-0.021-0.147-3e-3 -0.197 0.054-0.049 0.058-6e-3 0.095 0.129 0.112z" fill="#fff"/>
			<polygon points="8.769 -12.876 13.811 -12.625 13.647 -13.819 10.821 -16.878 9.271 -15.483" fill="#D6340D"/>
			<path d="m13.811-12.625c-0.451-0.317-0.929-0.646-1.436-0.985-0.987-0.708-1.541-1.152-1.66-1.332-0.232-0.251-1.146-0.107-2.744 0.433l-1.716 1.326-0.202 1.139 7.758-0.581z" fill="#E8512E"/>
			<path d="m6.054-12.043c0.189-0.361 1.012-0.861 2.468-1.499 1.404-0.607 2.278-0.949 2.621-1.027l-0.322-2.309c0.101-0.087-0.565 0.16-1.998 0.743-1.488 0.56-2.531 1.168-3.128 1.826l0.359 2.266z" fill="#BA2400"/>
			<path d="m12.363-12.645c-0.436-0.104-0.95-0.175-1.542-0.214-0.567-0.067-1.026-0.116-1.376-0.145-0.621-0.064-1.114-0.029-1.48 0.104-0.392 0.134-0.609 0.297-0.649 0.487-0.042 0.164 0.097 0.234 0.417 0.212l4.63-0.444z" fill="#CC2700"/>
			<path d="m12.955-12.806c-0.299-0.435-0.795-0.829-1.489-1.183-0.446-0.236-1.028-0.129-1.747 0.323-0.179 0.12-0.144 0.238 0.105 0.354 0.224 0.146 0.552 0.23 0.982 0.253l2.149 0.253z" fill="#CC2700"/>
			<path d="m9.234-12.547c-0.169-0.122-0.388-0.187-0.657-0.195-0.458-0.022-0.598 0.068-0.423 0.271 0.057 0.05 0.258 0.049 0.603-2e-3 0.16-0.011 0.319-0.036 0.477-0.074z" fill="#D69635"/>
			<path d="m11.307-13.375l-0.394-0.455c-0.086-0.075-0.194-0.094-0.326-0.058-0.13 0.063-0.191 0.147-0.183 0.254 5e-3 0.08 0.157 0.15 0.457 0.209 0.162 0.017 0.31 0.033 0.446 0.05z" fill="#D69635"/>
			<path d="m10.736-13.496c0.104-0.034 0.101-0.087-0.011-0.16-0.11-0.045-0.177-0.041-0.2 0.014-0.05 0.057-0.047 0.097 8e-3 0.12 0.057 0.05 0.124 0.059 0.203 0.026z" fill="#fff"/>
			<path d="m8.477-12.454c0.131-0.036 0.169-0.079 0.112-0.128s-0.138-0.057-0.243-0.023c-0.107 8e-3 -0.145 0.037-0.115 0.089 0.058 0.049 0.14 0.07 0.246 0.062z" fill="#fff"/>
			<polygon points="9.029 -9.719 6.124 -9.315 4.759 -8.135 8.755 -6.163 10.209 -6.063" fill="#D6340D"/>
			<path d="m7.022-10.262c-0.086 0.301-0.146 0.6-0.179 0.897-0.091 0.623-0.039 0.98 0.155 1.074 0.333 0.165 1.403 0.907 3.21 2.228l-0.209-2.437c-0.048-0.693-0.19-1.769-0.426-3.226l-1.314 0.172-1.237 1.292z" fill="#E8512E"/>
			<path d="m9.573-11.726l-2.748-0.21c-0.639 0.446-1.161 1.206-1.569 2.279-0.408 1.074-0.573 1.581-0.497 1.522l2.745 0.17c0.01-0.242 0.259-0.889 0.749-1.941 0.462-1.05 0.903-1.657 1.32-1.82z" fill="#BA2400"/>
			<path d="m9.937-7.089l-0.278-3.397c-0.043-0.238-0.157-0.337-0.342-0.297-0.187 0.013-0.336 0.17-0.449 0.473-0.09 0.248-0.051 0.606 0.116 1.077 0.249 0.492 0.393 0.831 0.432 1.015 0.163 0.417 0.336 0.794 0.521 1.129z" fill="#CC2700"/>
			<path d="m9.847-6.641l-0.671-1.561c-0.104-0.341-0.256-0.598-0.456-0.772-0.173-0.175-0.322-0.192-0.446-0.049-0.421 0.485-0.445 0.915-0.07 1.291 0.544 0.498 1.091 0.862 1.643 1.091z" fill="#CC2700"/>
			<path d="m9.495-9.39c0.075-0.461 0.043-0.726-0.096-0.797-0.251-0.143-0.324-0.031-0.218 0.337l0.314 0.46z" fill="#D69635"/>
			<path d="m8.878-7.859c-0.112-0.448-0.262-0.678-0.45-0.692-0.107 7e-3 -0.183 0.066-0.229 0.176-0.019 0.109 0.013 0.187 0.097 0.234 0.141 0.098 0.334 0.192 0.582 0.282z" fill="#D69635"/>
			<path d="m8.647-8.286c0.023-0.054 7e-3 -0.094-0.048-0.117-0.057-0.05-0.111-0.059-0.163-0.028-0.052 0.03-0.035 0.083 0.051 0.157s0.139 0.07 0.16-0.012z" fill="#fff"/>
			<path d="m9.496-9.953c-5e-3 -0.08-0.036-0.131-0.091-0.154-0.082-0.021-0.12 8e-3 -0.114 0.088-0.024 0.056 6e-3 0.107 0.09 0.155 0.056 0.023 0.094-7e-3 0.115-0.089z" fill="#fff"/>
			<path d="m14.675-8.304l-2.278 0.762-0.624 0.848 0.865 0.301c0.689 0.273 1.298 0.553 1.827 0.837 0.585 0.334 1.277 0.635 2.072 0.901 1.776-1.812 2.561-2.858 2.354-3.139-0.209-0.308-1.615-0.477-4.216-0.51z" fill="#E8512E"/>
			<path d="m18.942-7.637l-0.077-2.246c-0.97-0.468-2.359-0.585-4.165-0.353-1.01 0.125-1.825 0.342-2.447 0.653l-0.612 0.445 0.13 2.442 0.492-0.437c0.513-0.331 1.286-0.572 2.321-0.724 1.566-0.216 2.77-0.247 3.611-0.092 0.409 0.081 0.658 0.184 0.747 0.312z" fill="#BA2400"/>
			<path d="m16.013-5.263c3e-3 -1.099-0.337-1.758-1.022-1.978-0.467-0.155-0.892-0.112-1.277 0.129-0.387 0.215-0.479 0.422-0.278 0.623 0.089 0.128 0.548 0.364 1.376 0.708 0.414 0.185 0.814 0.358 1.201 0.518z" fill="#CC2700"/>
			<path d="m16.656-5.267c0.805-0.753 1.272-1.348 1.402-1.786 0.111-0.329-0.142-0.499-0.759-0.51-0.646-0.035-1.009 0.138-1.089 0.519-0.042 0.164 0.022 0.507 0.192 1.031 0.073 0.263 0.157 0.512 0.254 0.746z" fill="#CC2700"/>
			<path d="m14.777-6.261c0.149-0.171 0.152-0.319 0.01-0.443-0.114-0.099-0.25-0.13-0.409-0.092-0.133 9e-3 -0.196 0.067-0.188 0.174-0.021 0.082 0.078 0.168 0.299 0.26 0.084 0.048 0.18 0.081 0.288 0.101z" fill="#D69635"/>
			<path d="m16.823-6.324l0.337-0.345c-0.011-0.16-0.018-0.253-0.02-0.28-0.059-0.076-0.166-0.082-0.323-0.017-0.185 0.04-0.243 0.164-0.175 0.374l0.181 0.268z" fill="#D69635"/>
			<path d="m16.766-6.561c0.032 0.078 0.085 0.062 0.158-0.051 0.047-0.084 0.042-0.151-0.014-0.2-0.03-0.052-0.069-0.036-0.117 0.048s-0.057 0.151-0.027 0.203z" fill="#fff"/>
			<path d="m14.48-6.482c0.207-0.122 0.149-0.171-0.171-0.148-0.053 3e-3 -0.051 0.043 9e-3 0.12 0.057 0.049 0.111 0.058 0.162 0.028z" fill="#fff"/>
			<path d="m10.897-9.447l0.078-0.045c-0.089-1.28-0.386-2.063-0.888-2.35l-2.383-1.321 0.159 0.552c0.093 0.181 0.202 0.589 0.326 1.223-4e-3 0.322 0.215 0.776 0.658 1.361s0.763 1.138 0.96 1.661l1.09-1.081z" fill="#FFDC57"/>
			<path d="m9.838-11.383l-0.26 1.465c0.064 0.156 0.126 0.46 0.184 0.912l0.044 0.64 2.119-1.313 1.03-0.795c0.064-0.996 0.064-1.572 0-1.729l-0.057-0.237-3.06 1.057z" fill="#DB9D00"/>
			<path d="m7.744-13.166c0.131 0.339 0.421 0.855 0.872 1.547l0.96 1.661 0.311-0.142c0.36-0.213 0.885-0.571 1.573-1.075 0.763-0.589 1.269-1.013 1.519-1.271-1.198-0.265-2.269-0.444-3.213-0.54-0.946-0.121-1.62-0.181-2.022-0.18z" fill="#FFCF1C"/>
			<path d="m29.37-11.42l-1.032 1.921 0.064 0.92 0.78-0.336c0.624-0.285 1.185-0.498 1.684-0.64 0.579-0.147 1.218-0.393 1.918-0.737 0.057-2.254-0.064-3.412-0.363-3.471-0.296-0.032-1.314 0.748-3.051 2.343z" fill="#E8512E"/>
			<path d="m28.402-8.579l0.079-0.608c0.151-0.52 0.522-1.148 1.114-1.887 0.887-1.106 1.65-1.884 2.289-2.33 0.333-0.21 0.568-0.308 0.703-0.29l-1.38-1.351c-0.943 0.307-1.933 1.099-2.969 2.377-0.592 0.738-0.989 1.382-1.192 1.932l-0.155 0.654 1.511 1.503z" fill="#BA2400"/>
			<path d="m32.059-10.321c-0.666-0.704-1.282-0.902-1.85-0.594-0.416 0.19-0.677 0.476-0.784 0.859-0.109 0.355-0.042 0.552 0.202 0.588 0.215 0.011 1.026-0.273 2.432-0.853z" fill="#CC2700"/>
			<path d="m32.471-10.752c0.066-0.969 0.02-1.636-0.14-2-0.125-0.259-0.389-0.2-0.792 0.176-0.431 0.352-0.569 0.683-0.413 0.994 0.063 0.129 0.302 0.3 0.719 0.513 0.224 0.118 0.432 0.224 0.626 0.317z" fill="#CC2700"/>
			<path d="m30.662-10.183c-0.015-0.214-0.102-0.301-0.26-0.264-0.133 0.01-0.237 0.057-0.312 0.143-0.1 0.114-0.12 0.196-0.063 0.245 0.057 0.05 0.177 0.042 0.359-0.025 0.106-0.034 0.197-0.067 0.276-0.099z" fill="#D69635"/>
			<path d="m31.976-11.521c0.039-0.217 0.029-0.35-0.028-0.4-0.059-0.077-0.103-0.127-0.131-0.151-0.082-0.021-0.172 0.025-0.271 0.139-0.071 0.139-0.023 0.243 0.142 0.312 0.083 0.047 0.179 0.081 0.288 0.1z" fill="#D69635"/>
			<path d="m31.767-11.627c0.082 0.021 0.106-7e-3 0.074-0.086-0.034-0.104-0.078-0.155-0.131-0.151-0.027 2e-3 -0.038 0.043-0.032 0.123 0.031 0.051 0.061 0.089 0.089 0.114z" fill="#fff"/>
			<path d="m30.342-10.161c0.065-0.22-1e-3 -0.215-0.2 0.014-0.023 0.055 0.044 0.05 0.2-0.014z" fill="#fff"/>
			<polygon points="15.833 -10.716 21.254 -9.647 21.282 -10.976 18.731 -14.697 16.769 -13.434" fill="#D6340D"/>
			<path d="m21.254-9.647l-2.981-2.967c-0.208-0.307-1.226-0.29-3.051 0.052l-2.05 1.148-0.399 1.193 8.481 0.574z" fill="#E8512E"/>
			<path d="m12.773-10.221l0.498-0.356c0.568-0.308 1.366-0.591 2.393-0.851 1.656-0.464 2.67-0.708 3.043-0.735l0.024-2.534c0.103-0.061-0.676 0.101-2.337 0.485-1.029 0.232-1.959 0.539-2.79 0.918l-0.887 0.544 0.056 2.529z" fill="#BA2400"/>
			<path d="m19.751-9.864c-0.495-0.18-1.056-0.342-1.682-0.485-0.628-0.17-1.12-0.297-1.474-0.38-0.681-0.167-1.22-0.209-1.617-0.128-0.447 0.112-0.706 0.25-0.774 0.416-0.069 0.165 0.072 0.263 0.422 0.292 0.433 0.05 2.142 0.145 5.125 0.285z" fill="#CC2700"/>
			<path d="m20.389-9.949c-0.251-0.519-0.729-1.035-1.435-1.548-0.561-0.363-1.215-0.331-1.962 0.097-0.208 0.095-0.186 0.227 0.067 0.397 0.229 0.198 0.574 0.348 1.037 0.45 0.653 0.142 1.417 0.344 2.293 0.604z" fill="#CC2700"/>
			<path d="m16.267-10.264c-0.145-0.151-0.367-0.256-0.666-0.315-0.489-0.1-0.659-0.034-0.509 0.197 0.059 0.076 0.276 0.114 0.651 0.115 0.189 0.013 0.364 0.014 0.524 3e-3z" fill="#D69635"/>
			<path d="m18.679-10.834l-0.319-0.541c-0.087-0.101-0.211-0.146-0.371-0.134-0.185 0.04-0.272 0.126-0.263 0.259-0.02 0.108 0.135 0.205 0.462 0.289 0.164 0.043 0.327 0.085 0.491 0.127z" fill="#D69635"/>
			<path d="m18.1-11.075c0.185-0.04 0.113-0.102-0.214-0.186-0.023 0.055-0.02 0.108 0.011 0.16 0.057 0.049 0.124 0.058 0.203 0.026z" fill="#fff"/>
			<path d="m15.461-10.288c0.133-9e-3 0.17-0.052 0.111-0.128-0.03-0.052-0.112-0.073-0.245-0.063-0.107 7e-3 -0.145 0.037-0.115 0.088s0.114 0.085 0.249 0.103z" fill="#fff"/>
			<path d="m33.819-15.628l-0.531-0.124-1.194-0.399c-0.279-0.168-0.778-0.213-1.497-0.136-0.452 0.058-0.92 0.064-1.405 0.018l-0.566-0.041 0.349 1.543 6e-3 0.08 0.951 0.375c0.712 0.218 1.235 0.222 1.568 0.011l2.319-1.327z" fill="#DB9D00"/>
			<path d="m31.229-14.725l-1.156-1.004c-0.162-0.016-0.437-0.117-0.825-0.305l-0.623-0.278c-0.038 0.994-0.019 1.836 0.056 2.528l0.129 1.277 1.473 0.943 0.206 0.065 0.74-3.226z" fill="#FFDC57"/>
			<path d="m32.048-15.666l-1.931-0.026c-0.072 0.112-0.046 0.875 0.079 2.286 0.094 0.958 0.192 1.608 0.297 1.949l2.118-2.479c0.616-0.767 1.02-1.317 1.211-1.652-0.352-0.057-0.944-0.082-1.774-0.078z" fill="#FFCF1C"/>
			<path d="m18.616-8.86l-0.852-1.267c-0.258 0.527-0.427 0.981-0.508 1.362l-0.345 1.391c-0.014 0.188-0.027 0.377-0.041 0.566-0.027 0.376-0.015 0.55 0.036 0.52l1.347-0.858 0.363-1.714z" fill="#DB9D00"/>
			<path d="m17.587-8.628l1.152 0.964 1.043-0.032c0.695-0.022 1.066-0.088 1.111-0.198 0.096-0.167 0.042-0.74-0.16-1.717l-0.849-0.061c-0.376-0.028-0.838-0.117-1.384-0.266l-0.737-0.19-0.176 1.5z" fill="#FFCF1C"/>
			<path d="m19.476-5.745l0.996-1.275c0.17-0.253 0.333-0.6 0.49-1.039-1.256-0.341-2.047-0.541-2.372-0.599l-0.934-0.136c-0.369 0.856-0.581 1.474-0.635 1.853l-0.083 0.528 2.538 0.668z" fill="#FFDC57"/>
				<linearGradient id="l" x1=".1001" x2="44.85" y1="-16.825" y2="-16.825" gradientTransform="matrix(.8 -.0558 .0558 .8 1 -3.25)" gradientUnits="userSpaceOnUse">
				<stop stop-color="#fff" offset="0"/>
				<stop stop-color="#A9CAD1" offset="1"/>
			</linearGradient>
			<path d="m17.966-17.015c4.213-0.294 8.022-0.238 11.427 0.167 3.325 0.412 5.608 1.069 6.85 1.974-0.866-2.432-3.051-4.356-6.552-5.772-3.529-1.416-7.533-1.967-12.013-1.654-4.374 0.305-8.196 1.389-11.469 3.252-3.222 1.833-5.148 3.99-5.779 6.473 1.24-1.051 3.439-1.982 6.598-2.792 3.239-0.816 6.885-1.364 10.938-1.648z" fill="url(#l)"/>
			<path d="m16.046-11.809c0.802 0 1.189-0.054 1.163-0.161-0.027-0.08-0.401-0.508-1.123-1.283l-1.885-0.16-1.203 1.123 3.048 0.481z" fill="#FFDC57"/>
			<path d="m12.999-12.29l1.604-0.04 0.842-1.363c-0.187-1.47-0.374-2.232-0.562-2.285-0.107-0.054-0.441 0-1.002 0.16l-0.802 0.281 0.08 0.922c0.027 0.374 0 0.882-0.08 1.523l-0.08 0.802z" fill="#FFCF1C"/>
			<path d="m17.208-11.969l0.321-2.807c-0.695-0.455-1.189-0.748-1.483-0.882l-1.163-0.32c-0.187 1.39-0.281 2.259-0.281 2.606v1.042l0.802 0.161c0.561 0.133 0.962 0.2 1.203 0.2h0.601z" fill="#DB9D00"/>
			<path d="m35.071-14.39l1.16-0.081 0.058-0.326c-0.071-1.013-1.876-1.745-5.418-2.194-3.57-0.474-7.835-0.539-12.795-0.192-4.934 0.344-9.135 1-12.604 1.965-3.472 0.939-5.172 1.915-5.102 2.929l0.103 0.314 1.32-0.092c0.078-0.809 1.71-1.606 4.897-2.392 3.163-0.756 7.011-1.293 11.544-1.609 4.534-0.316 8.432-0.32 11.696-0.012 3.264 0.334 4.979 0.898 5.141 1.69z" fill="#fff"/>
					<linearGradient id="p" x1="16281" x2="16340" y1="-16342" y2="-16342" gradientTransform="matrix(-.75 0 0 -.75 12254 -12266)" gradientUnits="userSpaceOnUse">
					<stop stop-color="#fff" offset="0"/>
					<stop stop-color="#A9CAD1" offset="1"/>
				</linearGradient>
				<path d="m36.3-9.263c0-1.025-1.775-1.887-5.325-2.587-3.549-0.726-7.825-1.088-12.824-1.088-5 0-9.275 0.362-12.825 1.088-3.551 0.7-5.326 1.562-5.326 2.587s1.775 1.9 5.325 2.625 7.825 1.088 12.825 1.088 9.275-0.363 12.824-1.088c3.551-0.725 5.326-1.599 5.326-2.625z" fill="url(#p)"/>
				<path d="m36.225-8.963h-1.162l0.037 0.113c0 0.8-1.649 1.5-4.949 2.1-3.325 0.575-7.3 0.862-11.926 0.862-4.625 0-8.587-0.287-11.887-0.862-3.301-0.6-4.95-1.3-4.95-2.1v-0.113h-1.313c0.375 0.951 2.287 1.763 5.738 2.438 3.475 0.65 7.587 0.975 12.337 0.975s8.862-0.325 12.337-0.976c3.451-0.674 5.363-1.486 5.738-2.437z" fill="#fff"/>
				<path d="m31.987-12.037c-0.275-0.125-2.05-0.438-5.325-0.938-3.225-0.525-5.225-0.8-6-0.825-1-0.075-6.938 0.7-17.813 2.325l0.638 2.175 1.613 1.013 0.9 0.449c0.675 0.325 1.125 0.488 1.35 0.488 0.15 0 0.588 0.087 1.313 0.262 0.7 0.201 1.225 0.301 1.575 0.301 0.625 0 2.8 0.137 6.525 0.412 0.025 0 0.862 0.1 2.513 0.3 1.375 0.15 2.212 0.138 2.512-0.037 0.301-0.2 0.85-0.4 1.65-0.601 0.85-0.2 1.3-0.312 1.35-0.337 0.25-0.125 1.213-0.038 2.888 0.263l0.638-0.075c0.425-0.075 0.663-0.188 0.713-0.338 0.1-0.225 0.899-0.712 2.399-1.462 0.175-0.1 0.45-0.351 0.825-0.75 0.425-0.425 0.65-0.7 0.675-0.825 0.075-0.175 0-0.475-0.225-0.9-0.201-0.451-0.438-0.751-0.714-0.9z" fill="#BF5D00"/>
				<path d="m15.3-10.688l-1.013-1.088c-0.225 0.475-0.375 0.875-0.449 1.2l-0.226 1.276v0.487c0 0.325 0.025 0.475 0.075 0.45l1.35-0.788 0.263-1.537z" fill="#FFCF1C"/>
				<path d="m15.525-9.638c1.45-0.05 2.212-0.149 2.287-0.3s-0.025-0.65-0.3-1.5h-0.938l-2.288-0.338-0.037 0.413v0.899l1.276 0.826z" fill="#DB9D00"/>
				<path d="m16.463-7.875l0.937-1.125c0.149-0.225 0.287-0.538 0.412-0.938-1.35-0.275-2.213-0.425-2.588-0.45l-0.975-0.075c-0.325 0.775-0.5 1.326-0.525 1.65l-0.037 0.45 2.776 0.488z" fill="#FFDC57"/>
				<path d="m18-6.188l-1.05-1.088c-0.226 0.45-0.363 0.85-0.413 1.2l-0.262 1.237v0.488c0 0.325 0.024 0.487 0.074 0.487l1.351-0.824 0.3-1.5z" fill="#FFCF1C"/>
				<path d="m18.188-5.175c1.45-0.025 2.213-0.112 2.287-0.263 0.075-0.15-0.024-0.65-0.3-1.5l-0.938-0.037c-0.375 0-0.862-0.05-1.462-0.15l-0.825-0.15-0.038 0.375v0.938l1.276 0.787z" fill="#DB9D00"/>
				<path d="m19.125-3.375l0.938-1.162c0.15-0.226 0.288-0.525 0.412-0.9-1.35-0.275-2.2-0.425-2.55-0.45l-1.013-0.075c-0.325 0.75-0.5 1.288-0.524 1.613l-0.038 0.487 2.775 0.487z" fill="#FFDC57"/>
				<path d="m3.9-9.412l-1.013-1.051c-0.25 0.45-0.4 0.85-0.45 1.2l-0.224 1.238c-0.025 0.15-0.038 0.313-0.038 0.488 0 0.325 0.025 0.487 0.075 0.487l1.388-0.825 0.262-1.537z" fill="#FFCF1C"/>
				<path d="m2.888-10.463l-0.075 1.313 1.313 0.788 1.087-0.038c0.75-0.05 1.149-0.125 1.199-0.225 0.075-0.175-0.037-0.675-0.337-1.5l-0.9-0.037c-0.625 0-1.388-0.1-2.287-0.301z" fill="#DB9D00"/>
				<path d="m5.025-6.563l0.975-1.162c0.15-0.226 0.288-0.525 0.412-0.9-1.374-0.275-2.237-0.425-2.587-0.45l-1.012-0.075c-0.325 0.75-0.5 1.288-0.525 1.613l-0.038 0.487 2.775 0.487z" fill="#FFDC57"/>
				<path d="m9.563-6.938l-1.875 1.538-0.263 1.05 0.938-0.038c0.75 0 1.425 0.038 2.025 0.112 0.675 0.075 1.438 0.1 2.287 0.075 1-2.35 1.351-3.625 1.05-3.825-0.3-0.199-1.688 0.164-4.162 1.088z" fill="#E8512E"/>
				<path d="m7.425-4.35l0.3-0.601c0.375-0.499 1.012-1.012 1.913-1.536 1.4-0.775 2.513-1.237 3.337-1.388 0.425-0.075 0.713-0.075 0.863 0l-0.9-2.063c-1.1-0.1-2.45 0.288-4.05 1.162-1.45 0.8-2.275 1.513-2.476 2.138l1.013 2.288z" fill="#BA2400"/>
				<path d="m11.963-4.575c-0.425-1.025-1-1.512-1.726-1.462-0.5 0.024-0.887 0.212-1.162 0.563-0.25 0.35-0.25 0.587 0 0.712 0.125 0.075 0.65 0.125 1.575 0.15 0.45 0.025 0.888 0.037 1.313 0.037z" fill="#CC2700"/>
				<path d="m12.525-4.838l0.375-0.824c0.225-0.625 0.325-1.075 0.3-1.351-0.025-0.324-0.325-0.387-0.9-0.187-0.6 0.2-0.875 0.487-0.825 0.862 0.025 0.175 0.2 0.475 0.525 0.9 0.175 0.225 0.35 0.426 0.525 0.6z" fill="#CC2700"/>
				<path d="m10.425-5.063c0.075-0.225 0.013-0.362-0.188-0.412-0.149-0.05-0.287-0.038-0.412 0.037-0.1 0.075-0.138 0.163-0.112 0.263 0.024 0.075 0.149 0.112 0.375 0.112h0.337z" fill="#D69635"/>
				<path d="m12.3-5.888c0.175-0.2 0.238-0.35 0.188-0.45-0.025-0.1-0.062-0.174-0.112-0.225-0.075-0.05-0.188-0.025-0.338 0.075-0.149 0.1-0.149 0.237 0 0.412 0.074 0.076 0.162 0.138 0.262 0.188z" fill="#D69635"/>
				<path d="m12.15-6.075c0.074 0.05 0.125 0.013 0.149-0.112 0-0.1-0.025-0.163-0.075-0.188-0.05 0-0.087 0.037-0.112 0.112s-0.012 0.138 0.038 0.188z" fill="#fff"/>
				<path d="m10.05-5.175c0.125-0.125 0.063-0.15-0.188-0.075-0.049 0.05-0.037 0.087 0.038 0.112s0.125 0.013 0.15-0.037z" fill="#fff"/>
				<path d="m22.275-5.213l-2.25 0.75-0.638 0.788 0.862 0.263c0.7 0.25 1.313 0.5 1.838 0.75 0.625 0.275 1.337 0.524 2.137 0.75 1.75-1.701 2.525-2.688 2.325-2.963-0.199-0.25-1.624-0.362-4.274-0.338z" fill="#E8512E"/>
				<path d="m25.838-4.987c0.425 0.05 0.687 0.137 0.787 0.263l-0.112-2.026c-0.976-0.425-2.375-0.512-4.2-0.263-1.025 0.15-1.838 0.375-2.438 0.675l-0.638 0.413 0.15 2.25 0.487-0.413c0.525-0.3 1.3-0.537 2.325-0.712 1.576-0.25 2.789-0.313 3.639-0.187z" fill="#BA2400"/>
				<path d="m23.662-2.438c0-0.25-0.037-0.512-0.112-0.787-0.175-0.576-0.487-0.913-0.938-1.013-0.5-0.125-0.925-0.075-1.274 0.149-0.375 0.201-0.475 0.4-0.301 0.601 0.1 0.1 0.576 0.3 1.426 0.6 0.399 0.151 0.8 0.3 1.199 0.45z" fill="#CC2700"/>
				<path d="m24.3-2.475l0.638-0.601c0.45-0.475 0.713-0.825 0.787-1.05 0.1-0.325-0.162-0.487-0.787-0.487-0.625-0.025-0.988 0.149-1.088 0.524-0.024 0.15 0.038 0.463 0.188 0.938l0.262 0.676z" fill="#CC2700"/>
				<path d="m22.425-3.338c0.15-0.174 0.15-0.312 0-0.412-0.125-0.075-0.263-0.1-0.412-0.075-0.125 0-0.188 0.05-0.188 0.15-0.025 0.075 0.075 0.15 0.3 0.225 0.1 0.05 0.2 0.088 0.3 0.112z" fill="#D69635"/>
				<path d="m24.487-3.45l0.188-0.112c0.1-0.1 0.15-0.175 0.15-0.225 0-0.1-0.013-0.175-0.038-0.226-0.05-0.075-0.162-0.087-0.337-0.037s-0.225 0.163-0.15 0.337l0.187 0.263z" fill="#D69635"/>
				<path d="m24.412-3.675c0.05 0.075 0.1 0.062 0.15-0.038s0.05-0.162 0-0.188c-0.05-0.024-0.087-0.012-0.112 0.038-0.05 0.076-0.062 0.138-0.038 0.188z" fill="#fff"/>
				<path d="m22.125-3.525c0.2-0.1 0.137-0.149-0.188-0.149-0.025 0.025-0.013 0.062 0.037 0.112 0.051 0.05 0.101 0.062 0.151 0.037z" fill="#fff"/>
				<path d="m30.6-9.15l-0.75-0.787c-0.475 0.9-1.012 1.725-1.612 2.475l-1.238 1.949 1.162 1.5c0.825 1 1.338 1.45 1.538 1.351 0.325-0.15 0.737-1.513 1.237-4.088l-0.337-2.4z" fill="#E8512E"/>
				<path d="m31.763-2.325c0.65-0.875 1.013-2.225 1.087-4.05 0.1-1.65-0.074-2.725-0.524-3.225l-2.476-0.338c0.475 0.35 0.688 1.35 0.638 3-0.05 1.6-0.225 2.8-0.524 3.6l-0.45 0.713 2.249 0.3z" fill="#BA2400"/>
				<path d="m27.675-5.963l0.9 0.038c0.625-0.075 1.037-0.313 1.238-0.713 0.25-0.45 0.288-0.887 0.112-1.313-0.149-0.4-0.337-0.524-0.563-0.375-0.149 0.075-0.475 0.487-0.975 1.237l-0.712 1.126z" fill="#CC2700"/>
				<path d="m27.6-5.325l0.525 0.75c0.4 0.5 0.725 0.825 0.975 0.976 0.301 0.149 0.513-0.075 0.638-0.676 0.15-0.625 0.05-1.012-0.3-1.162-0.15-0.075-0.5-0.075-1.05 0l-0.788 0.112z" fill="#CC2700"/>
				<path d="m28.875-7.013l0.15 0.112c0.125 0.075 0.225 0.063 0.3-0.037 0.125-0.125 0.188-0.25 0.188-0.375s-0.05-0.2-0.15-0.225c-0.075-0.025-0.175 0.05-0.3 0.225l-0.188 0.3z" fill="#D69635"/>
				<path d="m28.612-4.95l0.263 0.375h0.263c0.1-0.025 0.137-0.125 0.112-0.3-0.025-0.275-0.238-0.3-0.638-0.075z" fill="#D69635"/>
				<path d="m28.875-4.987c-0.1 0.025-0.1 0.075 0 0.149 0.075 0.075 0.137 0.088 0.188 0.038 0.025-0.025 0.013-0.075-0.037-0.15-0.051-0.05-0.101-0.062-0.151-0.037z" fill="#fff"/>
				<path d="m29.175-7.275c0.025 0.1 0.063 0.113 0.112 0.038 0.05-0.05 0.075-0.1 0.075-0.15-0.025-0.05-0.075-0.05-0.149 0-0.05 0.024-0.063 0.062-0.038 0.112z" fill="#fff"/>
				<polygon points="28.313 -9.225 27.862 -11.662 26.325 -13.013 23.813 -10.388 23.513 -9.037" fill="#FF6945"/>
				<path d="m30.9-8.362l-0.187-1.088-1.65-1.274c-1.525-0.525-2.4-0.676-2.625-0.45-0.125 0.149-0.65 0.55-1.575 1.2l-1.35 0.938 3.187 0.374c0.9 0.099 2.3 0.2 4.2 0.3z" fill="#E8512E"/>
				<path d="m31.237-10.537c-0.575-0.625-1.562-1.213-2.962-1.763l-1.95-0.713-0.3 2.175 2.55 1.013c1.375 0.625 2.15 1.113 2.325 1.463l0.337-2.175z" fill="#BA2400"/>
				<path d="m24.862-9l4.425 0.45c0.301 0.025 0.438-0.038 0.413-0.188-0.05-0.15-0.263-0.313-0.638-0.487-0.325-0.125-0.787-0.163-1.388-0.113-0.65 0.075-1.087 0.125-1.313 0.15l-1.499 0.188z" fill="#CC2700"/>
				<path d="m24.3-9.15l2.063-0.225c0.425-0.05 0.75-0.137 0.976-0.263 0.225-0.125 0.25-0.237 0.074-0.337-0.625-0.475-1.187-0.576-1.688-0.301-0.399 0.201-0.762 0.45-1.087 0.75l-0.338 0.376z" fill="#CC2700"/>
				<path d="m27.9-8.888l0.449 0.075c0.325 0.05 0.513 0.05 0.563 0 0.126-0.174-0.012-0.262-0.412-0.262l-0.6 0.187z" fill="#D69635"/>
				<path d="m25.875-9.713l0.45-0.037c0.275-0.025 0.425-0.087 0.45-0.188 0-0.1-0.063-0.175-0.188-0.225-0.15-0.05-0.263-0.038-0.338 0.037l-0.374 0.413z" fill="#D69635"/>
				<path d="m26.438-9.825c0.05 0.025 0.1 0.025 0.15 0 0.05-0.05 0.062-0.087 0.037-0.112-0.025-0.075-0.087-0.087-0.188-0.037-0.1 0.049-0.1 0.099 1e-3 0.149z" fill="#fff"/>
				<path d="m28.612-8.813c0.1 0.025 0.175 0.013 0.226-0.037 0.024-0.05-0.013-0.088-0.113-0.113-0.1-0.024-0.174-0.012-0.225 0.038-0.05 0.05-0.013 0.088 0.112 0.112z" fill="#fff"/>
				<polygon points="8.438 -9.3 13.537 -8.662 13.463 -9.9 10.838 -13.162 9.15 -11.85" fill="#D6340D"/>
				<path d="m13.537-8.662l-2.962-2.513c-0.2-0.275-1.138-0.2-2.813 0.225l-1.8 1.2-0.3 1.125 7.875-0.037z" fill="#E8512E"/>
				<path d="m5.662-8.625c0.226-0.35 1.088-0.787 2.588-1.313s2.413-0.813 2.737-0.862l-0.149-2.362c0.1-0.05-0.601 0.149-2.101 0.6-1.525 0.475-2.612 1.013-3.263 1.612l0.188 2.325z" fill="#BA2400"/>
				<path d="m12.112-8.775c-0.45-0.125-0.975-0.237-1.575-0.337-0.575-0.126-1.037-0.213-1.387-0.263-0.65-0.1-1.15-0.1-1.5 0-0.425 0.125-0.65 0.275-0.675 0.45-0.05 0.175 0.088 0.263 0.413 0.263l4.724-0.113z" fill="#CC2700"/>
				<path d="m12.713-8.888c-0.275-0.45-0.75-0.887-1.426-1.313-0.524-0.325-1.125-0.263-1.8 0.188-0.175 0.1-0.149 0.226 0.075 0.375 0.225 0.15 0.563 0.263 1.013 0.338l2.138 0.412z" fill="#CC2700"/>
				<path d="m8.888-8.925c-0.126-0.125-0.338-0.2-0.638-0.225-0.45-0.05-0.6 0.025-0.45 0.225 0.075 0.05 0.275 0.062 0.6 0.037 0.175 0 0.337-0.012 0.488-0.037z" fill="#D69635"/>
				<path d="m11.1-9.6l-0.375-0.488c-0.074-0.074-0.188-0.1-0.337-0.074-0.15 0.05-0.226 0.125-0.226 0.225s0.163 0.188 0.488 0.263c0.15 0.024 0.3 0.049 0.45 0.074z" fill="#D69635"/>
				<path d="m10.5-9.787c0.175-0.05 0.112-0.1-0.188-0.15-0.025 0.05-0.013 0.1 0.037 0.15 0.051 0.024 0.101 0.024 0.151 0z" fill="#fff"/>
				<path d="m8.138-8.888c0.125 0 0.163-0.025 0.112-0.075-0.05-0.074-0.125-0.1-0.225-0.074-0.125 0.024-0.163 0.062-0.113 0.112 0.026 0.05 0.1 0.062 0.226 0.037z" fill="#fff"/>
				<polygon points="15.525 -3.525 18.975 -5.513 17.662 -6.45 12.862 -7.763 13.237 -5.888" fill="#D6340D"/>
				<path d="m18.975-5.513c-2.424-0.275-3.837-0.462-4.237-0.563-0.25-0.075-0.538 0.163-0.862 0.713l-0.45 0.825 0.263 1.875 1.013 1.05 4.273-3.9z" fill="#E8512E"/>
				<path d="m14.7-1.612c-0.25-0.4-0.238-1.175 0.037-2.325s0.487-1.825 0.638-2.025l-2.513-1.8c-0.025-0.1-0.212 0.4-0.563 1.5-0.224 0.674-0.312 1.362-0.262 2.062l0.15 0.825 2.513 1.763z" fill="#BA2400"/>
				<path d="m18.075-4.912c-0.4 0.125-0.8 0.3-1.2 0.524-0.45 0.2-0.8 0.363-1.05 0.487-0.45 0.226-0.713 0.463-0.788 0.713-0.1 0.3-0.087 0.525 0.038 0.675 0.149 0.15 0.313 0.15 0.487 0l2.513-2.399z" fill="#CC2700"/>
				<path d="m18.263-5.287c-0.625-0.226-1.337-0.338-2.138-0.338-0.6 0-0.862 0.35-0.787 1.05 0.024 0.175 0.174 0.263 0.449 0.263 0.25 0 0.538-0.087 0.863-0.263l1.613-0.712z" fill="#CC2700"/>
				<path d="m16.162-3.45c-0.2-0.025-0.399 0.025-0.6 0.15-0.3 0.175-0.3 0.3 0 0.375 0.151 0.05 0.351-0.125 0.6-0.525z" fill="#D69635"/>
				<path d="m16.65-5.063l-0.712-0.187c-0.125-0.05-0.2-0.013-0.225 0.112-0.05 0.1-0.025 0.188 0.074 0.263 0.175 0.125 0.463 0.062 0.863-0.188z" fill="#D69635"/>
				<path d="m16.162-4.912c0.025-0.1-0.024-0.15-0.149-0.15s-0.163 0.037-0.112 0.112c0.024 0.05 0.074 0.088 0.149 0.112 0.05 0 0.088-0.024 0.112-0.074z" fill="#fff"/>
				<path d="m15.787-3.037c0.05-0.075 0.038-0.125-0.037-0.15-0.1 0-0.175 0.025-0.225 0.075-0.025 0.049 0 0.087 0.075 0.112s0.137 0.013 0.187-0.037z" fill="#fff"/>
				<path d="m18.675-11.963l-2.362 0.601-0.675 0.825 0.862 0.375c0.65 0.325 1.237 0.65 1.763 0.975 0.575 0.375 1.262 0.725 2.063 1.05 1.9-1.7 2.75-2.712 2.55-3.037-0.176-0.301-1.576-0.563-4.201-0.789z" fill="#E8512E"/>
				<path d="m15.638-10.537l0.524-0.413c0.55-0.275 1.351-0.45 2.4-0.524 1.6-0.125 2.813-0.088 3.638 0.112 0.4 0.125 0.65 0.25 0.75 0.375l0.075-2.25c-0.226-0.15-0.576-0.288-1.051-0.413-0.95-0.25-2-0.337-3.149-0.262-1.025 0.05-1.863 0.212-2.513 0.487l-0.638 0.412-0.036 2.476z" fill="#BA2400"/>
				<path d="m19.8-8.813c0.075-1.1-0.225-1.775-0.899-2.025-0.475-0.2-0.913-0.188-1.313 0.038-0.375 0.2-0.475 0.4-0.301 0.6 0.1 0.125 0.55 0.388 1.351 0.788 0.4 0.224 0.787 0.425 1.162 0.599z" fill="#CC2700"/>
				<path d="m20.438-8.775l0.675-0.6c0.5-0.45 0.8-0.8 0.9-1.05 0.125-0.325-0.125-0.525-0.75-0.601-0.625-0.074-1 0.075-1.125 0.45-0.05 0.15-0.013 0.5 0.112 1.05l0.188 0.751z" fill="#CC2700"/>
				<path d="m18.638-9.862c0.175-0.175 0.188-0.338 0.037-0.487-0.125-0.1-0.263-0.138-0.412-0.113-0.125 0-0.188 0.05-0.188 0.15-0.025 0.1 0.062 0.2 0.263 0.3 0.1 0.05 0.2 0.099 0.3 0.15z" fill="#D69635"/>
				<path d="m20.7-9.825c0.25-0.125 0.362-0.225 0.337-0.3v-0.263c-0.024-0.1-0.125-0.125-0.3-0.075-0.175 0.025-0.237 0.138-0.188 0.338l0.151 0.3z" fill="#D69635"/>
				<path d="m20.662-10.05c0.025 0.1 0.075 0.1 0.15 0 0.05-0.1 0.05-0.175 0-0.226-0.025-0.05-0.063-0.037-0.112 0.038-0.05 0.076-0.062 0.138-0.038 0.188z" fill="#fff"/>
				<path d="m18.375-10.125c0.15-0.075 0.087-0.125-0.188-0.15-0.05 0-0.05 0.038 0 0.113 0.051 0.05 0.113 0.062 0.188 0.037z" fill="#fff"/>
				<path d="m11.737-3.6l0.188-1.838c0.125-0.275 0.075-0.775-0.149-1.5-0.201-0.7-0.301-1.35-0.301-1.95l-1.462 0.638h-0.113c-0.35 1.25-0.325 2.113 0.075 2.588l1.762 2.062z" fill="#DB9D00"/>
				<path d="m11.475-8.888c-1 0.15-1.837 0.325-2.512 0.525l-1.238 0.376c-0.425 0.924-0.65 1.462-0.675 1.612v0.225l3.338 0.15c0.175-0.4 0.425-0.837 0.75-1.313l0.337-1.575z" fill="#FFCF1C"/>
				<path d="m11.7-3.6c-0.025-0.351-0.112-0.938-0.263-1.763-0.15-0.725-0.25-1.363-0.3-1.913-0.15-0.05-0.9 0.113-2.25 0.488l-1.912 0.638c1.051 0.676 2 1.238 2.851 1.688 0.874 0.449 1.499 0.737 1.874 0.862z" fill="#FFDC57"/>
				<path d="m24.3-7.463l-2.513-0.225-0.937 0.563 0.713 0.638c0.55 0.55 1.025 1.063 1.425 1.537 0.475 0.525 1.05 1.075 1.726 1.65 2.424-0.95 3.6-1.6 3.524-1.95-0.1-0.375-1.413-1.112-3.938-2.213z" fill="#E8512E"/>
				<path d="m24.037-7.05c1.625 0.425 2.813 0.887 3.563 1.388 0.375 0.25 0.588 0.449 0.638 0.6l0.787-2.138c-0.75-0.825-2.05-1.5-3.9-2.024-1.05-0.301-1.938-0.438-2.662-0.413l-0.75 0.15-0.863 2.362 0.638-0.225c0.65-0.075 1.499 0.025 2.549 0.3z" fill="#BA2400"/>
				<path d="m24.412-4.05l0.226-0.862c0.075-0.65-0.075-1.125-0.45-1.426-0.4-0.325-0.837-0.462-1.313-0.412-0.425 0.075-0.6 0.238-0.525 0.487 0.075 0.15 0.438 0.563 1.088 1.237 0.324 0.351 0.649 0.676 0.974 0.976z" fill="#CC2700"/>
				<path d="m25.05-3.825l0.862-0.337c0.625-0.275 1.025-0.513 1.2-0.713 0.226-0.25 0.05-0.525-0.524-0.825-0.601-0.275-1.025-0.263-1.275 0.038-0.1 0.149-0.175 0.5-0.225 1.05l-0.038 0.787z" fill="#CC2700"/>
				<path d="m23.625-5.475c0.2-0.125 0.25-0.275 0.15-0.45-0.1-0.125-0.213-0.212-0.338-0.263-0.125-0.025-0.212 0-0.263 0.075-0.05 0.075 0.013 0.2 0.188 0.375 0.076 0.1 0.163 0.188 0.263 0.263z" fill="#D69635"/>
				<path d="m25.65-4.725l0.188-0.038c0.125-0.05 0.2-0.1 0.225-0.149 0.075-0.15 0.112-0.238 0.112-0.263 0-0.1-0.1-0.163-0.3-0.188-0.175-0.025-0.263 0.075-0.263 0.3l0.038 0.338z" fill="#D69635"/>
				<path d="m25.65-4.987c0.025 0.075 0.075 0.087 0.15 0.037 0.1-0.075 0.138-0.137 0.112-0.188-0.024-0.05-0.074-0.05-0.149 0-0.075 0.051-0.113 0.1-0.113 0.151z" fill="#fff"/>
				<path d="m23.4-5.813c0.174-0.025 0.137-0.1-0.113-0.225-0.05 0-0.062 0.037-0.037 0.112s0.075 0.113 0.15 0.113z" fill="#fff"/>
				<polygon points="14.55 -6.9 19.95 -5.438 20.063 -6.75 17.737 -10.688 15.713 -9.563" fill="#D6340D"/>
				<path d="m19.95-5.438l-2.813-3.188c-0.175-0.324-1.187-0.387-3.037-0.187l-2.175 1.013-0.487 1.2 8.512 1.162z" fill="#E8512E"/>
				<path d="m11.438-6.6l0.562-0.338c0.575-0.275 1.388-0.512 2.438-0.713 1.7-0.325 2.737-0.487 3.112-0.487l0.188-2.55c0.125-0.075-0.675 0.025-2.399 0.3-1.051 0.15-1.988 0.4-2.813 0.75l-0.938 0.488-0.15 2.55z" fill="#BA2400"/>
				<path d="m18.412-5.775c-0.449-0.225-1-0.425-1.649-0.6-0.601-0.225-1.075-0.388-1.425-0.487-0.676-0.226-1.213-0.3-1.613-0.226-0.475 0.075-0.75 0.188-0.825 0.338-0.075 0.175 0.062 0.288 0.412 0.338l5.1 0.637z" fill="#CC2700"/>
				<path d="m19.088-5.813c-0.226-0.525-0.676-1.075-1.351-1.65-0.4-0.35-1.063-0.375-1.987-0.074-0.2 0.1-0.188 0.237 0.037 0.412 0.226 0.2 0.576 0.375 1.051 0.525l2.25 0.787z" fill="#CC2700"/>
				<path d="m14.963-6.45c-0.125-0.149-0.338-0.263-0.638-0.337-0.475-0.126-0.65-0.063-0.525 0.187 0.05 0.074 0.263 0.125 0.638 0.149 0.174 1e-3 0.35 1e-3 0.525 1e-3z" fill="#D69635"/>
				<path d="m17.438-6.825c-0.1-0.25-0.2-0.437-0.3-0.563-0.075-0.125-0.2-0.175-0.375-0.149-0.175 0.024-0.263 0.1-0.263 0.225-0.025 0.1 0.125 0.212 0.45 0.338 0.175 0.049 0.337 0.099 0.488 0.149z" fill="#D69635"/>
				<path d="m16.838-7.125c0.149-0.025 0.162-0.075 0.037-0.15-0.1-0.074-0.175-0.087-0.225-0.037-0.025 0.05-0.025 0.1 0 0.15 0.05 0.05 0.113 0.062 0.188 0.037z" fill="#fff"/>
				<path d="m14.138-6.525c0.149 0.025 0.2 0 0.149-0.074-0.024-0.075-0.1-0.113-0.225-0.113s-0.175 0.025-0.15 0.075c0.026 0.074 0.1 0.112 0.226 0.112z" fill="#fff"/>
				<path d="m19.725-9.112c0.7 0.249 1.225 0.287 1.575 0.112l2.438-1.162-1.725-0.676c-0.25-0.174-0.75-0.25-1.5-0.225-0.45 0.025-0.913 0-1.388-0.075l-0.563-0.112 0.225 1.575v0.112l0.938 0.451z" fill="#DB9D00"/>
				<path d="m21.075-9.45l-1.088-1.087c-0.175-0.025-0.462-0.138-0.862-0.338l-0.563-0.375c-0.1 1-0.15 1.862-0.15 2.588l0.075 1.274 1.388 1.013 0.225 0.112 0.975-3.187z" fill="#FFDC57"/>
				<path d="m23.737-10.162c-0.35-0.075-0.95-0.138-1.8-0.188l-1.912-0.188c-0.1 0.125-0.138 0.899-0.113 2.324 0.025 0.976 0.075 1.638 0.15 1.988l2.362-2.325c0.651-0.749 1.089-1.286 1.313-1.611z" fill="#FFCF1C"/>
				<path d="m18.938-3.75l2.325 1.463 3.712 1.162c1.15 0.35 2.137 0.725 2.963 1.125l-0.112-1.575v-0.075c-1.576-1.15-2.813-1.738-3.714-1.762l-5.174-0.338z" fill="#FFDC57"/>
				<path d="m27.938 0c0.325-0.875 0.525-1.637 0.6-2.287 0.1-0.65 0.138-1.063 0.113-1.238-1.101-0.975-1.763-1.513-1.989-1.613l-0.337-0.188-1.95 2.476c0.475 0.399 0.975 0.899 1.5 1.5l2.063 1.35z" fill="#DB9D00"/>
				<path d="m18.75-3.713l1.388 0.338c1.075 0.3 2 0.587 2.774 0.862l2.888 1.125c0.175-0.05 0.35-0.737 0.525-2.063 0.1-0.925 0.112-1.575 0.037-1.95-1.475 0.351-2.774 0.7-3.899 1.051-0.676 0.225-1.5 0.399-2.476 0.524l-1.237 0.113z" fill="#FFCF1C"/>
				<path d="m33.525-7.35c0.75 0 1.112-0.05 1.087-0.15-0.025-0.075-0.375-0.475-1.05-1.2l-1.762-0.15-1.125 1.05 2.85 0.45z" fill="#FFDC57"/>
				<path d="m30.675-7.8l1.5-0.038 0.788-1.274c-0.175-1.375-0.351-2.087-0.525-2.138-0.1-0.05-0.412 0-0.938 0.15l-0.75 0.262 0.075 0.863c0.025 0.35 0 0.824-0.075 1.425l-0.075 0.75z" fill="#FFCF1C"/>
				<path d="m34.612-7.5l0.3-2.625c-0.65-0.425-1.112-0.7-1.387-0.825l-1.088-0.3c-0.175 1.3-0.263 2.113-0.263 2.438v0.975l0.75 0.15c0.526 0.124 0.901 0.187 1.126 0.187h0.562z" fill="#DB9D00"/>
					<linearGradient id="q" x1=".1001" x2="48.35" y1="-18.3" y2="-18.3" gradientTransform="scale(.75)" gradientUnits="userSpaceOnUse">
					<stop stop-color="#fff" offset="0"/>
					<stop stop-color="#A9CAD1" offset="1"/>
				</linearGradient>
				<path d="m18.037-12.787c4.275 0 8.101 0.325 11.476 0.975 3.3 0.625 5.55 1.45 6.75 2.475-0.725-2.5-2.788-4.587-6.188-6.262-3.425-1.675-7.4-2.513-11.925-2.513-4.476 0-8.425 0.825-11.851 2.475-3.35 1.6-5.425 3.625-6.225 6.075 1.325-0.95 3.6-1.725 6.825-2.325 3.326-0.6 7.039-0.9 11.138-0.9z" fill="url(#q)"/>
				<path d="m35.063-8.963h1.162l0.075-0.3c0-1.025-1.775-1.887-5.325-2.587-3.549-0.726-7.825-1.088-12.824-1.088-5 0-9.275 0.362-12.825 1.088-3.551 0.7-5.326 1.562-5.326 2.587 0 0.15 0.025 0.25 0.075 0.3h1.313c0.125-0.8 1.825-1.475 5.1-2.024 3.275-0.575 7.188-0.862 11.737-0.862 4.55 0 8.476 0.287 11.775 0.862 3.275 0.549 4.962 1.224 5.063 2.024z" fill="#fff"/>
				<path d="m31.229-14.725l-1.156-1.004c-0.162-0.016-0.437-0.117-0.825-0.305l-0.623-0.278c-0.038 0.994-0.019 1.836 0.056 2.528l0.129 1.277 1.473 0.943 0.206 0.065 0.74-3.226z" fill="#FFDC57"/>
				<path d="m32.048-15.666l-1.931-0.026c-0.072 0.112-0.046 0.875 0.079 2.286 0.094 0.958 0.192 1.608 0.297 1.949l2.118-2.479c0.616-0.767 1.02-1.317 1.211-1.652-0.352-0.057-0.944-0.082-1.774-0.078z" fill="#FFCF1C"/>
				<path d="m17.966-17.015c4.213-0.294 8.022-0.238 11.427 0.167 3.325 0.412 5.608 1.069 6.85 1.974-0.866-2.432-3.051-4.356-6.552-5.772-3.529-1.416-7.533-1.967-12.013-1.654-4.374 0.305-8.196 1.389-11.469 3.252-3.222 1.833-5.148 3.99-5.779 6.473 1.24-1.051 3.439-1.982 6.598-2.792 3.239-0.816 6.885-1.364 10.938-1.648z" fill="url(#l)"/>
				<path d="m35.071-14.39l1.16-0.081 0.058-0.326c-0.071-1.013-1.876-1.745-5.418-2.194-3.57-0.474-7.835-0.539-12.795-0.192-4.934 0.344-9.135 1-12.604 1.965-3.472 0.939-5.172 1.915-5.102 2.929l0.103 0.314 1.32-0.092c0.078-0.809 1.71-1.606 4.897-2.392 3.163-0.756 7.011-1.293 11.544-1.609 4.534-0.316 8.432-0.32 11.696-0.012 3.264 0.334 4.979 0.898 5.141 1.69z" fill="#fff"/>
				<path d="m14.173-17.24l-0.656 1.423 0.641-0.034c0.502-0.017 1.002 3e-3 1.5 0.06l2.572 0.317 1.417-0.396c0.201-0.012 0.367-0.051 0.496-0.118-1.556-0.728-2.6-1.247-3.13-1.557-0.313-0.196-0.875-0.22-1.687-0.072l-1.11 0.304-0.043 0.073z" fill="#FFDC57"/>
				<path d="m13.645-16.636l-0.128 0.818 0.693-0.255c0.485-0.144 0.816-0.223 0.993-0.236l1.445-0.845-0.145-2.979-0.267 0.058-1.779 0.786c-0.084 0.145-0.222 0.524-0.413 1.138-0.126 0.393-0.258 0.898-0.399 1.515z" fill="#DB9D00"/>
				<path d="m20.249-15.906c-0.766-0.55-1.4-1.193-1.904-1.927l-1.877-2.339c-0.17 0.314-0.396 0.901-0.678 1.76-0.251 0.785-0.415 1.376-0.491 1.771l-0.059 0.334 2.14 0.026c0.899 0.034 1.856 0.159 2.869 0.375z" fill="#FFCF1C"/>
				<path d="m19.294-20.29c4.241 0.275 8.037 0.848 11.388 1.717 3.275 0.864 5.479 1.834 6.612 2.91-0.562-2.542-2.485-4.746-5.771-6.613-3.334-1.896-7.258-2.99-11.774-3.283-4.465-0.29-8.447 0.266-11.945 1.667-3.473 1.402-5.689 3.3-6.646 5.693 1.361-0.889 3.694-1.526 7.001-1.913 3.332-0.384 7.044-0.444 11.135-0.178z" fill="url(#k)"/>
				<path d="m36.07-15.329l1.16 0.076 0.057-0.297c0.066-1.023-1.636-2.01-5.106-2.962-3.496-0.954-7.75-1.593-12.765-1.919s-9.304-0.242-12.869 0.253c-3.589 0.494-5.417 1.251-5.484 2.274l0.056 0.304 1.31 0.085c0.176-0.791 1.917-1.366 5.223-1.728 3.279-0.338 7.201-0.359 11.766-0.062 4.59 0.298 8.489 0.827 11.697 1.587 3.23 0.787 4.882 1.583 4.955 2.389z" fill="#fff"/>
				<path d="m34.575-18.7c0.75 0 1.112-0.05 1.087-0.15-0.025-0.075-0.375-0.475-1.05-1.2l-1.762-0.15-1.125 1.05 2.85 0.45z" fill="#FFDC57"/>
				<path d="m31.725-19.15l1.5-0.038 0.788-1.275c-0.175-1.375-0.351-2.087-0.525-2.138-0.1-0.05-0.412 0-0.938 0.15l-0.75 0.263 0.075 0.862c0.025 0.35 0 0.825-0.075 1.425l-0.075 0.751z" fill="#FFCF1C"/>
				<path d="m35.662-18.85l0.3-2.625c-0.65-0.425-1.112-0.7-1.387-0.825l-1.088-0.3c-0.175 1.3-0.263 2.113-0.263 2.438v0.975l0.75 0.15c0.525 0.125 0.9 0.188 1.125 0.188h0.563z" fill="#DB9D00"/>
				<path d="m19.087-24.138c4.275 0 8.101 0.325 11.476 0.975 3.3 0.625 5.55 1.45 6.75 2.475-0.725-2.5-2.788-4.588-6.188-6.263-3.425-1.675-7.4-2.512-11.925-2.512-4.476 0-8.425 0.825-11.851 2.475-3.35 1.6-5.425 3.625-6.225 6.075 1.325-0.95 3.6-1.725 6.825-2.325 3.326-0.599 7.038-0.9 11.138-0.9z" fill="url(#j)"/>
				<path d="m36.112-20.313h1.162l0.075-0.3c0-1.025-1.775-1.887-5.325-2.587-3.549-0.725-7.825-1.087-12.824-1.087-5 0-9.275 0.363-12.825 1.087-3.55 0.7-5.325 1.563-5.325 2.587 0 0.15 0.025 0.25 0.075 0.3h1.313c0.125-0.8 1.825-1.475 5.1-2.025 3.275-0.575 7.188-0.863 11.737-0.863 4.55 0 8.476 0.288 11.775 0.863 3.275 0.55 4.962 1.226 5.062 2.025z" fill="#fff"/>
		</g>
</symbol>
<use transform="matrix(1 0 0 -1 4.3501 0)" y="-29.462" width="37.35" height="29.462" xlink:href="#r"/>
</svg>
