<?xml version="1.0" encoding="UTF-8"?>
<svg width="122.73px" height="65.584px" enable-background="new 0 0 122.727 65.584" version="1.1" viewBox="0 0 122.727 65.584" xmlns="http://www.w3.org/2000/svg" xmlns:xlink="http://www.w3.org/1999/xlink">
 <path d="m60.037 61.278c-0.828 0-1.655-0.01-2.482-0.03-2.956-0.072-5.923-0.278-8.82-0.611-2.936-0.337-5.865-0.813-8.706-1.417-0.021-5e-3 -0.092-0.023-0.112-0.028-11.727-3.168-29.449-7.954-34.161-17.776-1.579-3.291-1.541-6.877 0.112-10.656 7.459-19.896 31.455-24.084 50.267-24.084 5.35 0 10.998 0.332 16.789 0.986 3.74 0.41 7.414 1.02 10.916 1.812 11.387 2.58 21.351 7.14 29.613 13.552 0.046 0.036 0.09 0.076 0.13 0.118 3.148 3.325 4.744 6.942 4.742 10.75 0 0.093-0.012 0.185-0.034 0.274-5.063 20.555-28.784 23.833-46.105 26.225-1.351 0.187-2.671 0.369-3.948 0.554-2.777 0.223-5.511 0.331-8.201 0.331z" fill="#F7D086"/>
 <path d="m56.135 7.826c5.843 0 11.529 0.399 16.66 0.979 3.646 0.399 7.253 0.99 10.791 1.791 10.611 2.404 20.603 6.696 29.162 13.339 2.852 3.012 4.429 6.382 4.427 9.959-5.253 21.327-31.253 23.327-49.103 25.916-2.672 0.212-5.354 0.319-8.035 0.319-0.818 0-1.636-0.01-2.454-0.03-2.915-0.071-5.825-0.271-8.717-0.604-2.892-0.332-5.765-0.798-8.599-1.399-14.345-3.875-40.345-10.875-33.345-26.875 6.981-18.617 29.008-23.394 49.213-23.395m3e-3 -2.3v2.3l-1e-3 -2.3c-27.47 1e-3 -45.222 8.586-51.347 24.83-1.769 4.079-1.793 7.967-0.071 11.557 4.941 10.299 22.969 15.167 34.898 18.389l0.051 0.014c0.041 0.011 0.081 0.021 0.122 0.029 2.877 0.61 5.842 1.093 8.814 1.435 2.93 0.337 5.932 0.546 8.923 0.619 0.836 0.021 1.673 0.03 2.51 0.03 2.72 0 5.484-0.109 8.217-0.326 0.05-4e-3 0.1-0.01 0.148-0.017 1.275-0.186 2.593-0.367 3.94-0.554 17.647-2.438 41.816-5.776 47.065-27.089 0.044-0.18 0.066-0.364 0.066-0.548 2e-3 -4.112-1.699-7.996-5.057-11.542-0.08-0.085-0.167-0.164-0.26-0.235-8.396-6.517-18.512-11.147-30.064-13.765-3.545-0.802-7.262-1.419-11.049-1.834-5.824-0.659-11.515-0.993-16.905-0.993z" fill="#4D100F"/>
 <defs>
  <path id="ah" d="m108.12 31.843c0 3.733-3.336 5.588-8.443 8.467-3.361 1.894-6.916 4.44-11.875 5.731-4.03 1.05-8.516 0.87-13.31 1.41-4.282 0.481-8.624 3.41-13.316 3.41-4.693 0-9.398 0.301-13.68-0.181-4.795-0.54-9.175-2.605-13.206-3.655-4.959-1.291-7.898-5.463-11.259-7.357-5.104-2.878-10.42-4.093-10.42-7.825 0-3.733 3.059-8.954 8.167-11.833 3.361-1.895 8.715-1.455 13.673-2.745 4.031-1.05 8.35-2.849 13.144-3.388 4.281-0.481 8.889 1.013 13.582 1.013 4.692 0 8.931 1.787 13.212 2.269 4.795 0.54 9.43-0.731 13.461 0.317 4.959 1.292 9.326 2.491 12.688 4.387 5.104 2.877 7.582 6.247 7.582 9.98z"/>
 </defs>
 <use fill="#FA423B" overflow="visible" xlink:href="#ah"/>
 <clipPath id="a">
  <use overflow="visible" xlink:href="#ah"/>
 </clipPath>
 <path d="m53.662 51.92c-6.287-0.781-11.263-0.012-15.638-5.442-1.146-1.423-2.322-2.614-4.141-3.135-3.715-1.063-5.722-2.569-8.316-5.263-2.504-2.601-7.358-2.142-9.394-4.981-2.765-3.856 4.609-11.352 7.36-13.283 2.094-1.47 0.098-4.939-2.019-3.453-6.731 4.727-15.462 17.757-4.02 22.219 3.37 1.313 5.298 2.295 7.689 5.128 2.844 3.37 7.795 2.564 10.487 6.279 4.37 6.03 11.429 5.116 17.991 5.932 2.556 0.316 2.526-3.688 1e-3 -4.001z" clip-path="url(#a)" fill="#A82729"/>
 <path d="m108.82 30.02c-0.57-1.878-1.603-3.549-2.911-5.027-0.796-0.977-1.708-1.881-2.686-2.717-1.689-1.546-3.518-2.783-5.256-3.544-0.209-0.092-0.414-0.137-0.615-0.161-0.423-0.186-0.847-0.359-1.271-0.514-0.331-0.121-0.634-0.146-0.907-0.11-4.908-1.594-10.104-1.628-15.196-3.059-2.488-0.699-3.543 3.16-1.063 3.857 7.92 2.226 16.261 1.871 22.307 7.229 0.014 0.013 0.025 0.027 0.039 0.04 1.857 2.464 2.486 6.226 2.724 9.293-1.284 1.467-3.317 2.699-5.245 3.697-4.403 1.41-8.898 2.206-12.757 4.642-1.911 0.913-3.628 2.192-5.587 2.991-1.009 0.411-1.712 1.314-1.396 2.46 0.264 0.958 1.449 1.81 2.46 1.397 0.438-0.179 0.861-0.386 1.279-0.603-0.567 1.396 0.466 3.35 2.276 2.727 1.906-0.655 3.051-1.574 4.365-3.103 0.209-0.242 0.443-0.463 0.672-0.69 0.678-0.277 1.356-0.604 2.044-0.954 3.572-1.818 7.064-3.661 10.606-5.551 0.748-0.398 1.025-1.039 0.989-1.677 0.265-0.17 0.526-0.347 0.786-0.526 0.355 0.288 0.805 0.465 1.263 0.498 0.86 0.47 2.035 0.413 2.714-0.646 1.953-3.052 1.754-6.601 0.366-9.949z" clip-path="url(#a)" fill="#A82729"/>
 <path d="m75.789 23.806c-2.086 0.675-4.339 0.786-6.33 1.757-0.494 0.24-0.973 0.511-1.451 0.779-0.594-1.812-3.791-1.564-3.9 0.729-0.119 2.495 1.438 4.416 4.062 3.608 1.056-0.325 2.009-0.985 2.976-1.501 1.707-0.912 3.877-0.924 5.708-1.516 2.442-0.789 1.396-4.652-1.065-3.856z" clip-path="url(#a)" fill="#A82729"/>
 <path d="m68.989 42.335c-0.589-1.679-1.731-2.745-3.192-3.7-1.07-0.698-2.747-1.33-3.224-2.63-0.88-2.401-4.747-1.364-3.857 1.063 0.644 1.755 1.784 2.907 3.312 3.938 0.482 0.325 1.188 0.647 1.814 1.042-0.235 0.128-0.471 0.258-0.71 0.385-2.279 1.209-0.259 4.661 2.019 3.453 0.816-0.433 1.527-0.903 2.441-1.091 1.015-0.208 1.741-1.481 1.397-2.46z" clip-path="url(#a)" fill="#A82729"/>
 <path d="m45.71 37.773c-1.812 1.147-3.663 1.414-5.774 1.172-1.085-0.124-2 1.004-2 2 0 1.185 0.917 1.876 2 2 2.752 0.315 5.444-0.23 7.792-1.719 2.173-1.375 0.168-4.838-2.018-3.453z" clip-path="url(#a)" fill="#A82729"/>
 <path d="m38.752 26.57c-1.857-2.105-4.544-3.081-6.619-4.906-1.928-1.696-4.769 1.121-2.828 2.828 0.501 0.441 1.043 0.834 1.601 1.208-1.389-0.482-2.772-0.979-4.133-1.54-2.385-0.982-3.414 2.889-1.063 3.857 3.203 1.319 6.522 2.313 9.775 3.494 1.351 0.49 2.269-0.486 2.407-1.602 1.163-0.464 1.962-2.09 0.86-3.339z" clip-path="url(#a)" fill="#A82729"/>
 <path d="m55.118 23.631c-3.487-1.121-7.093-1.811-10.537-3.07-2.428-0.888-3.465 2.979-1.063 3.857 0.176 0.064 0.357 0.113 0.535 0.175-0.283 1.156 0.329 2.531 1.857 2.466 2.096-0.089 4.089 0.573 5.956 1.482 1.188 0.579 2.295-0.055 2.781-0.958 2.019 0.051 2.708-3.233 0.471-3.952z" clip-path="url(#a)" fill="#A82729"/>
 <path d="m89.617 25.509c-0.807 2.154-4.199 3.229-5.719 4.853-2.646 2.829-0.188 5.686 2.445 7.246 2.225 1.319 4.235-2.14 2.02-3.453-0.544-0.323-1.053-0.638-1.514-1.071-0.015-0.013-0.016-0.012-0.026-0.022 0.405-0.572 1.275-1.027 1.811-1.396 2.002-1.374 3.958-2.738 4.841-5.094 0.908-2.421-2.96-3.456-3.858-1.063z" clip-path="url(#a)" fill="#A82729"/>
 <use fill="none" overflow="visible" stroke="#4D100F" stroke-miterlimit="10" stroke-width="1.5" xlink:href="#ah"/>
 <defs>
  <path id="af" d="m95.034 25.849c-0.72-0.516-1.132-0.912-1.587-1.659-1.982 3.731-4.293 7.455-8.366 9.016 0.044 1.137 0.534 2.53 1.37 3.534 4.359-1.656 7.024-6.777 8.583-10.891z"/>
 </defs>
 <use fill="#80C41C" overflow="visible" xlink:href="#af"/>
 <clipPath id="ak">
  <use overflow="visible" xlink:href="#af"/>
 </clipPath>
 <path d="m93.837 25.939c-1.482 4.416-5.147 7.691-9.695 8.551-2.558 0.482-1.472 4.375 1.073 3.895 5.946-1.123 10.611-5.693 12.518-11.371 0.83-2.477-3.071-3.531-3.896-1.075z" clip-path="url(#ak)" fill="#fff" opacity=".2"/>
 <use fill="none" overflow="visible" stroke="#4D100F" stroke-linecap="round" stroke-linejoin="round" stroke-miterlimit="10" xlink:href="#af"/>
 <defs>
  <path id="ae" d="m46.588 40.209c-0.032-0.673 0.011-1.105 0.242-1.729-3.163 0.576-6.475 0.952-9.327-0.743-0.658 0.563-1.258 1.513-1.464 2.484 3.044 1.821 7.357 0.997 10.549-0.012z"/>
 </defs>
 <use fill="#80C41C" overflow="visible" xlink:href="#ae"/>
 <clipPath id="al">
  <use overflow="visible" xlink:href="#ae"/>
 </clipPath>
 <path d="m45.969 39.537c-3.335 1.197-7.019 0.554-9.676-1.755-1.494-1.3-3.305 1.185-1.818 2.478 3.474 3.02 8.402 3.648 12.69 2.109 1.87-0.672 0.659-3.498-1.196-2.832z" clip-path="url(#al)" fill="#fff" opacity=".2"/>
 <use fill="none" overflow="visible" stroke="#4D100F" stroke-linecap="round" stroke-linejoin="round" stroke-miterlimit="10" xlink:href="#ae"/>
 <defs>
  <path id="ad" d="m36.054 29.419c0.345-0.704 0.631-1.122 1.218-1.628-3.548-1.188-7.138-2.663-9.095-5.993-0.986 0.205-2.132 0.837-2.887 1.713 2.081 3.565 6.943 5.145 10.764 5.908z"/>
 </defs>
 <use fill="#80C41C" overflow="visible" xlink:href="#ad"/>
 <clipPath id="am">
  <use overflow="visible" xlink:href="#ad"/>
 </clipPath>
 <path d="m35.8 28.387c-4.074-0.651-7.469-3.375-8.883-7.222-0.794-2.163-4.036-0.646-3.245 1.506 1.849 5.03 6.521 8.438 11.758 9.274 2.284 0.365 2.636-3.197 0.37-3.558z" clip-path="url(#am)" fill="#fff" opacity=".2"/>
 <use fill="none" overflow="visible" stroke="#4D100F" stroke-linecap="round" stroke-linejoin="round" stroke-miterlimit="10" xlink:href="#ad"/>
 <defs>
  <path id="ab" d="m76.301 24.44c-0.228-0.714-0.307-1.19-0.237-1.928-3.232 1.528-6.683 2.886-10.235 1.886-0.544 0.793-0.916 1.986-0.857 3.09 3.793 1.081 8.19-1.046 11.329-3.048z"/>
 </defs>
 <use fill="#80C41C" overflow="visible" xlink:href="#ab"/>
 <clipPath id="an">
  <use overflow="visible" xlink:href="#ab"/>
 </clipPath>
 <path d="m75.443 23.896c-3.239 2.246-7.383 2.615-10.902 0.898-1.979-0.966-3.21 2.224-1.24 3.185 4.602 2.245 10.076 1.504 14.241-1.384 1.815-1.26-0.298-3.948-2.099-2.699z" clip-path="url(#an)" fill="#fff" opacity=".2"/>
 <use fill="none" overflow="visible" stroke="#4D100F" stroke-linecap="round" stroke-linejoin="round" stroke-miterlimit="10" xlink:href="#ab"/>
 <defs>
  <path id="ac" d="m42.758 19.865c0.506-0.727 0.761-1.238 0.94-2.095 3.118 2.853 6.541 5.589 10.901 5.696 0.338 1.086 0.343 2.563-0.108 3.788-4.661-0.1-8.886-4.033-11.733-7.389z"/>
 </defs>
 <use fill="#80C41C" overflow="visible" xlink:href="#ac"/>
 <clipPath id="ao">
  <use overflow="visible" xlink:href="#ac"/>
 </clipPath>
 <path d="m43.917 19.55c2.875 3.666 7.425 5.525 11.998 4.813 2.571-0.401 2.851 3.63 0.292 4.029-5.979 0.932-11.904-1.814-15.601-6.526-1.612-2.055 1.711-4.354 3.311-2.316z" clip-path="url(#ao)" fill="#fff" opacity=".2"/>
 <use fill="none" overflow="visible" stroke="#4D100F" stroke-linecap="round" stroke-linejoin="round" stroke-miterlimit="10" xlink:href="#ac"/>
 <defs>
  <path id="ag" d="m57.886 36.093c0.522-0.325 0.825-0.582 1.173-1.08 1.208 2.675 2.644 5.358 5.396 6.621-0.081 0.786-0.482 1.729-1.106 2.388-2.947-1.342-4.565-5.008-5.463-7.929z"/>
 </defs>
 <use fill="#80C41C" overflow="visible" xlink:href="#ag"/>
 <clipPath id="ap">
  <use overflow="visible" xlink:href="#ag"/>
 </clipPath>
 <path d="m58.712 36.209c0.831 3.126 3.226 5.559 6.337 6.357 1.751 0.448 0.825 3.097-0.917 2.65-4.069-1.043-7.099-4.418-8.167-8.437-0.465-1.752 2.285-2.308 2.747-0.57z" clip-path="url(#ap)" fill="#fff" opacity=".2"/>
 <use fill="none" overflow="visible" stroke="#4D100F" stroke-linecap="round" stroke-linejoin="round" stroke-miterlimit="10" xlink:href="#ag"/>
 <defs>
  <path id="z" d="m80.79 38.235c-0.4 1.687-3.921 2.979-7.678 2.087-3.757-0.893-6.269-3.616-5.868-5.303s3.727-2.393 7.484-1.5c3.756 0.893 6.462 3.031 6.062 4.716z"/>
 </defs>
 <use fill="#6D0E18" overflow="visible" xlink:href="#z"/>
 <clipPath id="aq">
  <use overflow="visible" xlink:href="#z"/>
 </clipPath>
 <path d="m87.623 30.168c-0.125-2.567-4.125-2.579-4 0 0.135 2.785-3.671 10.52-7.565 8.232-2.744-1.61-5.169-3.058-8.39-3.583-2.522-0.411-3.604 3.442-1.063 3.857 4.94 0.807 8.507 5.739 13.501 3.371 4.376-2.076 7.753-6.991 7.517-11.877z" clip-path="url(#aq)" fill="#9E1F20"/>
 <use fill="none" overflow="visible" stroke="#4D100F" stroke-miterlimit="10" xlink:href="#z"/>
 <defs>
  <path id="aj" d="m53.778 31.462c0.28 1.299-0.725 3.243-2.383 4.361-1.151 0.776-3.089 0.368-4.79 0.735-1.701 0.366-3.082 0.262-4.451 0.028-1.971-0.336-3.216-0.566-3.496-1.865s0.113-2.979 1.771-4.098c1.151-0.776 2.996-0.56 4.697-0.927 1.701-0.366 3.225-0.925 4.594-0.691 1.971 0.337 3.778 1.158 4.058 2.457z"/>
 </defs>
 <use fill="#6D0E18" overflow="visible" xlink:href="#aj"/>
 <clipPath id="ar">
  <use overflow="visible" xlink:href="#aj"/>
 </clipPath>
 <path d="m53.422 34.896c-2.683-0.17-5.043-0.788-7.764-0.535-1.555 0.145-3.116 0.229-4.14-1.2-0.785-1.096 0.333-2.23 1.2-2.785 2.166-1.384 0.162-4.848-2.019-3.453-3.097 1.979-4.838 6.203-1.927 9.214 1.655 1.712 3.532 2.313 5.885 2.299 1.351-8e-3 2.67-0.245 4.027-0.206 1.575 0.045 3.152 0.566 4.737 0.667 2.578 0.163 2.562-3.838 1e-3 -4.001z" clip-path="url(#ar)" fill="#9E1F20"/>
 <use fill="none" overflow="visible" stroke="#4D100F" stroke-miterlimit="10" xlink:href="#aj"/>
 <defs>
  <path id="y" d="m67.077 20.142c0 1.31-2.413 2.077-5.906 2.077s-5.993-0.768-5.993-2.077 2.5-2.672 5.993-2.672 5.906 1.362 5.906 2.672z"/>
 </defs>
 <use fill="#6D0E18" overflow="visible" xlink:href="#y"/>
 <clipPath id="as">
  <use overflow="visible" xlink:href="#y"/>
 </clipPath>
 <path d="m66.988 16.311c-1.762 2.619-6.223 4.5-9.357 3.87-2.519-0.506-3.591 3.35-1.063 3.857 5.031 1.011 11.034-1.483 13.875-5.708 1.444-2.147-2.023-4.147-3.455-2.019z" clip-path="url(#as)" fill="#9E1F20"/>
 <use fill="none" overflow="visible" stroke="#4D100F" stroke-miterlimit="10" xlink:href="#y"/>
 <defs>
  <path id="ai" d="m29.543 33.633c-0.805 1.013-1.835 2.072-3.563 1.994-1.285-0.056-2.915-0.233-4.486-0.561-1.558-0.341-3.121-1.052-4.422-1.541-1.76-0.658-2.616-1.813-2.556-3.13 0.039-1.276 0.851-3.192 3.414-3.929 1.848-0.539 4.582-0.595 6.819 0.039 2.259 0.634 3.17 2.49 4.191 3.604 1.404 1.571 1.389 2.538 0.603 3.524z"/>
 </defs>
 <use fill="#6D0E18" overflow="visible" xlink:href="#ai"/>
 <clipPath id="at">
  <use overflow="visible" xlink:href="#ai"/>
 </clipPath>
 <path d="m30.501 29.559c-2.183-4.21-6.213-7.143-11.072-7.063-2.577 0.042-2.581 4.042 0 4 2.432-0.04 4.653 1.011 6.204 2.874 0.731 0.879 2.129 2.542 1.455 3.761-0.628 1.136-2.088 1.496-3.242 1.747-2.52 0.548-1.451 4.404 1.063 3.857 4.341-0.945 7.936-4.655 5.592-9.176z" clip-path="url(#at)" fill="#9E1F20"/>
 <use fill="none" overflow="visible" stroke="#4D100F" stroke-miterlimit="10" xlink:href="#ai"/>
 <defs>
  <path id="aa" d="m104.88 31.695c0.221 1.644-2.346 2.432-5.123 3.24-2.813 0.759-5.209 1.406-6.347 0.3-1.142-1.038-0.068-4.276 3.724-5.642 3.785-1.363 7.605 0.472 7.746 2.102z"/>
 </defs>
 <use fill="#6D0E18" overflow="visible" xlink:href="#aa"/>
 <clipPath id="au">
  <use overflow="visible" xlink:href="#aa"/>
 </clipPath>
 <path d="m101.32 26.498c-3.507-0.066-7.29 1.62-9.283 4.551-2.279 3.352 0.199 7.107 3.27 8.656 2.296 1.159 4.322-2.291 2.018-3.453-1.628-0.822-2.91-2.149-1.322-3.779 1.298-1.333 3.502-2.009 5.318-1.975 2.58 0.049 2.576-3.951-1e-3 -4z" clip-path="url(#au)" fill="#9E1F20"/>
 <use fill="none" overflow="visible" stroke="#4D100F" stroke-miterlimit="10" xlink:href="#aa"/>
 <path d="m117.18 33.894c1e-3 -2.403-0.726-4.71-2.057-6.88-1.718 11.177-9.817 18.739-23.405 24.319-11.783 4.839-24.252 4.874-36.745 3.74-10.217-0.927-22.673-0.859-32.277-4.823-7.003-2.891-12.341-8.812-16.794-15.525-2.052 13.541 21.12 19.792 34.371 23.37 2.834 0.602 5.707 1.067 8.599 1.399 2.892 0.333 5.802 0.533 8.717 0.604 3.498 0.086 7.002-0.013 10.489-0.289 17.849-2.588 43.849-4.588 49.102-25.915z" fill="#FBAA55"/>
</svg>
