<?xml version="1.0" encoding="UTF-8"?>
<svg width="31.993mm" height="31.715mm" version="1.1" viewBox="0 0 113.36242 112.37517" xmlns="http://www.w3.org/2000/svg" xmlns:xlink="http://www.w3.org/1999/xlink">
 <defs>
  <linearGradient id="i">
   <stop stop-color="#fff" stop-opacity=".61751" offset="0"/>
   <stop stop-color="#fff" stop-opacity=".26728" offset="1"/>
  </linearGradient>
  <pattern id="k" xlink:href="#h" patternTransform="matrix(1.3118 0 0 1.3412 134.67 27.782)"/>
  <pattern id="j" xlink:href="#h" patternTransform="matrix(-1.0318 0 0 1.1421 150.73 28.76)"/>
  <pattern id="h" width="10" height="10" patternTransform="translate(0) scale(10)" patternUnits="userSpaceOnUse">
   <circle cx="2.567" cy=".81" r=".45"/>
   <circle cx="3.048" cy="2.33" r=".45"/>
   <circle cx="4.418" cy="2.415" r=".45"/>
   <circle cx="1.844" cy="3.029" r=".45"/>
   <circle cx="6.08" cy="1.363" r=".45"/>
   <circle cx="5.819" cy="4.413" r=".45"/>
   <circle cx="4.305" cy="4.048" r=".45"/>
   <circle cx="5.541" cy="3.045" r=".45"/>
   <circle cx="4.785" cy="5.527" r=".45"/>
   <circle cx="2.667" cy="5.184" r=".45"/>
   <circle cx="7.965" cy="1.448" r=".45"/>
   <circle cx="7.047" cy="5.049" r=".45"/>
   <circle cx="4.34" cy=".895" r=".45"/>
   <circle cx="7.125" cy=".34" r=".45"/>
   <circle cx="9.553" cy="1.049" r=".45"/>
   <circle cx="7.006" cy="2.689" r=".45"/>
   <circle cx="8.909" cy="2.689" r=".45"/>
   <circle cx="9.315" cy="4.407" r=".45"/>
   <circle cx="7.82" cy="3.87" r=".45"/>
   <circle cx="8.27" cy="5.948" r=".45"/>
   <circle cx="7.973" cy="7.428" r=".45"/>
   <circle cx="9.342" cy="8.072" r=".45"/>
   <circle cx="8.206" cy="9.315" r=".45"/>
   <circle cx="9.682" cy="9.475" r=".45"/>
   <circle cx="9.688" cy="6.186" r=".45"/>
   <circle cx="3.379" cy="6.296" r=".45"/>
   <circle cx="2.871" cy="8.204" r=".45"/>
   <circle cx="4.59" cy="8.719" r=".45"/>
   <circle cx="3.181" cy="9.671" r=".45"/>
   <circle cx="5.734" cy="7.315" r=".45"/>
   <circle cx="6.707" cy="6.513" r=".45"/>
   <circle cx="5.73" cy="9.67" r=".45"/>
   <circle cx="6.535" cy="8.373" r=".45"/>
   <circle cx="4.37" cy="7.154" r=".45"/>
   <circle cx=".622" cy="7.25" r=".45"/>
   <circle cx=".831" cy="5.679" r=".45"/>
   <circle cx="1.257" cy="8.519" r=".45"/>
   <circle cx="1.989" cy="6.877" r=".45"/>
   <circle cx=".374" cy="3.181" r=".45"/>
   <circle cx="1.166" cy="1.664" r=".45"/>
   <circle cx="1.151" cy=".093" r=".45"/>
   <circle cx="1.151" cy="10.093" r=".45"/>
   <circle cx="1.302" cy="4.451" r=".45"/>
   <circle cx="3.047" cy="3.763" r=".45"/>
  </pattern>
  <radialGradient id="l" cx="53.015" cy="59.355" r="53.138" gradientTransform="matrix(1.1659 .80084 -1.4458 2.1048 77.601 -116.71)" gradientUnits="userSpaceOnUse">
   <stop stop-color="#ffbaba" offset="0"/>
   <stop stop-color="#ff4d4d" offset=".084923"/>
   <stop stop-color="#c00" offset=".40758"/>
   <stop stop-color="#ce0000" offset=".59746"/>
   <stop stop-color="#8b0000" offset="1"/>
  </radialGradient>
  <radialGradient id="m" cx="54.135" cy="50.889" r="8.1866" gradientTransform="matrix(1 0 0 1.0616 0 -3.1358)" gradientUnits="userSpaceOnUse" xlink:href="#i"/>
  <radialGradient id="n" cx="89.048" cy="62.535" r="5.2383" gradientTransform="matrix(1 0 0 .98658 0 .83946)" gradientUnits="userSpaceOnUse" xlink:href="#i"/>
 </defs>
 <g transform="translate(-31.009 -23.411)" fill-rule="evenodd">
  <path d="m113.66 43.291c-4.8656-2.8206-10.185-4.9184-15.607-6.4098-4.8898-1.3448-9.9785-2.2478-15.05-2.2295-8.4616 0.03063-17.44 0.27039-25.083 3.9016-7.9023 3.7545-15.513 9.7746-19.509 17.557-3.458 6.735-3.2769 15.042-2.5083 22.574 1.1601 11.369 4.4701 22.956 10.591 32.606 3.4143 5.3834 8.3433 10.037 13.935 13.098 8.3205 4.5552 18.106 6.9072 27.591 6.9672 8.7877 0.0555 17.792-2.179 25.641-6.1311 6.0662-3.0545 11.4-7.7669 15.607-13.098 4.3754-5.5441 7.7425-12.104 9.4759-18.951 1.4143-5.5863 1.5429-11.601 0.5574-17.279-1.2981-7.4784-3.4816-15.366-8.361-21.18-3.0829-3.6735-8.3202-4.7942-12.263-7.5245-1.7416-1.2061-3.1839-2.8392-5.0166-3.9016z" fill="url(#l)" stroke="#710000" stroke-width="1.7717"/>
  <path d="m77.916 66.845c-0.19707-0.78824-6.6238-17.365 3.9414-27.589 4.258-4.1202 17.736-1.7243 17.736-1.7243 1.905 0.3777 9.0934 2.5079 11.726 5.3699 0.0337 3.3999-3.1118 4.7604-5.3209 6.0104-3.9812 1.3814-7.8719 2.9997-11.726 3.7442-5.3013 1.9205-5.6878 2.1691-8.2278 3.8427-3.7028 2.7426-6.0764 6.6508-8.1292 10.346z" fill="url(#j)" opacity=".345"/>
  <path d="m92.401 48.124c0-0.39412 1.005-1.481 1.5766-2.1677 2.2888-2.7499 5.223-4.9372 7.3902-7.7839 2.2758-2.9893 2.5844-7.7355 5.8136-9.656 3.0686-1.825 6.8996-0.50956 6.8996-0.50956-0.0277-0.0093-4.9392 0.78586-5.6186 2.1846-1.1817 2.4328-2.1558 4.9632-3.3502 7.3898-1.0187 2.0697-1.9837 4.1818-3.2517 6.1089-1.0404 1.5812-2.1067 3.2062-3.5473 4.4339-0.86199 0.73459-2.9561 1.675-2.9561 1.675-3.2302 0.86508-4.0252 0.08956-2.9561-1.675z" fill="#00890f" stroke="#004417" stroke-linejoin="round" stroke-width="1.1693"/>
  <path d="m59.593 42.733c3.8729-0.15726 1.9359 4.5701-0.56825 6.5267-1.0351 0.80879-2.2397 0.73832-3.3336 1.5552l-5.574 6.6885c-2.5331 3.0395-3.7758 0.98829-3.6231-0.83606 0.36329-4.3406 2.3661-7.3023 4.9018-9.7356 2.2843-2.192 4.9452-4.0666 8.1972-4.1987z" fill="url(#m)" stroke="#c40000" stroke-width="1.063"/>
  <path d="m89.937 58.864c3.2813-2.6166 4.3238 1.0346 3.4488 2.9559-0.89512 1.9653-1.5921 2.2965-4.5327 4.6309-1.8089 1.436-5.9075 0.36376-3.9414-1.8721 0 0 1.1545-2.339 2.006-3.3071 0.85018-0.96653 3.0193-2.4077 3.0193-2.4077z" fill="url(#n)" stroke="#9f0000" stroke-width="1.1693"/>
  <path d="m93.78 32.655c-0.84288-0.16893-2.5619 0.29559-2.5619 0.29559-2.5335 0.74138-1.3213 2.2319-1.478 3.4486 0.53683 5.6442 0.2075 9.7728-0.29561 13.597l2.759 5e-6s1.802-4.6135 2.4634-6.9957c0.305-1.0986 0.62816-2.2116 0.68975-3.35 0.07486-1.3836-0.81631-2.8185-0.39414-4.1383 0.19862-0.62094 1.3933-0.83578 1.281-1.478-0.1621-0.927-1.5406-1.1945-2.4634-1.3794z" fill="#005209" stroke="#004417" stroke-width="1.7717"/>
  <path d="m87.572 55.468c-1.891-0.75634-4.9949-9.5015-6.9961-13.157-0.85015-1.5531-2.1094-3.1023-3.1532-4.5324-1.4347-1.9657-1.9792-4.6425-3.8429-6.2074-2.0318-1.7061-7.6858-3.4486-7.6858-3.4486 3.6682 1.2178 8.4184-0.68716 11.332 4.3353 0 0 2.0478 3.2094 2.8575 4.9265 0.52302 1.1091 0.60357 2.4264 1.281 3.4486 0.87276 1.317 2.4699 2.0113 3.4488 3.2515 2.2059 2.7949 5.5419 9.9755 5.5419 9.9755z" fill="#00750d" stroke="#004417" stroke-linejoin="round" stroke-width=".99921"/>
  <path d="m86.39 48.814c-2.0707 0.36412-3.7872 0.02003-5.6165-0.09853-2.3059-0.19674-3.1624-3.3832-5.1239-5.6162-4.5315-5.1591-12.881-5.2742-19.904-6.4045 3.4657-1.0301 6.1227-2.6667 13.598-0.68971 3.5769 1.5877 5.6483 3.1771 7.3902 5.8133 2.7554 1.0038 5.7628 2.5226 8.7697 4.5324z" fill="#00890f" stroke="#004417" stroke-linejoin="round" stroke-width="1.063"/>
  <path d="m94.765 49.307s5.1218-1.8031 7.7843-2.2662c1.5886-0.27632 3.399-0.2719 4.7297-1.1824 1.8722-1.2809 9.9546-11.356 12.416-9.2619-3.5105 2.1548-6.2374 6.0465-9.3609 9.0648-1.8374 1.7755-4.1505 2.9805-6.4865 4.0158-3.13 1.3872-9.2793 1.9945-9.2793 1.9945-0.95711-0.56908-2.3846-1.0374 0.19707-2.3647z" fill="#00890f" stroke="#004417" stroke-linejoin="round" stroke-width="1.1693"/>
  <path d="m86.685 27.827s-2.835 6.895-2.9561 10.543c-0.11134 3.3541 0.82802 6.735 2.0693 9.853 0.81252 2.0411 3.7275 6.313 3.7275 6.313l5.953-2.2951-2.7829-2.737s-4.8717-5.7501-5.9122-9.2619c-1.1756-3.9679-0.09854-12.415-0.09854-12.415z" fill="#00890f" stroke="#004417" stroke-linejoin="round" stroke-width="1.063"/>
  <path d="m104.05 49.482s-5.4663 1.5196-8.2409 2.133c-4.8385 1.0697-9.9056 3.4889-13.305 6.9248-3.3989 3.436-4.33 6.4285-4.33 6.4285-1.2225 4.3001-0.47575 3.6564 0.12546 2.9698 0 0 2.2646-4.423 5.5434-7.7375s7.574-5.316 11.698-6.2278c3.1348-0.69302 9.9348-3.6836 9.9348-3.6836 1.2101-1.4414-0.22526-1.1426-1.4266-0.80728z" color="#000000" color-rendering="auto" fill="#530000" image-rendering="auto" shape-rendering="auto" solid-color="#000000" style="block-progression:tb;isolation:auto;mix-blend-mode:normal;text-decoration-color:#000000;text-decoration-line:none;text-decoration-style:solid;text-indent:0;text-transform:none;white-space:normal"/>
  <path d="m125.92 54.717s-3.2693 26.014-10.451 37.205c-5.3066 8.2683-14.158 16.63-22.714 21.459-10.26 5.7898-38.086 8.8136-33.584 10.451 0 0 14.079 6.3023 20.624 6.8278 15.657 1.2571 29.157-0.3707 42.223-11.287 8.3278-6.9574 14.842-17.016 17.28-27.59 2.1616-9.3767 0.087-19.613-3.0657-28.705-1.2582-3.6284-6.1314-9.754-6.1314-9.754-1.3138-0.38471-4.9515-3.6152-4.1805 1.3934z" fill="url(#k)" opacity=".354"/>
 </g>
</svg>
