<?xml version="1.0" encoding="UTF-8"?>
<svg viewBox="0 0 640 480" xmlns="http://www.w3.org/2000/svg">
 <g fill-rule="evenodd">
  <polygon points="155.25 212.75 426.75 209 416.25 240.5 415.5 240.5 415.5 242 414.75 242 414 243.5 413.25 244.25 412.5 245.75 412.5 246.5 411.75 247.25 411.75 248 410.25 249.5 410.25 250.25 409.5 251.75 408.75 252.5 408.75 253.25 408 254 407.25 255.5 406.5 256.25 406.5 257 405.75 258.5 405 259.25 404.25 260.75 403.5 261.5 402.75 263 402 263.75 401.25 264.5 400.5 266 399.75 266.75 399 268.25 398.25 269 397.5 270.5 394.5 273.5 393.75 275 390.75 278 390 279.5 389.25 280.25 387.75 281 387 282.5 384 285.5 383.25 287 381.75 287.75 381 288.5 379.5 289.25 378.75 290.75 378 291.5 376.5 292.25 375.75 293 374.25 293.75 373.5 294.5 372 295.25 371.25 296 369.75 296.75 368.25 298.25 366.75 299 366 299.75 365.25 299.75 363.75 300.5 362.25 302 361.5 302 359.25 304.25 358.5 304.25 357.75 305 357 305 356.25 305.75 353.25 307.25 352.5 307.25 351 308 349.5 309.5 348 309.5 347.25 310.25 345.75 310.25 344.25 311 342.75 311 342 311.75 343.5 324.5 342 324.5 341.25 325.25 340.5 325.25 339.75 326 338.25 326 337.5 326.75 336 326.75 334.5 327.5 333 327.5 331.5 328.25 330 328.25 329.25 329 327.75 329 327 329.75 324 329.75 322.5 330.5 321.75 330.5 321 331.25 317.25 331.25 315.75 332 313.5 332 312.75 332.75 309 332.75 307.5 333.5 299.25 333.5 298.5 334.25 291 334.25 290.25 333.5 281.25 333.5 280.5 332.75 274.5 332.75 273 332 271.5 332 270.75 331.25 267 331.25 266.25 330.5 263.25 330.5 261.75 329.75 258.75 329.75 258 329 257.25 329 255.75 328.25 252.75 328.25 252 327.5 249.75 327.5 248.25 326.75 246.75 326.75 245.25 326 244.5 326 243 325.25 242.25 325.25 241.5 324.5 240 324.5 240 314 206.25 290 205.5 289.25 204.75 289.25 194.25 278.75 192.75 276.5 191.25 275.75 190.5 274.25 189.75 273.5 188.25 272.75 188.25 272 186.75 271.25 186.75 269.75 185.25 269 185.25 268.25 183.75 267.5 183 266.75 182.25 265.25 180 263 179.25 261.5 178.5 260.75 177.75 259.25 177 258.5 177 257.75 176.25 256.25 175.5 255.5 174.75 254 173.25 252.5 172.5 251 171.75 250.25 171.75 249.5 171 248 170.25 247.25 170.25 245.75 168.75 244.25 168.75 242.75 168 242 168 240.5 166.5 239 166.5 237.5 165.75 236.75 165.75 236 165 235.25 165 234.5 164.25 233.75 164.25 233 163.5 232.25 163.5 230.75 162.75 230 162.75 229.25 162 227.75 161.25 227 160.5 225.5 160.5 224 159.75 222.5 159.75 221.75 158.25 220.25 158.25 218.75 157.5 218 157.5 217.25 156.75 216.5 156.75 215 156 214.25 156 213.5 155.25 213.5"/>
  <polygon points="196 135 195.25 135 194.5 135.75 193 135.75 191.5 136.5 190 136.5 188.5 137.25 187.75 137.25 187 138 184.75 138 183.25 139.5 181.75 139.5 181 140.25 180.25 140.25 178.75 141 178 141.75 177.25 141.75 175.75 142.5 175 143.25 173.5 144 172.75 144.75 171.25 144.75 170.5 145.5 169 146.25 168.25 147 165.25 148.5 164.5 150 163.75 150.75 162.25 151.5 161.5 152.25 160 153 159.25 154.5 157.75 155.25 154.75 158.25 154 159.75 153.25 160.5 152.5 162 151 162.75 149.5 165.75 148.75 166.5 145 174 145 175.5 143.5 178.5 143.5 180.75 142.75 182.25 142.75 189.75 143.5 191.25 143.5 193.5 145 196.5 145 198 146.5 199.5 146.5 201 148 202.5 150.25 207 153.25 210 154 211.5 155.5 212.25 156.25 213.75 160.75 218.25 162.25 219 165.25 222 166.75 222.75 171.25 227.25 174.25 228.75 175.75 230.25 178 231 180.25 233.25 181.75 234 184 235.5 185.5 236.25 186.25 237 193.75 240.75 194.5 241.5 196 242.25 196.75 243 198.25 243 199 243.75 200.5 244.5 201.25 244.5 202 245.25 202.75 245.25 204.25 246 205 246.75 206.5 246.75 207.25 247.5 208.75 247.5 209.5 248.25 211.75 248.25 212.5 249 214 249 215.5 249.75 216.25 249.75 217.75 250.5 218.5 250.5 220 251.25 223.75 251.25 226.75 252.75 230.5 252.75 232 253.5 234.25 253.5 236.5 254.25 238.75 254.25 240.25 255 242.5 255 244.75 255.75 247 255.75 249.25 256.5 254.5 256.5 256.75 257.25 262 257.25 264.25 258 277.75 258 280.75 258.75 289.75 258.75 292.75 258 304.75 258 307.75 257.25 310.75 257.25 313.75 256.5 317.5 256.5 320.5 255.75 323.5 255.75 326.5 255 330.25 254.25 336.25 252.75 340 252 349 249.75 351.25 249 357.25 247.5 359.5 246.75 362.5 246 378.25 240.75 379.75 240 382 239.25 383.5 238.5 385 237 386.5 236.25 388.75 235.5 391.75 234 392.5 233.25 397 231 397.75 230.25 399.25 229.5 400 228.75 401.5 228 405.25 224.25 406 224.25 407.5 222.75 409 222 409.75 220.5 410.5 219.75 411.25 218.25 413.5 216 413.5 215.25 414.25 215.25 414.25 213.75 415 213 415 212.25 415.75 210.75 415.75 210 416.5 208.5 416.5 207 417.25 205.5 417.25 203.25 418 202.5 418 198.75 418.75 198 418.75 189 418 187.5 418 183.75 417.25 183 417.25 180.75 416.5 179.25 416.5 178.5 415.75 177 415.75 176.25 415 174.75 414.25 174 413.5 172.5 412.75 171.75 412.75 170.25 409.75 167.25 409 165.75 408.25 165 407.5 163.5 406 162.75 405.25 162 405.25 161.25 404.5 161.25 404.5 160.5 403.75 159 402.25 158.25 401.5 156.75 398.5 153.75 397 153 396.25 152.25 394.75 151.5 394 150.75 392.5 150 391.75 149.25 388.75 147.75 388 147.75 386.5 147 385.75 147 385 146.25 383.5 146.25 382.75 145.5 380.5 145.5 379.75 144.75 376.75 144.75 375.25 144 373.75 144" fill="#fff"/>
  <polygon points="162.75 218.75 163.5 206.75 168.75 197 168 185 170.25 174.5 187.5 162.5 199.5 159.5 203.25 149 203.25 148.25 204 147.5 204 145.25 204.75 144.5 204.75 143.75 205.5 142.25 205.5 140.75 206.25 140 206.25 137.75 207 137.75 207 133.25 207 132.5 207 127.25 207.75 127.25 226.5 122 246.75 121.25 257.25 112.25 265.5 105.5 276 104.75 281.25 106.25 291 109.25 304.5 103.25 321 105.5 328.5 115.25 333 123.5 354.75 132.5 378.75 141.5 386.25 148.25 392.25 158 388.5 170 401.25 173.75 409.5 193.25 409.5 210.5 419.25 218.75 417.75 221.75 416.25 223.25 415.5 224.75 414 226.25 413.25 226.25 405.75 233.75 402.75 235.25 402 236 397.5 238.25 396 239.75 393.75 240.5 390.75 242 388.5 242.75 387 243.5 384.75 244.25 383.25 245.75 381 246.5 378 247.25 369 250.25 366 251 363 252.5 360 253.25 357.75 254 354 254.75 348 256.25 344.25 257 341.25 257.75 337.5 258.5 333.75 258.5 322.5 260.75 318.75 260.75 314.25 261.5 310.5 261.5 306.75 262.25 303 262.25 299.25 263 278.25 263 275.25 262.25 268.5 262.25 265.5 261.5 262.5 261.5 258.75 260.75 256.5 260.75 253.5 260 250.5 260 244.5 258.5 242.25 258.5 240 257.75 237 257 232.5 255.5 229.5 254.75 225 253.25 223.5 253.25 216.75 251 215.25 250.25 213 249.5 210 248 207.75 247.25 201.75 244.25 201 243.5 198 242 197.25 242 195.75 241.25 195 240.5 194.25 240.5 192.75 239 191.25 238.25 190.5 238.25 189 236.75 188.25 236.75" opacity="0"/>
  <polygon points="207 144.5 205.5 144.5 204.75 145.25 203.25 145.25 201.75 146 200.25 146 199.5 146.75 197.25 146.75 196.5 147.5 195.75 147.5 194.25 148.25 193.5 148.25 192 149 191.25 149 189.75 149.75 189 150.5 187.5 150.5 186.75 151.25 185.25 152 183.75 152 183 152.75 181.5 153.5 180.75 154.25 179.25 155 177.75 155.75 177 156.5 174 158 173.25 158.75 171.75 159.5 171 161 169.5 161.75 168.75 162.5 167.25 163.25 166.5 164.75 165 165.5 164.25 167 163.5 167.75 162.75 169.25 160.5 171.5 159 174.5 158.25 175.25 156.75 178.25 156.75 179.75 156 181.25 156 182.75 155.25 184.25 155.25 186.5 154.5 188 154.5 196.25 155.25 198.5 155.25 200 156 201.5 156.75 203.75 159 208.25 160.5 210.5 161.25 212 162.75 213.5 163.5 215 168.75 220.25 170.25 221 173.25 224 177.75 227 179.25 228.5 186 233 188.25 233.75 191.25 235.25 193.5 236.75 195.75 237.5 198 239 201 240.5 204 241.25 206.25 242.75 209.25 243.5 211.5 244.25 214.5 245.75 220.5 247.25 223.5 248.75 244.5 254 248.25 254.75 251.25 255.5 254.25 255.5 257.25 256.25 260.25 256.25 264 257 267 257.75 273.75 257.75 276.75 258.5 282.75 258.5 286.5 259.25 305.25 259.25 308.25 258.5 313.5 258.5 316.5 257.75 321.75 257.75 324.75 257 327.75 257 330 256.25 333 256.25 335.25 255.5 338.25 254.75 340.5 254.75 342.75 254 345.75 253.25 348 253.25 354.75 251 357.75 250.25 360 250.25 369 247.25 370.5 246.5 377.25 244.25 378.75 243.5 381 242.75 382.5 242 384.75 241.25 386.25 240.5 388.5 239 394.5 236 396.75 235.25 399 233 402 231.5 403.5 230 406.5 228.5 407.25 227.75 408.75 227 409.5 225.5 410.25 224.75 411.75 224 412.5 222.5 413.25 221.75 414.75 221 416.25 219.5 417 218 417.75 217.25 417.75 216.5 420 214.25 420 213.5 420.75 212 421.5 211.25 421.5 209 422.25 209 422.25 206 423 205.25 423 203.75 423.75 202.25 423.75 194 423 192.5 423 188.75 422.25 188 422.25 186.5 421.5 185 421.5 184.25 420.75 183.5 420.75 182 420 181.25 420 180.5 418.5 179.75 418.5 179 423.75 174.5 424.5 174.5 424.5 175.25 425.25 176 426.75 179 426.75 179.75 427.5 180.5 427.5 181.25 428.25 182.75 428.25 183.5 429 184.25 429 185.75 429.75 186.5 429.75 188.75 430.5 190.25 430.5 197 431.25 197.75 430.5 198.5 430.5 206 429.75 207.5 429.75 209 429 209.75 429 212 427.5 215 426.75 215.75 425.25 218.75 424.5 219.5 421.5 225.5 420 226.25 418.5 227.75 417.75 229.25 416.25 230 411 235.25 410.25 235.25 408.75 236.75 407.25 237.5 406.5 238.25 405.75 238.25 405 239.75 403.5 239.75 402 241.25 400.5 242 399.75 242.75 398.25 243.5 397.5 243.5 396.75 244.25 395.25 245 394.5 245 393.75 245.75 393 245.75 392.25 246.5 391.5 246.5 390 248 388.5 248 387.75 248.75 387 248.75 386.25 249.5 384.75 249.5 384 250.25 383.25 250.25 382.5 251 381 251 380.25 251.75 379.5 251.75 378 252.5 377.25 252.5 376.5 253.25 375 253.25 374.25 254 373.5 254 372 254.75 370.5 254.75 369.75 255.5 369 255.5 367.5 256.25 366.75 256.25 365.25 257 363.75 257 363 257.75 360.75 257.75 359.25 258.5 358.5 258.5 357 259.25 354 259.25 353.25 260 351.75 260 351 260.75 348 260.75 346.5 261.5 344.25 261.5 342.75 262.25 341.25 262.25 339.75 263 336 263 334.5 263.75 333 263.75 331.5 264.5 327 264.5 325.5 265.25 319.5 265.25 316.5 266 307.5 266 304.5 266.75 282 266.75 279 266 270.75 266 267.75 265.25 265.5 265.25 262.5 264.5 257.25 264.5 255 263.75 252 263.75 249.75 263 247.5 263 244.5 262.25 240 260.75 237 260.75 232.5 259.25 229.5 258.5 227.25 257.75 225 257.75 222.75 256.25 220.5 256.25 211.5 253.25 210 251.75 203.25 249.5 201.75 248.75 197.25 247.25 195.75 246.5 193.5 245 192 244.25 189.75 243.5 186.75 242 184.5 241.25 183 239.75 181.5 239 179.25 237.5 174.75 235.25 173.25 233.75 171.75 233 171 232.25 169.5 231.5 168.75 230 168 229.25 166.5 228.5 162.75 224.75 162 223.25 156.75 218 156 216.5 154.5 215 151.5 209 150.75 208.25 149.25 205.25 149.25 203.75 148.5 202.25 147.75 200 147.75 196.25 147 194.75 147 188 147.75 186.5 147.75 183.5 148.5 182 148.5 180.5 149.25 179 149.25 177.5 151.5 173 153 172.25 153 170.75 154.5 169.25 156.75 164.75 158.25 163.25 159.75 162.5 160.5 161 165.75 155.75 168 155 171 152 172.5 151.25 174.75 149.75 176.25 149 178.5 147.5 180 146.75 182.25 146 184.5 144.5 200.25 139.25 203.25 138.5 205.5 137.75 208.5 137.75" fill="#010101"/>
  <polygon points="299.75 229.75 301.25 232 302.75 235.75 306.5 236.5 413 178.75 518 118 518 107.5 509.75 105.25"/>
  <polygon points="384.75 146 385.5 146.75 386.25 146.75 387 147.5 388.5 147.5 389.25 148.25 390 148.25 390.75 149 391.5 149 392.25 149.75 393.75 150.5 394.5 150.5 396 152 396.75 152 398.25 152.75 399 154.25 400.5 154.25 401.25 155 402.75 155.75 403.5 157.25 405 158 405.75 158.75 407.25 159.5 408 161 414 158 414 157.25 412.5 155.75 411 155 406.5 150.5 405 149.75 403.5 148.25 400.5 146.75 399.75 146 396.75 144.5 396 143.75 395.25 143.75 394.5 143 393.75 143 393 142.25 392.25 142.25 391.5 141.5 390.75 141.5 390 140.75 389.25 140.75 388.5 140 387 140 386.25 139.25 384.75 139.25 384 138.5" fill="#010101"/>
  <polygon points="278.75 215.25 407.75 33 418.25 36 419 43.5 288.5 221.25 287 220.5 283.25 218.25"/>
  <g fill="#010101">
   <polygon points="171 188.25 170.25 187.5 170.25 186.75 169.5 185.25 169.5 180.75 170.25 179.25 170.25 177.75 171 177 171 176.25 171.75 175.5 171.75 174.75 173.25 173.25 174 171.75 175.5 171 177 169.5 178.5 168.75 179.25 167.25 180 166.5 183 165 183.75 164.25 185.25 163.5 186.75 162.75 187.5 162.75 188.25 162 191.25 160.5 192 160.5 193.5 159.75 194.25 159.75 195.75 159 196.5 159 197.25 158.25 198 158.25 199.5 157.5 201 157.5 201 156.75 202.5 156.75 203.25 156 204.75 156 204.75 154.5 204 153.75 204 150 204.75 148.5 204.75 146.25 206.25 144.75 207 143.25 207.75 142.5 208.5 141 208.5 140.25 209.25 138.75 209.25 131.25 210 130.5 210 128.25 211.5 126.75 212.25 125.25 212.25 124.5 213 123.75 213.75 123.75 214.5 123 216 122.25 217.5 122.25 218.25 121.5 237 121.5 238.5 120.75 240.75 120.75 242.25 120 244.5 120 246 119.25 247.5 119.25 249 118.5 250.5 118.5 250.5 117 251.25 116.25 251.25 114.75 252 113.25 252 112.5 252.75 111.75 252.75 111 251.25 111 249.75 111.75 249 111.75 247.5 112.5 245.25 112.5 244.5 113.25 241.5 113.25 240.75 114 235.5 114 234.75 114.75 216 114.75 213 116.25 211.5 116.25 210.75 117 209.25 117.75 205.5 121.5 205.5 122.25 204.75 123 204.75 123.75 204 124.5 204 126.75 203.25 127.5 203.25 135.75 202.5 137.25 202.5 138 201.75 138.75 201.75 139.5 201 140.25 201 141 199.5 142.5 199.5 144 198.75 144.75 198.75 145.5 198 146.25 198 151.5 195.75 151.5 195 152.25 193.5 152.25 192.75 153 192 153 191.25 153.75 189.75 153.75 189 154.5 188.25 154.5 187.5 155.25 186 155.25 185.25 156 184.5 156 183 157.5 182.25 157.5 181.5 158.25 180 159 179.25 159.75 177.75 159.75 174.75 162.75 174 162.75 168 168.75 167.25 170.25 166.5 171 165.75 172.5 165 173.25 164.25 174.75 163.5 175.5 163.5 176.25 162.75 177.75 162.75 186 163.5 187.5 163.5 189 164.25 190.5 165 191.25 165 192 165.75 192.75 165.75 193.5"/>
   <polygon points="250.5 120.5 250.5 119 251.25 118.25 251.25 116 252.75 113 252.75 111.5 253.5 110.75 253.5 110 254.25 109.25 254.25 108.5 255.75 107 256.5 104.75 258 104 260.25 101.75 261 101.75 261.75 101 262.5 101 263.25 100.25 264.75 100.25 265.5 99.5 272.25 99.5 273 100.25 275.25 100.25 276 101 277.5 101 280.5 102.5 281.25 103.25 282.75 104 284.25 105.5 285 104.75 285.75 104.75 286.5 104 288 103.25 288.75 103.25 291 102.5 291.75 101.75 293.25 101 294 101 294.75 100.25 296.25 100.25 297 99.5 300 99.5 301.5 98.75 309 98.75 310.5 99.5 311.25 100.25 312.75 100.25 313.5 101 315 101.75 315.75 101.75 316.5 103.25 317.25 103.25 318 104.75 318.75 105.5 320.25 106.25 320.25 107.75 321 108.5 321 109.25 322.5 110.75 323.25 112.25 324 113 325.5 113.75 326.25 114.5 327 114.5 328.5 116 330 116.75 330.75 116.75 332.25 118.25 334.5 118.25 335.25 119 341.25 119 342 118.25 342.75 118.25 345 112.25 342.75 112.25 342 113 338.25 113 336.75 112.25 336 111.5 335.25 111.5 333.75 110.75 333 110.75 332.25 110 330.75 109.25 330 108.5 328.5 107.75 327.75 107 326.25 104 323.25 101 322.5 99.5 321 98.75 320.25 97.25 317.25 95.75 316.5 95 312 92.75 310.5 92.75 309 92 300.75 92 299.25 92.75 296.25 92.75 295.5 93.5 294 93.5 292.5 94.25 291.75 95 290.25 95 288.75 95.75 288 95.75 287.25 96.5 286.5 96.5 285.75 97.25 285.75 98 285 97.25 284.25 97.25 283.5 96.5 282.75 96.5 282 95.75 280.5 95 279 95 278.25 94.25 277.5 94.25 276.75 93.5 264 93.5 262.5 94.25 261.75 94.25 260.25 95 259.5 95 258 95.75 257.25 96.5 255.75 96.5 255 97.25 254.25 98.75 249 104 248.25 105.5 248.25 106.25 247.5 107 246.75 108.5 246.75 109.25 246 110 246 110.75 245.25 112.25 245.25 114.5 244.5 115.25 244.5 119.75"/>
   <polygon points="349.5 123.5 351.75 125.75 352.5 125.75 354 127.25 354.75 127.25 356.25 128 358.5 130.25 360 130.25 360.75 131 361.5 131 362.25 131.75 364.5 131.75 365.25 132.5 367.5 132.5 368.25 133.25 369.75 133.25 371.25 134 372 134 373.5 134.75 374.25 134.75 375.75 135.5 376.5 136.25 377.25 136.25 381.75 140.75 381.75 143 383.25 144.5 383.25 146 384 147.5 384 152.75 383.25 154.25 383.25 155 381.75 156.5 381.75 158 381 158.75 381 159.5 380.25 161 380.25 161.75 381 162.5 381 164 381.75 164.75 383.25 164.75 384.75 165.5 392.25 165.5 393.75 166.25 393.75 167 394.5 167 395.25 168.5 401.25 164.75 400.5 164.75 397.5 161.75 396 161 395.25 160.25 393.75 159.5 388.5 159.5 387.75 158.75 387.75 158 388.5 157.25 389.25 155.75 390 155 390 145.25 389.25 144.5 389.25 143.75 388.5 142.25 388.5 140.75 386.25 136.25 381.75 131.75 380.25 131 378.75 129.5 377.25 128.75 376.5 128.75 375.75 128 373.5 128 372.75 127.25 370.5 127.25 369.75 126.5 368.25 126.5 367.5 125.75 365.25 125.75 364.5 125 363.75 125 363 124.25 362.25 124.25 360.75 123.5 360 123.5 359.25 122.75 357.75 122 357 121.25 357 120.5 355.5 119.75 354.75 118.25"/>
   <polygon points="403.25 177.5 404 178.25 404 179 404.75 179.75 404.75 180.5 405.5 181.25 405.5 183.5 406.25 185 406.25 195.5 405.5 196.25 405.5 203 405.5 203.75 406.25 204.5 406.25 206 409.25 207.5 410 208.25 411.5 209 413 210.5 414.5 211.25 414.5 212 415.25 212.75 416.75 215.75 422 213.5 422 212 421.25 210.5 421.25 209.75 419.75 208.25 419.75 207.5 418.25 206.75 417.5 206 416.75 204.5 413.75 203 412.25 201.5 411.5 200 411.5 199.25 412.25 197.75 412.25 193.25 413 192.5 413 188 412.25 186.5 412.25 181.25 411.5 180.5 411.5 178.25 410.75 177.5 410.75 176.75 409.25 175.25 409.25 174.5"/>
   <polygon points="207 215 207 214.25 207.75 214.25 210 212 210.75 212 211.5 211.25 212.25 211.25 213 210.5 215.25 210.5 216 211.25 216.75 211.25 218.25 212 219 212 224.25 217.25 224.25 218 225 218.75 225 220.25 225.75 221 225.75 221.75 231.75 220.25 231.75 218.75 231 218 231 216.5 230.25 215 229.5 214.25 229.5 212.75 225.75 209 225 207.5 219 204.5 210.75 204.5 210 205.25 208.5 205.25 207 206.75 204 208.25 203.25 209.75 201.75 211.25 201.75 212 201 212.75"/>
   <polygon points="238.5 171.5 238.5 170.75 237.75 170 237.75 169.25 237 167.75 237 167 240.75 163.25 249.75 163.25 250.5 164 253.5 158.75 252.75 158.75 252 158 251.25 158 250.5 157.25 249 157.25 248.25 157.25 246.75 156.5 241.5 156.5 240.75 157.25 240 157.25 238.5 158 237 158 235.5 159.5 234 160.25 232.5 161.75 231 164.75 231 171.5 231.75 173 231.75 173.75 234 176"/>
   <polygon points="305.25 149.75 304.5 149 300.75 149 299.25 148.25 298.5 149 297 149 296.25 149.75 295.5 149.75 294.75 150.5 294 152 292.5 153.5 292.5 155.75 291.75 156.5 291.75 157.25 292.5 158 292.5 161 293.25 161.75 293.25 162.5 293.25 163.25 287.25 163.25 286.5 161.75 286.5 158 285.75 156.5 285.75 154.25 286.5 152.75 286.5 151.25 287.25 150.5 288 149 288.75 148.25 289.5 146.75 291.75 144.5 294.75 143 295.5 143 297 142.25 303 142.25 304.5 143 305.25 143 308.25 144.5 309.75 144.5"/>
   <polygon points="289.5 239.75 290.25 239 290.25 238.25 291 238.25 291.75 237.5 292.5 237.5 293.25 236.75 294.75 236.75 295.5 236 297 236 297.75 235.25 303.75 235.25 305.25 236 306.75 236 308.25 237.5 309.75 238.25 309.75 239.75 311.25 241.25 311.25 242 312 242 312 243.5 312 244.25 312.75 244.25 319.5 243.5 318.75 243.5 318.75 240.5 318 239.75 317.25 238.25 317.25 237.5 315 235.25 314.25 233.75 312.75 233 310.5 230.75 309.75 230.75 308.25 230 307.5 230 306 229.25 305.25 229.25 304.5 228.5 296.25 228.5 294.75 229.25 293.25 229.25 292.5 230 291 230 290.25 230.75 289.5 230.75 288 231.5 288 232.25 287.25 232.25 285.75 233 285 233.75 283.5 234.5 282.75 235.25 282.75 236 282 236.75"/>
   <polygon points="363 179.75 366.75 183.5 366.75 184.25 368.25 185.75 369 187.25 369.75 188 370.5 189.5 370.5 191 371.25 192.5 371.25 193.25 372 193.25 373.5 192.5 375 191 376.5 190.25 377.25 190.25 377.25 189.5 376.5 188 376.5 187.25 375.75 186.5 375.75 185.75 375 184.25 374.25 183.5 373.5 182 372.75 181.25 371.25 178.25 369.75 177.5 369 176 367.5 175.25"/>
  </g>
  <polygon points="300.5 231.25 510.5 109 511.25 109.75 512 109.75 512.75 111.25 513.5 112 514.25 113.5 514.25 116.5 302.75 235.75 307.25 241 521 120.25 521.75 119.5 521.75 115 521 113.5 521 112 520.25 110.5 520.25 109.75 519.5 109 519.5 108.25 518.75 107.5 518 106 516.5 104.5 515.75 103.75 515 103.75 513.5 102.25 512.75 102.25 512 101.5 511.25 101.5 510.5 100.75 296.75 226" fill="#f00"/>
  <g fill="#010101">
   <polygon points="159 212 159 212.75 159.75 213.5 159.75 215 160.5 216.5 161.25 217.25 161.25 218.75 162 219.5 162 220.25 162.75 221 162.75 221.75 163.5 223.25 163.5 224 164.25 225.5 165 226.25 165.75 227.75 165.75 228.5 166.5 230 167.25 230.75 168.75 233.75 168.75 235.25 169.5 236.75 170.25 237.5 171.75 240.5 172.5 242 174 245 175.5 245.75 179.25 253.25 180.75 254.75 182.25 257.75 183.75 259.25 185.25 262.25 187.5 264.5 188.25 266 191.25 269 192 270.5 195.75 274.25 196.5 275.75 198 276.5 199.5 278 200.25 279.5 201.75 280.25 206.25 284.75 207 284.75 207.75 286.25 209.25 286.25 210 287.75 210.75 287.75 210.75 288.5 212.25 289.25 213 290 213.75 290 213.75 290.75 215.25 291.5 216 292.25 216.75 292.25 220.5 296 221.25 296 222.75 296.75 225 299 226.5 299 228 300.5 231 302 231.75 302.75 232.5 302.75 233.25 303.5 234 303.5 234.75 304.25 235.5 304.25 237 305.75 239.25 305.75 240.75 307.25 243 307.25 244.5 308.75 246.75 308.75 247.5 309.5 248.25 309.5 249.75 310.25 251.25 310.25 252.75 311 254.25 311 255.75 311.75 257.25 311.75 258.75 312.5 260.25 312.5 261.75 313.25 264.75 313.25 265.5 314 270.75 314 272.25 314.75 276 314.75 277.5 315.5 306.75 315.5 308.25 314.75 311.25 314.75 313.5 314 318 314 319.5 313.25 321 313.25 322.5 312.5 326.25 312.5 329.25 311 332.25 311 336.75 308.75 339 308.75 342 307.25 343.5 307.25 346.5 305.75 348.75 305 349.5 304.25 351.75 303.5 352.5 302.75 354.75 302 355.5 301.25 357.75 300.5 360.75 299 362.25 297.5 368.25 294.5 369.75 293 371.25 292.25 375 288.5 376.5 287.75 379.5 284.75 381 284 381.75 282.5 386.25 278 387 276.5 390.75 272.75 392.25 270.5 393 269 394.5 267.5 395.25 266 396.75 264.5 398.25 261.5 399.75 260 400.5 258.5 401.25 257.75 404.25 251.75 405 251 407.25 246.5 408 245.75 408.75 244.25 408.75 243.5 409.5 242 411 240.5 411 239 411.75 237.5 413.25 236 413.25 235.25 414 233.75 414 233 414.75 232.25 414.75 231.5 415.5 230 415.5 228.5 416.25 227.75 416.25 226.25 417 225.5 417 224 417.75 223.25 417.75 221.75 418.5 221 418.5 218.75 419.25 218 419.25 217.25 430.5 207.5 430.5 208.25 429.75 209 429.75 210.5 429 211.25 429 212.75 428.25 214.25 428.25 215 427.5 216.5 426.75 217.25 426.75 218.75 426 220.25 426 221.75 423.75 226.25 423.75 227.75 423 230 421.5 233 420.75 235.25 420 236.75 418.5 241.25 417 242.75 415.5 247.25 414.75 248.75 413.25 251 412.5 253.25 411 255.5 409.5 257 408.75 259.25 407.25 261.5 406.5 263.75 405 266 403.5 267.5 399 274.25 395.25 278 392.25 282.5 390 284 388.5 286.25 384.75 290 382.5 291.5 381 293.75 378.75 296 372 300.5 369.75 302.75 367.5 303.5 365.25 305 362.25 306.5 360 308 358.5 309.5 351.75 311.75 350.25 312.5 345.75 314 343.5 315.5 341.25 315.5 339 316.25 337.5 317 333 318.5 330.75 318.5 328.5 319.25 327 320 324.75 320 322.5 320.75 320.25 320.75 318 321.5 315.75 321.5 313.5 322.25 307.5 322.25 305.25 323 280.5 323 278.25 322.25 272.25 322.25 270 321.5 268.5 321.5 266.25 320.75 262.5 320.75 261 320 258.75 320 257.25 319.25 255.75 319.25 254.25 318.5 252 318.5 250.5 317.75 249 317.75 246 316.25 244.5 316.25 243 315.5 241.5 315.5 238.5 314 237 314 235.5 313.25 234.75 312.5 231.75 311 230.25 311 228.75 309.5 227.25 308.75 226.5 308 219 304.25 215.25 300.5 212.25 299 210.75 297.5 207.75 296 207 294.5 205.5 293.75 204 292.25 202.5 291.5 201.75 290 200.25 289.25 198 287 196.5 286.25 195.75 284.75 194.25 284 193.5 282.5 192.75 281.75 191.25 281 190.5 279.5 186 275 185.25 273.5 184.5 272.75 183.75 271.25 180 267.5 179.25 266 178.5 265.25 177.75 263.75 177 263 175.5 260 174 259.25 173.25 257.75 172.5 257 171.75 255.5 171 254.75 169.5 251.75 168.75 251 166.5 246.5 165.75 245.75 163.5 241.25 162.75 240.5 162 238.25 161.25 237.5 161.25 236 157.5 228.5 156.75 227.75 156 226.25 156 224.75 154.5 221.75 154.5 220.25 152.25 215.75 152.25 213.5 151.5 212.75 150.75 210.5 150.75 209 149.25 206 149.25 204.5 148.5 203 148.5 201.5 147.75 200"/>
   <polygon points="243.75 313.25 243.75 320.75 244.5 320.75 245.25 321.5 246 321.5 246.75 322.25 247.5 322.25 248.25 323 249 323 250.5 323.75 251.25 323.75 252.75 324.5 254.25 324.5 255 325.25 257.25 325.25 258 326 260.25 326 261 326.75 264 326.75 264.75 327.5 266.25 327.5 267.75 327.5 268.5 328.25 273.75 328.25 274.5 329 279.75 329 281.25 329.75 304.5 329.75 305.25 329 310.5 329 311.25 328.25 316.5 328.25 317.25 327.5 321 327.5 321.75 326.75 324 326.75 325.5 326 327 326 327.75 325.25 330.75 325.25 331.5 324.5 333 323.75 333.75 323.75 335.25 323 336 323 336.75 322.25 338.25 322.25 339 321.5 339.75 321.5 339.75 311.75 347.25 309.5 347.25 326 346.5 326 345.75 326.75 345 326.75 344.25 327.5 343.5 327.5 342.75 328.25 342 328.25 339 329.75 338.25 329.75 336.75 330.5 336 330.5 335.25 331.25 333.75 331.25 332.25 332 331.5 332 330 332.75 328.5 332.75 327.75 333.5 324 333.5 323.25 334.25 321 334.25 319.5 335 317.25 335 315.75 335.75 312 335.75 310.5 336.5 300 336.5 298.5 337.25 289.5 337.25 288 336.5 276.75 336.5 275.25 335.75 270.75 335.75 269.25 335 265.5 335 264 334.25 261.75 334.25 260.25 333.5 257.25 333.5 255.75 332.75 255 332.75 254.25 332 252.75 332 252 331.25 249 331.25 248.25 330.5 247.5 330.5 246.75 329.75 245.25 329.75 244.5 329 243 329 241.5 328.25 240.75 328.25 240 327.5 238.5 326.75 237.75 326.75 237 326 236.25 326 235.5 325.25 235.5 308.75"/>
   <polygon points="152.5 210 152.5 209.25 151.75 207.75 151.75 204 152.5 202.5 152.5 201 153.25 199.5 153.25 198.75 154 197.25 154.75 196.5 156.25 193.5 157.75 192 158.5 190.5 160 189.75 160.75 189 162.25 188.25 163.75 186.75 165.25 186.75 166 186 167.5 186 168.25 186 172 191.25 170.5 191.25 169 192 168.25 192 167.5 192.75 166 193.5 165.25 193.5 163 195.75 162.25 197.25 160.75 198.75 160 200.25 160 201 158.5 202.5 158.5 206.25 157.75 207.75 158.5 209.25 158.5 213.75 159.25 214.5 159.25 215.25"/>
  </g>
  <polygon points="282.5 217.5 409.25 37.5 410 36.75 410.75 36.75 412.25 37.5 413 37.5 414.5 38.25 415.25 39.75 416 40.5 416 42 287 220.5 293.75 224.25 424.25 42.75 424.25 40.5 423.5 39 422.75 38.25 422 36.75 421.25 36 420.5 34.5 416 32.25 414.5 30.75 413.75 30.75 413 30.75 412.25 30.75 410.75 30 406.25 30 405.5 30.75 276.5 213.75" fill="#f00"/>
  <g fill="#010101">
   <polygon points="267 122 265.5 122 264.75 121.25 263.25 120.5 262.5 120.5 260.25 119.75 258.75 119 263.25 113 263.25 113.75 264.75 113.75 265.5 114.5 267 115.25 267.75 115.25 269.25 116"/>
   <polygon points="267 133.25 266.25 133.25 265.5 132.5 263.25 132.5 262.5 131.75 261 131.75 260.25 131 259.5 131 258 130.25 256.5 128.75 255.75 128.75 257.25 122.75 258 122.75 258 123.5 259.5 123.5 259.5 124.25 260.25 124.25 261 125 263.25 125 264 125.75 265.5 126.5 266.25 126.5"/>
   <polygon points="210.75 140.25 217.5 140.25 219 141 216.75 147 215.25 147 213.75 146.25 207.75 146.25"/>
   <polygon points="216.75 157.5 216.75 156.75 213 156.75 212.25 156 209.25 156 208.5 155.25 207.75 155.25 206.25 154.5 206.25 149.25 207.75 149.25 209.25 150 213 150 213.75 150.75 216 150.75"/>
   <polygon points="204 158.25 207.75 158.25 209.25 159 210 159.75 211.5 159.75 212.25 160.5 206.25 164.25 205.5 163.5 204.75 163.5 204 162.75 202.5 162.75 201.75 162 201 162 199.5 161.25 196.5 161.25"/>
   <polygon points="192 162.75 195.75 162.75 196.5 163.5 198 163.5 199.5 165 200.25 165 201 165.75 202.5 165.75 195.75 169.5 195 169.5 194.25 168.75 192.75 168 191.25 168 190.5 167.25 189.75 167.25 188.25 166.5 185.25 166.5"/>
   <polygon points="180.75 168.75 182.25 168.75 183.75 169.5 186 169.5 186.75 170.25 188.25 170.25 189 171 192 172.5 186.75 177 186 177 186 176.25 185.25 176.25 183.75 175.5 183 175.5 182.25 174.75 180.75 174.75 179.25 174 178.5 174 177 173.25 175.5 173.25"/>
   <polygon points="182.25 186.75 181.5 186.75 180 186 179.25 186 177.75 185.25 177 185.25 175.5 183.75 174 183.75 173.25 183 171.75 182.25 171 182.25 173.25 176.25 174 176.25 175.5 177 176.25 177.75 177.75 177.75 178.5 178.5 180 179.25 180.75 179.25 181.5 180 183 180 184.5 180.75"/>
   <polygon points="219.75 137.25 214.5 137.25 213.75 136.5 211.5 136.5 211.5 130.5 213 130.5 213.75 131.25 219 131.25"/>
   <polygon points="176.25 219 176.25 218.25 175.5 218.25 174.75 217.5 173.25 216.75 172.5 216.75 171.75 216 171.75 215.25 170.25 213.75 169.5 213.75 168.75 212.25 168 212.25 168 204.75 171 207.75 172.5 208.5 173.25 209.25 174 209.25 175.5 210 176.25 210.75"/>
   <polygon points="177 206.25 176.25 205.5 175.5 205.5 174 204 172.5 203.25 171.75 202.5 171 202.5 169.5 201 174 195.75 175.5 197.25 176.25 197.25 177.75 198 179.25 199.5 180 199.5 180.75 200.25"/>
   <polygon points="191.5 251.25 187.75 251.25 186.25 250.5 185.5 250.5 184 249.75 182.5 249.75 181 249 179.5 249 173.5 246 166.75 234 166.75 234.75 168.25 235.5 169 235.5 170.5 237 175 239.25 175.75 239.25 176.5 240 177.25 240 178.75 240.75 179.5 241.5 180.25 241.5 181 242.25 182.5 242.25 183.25 243 184.75 243.75 186.25 243.75 187 244.5"/>
   <polygon points="219.25 292.5 228.25 292.5 229 291.75 244 302.25 241.75 302.25 241 301.5 238.75 301.5 237.25 300.75 235 300.75 232 299.25 230.5 299.25 229 298.5 228.25 297.75 225.25 296.25 224.5 295.5 223.75 295.5 222.25 294.75 221.5 294 220.75 294"/>
   <polygon points="202 264.75 196 264.75 194.5 264 191.5 264 190 263.25 188.5 263.25 187 262.5 185.5 262.5 184.75 261.75 178 252.75 178.75 253.5 180.25 253.5 181 254.25 181.75 254.25 183.25 255 186.25 255 187 255 187.75 255.75 190 255.75 191.5 256.5 194.5 256.5 196 257.25"/>
   <polygon points="214 277.5 201.25 277.5 199.75 276.75 199 276.75 190 267.75 190.75 268.5 193 268.5 193.75 269.25 198.25 269.25 199 270 199.75 270 206.5 270"/>
   <polygon points="225.25 288 223 288 222.25 288.75 213.25 288.75 205 282 214.75 282 216.25 282 217.75 282"/>
  </g>
 </g>
</svg>
