<?xml version="1.0" encoding="UTF-8"?>
<!DOCTYPE svg  PUBLIC '-//W3C//DTD SVG 1.1//EN'  'http://www.w3.org/Graphics/SVG/1.1/DTD/svg11.dtd'>
<svg enable-background="new 0 0 61.25 44.1" version="1.1" viewBox="0 0 61.25 44.1" xml:space="preserve" xmlns="http://www.w3.org/2000/svg" xmlns:xlink="http://www.w3.org/1999/xlink">
<symbol id="ad" viewBox="0 -1.533 2.368 1.541">
		<linearGradient id="u" x1="1.6943" x2="-.008" y1="-1.3052" y2="-.1085" gradientUnits="userSpaceOnUse">
			<stop stop-color="#fff" offset="0"/>
			<stop offset="1"/>
		</linearGradient>
		<path d="m0 0c0.333 0.033 0.683-0.05 1.05-0.25 0.333-0.1 0.65-0.283 0.95-0.55s0.417-0.467 0.35-0.6-0.233-0.167-0.5-0.1c-0.267 0.133-0.483 0.233-0.65 0.3-0.3 0.1-0.633 0.167-1 0.2-0.067 0.133-0.117 0.333-0.15 0.6l-0.05 0.4z" clip-rule="evenodd" fill="url(#u)" fill-rule="evenodd"/>
</symbol>
<symbol id="ae" viewBox="-0.006 -3.595 2.712 3.597">
		<linearGradient id="v" x1="1.1406" x2="1.4607" y2="-3.0255" gradientUnits="userSpaceOnUse">
			<stop stop-color="#fff" offset="0"/>
			<stop offset="1"/>
		</linearGradient>
		<path d="m0.35 0c0.533-0.033 1.1-0.55 1.7-1.55 0.567-0.934 0.767-1.534 0.6-1.8-0.167-0.233-0.433-0.3-0.8-0.2-0.4 0.1-0.783 0.4-1.15 0.9-0.4 0.467-0.633 1.033-0.7 1.7-0.033 0.667 0.083 0.983 0.35 0.95z" clip-rule="evenodd" fill="url(#v)" fill-rule="evenodd"/>
</symbol>
<symbol id="af" viewBox="-0.056 -2 3.306 1.988">
			<linearGradient id="w" x1="-3261.5" x2="-3258.5" y1="-6474.2" y2="-6474.2" gradientTransform="matrix(.803 -.596 .596 .803 6477 3255.2)" gradientUnits="userSpaceOnUse">
			<stop stop-color="#fff" offset="0"/>
			<stop offset="1"/>
		</linearGradient>
		<path d="m0.05-1.2c-0.2 0.233-0.117 0.517 0.25 0.85 0.367 0.3 0.8 0.4 1.3 0.3s0.9-0.3 1.2-0.6c0.3-0.267 0.45-0.55 0.45-0.85 0-0.333-0.417-0.5-1.25-0.5-0.9 0-1.55 0.267-1.95 0.8z" clip-rule="evenodd" fill="url(#w)" fill-rule="evenodd"/>
</symbol>
<symbol id="ag" viewBox="-0.03 -2.657 1.78 2.657">
			<linearGradient id="x" x1="-2861.8" x2="-2859.4" y1="-11609" y2="-11609" gradientTransform="matrix(.464 -.8858 .8858 .464 11611 2851.6)" gradientUnits="userSpaceOnUse">
			<stop stop-color="#fff" offset="0"/>
			<stop offset="1"/>
		</linearGradient>
		<path d="m1.6 0l0.15-0.9c-0.333-0.267-0.6-0.533-0.8-0.8-0.1-0.167-0.267-0.4-0.5-0.7-0.167-0.2-0.3-0.283-0.4-0.25-0.133 0.066-0.1 0.316 0.1 0.75 0.167 0.367 0.383 0.717 0.65 1.05 0.267 0.4 0.533 0.683 0.8 0.85z" clip-rule="evenodd" fill="url(#x)" fill-rule="evenodd"/>
</symbol>
<symbol id="ah" viewBox="0 -2.25 2.05 2.25">
			<linearGradient id="y" x1="8854.7" x2="8855.9" y1="-19695" y2="-19695" gradientTransform="matrix(-.7486 -.663 .663 -.7486 19688 -8872.5)" gradientUnits="userSpaceOnUse">
			<stop stop-color="#fff" offset="0"/>
			<stop offset="1"/>
		</linearGradient>
		<path d="m2.05-1.85l-0.5-0.4c-0.267 0.4-0.5 0.733-0.7 1-0.567 0.567-0.85 0.933-0.85 1.1 0.033 0.2 0.2 0.2 0.5 0 0.3-0.167 0.567-0.4 0.8-0.7 0.333-0.267 0.583-0.6 0.75-1z" clip-rule="evenodd" fill="url(#y)" fill-rule="evenodd"/>
</symbol>
<linearGradient id="z" x1="9.0996" x2="44.249" y1="32.85" y2="32.85" gradientTransform="matrix(1.4502 0 0 1.4502 -8.0502 -24.85)" gradientUnits="userSpaceOnUse">
	<stop stop-color="#A9CAD1" offset="0"/>
	<stop stop-color="#fff" offset="1"/>
</linearGradient>
<path d="m48.654 18.295c4.979 1.208 7.469 2.707 7.469 4.495 0 1.741-2.489 3.239-7.469 4.497-4.979 1.256-10.974 1.885-17.982 1.885-7.01 0-13.028-0.629-18.056-1.885-4.979-1.258-7.469-2.756-7.469-4.497 0-1.789 2.49-3.287 7.469-4.495 4.979-1.256 10.998-1.885 18.056-1.885s13.052 0.629 17.982 1.885z" clip-rule="evenodd" fill="url(#z)" fill-rule="evenodd"/>
		<path d="m57.283 22.574h-1.16c-0.193-1.692-2.756-3.143-7.686-4.351-4.979-1.209-10.901-1.813-17.766-1.813s-12.763 0.603-17.693 1.813c-4.931 1.208-7.517 2.659-7.759 4.351h-1.449c0.629-2.031 3.48-3.722 8.556-5.076 5.125-1.402 11.191-2.103 18.201-2.103 6.962 0 13.004 0.701 18.128 2.103 5.074 1.354 7.951 3.044 8.628 5.076z" clip-rule="evenodd" fill="#fff" fill-rule="evenodd"/>
<path d="m25.306 9.013l0.145-1.087c0.097-1.208 0.339-2.223 0.726-3.045 0.386-0.822 0.821-1.233 1.305-1.233h2.466l1.813 0.436 0.362-0.943c0.532-0.628 1.377-0.942 2.538-0.942 0.435 0 1.547-0.072 3.335-0.217 1.016-0.048 1.765 0.024 2.248 0.217 0.821 0.291 1.909 1.136 3.263 2.538l1.016 1.813 0.943-0.145c0.579 0.049 0.701 0.581 0.362 1.595-0.339 1.064-1.111 1.668-2.321 1.813-0.966 0.145-1.74 0.024-2.319-0.362-0.291-0.194-0.871 0.241-1.741 1.304-0.145 0.194-0.869 1.234-2.175 3.119-0.821 1.256-1.669 2.054-2.538 2.392l-1.233 1.886c-0.482 0.822-1.063 1.813-1.739 2.973-0.483 0.725-0.968 0.991-1.45 0.797-0.532-0.194-0.871-0.194-1.016 0-0.048 0.048-0.435 0.869-1.16 2.466l-1.232 2.828c-0.677 1.595-1.209 2.803-1.596 3.625-0.048 0.193-0.193 1.377-0.435 3.553-0.146 1.209-0.146 2.876 0 5.003 0.048 0.968-0.218 1.522-0.798 1.669-1.015 0.338-2.417 0.072-4.206-0.798-2.223-1.111-3.843-2.828-4.858-5.149 0-4.978 0.942-8.459 2.828-10.44 0.58-0.677 0.967-1.5 1.16-2.466 0.145-0.773 0.436-1.233 0.87-1.378l1.233-0.507 0.797-4.279c-0.29-0.096-0.508-0.266-0.652-0.508-0.338-0.483-0.121-1.112 0.652-1.885l1.741-1.885c0.532-0.629 0.966-1.426 1.305-2.394 0.192-0.484 0.313-0.605 0.361-0.364z" clip-rule="evenodd" fill="#719B3F" fill-rule="evenodd"/>
<path d="m27.916 8.434c0.387 0.338 0.774 0.604 1.161 0.797 0.145-0.338 0.362-0.701 0.652-1.087 0.483-0.725 0.991-1.16 1.523-1.305 0.773-0.242 1.281-0.363 1.522-0.363-0.29-0.677-0.29-1.426 0-2.248 0.29-0.87 1.063-1.305 2.32-1.305h1.45c-0.314 6e-3 -0.652 0.055-1.016 0.145-0.82 0.193-1.328 0.507-1.521 0.942-0.387 0.725-0.531 1.378-0.435 1.958l0.942-0.507c0.821-0.435 1.692-0.75 2.611-0.943 0.773-0.145 1.618-0.386 2.538-0.725 0.725-0.241 1.208-0.362 1.45-0.362 0.435 0 0.989 0.483 1.667 1.45-0.726-0.435-1.402-0.556-2.03-0.363l-1.596 0.58 1.088-0.217c0.821 0 1.522 0.338 2.103 1.016 0.049 0.048 0.459 0.556 1.232 1.522 0.194 0.193 0.412 0.29 0.653 0.29 0.484 0 0.919-0.049 1.306-0.145-0.484 1.257-1.112 1.523-1.885 0.797-1.016-0.967-1.597-1.499-1.741-1.596-0.677-0.483-1.33-0.7-1.959-0.652l-2.175 0.217 0.073 0.363c0.145 0.29 0.483 0.507 1.015 0.653 0.774 0.241 1.548 0.411 2.321 0.507 0 0.145-0.75 0.218-2.248 0.218-0.677 0-1.306-0.218-1.887-0.653-0.435-0.291-0.917-0.314-1.45-0.072l-3.045 1.378 2.538 1.376c1.112 0.484 2.031 0.484 2.756 0-1.209 1.112-2.151 1.668-2.828 1.668-0.193 0-0.75-0.242-1.668-0.725-0.821-0.483-1.475-0.605-1.957-0.363-0.774 0.339-1.5 0.919-2.176 1.741-0.822 0.87-1.378 1.813-1.668 2.828l-0.725 2.973 2.756-0.581c1.063-0.29 1.692-0.483 1.885-0.579 0.241-0.146 0.579-0.629 1.015-1.45 0.629-1.063 1.208-1.645 1.74-1.741l-1.74 3.117c-0.531 1.063-0.918 1.741-1.16 2.031-0.483 0.531-1.088 0.797-1.813 0.797-0.966-0.048-1.62-0.072-1.958-0.072-0.532 0-0.894 0.194-1.087 0.581-0.338 0.579-0.943 1.376-1.813 2.392 0.097 0.726 0.605 0.726 1.523 0 0.87-0.773 1.715-1.232 2.538-1.378 0.242 0.581-0.073 1.33-0.942 2.249-0.387 0.435-1.982 2.635-4.786 6.599-2.658 3.383-4.206 4.181-4.641 2.392-0.338-1.353-0.242-2.778 0.29-4.276 0.629-1.307 0.943-2.104 0.943-2.394-0.338-1.886-0.363-3.167-0.072-3.844 0.193-0.435 0.508-0.845 0.942-1.232l0.653-0.507 0.435 0.941c0.338 0.629 0.677 0.943 1.015 0.943 0.628 0 1.015-0.218 1.16-0.653-0.967-0.629-1.475-1.499-1.522-2.61 0-0.246-0.048-0.827-0.146-1.74 0.152 0.78 0.419 1.361 0.797 1.74l1.668 1.741c0.821-0.484 0.991-1.306 0.507-2.466-0.387-0.821-0.604-1.378-0.652-1.668-0.145-0.387-0.169-0.992-0.073-1.813l0.653-3.916 0.145 4.569c0.096 0.725 0.435 1.256 1.015 1.595 0-1.401 0.193-2.707 0.581-3.915 0.193-0.774 0.435-1.426 0.725-1.958 0.145-0.291 0.266-0.483 0.363-0.58-0.725 0-1.112-0.436-1.161-1.306-0.193-0.87-0.314-1.499-0.363-1.885-0.145-0.677 0.024-1.257 0.508-1.741 0.484-0.58 0.895-0.942 1.233-1.088 0.242-0.097 0.58-0.145 1.015-0.145h0.544c-0.569 0.078-1.089 0.489-1.559 1.233-0.821 1.307-0.845 2.249-0.072 2.83z" clip-rule="evenodd" fill="#5A873C" fill-rule="evenodd"/>
<path d="m29.729 13.075c0.774-0.919 1.548-1.161 2.32-0.725 0.919 0.435 1.112 0.749 0.58 0.942-0.145 0.048-0.482 0.581-1.015 1.596-0.58 0.966-1.088 1.474-1.523 1.522l-2.319 0.435c0.676-1.741 1.329-2.997 1.957-3.77z" clip-rule="evenodd" fill="#7BB342" fill-rule="evenodd"/>
<path d="m25.741 9.231c0.581 0.387 0.846 0.773 0.798 1.16-0.048 0.242-0.291 0.701-0.725 1.378-0.387 0.87-0.436 2.151-0.145 3.844-0.291-0.291-0.46-0.992-0.508-2.103-0.048-1.064-0.024-2.031 0.073-2.901 0.096-1.112 0.265-1.572 0.507-1.378z" clip-rule="evenodd" fill="#7BB342" fill-rule="evenodd"/>
<path d="m23.13 14.307c0.338 0.048 0.532 0.29 0.58 0.725 0 0.29-0.048 0.821-0.146 1.595-0.048 0.823 0.218 1.813 0.798 2.974-1.063-0.823-1.717-1.645-1.958-2.466-0.145-0.629-0.145-1.282 0-1.959 0.146-0.627 0.388-0.917 0.726-0.869z" clip-rule="evenodd" fill="#7BB342" fill-rule="evenodd"/>
<path d="m29.947 4.373c0.29 0.097 0.386 0.459 0.29 1.088-0.048 0.628-0.314 1.063-0.797 1.305-0.436 0.193-0.701 0.46-0.798 0.798-0.048 0.193-0.048 0.362 0 0.508-0.242-0.049-0.363-0.532-0.363-1.45 0-0.725 0.169-1.306 0.508-1.741 0.338-0.485 0.724-0.653 1.16-0.508z" clip-rule="evenodd" fill="#7BB342" fill-rule="evenodd"/>
<path d="m34.66 4.518l0.435-0.725c0.435-0.483 0.943-0.773 1.522-0.87 0.484-0.096 1.112-0.242 1.885-0.435 0.533-0.048 0.678 0.096 0.437 0.435-0.098 0.193-0.774 0.387-2.031 0.58-1.209 0.242-1.959 0.58-2.248 1.015z" clip-rule="evenodd" fill="#7BB342" fill-rule="evenodd"/>
<path d="m34.732 8.578c0.387 0.194 0.652 0.291 0.797 0.291 0.097-0.048 0.267-0.097 0.509-0.145 0.192 0 0.507-0.05 0.941-0.146 0.436 0 0.943 0.17 1.522 0.508 0.533 0.387 0.581 0.604 0.146 0.652-0.773 0-1.378 0.024-1.813 0.073-0.483 0.048-0.967-0.146-1.45-0.581l-0.652-0.652z" clip-rule="evenodd" fill="#7BB342" fill-rule="evenodd"/>
<path d="m29.149 20.47c-0.193 0.291-0.411 0.483-0.652 0.581-0.436 0.048-0.822 0.216-1.161 0.507-0.677 0.581-1.426 0.749-2.248 0.507 0.532-0.241 1.088-0.651 1.667-1.232 0.387-0.435 0.943-0.701 1.668-0.797 0.678-0.146 0.919 0 0.726 0.434z" clip-rule="evenodd" fill="#7BB342" fill-rule="evenodd"/>
<path d="m39.228 6.765h1.596c0.483 0 0.918 0.121 1.305 0.363s0.532 0.484 0.437 0.725c-0.05 0.242-0.339 0.338-0.871 0.291-0.531-0.048-1.016-0.242-1.45-0.58l-1.017-0.799z" clip-rule="evenodd" fill="#7BB342" fill-rule="evenodd"/>
<path d="m5.728 10.247c0.048-0.146 0.266-0.605 0.653-1.378 0.628-1.305 0.967-2.006 1.015-2.104 0.291-0.483 0.701-0.797 1.233-0.942l2.466-0.797c1.112-2.272 1.933-3.674 2.465-4.206 0.291-0.29 0.773 0.169 1.45 1.377 0.387 0.677 0.967 1.886 1.741 3.625 0.435 0.871 0.556 1.499 0.362 1.886-0.435 0.773-0.677 1.402-0.725 1.885-0.097 0.919-0.097 1.595 0 2.031 0.048 0.289 0.169 1.136 0.363 2.538 0.145 1.014 0.266 1.474 0.362 1.376 0.29-0.241 0.677-0.048 1.16 0.581 0.532 0.629 0.725 0.967 0.58 1.016-0.29 0.096-0.411 0.507-0.363 1.232 0.049 0.773 0.145 1.136 0.291 1.088 0.387-0.096 0.846 0.17 1.378 0.797 0.58 0.677 0.895 1.087 0.942 1.233 0.193 0.483 0.701 1.354 1.522 2.61 2.804 4.255 3.433 6.284 1.886 6.092-1.063-0.146-2.2-0.194-3.408-0.146-2.079 0.099-3.143 0.146-3.191 0.146-2.514 0-4.351-0.122-5.51-0.362-0.773-0.194-1.596-0.992-2.466-2.394-0.725-1.208-1.354-2.586-1.885-4.133-0.29-0.871-0.532-1.402-0.725-1.596-0.048-0.048-0.121-0.387-0.217-1.014-0.097-0.823-0.242-1.258-0.436-1.306l-0.29 0.145c-0.774-1.256-1.233-2.272-1.378-3.045-0.097-0.919 0.048-2.32 0.435-4.207 0.192-1.159 0.29-1.836 0.29-2.028z" clip-rule="evenodd" fill="#719B3F" fill-rule="evenodd"/>
<path d="m11.456 6.113c0.483-1.837 1.232-2.949 2.248-3.336 0.58-0.193 0.895 0.024 0.943 0.653-0.146-0.097-0.339-0.121-0.58-0.072-0.435 0.048-0.822 0.435-1.16 1.16-0.387 0.773-0.604 1.644-0.653 2.61-0.048 0.291-0.072 1.257-0.072 2.9 0 1.402 0.048 2.634 0.145 3.698l0.218-0.725c0.338-1.208 0.797-1.957 1.377-2.248 0.338-0.145 0.628-0.579 0.87-1.304 0.387-1.064 0.653-1.717 0.797-1.958 0.291-0.435 0.556-0.652 0.798-0.652 0.146 0 0.242 0.048 0.29 0.145l-0.435 0.435c-0.193 0.193-0.314 0.386-0.362 0.58-0.048 0.048-0.146 0.484-0.291 1.305-0.145 0.581-0.314 1.016-0.507 1.306-0.097 0.193-0.388 0.604-0.871 1.232-0.58 0.967-0.942 2.271-1.087 3.916-0.048 1.063 0 1.595 0.145 1.595 0.435-0.822 0.967-1.571 1.595-2.248 0.436-0.435 0.725-1.112 0.87-2.03l0.073-1.233v2.248c0 0.774-0.339 1.837-1.016 3.191-0.628 1.257-0.87 2.321-0.725 3.19 0.145 0.581 0.314 0.919 0.508 1.016 0.145 0 0.362-0.122 0.652-0.362 0.339-0.242 0.798-1.136 1.378-2.684 0.29-0.821 0.604-1.45 0.942-1.885l0.508-0.363-0.508 1.306c-0.29 2.03-0.483 3.191-0.58 3.48-0.387 1.548-0.822 2.345-1.305 2.394l0.58 1.088c0.193 0.435 0.411 0.772 0.653 1.015 1.354-0.29 2.224-0.967 2.61-2.03 0.193-0.629 0.338-1.329 0.435-2.104v-0.941l0.218 0.579c0.145 0.484 0.217 0.967 0.217 1.45 0 0.725-0.024 1.186-0.073 1.378-0.048 0.339-0.242 0.871-0.58 1.596-0.532 1.064-0.967 1.595-1.305 1.595l2.61-0.072c0.822-0.096 1.692-0.484 2.611-1.159l0.797 0.869-0.072 2.61c-0.242 0.581-0.991 0.871-2.249 0.871-1.982 0.338-3.939 0.459-5.873 0.362-1.257-0.05-2.562-0.604-3.916-1.668l-1.667-1.669 1.813-0.145c0.87 0 1.523-0.218 1.958-0.652-0.483-0.145-0.99-0.217-1.522-0.217-1.112 0-2.006-0.339-2.683-1.016-0.29-0.29-0.58-0.773-0.87-1.45l-0.362-0.873 0.435 0.219c0.338 0.193 0.653 0.458 0.943 0.797 0.29 0.387 0.532 0.629 0.725 0.726 0.145 0.096 0.483 0.242 1.015 0.435 0.677 0.29 1.016 0.17 1.016-0.362l-1.958-1.886c-1.112-0.628-1.861-1.063-2.248-1.304-0.484-0.29-0.822-1.257-1.016-2.9-0.048-0.387-0.291-0.919-0.725-1.596-0.387-0.579-0.58-1.04-0.58-1.378l0.29-4.205v2.03c0 0.581 0.121 1.087 0.363 1.524 0.097 0.289 0.338 0.701 0.725 1.232 0.242 0.387 0.508 1.136 0.798 2.248 0.097 0.387 0.314 0.677 0.652 0.871 0.436 0.289 0.774 0.604 1.016 0.942 0.628 0.821 1.185 1.402 1.667 1.741l-0.508-1.16c-0.193-0.435-0.313-1.136-0.362-2.103l-0.072-1.306c-0.628-0.918-1.378-1.861-2.248-2.827-0.581-0.629-0.943-1.185-1.088-1.668-0.097-0.338-0.145-1.015-0.145-2.031 0-0.725 0.072-1.499 0.217-2.32l0.217-1.091-0.072 1.45c0 1.256 0.387 2.441 1.16 3.553 0.677 1.063 1.281 1.643 1.813 1.741v-3.191c0-1.16 0.073-2.321 0.218-3.481l0.217-1.377z" clip-rule="evenodd" fill="#5A873C" fill-rule="evenodd"/>
<path d="m10.731 11.841c0.193 0.677 0.169 1.087-0.073 1.233-0.677-0.823-1.329-1.692-1.958-2.611-0.435-0.627-0.628-1.305-0.58-2.03 0.048-0.629 0.217-1.161 0.508-1.595 0.484-0.58 0.942 0.193 1.378 2.32 0.242 1.209 0.483 2.104 0.725 2.683z" clip-rule="evenodd" fill="#7BB342" fill-rule="evenodd"/>
<path d="m11.021 6.476l-0.217 3.408c-0.483-1.837-0.725-2.998-0.725-3.481 0-0.387 0.145-0.604 0.435-0.652 0.289-0.048 0.459 0.193 0.507 0.725z" clip-rule="evenodd" fill="#7BB342" fill-rule="evenodd"/>
<path d="m12.544 9.303c-0.145-1.546 0-2.731 0.435-3.553 0.773-1.498 1.354-1.837 1.741-1.015 0.387 0.773 0.048 1.426-1.016 1.958-0.484 0.29-0.871 1.16-1.16 2.61z" clip-rule="evenodd" fill="#7BB342" fill-rule="evenodd"/>
<path d="m12.544 10.972c0.241-0.773 0.773-1.62 1.595-2.538 0.29-0.29 0.556-0.798 0.798-1.523 0.242-0.677 0.411-1.063 0.508-1.16 0.242-0.193 0.363-0.073 0.363 0.363 0 0.435-0.193 0.966-0.581 1.595-0.629 0.917-1.523 2.005-2.683 3.263z" clip-rule="evenodd" fill="#7BB342" fill-rule="evenodd"/>
<path d="m8.266 16.192c-0.387-0.579-0.653-0.991-0.797-1.232-0.242-0.484-0.291-0.895-0.146-1.234 0.338-0.87 0.846-0.168 1.522 2.104 0.387 1.209 1.016 2.199 1.886 2.973 0.628 0.919 0.797 1.474 0.507 1.668l-0.218-0.653c-0.193-0.579-0.677-0.966-1.45-1.16-0.241-0.096-0.483-0.411-0.725-0.943-0.241-0.676-0.434-1.185-0.579-1.523z" clip-rule="evenodd" fill="#7BB342" fill-rule="evenodd"/>
<path d="m13.486 15.975c-0.097-1.257 0.193-2.321 0.871-3.19 0.532-0.629 0.918-0.871 1.16-0.726 0.242 0.097 0.242 0.435 0 1.016-0.145 0.387-0.314 0.604-0.508 0.651-0.241 0.098-0.483 0.314-0.725 0.653-0.194 0.29-0.459 0.822-0.798 1.596z" clip-rule="evenodd" fill="#7BB342" fill-rule="evenodd"/>
<path d="m14.646 20.615c-0.242-0.627-0.121-1.474 0.362-2.538 0.193-0.435 0.363-1.038 0.508-1.813 0.097-0.387 0.242-0.579 0.435-0.579 0.581 0 0.532 0.653-0.144 1.957-0.193 0.484-0.46 1.04-0.798 1.668-0.241 0.483-0.363 0.918-0.363 1.305z" clip-rule="evenodd" fill="#7BB342" fill-rule="evenodd"/>
<path d="m16.387 23.661c0.773-0.242 1.16-0.797 1.16-1.668 0-0.677 0.193-1.16 0.58-1.45 0.387-0.241 0.604 0 0.653 0.725 0.097 0.967-0.387 1.813-1.45 2.538-0.084 0.068-0.145 0.128-0.182 0.182-0.106-0.094-0.359-0.204-0.761-0.327z" clip-rule="evenodd" fill="#7BB342" fill-rule="evenodd"/>
<path d="m21.535 23.371c0.483 0.145 0.677 0.58 0.58 1.306-0.096 0.579-0.337 1.136-0.725 1.667-0.435 0.532-1.281 0.677-2.538 0.435l0.581-0.289c0.338 0 0.773-0.58 1.305-1.74 0.193-0.581 0.338-0.943 0.435-1.088 0.048-0.243 0.169-0.34 0.362-0.291z" clip-rule="evenodd" fill="#7BB342" fill-rule="evenodd"/>
<path d="m53.078 16.12c-2.225 0.725-3.795 1.499-4.713 2.32-0.437 0.338-1.04 0.484-1.813 0.436-0.726-0.049-1.402 0.193-2.031 0.726-0.629 0.579-1.33 1.739-2.104 3.48-0.821 1.836-1.304 2.828-1.45 2.973-0.24 0.242-0.725 1.015-1.45 2.321-0.821 1.304-1.86 2.175-3.117 2.609-1.402 0.726-2.345 1.16-2.828 1.306-0.629 0.241-1.692 0.193-3.19-0.146-0.822-0.145-2.03-0.24-3.626-0.29-0.725 0-1.233-0.289-1.522-0.87-0.193-0.387-1.087-0.991-2.683-1.813-1.112-0.629-1.281-1.16-0.508-1.595 1.112-0.629 1.885-1.111 2.321-1.45 0.628-0.484 1.74-1.523 3.335-3.118 0.483-0.483 1.33-0.459 2.538 0.072 1.547 0.725 2.466 1.087 2.756 1.087 0.821 0 1.475-0.168 1.957-0.507 0.532-0.484 1.016-1.33 1.451-2.538 0.241-0.629 0.531-2.007 0.87-4.134 0.29-1.45 0.629-2.248 1.016-2.392 2.996-0.919 4.833-2.055 5.51-3.409 0.726-1.45 1.112-2.2 1.16-2.248 0.387-0.532 0.871-0.556 1.45-0.072 0.242 0.194 0.726 0.797 1.45 1.813 0.484 0.581 1.016 0.87 1.597 0.87h4.351l3.045 2.684c0.387 0.241 0.894 1.378 1.522 3.407-0.483-0.387-1.063-0.725-1.74-1.015-1.354-0.627-2.539-0.797-3.554-0.507z" clip-rule="evenodd" fill="#719B3F" fill-rule="evenodd"/>
<path d="m52.57 14.163c2.417 0.675 3.844 1.184 4.278 1.522 0.919 0.725 1.426 1.378 1.522 1.957-0.579-0.531-1.136-0.797-1.667-0.797-0.532 0.145-0.968 0.266-1.306 0.363-0.581 0.096-1.185-0.024-1.813-0.363-0.193-0.096-1.111-0.677-2.756-1.74-1.111-0.677-1.813-0.966-2.102-0.87-0.29 0.096-0.532 0.338-0.725 0.725-0.387 0.725-0.653 1.184-0.799 1.378-1.45 2.514-2.368 3.722-2.755 3.625-1.596-0.338-2.634-0.412-3.118-0.218-0.436 0.194-0.726 0.411-0.87 0.653l-0.072 0.362 0.579-0.146c0.291-0.096 0.991 0.098 2.104 0.581 0.387 0.194 0.821 0.242 1.306 0.145-0.339 0.242-0.701 0.412-1.088 0.509-0.629 0.096-1.281 0-1.958-0.291-0.58-0.194-1.402 0.072-2.466 0.797-0.773 0.533-1.522 1.596-2.248 3.19l1.813-0.58c0.339 0 0.701-0.241 1.088-0.726 0.435-0.338 0.896-0.507 1.378-0.507 0.436 0 0.678 0.097 0.726 0.29h-0.653c-0.192 0-0.459 0.217-0.797 0.653-0.387 0.482-0.677 0.773-0.87 0.869-0.242 0.097-0.557 0.145-0.943 0.145-0.29 0-0.482 0.098-0.58 0.291l-0.145 0.871c-0.048 0.24-0.024 0.313 0.072 0.216 0.242-0.192 0.509-0.314 0.797-0.362 0.533-0.096 1.064 0.024 1.597 0.362h-0.726c-1.111 0-2.297 0.701-3.553 2.104-0.58 0.677-2.104 1.281-4.568 1.813-2.03 0.483-3.432 0.726-4.206 0.726-0.532 0-2.224-0.991-5.076-2.973-0.339-0.242-0.532-0.459-0.581-0.653 0-0.193 0.097-0.314 0.291-0.362 0.532-0.145 1.62-0.846 3.263-2.104l2.538-2.466-0.362 1.451c-0.242 1.111-0.338 2.078-0.291 2.9 0.436-0.387 0.871-0.99 1.306-1.813 0.483-1.014 1.305-1.57 2.465-1.667 0.339-0.048 0.678 0.049 1.016 0.291 0.387 0.24 0.435 0.338 0.146 0.289-0.629-0.097-1.281 0.146-1.958 0.725-0.677 0.629-1.064 1.161-1.161 1.596l0.581-0.071c0.435-0.05 0.869-0.171 1.305-0.363 0.532-0.193 1.208-0.701 2.03-1.523 0.387-0.387 0.749-0.531 1.088-0.435 0.435 0.096 0.508 0.193 0.218 0.29-0.242 0-0.773 0.29-1.596 0.869-0.58 0.437-0.797 0.701-0.652 0.799l1.233-0.146c0.869-0.145 1.716-0.653 2.537-1.522 0.193-0.194 0.339-0.581 0.436-1.16 0.145-0.677 0.362-1.209 0.652-1.596 0.339-0.483 0.579-1.014 0.726-1.595 0.145-0.725 0.266-1.354 0.362-1.885 0.241-1.258 0.507-2.175 0.797-2.756 0.242-0.483 0.605-0.75 1.088-0.797 0.242-0.048 0.459-0.048 0.653 0-0.194 0.048-0.387 0.144-0.581 0.29-0.435 0.241-0.749 0.531-0.941 0.87-0.194 0.338-0.314 0.797-0.362 1.378v1.885c0 1.015-0.098 1.62-0.291 1.813 0.193-0.096 0.435-0.386 0.726-0.869 0.338-0.435 0.579-0.773 0.725-1.016 0.291-0.435 0.483-0.846 0.579-1.232 0.242-1.015 0.726-2.007 1.451-2.974 0.677-0.966 1.137-1.546 1.378-1.739l-0.363 0.87-1.307 2.391c-0.339 0.627-0.363 1.038-0.074 1.232 0.484-0.338 1.016-0.797 1.597-1.378 0.435-0.387 0.677-0.653 0.725-0.797v-0.797c-0.048-0.629-0.072-1.136-0.072-1.522 0-0.677 0.097-1.209 0.289-1.596l1.016-1.741-0.435 1.668c-0.194 0.435-0.267 0.87-0.219 1.306 0.05 0.289 0.122 0.749 0.219 1.376 0.096 0.484 0.266 0.509 0.507 0.074 0.146-0.29 0.362-0.799 0.652-1.524 0.194-0.338 0.291-0.725 0.291-1.16v-1.45c0.048-0.483 0.145-0.87 0.29-1.16l0.217-0.29-0.072 3.481 1.233-0.508c0.87-0.145 1.475 0.146 1.813 0.871 0.096 0.24 1.256 0.7 3.479 1.378z" clip-rule="evenodd" fill="#5A873C" fill-rule="evenodd"/>
<path d="m40.099 15.032c-0.631 0.396-1.041 1.412-1.233 3.045-0.097 0.919-0.411 1.982-0.942 3.19 0.145-0.579 0.217-1.087 0.217-1.522 0-1.063 0.098-2.055 0.29-2.973 0.097-0.581 0.339-1.015 0.726-1.306 0.194-0.145 0.387-0.217 0.581-0.217l0.361-0.217z" clip-rule="evenodd" fill="#7BB342" fill-rule="evenodd"/>
<path d="m40.968 17.714c0-0.145 0.363-1.112 1.088-2.9l0.798-1.885-0.508 2.61c-0.048 0.291-0.096 0.677-0.145 1.161-0.098 0.387-0.242 0.604-0.436 0.652-0.145 0.049-0.313 0.218-0.507 0.508-0.144 0.145-0.241 0.097-0.29-0.146z" clip-rule="evenodd" fill="#7BB342" fill-rule="evenodd"/>
<path d="m45.103 9.375c0.096-0.096 0.192-0.168 0.288-0.217l-0.435 0.797c-0.338 0.677-0.482 1.232-0.435 1.668 0.048 0.387 0.169 0.773 0.362 1.16 0.194 0.386 0.267 0.701 0.219 0.941-0.05 0.533-0.267 0.919-0.653 1.162-0.532-0.871-0.701-1.789-0.509-2.756 0.05-0.144 0.267-0.821 0.653-2.031 0.097-0.287 0.267-0.53 0.51-0.724z" clip-rule="evenodd" fill="#7BB342" fill-rule="evenodd"/>
<path d="m46.044 12.422l0.072-1.885c-0.048-0.532-0.024-0.895 0.073-1.087 0.145-0.242 0.313-0.194 0.508 0.145 0.144 0.194 0.29 0.458 0.435 0.797 0.096 0.29 0.242 0.484 0.435 0.581 0.387 0.241 0.604 0.531 0.653 0.87-1.16 0.24-1.886 0.433-2.176 0.579z" clip-rule="evenodd" fill="#7BB342" fill-rule="evenodd"/>
<path d="m31.76 24.604c-0.049 0.29-0.483 0.556-1.306 0.798-0.483 0.145-0.919 0.436-1.305 0.87-0.165 0.166-0.298 0.323-0.399 0.472 0.121-0.205 0.253-0.437 0.399-0.689 0.386-0.628 0.773-1.064 1.161-1.305 0.387-0.29 0.749-0.387 1.088-0.29 0.143-1e-3 0.264 0.047 0.362 0.144z" clip-rule="evenodd" fill="#7BB342" fill-rule="evenodd"/>
<path d="m31.614 26.489c0.048-0.193 0.146-0.412 0.29-0.652 0.29-0.484 0.701-0.821 1.232-1.016 0.387-0.194 0.87-0.314 1.45-0.362 0.387-0.049 0.653-0.194 0.798-0.436l0.653-1.087-0.073 0.435c-0.049 0.387-0.169 0.725-0.363 1.016-0.338 0.677-0.966 1.231-1.885 1.667-0.532 0.193-1.039 0.338-1.522 0.436h-0.58z" clip-rule="evenodd" fill="#7BB342" fill-rule="evenodd"/>
<path d="m26.828 27.504c0-0.531 0.073-1.257 0.218-2.176 0.145-1.353 0.532-2.077 1.16-2.176 0.677 0 1.136 0.024 1.378 0.074l0.506 0.072-0.58 0.29c-0.483 0.241-0.845 0.531-1.087 0.87-0.193 0.29-0.532 0.991-1.015 2.103-0.241 0.629-0.435 0.943-0.58 0.943z" clip-rule="evenodd" fill="#7BB342" fill-rule="evenodd"/>
<path d="m37.995 23.589c0.194-0.387 0.435-0.749 0.726-1.087 0.629-0.725 1.306-1.064 2.03-1.016 1.16 0.048 1.837 0.241 2.03 0.579-0.291-0.096-1.04 0-2.248 0.291-0.725 0.194-1.354 0.459-1.885 0.797-0.291 0.146-0.508 0.29-0.653 0.436z" clip-rule="evenodd" fill="#7BB342" fill-rule="evenodd"/>
<path d="m51.772 33.305c-0.725 1.402-2.055 2.272-3.988 2.611-2.562 0.387-5.583 0.773-9.063 1.16-2.514 0.482-4.134 0.652-4.858 0.507-1.16-0.241-1.692-1.691-1.596-4.351 0.097-2.368 0.87-2.853 2.32-1.45 1.74 1.645 2.852 2.007 3.336 1.088 1.595-2.805 3.045-6.116 4.351-9.934 0.58-1.546 1.16-2.804 1.741-3.771 0.676-1.014 1.231-1.909 1.667-2.682 1.258-2.127 2.03-3.529 2.321-4.207 0.338-1.208 0.603-2.029 0.797-2.464 0.29-0.725 0.846-1.185 1.667-1.378 0.29-0.049 1.063 0.121 2.321 0.507 0.677 0.242 1.28-0.169 1.813-1.232 0.678-1.354 1.595-2.079 2.755-2.175 1.21-0.049 1.813 0.676 1.813 2.175 0 1.112-0.41 3.167-1.231 6.164-0.968 3.529-1.522 5.801-1.669 6.816-0.24 1.739-0.531 3.117-0.869 4.133-0.242 0.677-0.821 1.957-1.741 3.844-0.581 1.159-1.21 2.705-1.887 4.639z" clip-rule="evenodd" fill="#719B3F" fill-rule="evenodd"/>
<path d="m54.311 8.144c0.048-0.387 0.194-0.58 0.435-0.58 0.194 0 0.459-0.024 0.798-0.073 0.29-0.048 0.338 0.049 0.146 0.29-0.29 0.291-0.484 0.508-0.581 0.653-0.192 0.291-0.313 0.701-0.362 1.232-0.048 0.435-0.072 0.991-0.072 1.668-0.048 0.531-0.193 0.966-0.435 1.305-0.967 1.112-1.498 1.716-1.596 1.813-1.064 1.112-1.981 2.225-2.755 3.337-0.677 0.966-0.726 1.353-0.146 1.16 0.532-0.194 1.426-1.063 2.684-2.61 2.175-2.756 3.359-4.254 3.553-4.497 0.773-0.87 1.475-1.354 2.103-1.45-0.967 1.112-1.981 2.465-3.045 4.06-1.934 2.901-3.408 4.569-4.424 5.004l-2.175 1.16-0.362 0.653c-0.097 0.387 0.338 0.459 1.304 0.218 1.258-0.291 2.226-0.604 2.9-0.943 0.775-0.483 1.378-1.16 1.813-2.029l2.103-3.481c-0.629 3.094-1.256 4.882-1.885 5.366-0.387 0.386-0.701 0.677-0.943 0.869-0.387 0.291-1.16 0.629-2.319 1.016l-3.626 1.088-0.218 0.869c0.146 0.484 0.967 0.509 2.466 0.074 2.175-0.726 3.335-1.112 3.48-1.162 0.579-0.24 0.991-0.603 1.232-1.087l0.653-1.087 0.071 1.596c-0.29 1.112-1.231 1.813-2.828 2.103-1.643 0.339-2.803 0.651-3.479 0.941-0.194 0.049-0.677 0.339-1.45 0.871-0.725 0.531-1.258 0.846-1.596 0.942l0.943 0.218c0.821 0.097 1.716 0.024 2.682-0.218 1.548-0.339 2.95-0.508 4.206-0.508-2.03 2.176-4.06 4.205-6.091 6.092-4.108 3.674-6.235 4.664-6.38 2.973-0.05-3.481-0.122-5.511-0.219-6.091-0.048-0.387 0.169-1.04 0.653-1.958l0.253-0.436c-7e-3 0.231 0.15 0.4 0.472 0.508 0.58 0.192 1.016 0.217 1.305 0.072 0.29-0.096 0.29-0.362 0-0.797-0.339-0.435-0.579-0.726-0.725-0.871-0.145-0.192-0.241-0.459-0.289-0.798l-0.074-1.885 0.437 1.016c0.339 0.677 0.676 1.016 1.014 1.016 0.581 0 0.943-0.242 1.088-0.726l-0.725-1.887c-0.531-1.111-0.58-2.343-0.145-3.697 0.096-0.338 0.096-0.145 0 0.581-0.097 1.016-0.024 1.45 0.218 1.304l0.507-0.289 0.219-1.016c0.144-0.533 0.362-0.847 0.651-0.943 0.193-0.096 0.484-0.145 0.871-0.145 0.192-0.048 0.314 0.024 0.362 0.217 0.048 0.098 0.096-0.048 0.145-0.435l0.218-1.088c0-0.145 0.024-0.29 0.072-0.435 0.097-0.338 0.314-0.507 0.653-0.507h0.869c0.194-0.242 0.218-0.628 0.072-1.161l-0.217-0.725c0.145-0.096 0.145-0.459 0-1.088l-0.072-0.579-0.146-0.362 0.146-1.306 0.435 1.306c0.291 0.917 0.531 1.426 0.726 1.522 0.145 0.048 0.267 0.168 0.362 0.362l0.072-0.218 0.072-1.45c0-0.387-0.145-0.675-0.435-0.87-0.097-0.048 0.048-0.144 0.435-0.29 0.773-0.241 1.378-0.363 1.813-0.363 0.678 0 1.064-0.024 1.16-0.072 0.339-0.194 0.557-0.653 0.653-1.378 0.145-1.159 0.242-1.788 0.29-1.884z" clip-rule="evenodd" fill="#5A873C" fill-rule="evenodd"/>
<path d="m53.804 22.646c-1.983 0.87-3.361 1.426-4.134 1.668-0.483 0.145-1.016 0.555-1.595 1.231-0.291 0.339-0.533 0.653-0.726 0.943h0.726c0.725 0.049 1.667 0.192 2.828 0.435 1.643 0.291 0.579 2.32-3.191 6.092-3.577 3.576-5.294 3.818-5.147 0.725 0.096-1.499-0.05-2.876-0.437-4.134-0.435-1.16-0.604-2.005-0.507-2.538l0.762-2.973c0.094 0.241 0.299 0.556 0.616 0.943 0.725 0.87 1.256 1.305 1.595 1.305-0.339-0.145-0.579-0.821-0.726-2.029-0.096-0.775-0.072-1.813 0.072-3.119l0.219-1.74 0.435 1.958c0.339 1.304 0.725 1.958 1.16 1.958s0.652-0.267 0.652-0.797c-0.096-0.822-0.145-1.547-0.145-2.175l0.145-4.859c0.435 4.254 0.919 5.632 1.45 4.134 0.387-1.16 0.677-1.982 0.871-2.465 0.289-0.725 0.821-1.645 1.595-2.756 0.629-0.966 1.282-1.691 1.957-2.175 0.484-0.387 0.75-0.701 0.799-0.942l0.145-0.943c0.145 0.629-0.193 1.498-1.016 2.61l-2.138 3.337c0.218-0.086 0.495-0.159 0.834-0.218 1.353-0.242 2.658-1.354 3.914-3.335-0.676 1.498-1.474 2.682-2.392 3.553-1.402 1.112-2.298 1.909-2.684 2.392-0.531 0.629-0.895 1.112-1.088 1.45-0.241 0.581 0.121 0.847 1.088 0.797 0.677-0.096 1.185-0.193 1.523-0.289 0.606-0.203 1.089-0.469 1.45-0.799-1.042 1.098-2.034 1.775-2.974 2.031-0.726 0.194-1.232 0.507-1.522 0.943-0.241 0.483-0.121 0.725 0.362 0.725 0.725 0 1.716-0.146 2.973-0.437l2.251-0.507z" clip-rule="evenodd" fill="#769E3F" fill-rule="evenodd"/>
<path d="m51.266 8.796c0.048 0 0.097 0.12 0.145 0.362 0 0.338 0.048 0.629 0.145 0.87 0.242 0.435 0.677 0.701 1.306 0.797h-1.162c-0.532 0-0.919-0.387-1.16-1.16-0.098-0.291-0.266-0.459-0.508-0.507-0.145 0-0.169-0.096-0.072-0.29 0.145-0.194 0.338-0.267 0.58-0.218l0.726 0.146z" clip-rule="evenodd" fill="#7BB342" fill-rule="evenodd"/>
<path d="m49.162 9.666c0 0.338 0.241 1.474 0.726 3.409 0.078 0.704 0.187 1.139 0.325 1.304-0.385-0.277-0.712-0.614-0.979-1.015-0.193-0.289-0.314-0.821-0.362-1.595l-0.072-1.088c0.048-0.29 0.097-0.557 0.145-0.797 0.096-0.485 0.169-0.557 0.217-0.218z" clip-rule="evenodd" fill="#7BB342" fill-rule="evenodd"/>
<path d="m47.856 13.872c0 0.579 0.363 1.329 1.088 2.248h-0.507c-0.435 0-0.896-0.314-1.378-0.943-0.097-0.192 0-0.627 0.29-1.304 0.339-0.63 0.507-0.63 0.507-1e-3z" clip-rule="evenodd" fill="#7BB342" fill-rule="evenodd"/>
<path d="m56.921 6.548c1.063-0.628 1.33 0.073 0.797 2.103-0.145 0.581-0.289 0.895-0.435 0.943-0.29 0.096-0.652 0.29-1.088 0.581l-1.595 1.45c0.241-0.823 0.411-1.692 0.507-2.611 0.097-0.968 0.702-1.789 1.814-2.466z" clip-rule="evenodd" fill="#7BB342" fill-rule="evenodd"/>
<path d="m53.514 13.438c0.869-0.775 1.184-0.799 0.941-0.074-0.241 0.774-0.701 1.426-1.377 1.958-1.306 1.16-1.74 1.402-1.306 0.725 0.145-0.194 0.29-0.532 0.435-1.015 0.242-0.483 0.678-1.015 1.307-1.594z" clip-rule="evenodd" fill="#7BB342" fill-rule="evenodd"/>
<path d="m54.238 15.83l1.667-2.755c0.629-1.063 1.426-2.055 2.394-2.974l-0.218 0.291c-0.339 1.16-0.726 2.199-1.16 3.119-0.241 0.628-0.749 1.474-1.522 2.538-1.063 1.981-1.957 3.215-2.683 3.698-0.437 0.291-0.943 0.387-1.523 0.291l-0.652-0.218 1.813-1.522c0.24-0.245 0.869-1.067 1.884-2.468z" clip-rule="evenodd" fill="#7BB342" fill-rule="evenodd"/>
<path d="m55.471 17.063c0.532-0.677 0.797-0.847 0.797-0.508 0 0.146-0.072 0.532-0.217 1.16-0.096 1.016-0.772 2.273-2.03 3.771-0.579 0.773-1.063 1.088-1.45 0.942l-0.436-0.507 1.958-2.104c0.532-0.579 0.991-1.498 1.378-2.754z" clip-rule="evenodd" fill="#7BB342" fill-rule="evenodd"/>
<path d="m51.12 14.525c-1.45 2.514-2.416 4.713-2.9 6.599-0.339 1.546-0.87 3.818-1.595 6.816-0.581 2.416-1.04 3.965-1.379 4.64-0.628 1.112-1.426 1.741-2.393 1.887-1.112 0.192-1.401-0.847-0.87-3.118 0.919-0.436 1.885-1.886 2.9-4.352 0.919-2.609 1.909-5.051 2.973-7.323 0.677-1.45 1.765-3.263 3.264-5.438 0.513-0.786 0.995-1.499 1.45-2.14-0.476 0.708-0.961 1.518-1.45 2.429z" clip-rule="evenodd" fill="#D2D6A7" fill-rule="evenodd"/>
<path d="m44.812 27.794l1.667-5.292c0.532-1.692 1.524-3.675 2.975-5.947 0.725-1.112 1.4-2.079 2.029-2.901-0.241 0.339-0.531 0.75-0.87 1.234-0.677 0.966-1.209 1.813-1.596 2.538-0.918 2.03-1.691 4.277-2.319 6.743-0.773 3.434-1.402 5.415-1.886 5.947-0.338 0.387-0.484 0.289-0.435-0.29 0-0.582 0.144-1.259 0.435-2.032z" clip-rule="evenodd" fill="#DBDDBB" fill-rule="evenodd"/>
<path d="m19.65 22.501c0.483 0 0.967 0.096 1.45 0.289 0.338 0.05 0.725-0.338 1.16-1.16 0.677-1.304 1.04-1.958 1.087-1.958 0.242-0.338 0.58-0.508 1.016-0.508h2.103c0.532-0.048 0.87-0.096 1.015-0.145 0.193-0.194 0.46-0.386 0.797-0.581 0.338-0.192 0.653-0.435 0.943-0.725 0.242-0.145 0.604-0.096 1.088 0.146 0.387 0.192 0.773 0.459 1.16 0.797 0.192 0.145 0.386 0.168 0.579 0.072 0.242-0.048 0.46-0.072 0.653-0.072 0.193-0.048 0.482-0.363 0.87-0.943 0.338-0.821 0.556-1.329 0.652-1.522 0.097-0.291 0.58-0.435 1.451-0.435 0.725 0 1.136-0.169 1.231-0.507 0.049-0.098 0.339 0.072 0.87 0.507 0.484 0.386 1.548 0.943 3.19 1.668 1.45 0.627 2.321 1.16 2.61 1.595 0.194 0.242 0.557 0.387 1.088 0.435 0.437 0 0.967 0.508 1.596 1.522 1.016 1.74 1.571 3.239 1.667 4.496 0.05 0.387 0.098 0.942 0.146 1.667 0 0.581-0.267 0.92-0.798 1.016-7.251 2.176-12.666 2.997-16.243 2.466-0.918-0.145-4.013-0.194-9.282-0.145-3.577 0.048-5.487-0.46-5.728-1.523-0.291-1.16 0.072-2.44 1.087-3.843 0.729-0.965 1.575-1.836 2.542-2.609z" clip-rule="evenodd" fill="#5A873C" fill-rule="evenodd"/>
<path d="m37.271 18.513c0.096 0.048 0.58 0.555 1.45 1.522 0.677 0.677 1.33 1.016 1.957 1.016 0.146 0 0.749-0.074 1.813-0.218 0.533-0.096 1.016 0 1.45 0.291 0.339 0.29 0.823 0.653 1.45 1.087 0.533 0.387 0.871 0.749 1.016 1.088 0.291 0.531 0.604 1.256 0.943 2.175-1.74-2.079-2.973-3.214-3.697-3.409-0.437-0.096-0.871-0.144-1.307-0.144-0.58 0.048-1.111 0.072-1.595 0.072-0.677 0-1.087-0.024-1.233-0.072-0.192-0.048-0.629-0.314-1.304-0.797-0.775-0.533-1.21-0.822-1.307-0.871-0.242-0.048-0.604 0.024-1.087 0.218-0.58 0.242-1.185 0.629-1.813 1.16-0.628 0.533-0.966 0.919-1.015 1.16-0.242 1.016 0.218 1.402 1.378 1.161 0.531-0.098 1.159-0.338 1.885-0.725 0.58-0.194 1.16-0.074 1.74 0.362l2.248 1.667c0.677 0.435 1.063 0.677 1.16 0.726 0.242 0.096 0.604 0.121 1.087 0.072 0.726-0.049 1.524 0.266 2.394 0.942-0.435 0.194-1.45 0.097-3.045-0.29-0.774-0.192-1.5-0.482-2.175-0.869-0.533-0.339-1.04-0.533-1.524-0.581-1.498-0.531-2.416-0.677-2.755-0.435-0.29 0.194-1.063 0.387-2.32 0.58l1.45 0.145c1.015 0.145 1.788 0.436 2.32 0.87 0.049 0.05 0.387 0.412 1.016 1.088 0.241 0.242 0.628 0.436 1.16 0.58 0.918 0.242 2.104 0.362 3.554 0.362-0.919 0.773-1.789 1.16-2.612 1.16-6.332-0.629-10.393-0.918-12.181-0.869-2.272 0.29-3.94 0.482-5.004 0.579-1.934 0.242-2.61 0.05-2.03-0.579 0.435-0.677 1.257-1.45 2.465-2.321 1.112-0.773 2.175-1.353 3.191-1.739 1.305-0.484 2.054-0.943 2.248-1.378-0.048-0.773 0.193-1.499 0.725-2.175 0.338-0.435 0.846-0.797 1.523-1.088 0.338-0.146 0.651-0.266 0.942-0.363l-0.726 0.726c-0.531 0.531-0.797 1.039-0.797 1.522 0 0.386-0.025 0.628-0.073 0.725l0.726-0.363c1.354-0.435 2.175-0.967 2.465-1.595 0.193-0.629 0.339-1.087 0.436-1.378 0.193-0.533 0.531-0.797 1.016-0.797 0.241 0 0.7-0.074 1.377-0.218 0.338-0.048 0.676 0.024 1.015 0.218z" clip-rule="evenodd" fill="#4F7835" fill-rule="evenodd"/>
<path d="m21.245 19.673l1.595 1.16-0.652 1.306c-0.436 1.063-0.701 2.126-0.798 3.189-0.145 1.161 0.121 2.176 0.798 3.047 0.628 0.725 1.329 1.136 2.103 1.231 0.725 0.049 1.91-0.023 3.553-0.217 1.741-0.146 2.586-0.29 2.538-0.436 1.934-6.188 2.924-9.499 2.973-9.934 0-0.29 0.072-0.531 0.218-0.725l0.145-0.218 1.016 2.611c0.725 1.933 1.232 3.407 1.522 4.423 0.339 1.402-1.354 2.997-5.076 4.786-3.867 1.836-6.864 2.175-8.991 1.015-1.934-1.063-2.659-3.263-2.175-6.598l1.231-4.64z" clip-rule="evenodd" fill="#52702F" fill-rule="evenodd"/>
<path d="m39.155 9.159l1.813-0.653 0.726 1.016c0.435 0.579 0.677 0.653 0.725 0.217 0.049-0.531 0.75-0.846 2.104-0.942 1.306-0.096 2.127 0.072 2.466 0.507 0.387 0.484 0.701 1.04 0.941 1.668-0.579 0.435-1.111 0.653-1.595 0.653-0.773 0-1.281 0.289-1.522 0.87l-1.596 3.988-0.217-0.072-1.959-1.088c-0.145 0.241-0.604 0.701-1.376 1.378-1.162 0.966-2.298 1.45-3.409 1.45-0.726 0-1.112-0.146-1.16-0.436l4.059-8.556z" clip-rule="evenodd" fill="#52702F" fill-rule="evenodd"/>
<path d="m20.665 18.042c-0.87-0.464-1.305-0.79-1.305-0.979l-0.797-5.657 0.942-2.32c2.175 0.87 3.311 1.353 3.408 1.45 0.096 0.097 0.169 0.725 0.217 1.885 0.048 1.063 0.048 1.691 0 1.885 0 0.096-0.097 0.458-0.291 1.087s-0.411 0.943-0.652 0.943c-0.097 0-0.411-0.242-0.943-0.725-0.387-0.338-0.581-0.314-0.581 0.072v2.359z" clip-rule="evenodd" fill="#52702F" fill-rule="evenodd"/>
<path d="m30.091 17.135l0.073 2.029c0.048 0.871 0.266 1.692 0.652 2.466l-1.74 1.522-1.958-6.017-0.508 1.667c-0.29 0.823-0.604 1.015-0.942 0.581-0.339-0.435-0.46-1.063-0.363-1.885 0.193-0.919 0.895-2.031 2.103-3.335 1.401-1.45 2.538-2.055 3.408-1.813 0.918 0.193 1.475 0.749 1.668 1.667 0.145 0.871-0.049 1.692-0.58 2.466-0.387 0.628-0.798 0.919-1.232 0.87l-0.581-0.218z" clip-rule="evenodd" fill="#52702F" fill-rule="evenodd"/>
<path d="m52.57 18.658l1.306-1.813c1.208 3.77 1.426 6.357 0.652 7.759-0.774 1.354-1.644 1.958-2.611 1.813l0.437-8.121 0.216 0.362z" clip-rule="evenodd" fill="#52702F" fill-rule="evenodd"/>
<path d="m19.939 4.88c0.677-1.112 1.306-1.837 1.886-2.175 0.338-0.146 0.58-0.193 0.725-0.146l2.393 0.291-0.218 5.511c-0.193 2.949-0.483 5.125-0.87 6.527-3.287-1.162-5.293-2.175-6.019-3.046l2.103-6.962z" clip-rule="evenodd" fill="#D66E40" fill-rule="evenodd"/>
<linearGradient id="aa" x1="-5.895" x2=".0253" y1="-29.113" y2="-29.113" gradientTransform="matrix(-1.1513 .8819 -.8819 -1.1513 -8.0514 -24.849)" gradientUnits="userSpaceOnUse">
	<stop stop-color="#FF543D" offset="0"/>
	<stop stop-color="#B31205" offset="1"/>
</linearGradient>
<path d="m25.016 2.85c-0.29 0.048-0.652 0.266-1.088 0.652-0.967 0.725-1.909 1.886-2.828 3.481-1.257 2.224-1.91 4.157-1.958 5.801-0.29 0.144-0.725-0.17-1.305-0.943-0.338-0.531-0.725-0.918-1.16-1.16l-0.58-0.218c0-1.547 0.411-3.335 1.233-5.366 0.532-1.305 1.498-2.538 2.9-3.698 0.725-0.58 1.378-1.04 1.958-1.378l0.87 0.653c0.58 0.435 1.233 1.16 1.958 2.176z" clip-rule="evenodd" fill="url(#aa)" fill-rule="evenodd"/>
<path d="m23.783 13.726l-1.378-3.625c-0.628-1.981-0.387-3.456 0.725-4.423 0.484-0.387 0.822-0.483 1.016-0.29 0.241 0.193 0.337 0.894 0.29 2.103-0.097 1.74-0.315 3.819-0.653 6.235z" clip-rule="evenodd" fill="#AD5630" fill-rule="evenodd"/>
<path d="m23.565 14.017c0.146 0.387 0.193 0.653 0.146 0.797l-1.522-0.507-2.683-1.306c0.097-0.821 0.266-1.498 0.508-2.029 0.193-0.484 0.435-0.847 0.725-1.088 0.386-0.29 0.701-0.29 0.942 0 0.434 0.435 1.063 1.813 1.884 4.133z" clip-rule="evenodd" fill="#AD5630" fill-rule="evenodd"/>
<path d="m23.638 8.144l-0.145 0.87-0.291-2.03c0.097-0.145 0.218-0.049 0.362 0.29 0.098 0.338 0.122 0.628 0.074 0.87z" clip-rule="evenodd" fill="#AB782A" fill-rule="evenodd"/>
<path d="m21.39 12.494c-0.435 0.048-0.725-0.048-0.87-0.291-0.097-0.192-0.073-0.362 0.072-0.507 0.097-0.048 0.266 0.072 0.508 0.362 0.096 0.146 0.193 0.292 0.29 0.436z" clip-rule="evenodd" fill="#AB782A" fill-rule="evenodd"/>
<path d="m23.565 7.636c-0.096 1.064-0.144 1.014-0.144-0.145-0.049-0.145-0.025-0.218 0.072-0.218s0.121 0.121 0.072 0.363z" clip-rule="evenodd" fill="#E0BB82" fill-rule="evenodd"/>
<use transform="matrix(1.4502 0 0 -1.4502 21.1 .6499)" y="-2.25" width="2.05" height="2.25" enable-background="new" xlink:href="#ah"/>
<path d="m31.76 13.872c0.773 0.966 0.895 1.837 0.362 2.61-0.531 0.387-1.063 0.653-1.596 0.797l-1.595 0.146 0.218 1.088c0.193 0.773 0.411 1.304 0.653 1.595 0.387 0.435 0.58 0.701 0.58 0.797l-1.305 0.797c-0.484-0.821-0.967-1.667-1.45-2.538-0.967-1.789-1.475-2.803-1.523-3.045-0.048-0.531 0.242-1.256 0.87-2.175 0.291-0.435 0.605-0.846 0.943-1.232l1.523 0.072c1.111 0.193 1.884 0.556 2.32 1.088z" clip-rule="evenodd" fill="#7A6227" fill-rule="evenodd"/>
<path d="m24.798 19.673l0.146-3.553c0.338-0.725 0.653-1.256 0.942-1.595 0.629-0.725 0.87-0.218 0.725 1.522-0.096 1.741-0.435 2.876-1.015 3.408-0.29 0.242-0.556 0.315-0.798 0.218z" clip-rule="evenodd" fill="#7A6227" fill-rule="evenodd"/>
<path d="m31.687 15.176c0.146 0.677-0.024 1.209-0.508 1.596-0.58 0.483-1.498 0.677-2.755 0.58l0.145 0.943c0.193 0.677 0.387 1.232 0.58 1.668l0.58 1.014-1.305 0.653c-0.58 0.338-0.918 0.581-1.015 0.725l-0.362-1.885-0.943-2.465-0.652 1.668c-0.532 0.87-1.136 0.846-1.813-0.072-0.629-1.016-0.459-2.346 0.508-3.988 0.676-1.209 1.57-2.007 2.682-2.394 1.063-0.387 2.103-0.338 3.119 0.145 0.965 0.484 1.545 1.087 1.739 1.812z" clip-rule="evenodd" fill="#DED8A0" fill-rule="evenodd"/>
<path d="m28.424 17.352c-0.097-0.193-0.169-0.435-0.218-0.725-0.097-0.483 0-0.797 0.291-0.942 0.338-0.194 0.604-0.218 0.797-0.072 0.193 0.096 0.193 0.289 0 0.579-0.048 0.096-0.217 0.242-0.508 0.435-0.193 0.098-0.314 0.338-0.362 0.725z" clip-rule="evenodd" fill="#968F48" fill-rule="evenodd"/>
<path d="m26.103 18.223c-0.096-0.146-0.266-0.17-0.507-0.072-0.338 0.097-0.581 0.121-0.725 0.072-0.242-0.048-0.267-0.218-0.073-0.508 0.146-0.338 0.363-0.507 0.653-0.507 0.386 0 0.604 0.338 0.652 1.015z" clip-rule="evenodd" fill="#968F48" fill-rule="evenodd"/>
<path d="m38.576 8.289l3.842-1.523c3.529 0.193 5.391 0.46 5.585 0.798 0.192 0.338 0.217 1.208 0.072 2.611-0.097 0.338-0.411 0.555-0.943 0.651-0.339 0.05-0.821 0-1.45-0.145l-0.87-0.29-0.58 2.175c-0.291 1.063-0.773 2.103-1.45 3.119-0.193-0.242-0.508-0.459-0.942-0.653-0.242-0.097-0.532-0.121-0.871-0.072l-0.507 0.072-0.435-1.16 2.319-1.668 0.145-3.045-0.869 0.942c-0.339 0.387-0.798 0.533-1.378 0.436l-0.798-0.29-0.87-1.958z" clip-rule="evenodd" fill="#7A6227" fill-rule="evenodd"/>
<path d="m41.693 8.941c-1.547 0.773-2.563 0.677-3.045-0.291-0.339-0.772-0.219-1.619 0.362-2.537 0.579-0.967 1.354-1.596 2.32-1.886 2.514-0.773 4.374-0.459 5.584 0.943 0.725 0.773 1.111 1.644 1.16 2.61 0.048 0.87-0.122 1.45-0.509 1.741-0.241 0.192-0.798 0.192-1.667 0l-1.306-0.363-1.885 5.148c-0.531-0.242-1.063-0.363-1.595-0.363l-1.088-0.072c0.821-1.499 1.305-2.562 1.45-3.191l0.219-1.739z" clip-rule="evenodd" fill="#DED8A0" fill-rule="evenodd"/>
<path d="m41.693 8.65c-0.387-0.725-0.749-1.111-1.088-1.16-0.339 0-0.387-0.218-0.145-0.652 0.192-0.387 0.483-0.508 0.87-0.363 0.581 0.242 0.701 0.967 0.363 2.175z" clip-rule="evenodd" fill="#968F48" fill-rule="evenodd"/>
<path d="m44.594 8.869l0.581-1.16c0.482-0.725 0.966-0.967 1.45-0.725 0.53 0.242 0.677 0.556 0.435 0.942-0.291 0.387-0.653 0.58-1.088 0.58-0.387-0.097-0.629-0.145-0.726-0.145-0.143 0-0.362 0.169-0.652 0.508z" clip-rule="evenodd" fill="#968F48" fill-rule="evenodd"/>
<path d="m17.982 8.578l1.232 0.363c0.822 0.338 1.088 0.773 0.798 1.306-0.436 0.87-1.161 1.256-2.176 1.16l-0.073 4.351h-1.522v-0.725c0.048-0.339-0.048-0.992-0.291-1.958l-0.29-1.378-0.725 0.435c-0.967 0.483-1.837 0.581-2.611 0.291-0.58-0.146-0.966-0.581-1.16-1.306-0.193-0.87 0.121-1.765 0.942-2.683 1.305-1.402 3.118-2.127 5.438-2.175l0.29 0.652-0.145 0.653c-0.142 0.434-0.045 0.773 0.293 1.014z" clip-rule="evenodd" fill="#7A6227" fill-rule="evenodd"/>
<path d="m13.559 7.781c1.209-0.966 2.562-1.474 4.061-1.522 1.401-0.049 2.393 0.29 2.973 1.015 0.484 0.629 0.604 1.305 0.363 2.03-0.242 0.677-0.653 1.136-1.233 1.378-0.387 0.145-0.749 0.218-1.088 0.218h-0.362l0.217 2.61 0.581 2.103-2.031 0.87c-0.145-0.581-0.266-1.354-0.362-2.32l-0.145-2.612c-2.175 1.112-3.36 1.186-3.554 0.218-0.338-0.291-0.556-0.701-0.653-1.232-0.242-0.968 0.169-1.887 1.233-2.756z" clip-rule="evenodd" fill="#DED8A0" fill-rule="evenodd"/>
<path d="m15.879 10.826c-0.097-0.048-0.339 0.024-0.725 0.218-0.339 0.096-0.532 0.024-0.58-0.218-0.097-0.289-0.024-0.531 0.217-0.725 0.242-0.145 0.58-0.192 1.016-0.145 0.58 0.145 0.821 0.677 0.725 1.595-0.049-0.387-0.266-0.628-0.653-0.725z" clip-rule="evenodd" fill="#968F48" fill-rule="evenodd"/>
<path d="m18.272 10.899c-0.145-0.629-0.024-1.137 0.362-1.524 0.291-0.289 0.532-0.435 0.725-0.435s0.267 0.146 0.218 0.435c-0.048 0.194-0.193 0.338-0.435 0.436-0.241 0.097-0.411 0.217-0.508 0.363l-0.362 0.725z" clip-rule="evenodd" fill="#968F48" fill-rule="evenodd"/>
<path d="m14.864 22.283c-0.532-1.208-0.821-2.296-0.87-3.263l0.072-1.16 0.797-3.553 3.408 1.813c1.837 0.967 3.143 1.909 3.916 2.828l-1.305 3.698c-1.016 2.513-1.741 4.036-2.175 4.569l-3.843-4.932z" clip-rule="evenodd" fill="#D66E40" fill-rule="evenodd"/>
<linearGradient id="ab" x1="31.746" x2="39.342" y1="-2.311" y2="-2.311" gradientTransform="matrix(.5632 1.3364 -1.3364 .5632 -8.0502 -24.85)" gradientUnits="userSpaceOnUse">
	<stop stop-color="#FF543D" offset="0"/>
	<stop stop-color="#B31205" offset="1"/>
</linearGradient>
<path d="m14.864 14.307l0.145 1.813c0.193 1.546 0.677 3.191 1.45 4.932 1.112 2.513 2.175 3.988 3.191 4.422l-0.145 0.508c-0.146 0.387-0.411 0.797-0.797 1.233-0.629 0.676-1.063 1.426-1.306 2.247-0.967-0.338-1.982-1.401-3.045-3.19-0.677-1.112-1.209-2.853-1.596-5.22l-0.362-3.263 0.58-1.088c0.291-0.484 0.677-1.015 1.16-1.596l0.725-0.798z" clip-rule="evenodd" fill="url(#ab)" fill-rule="evenodd"/>
<path d="m21.39 18.875c-0.676 0.339-1.546 0.701-2.61 1.088-1.45 0.483-2.321-0.242-2.61-2.175-0.145-0.823-0.121-1.354 0.072-1.596 0.193-0.291 0.653-0.241 1.378 0.146 1.063 0.531 2.319 1.376 3.77 2.537z" clip-rule="evenodd" fill="#AD5630" fill-rule="evenodd"/>
<path d="m22.042 19.165l-2.175 5.947c-0.483-0.387-0.87-0.847-1.16-1.378-0.677-1.208-0.75-2.127-0.218-2.756 0.193-0.338 0.774-0.75 1.741-1.232l1.305-0.581c0.242-0.097 0.411-0.097 0.507 0z" clip-rule="evenodd" fill="#AD5630" fill-rule="evenodd"/>
<path d="m17.837 17.642l0.508 0.435c-0.822 0.146-1.257 0.098-1.306-0.145-0.048-0.194 0.025-0.314 0.218-0.363 0.242-0.095 0.435-0.071 0.58 0.073z" clip-rule="evenodd" fill="#AB782A" fill-rule="evenodd"/>
<path d="m20.013 22.065c-0.097 1.016-0.314 1.354-0.653 1.016-0.048-0.145 0.048-0.363 0.291-0.653l0.362-0.363z" clip-rule="evenodd" fill="#AB782A" fill-rule="evenodd"/>
<path d="m17.547 17.642c0.29 0.146 0.242 0.218-0.145 0.218-0.145 0-0.193-0.072-0.145-0.218 0.048-0.096 0.145-0.096 0.29 0z" clip-rule="evenodd" fill="#E0BB82" fill-rule="evenodd"/>
<use transform="matrix(1.4502 0 0 -1.4502 12.6 15.75)" x="-0.03" y="-2.657" width="1.78" height="2.657" enable-background="new" xlink:href="#ag"/>
<path d="m39.518 11.625l1.813 2.029c0 0.533-0.436 1.088-1.305 1.668-0.823 0.629-1.813 1.232-2.975 1.813l-1.376 0.653-0.798 0.217 4.641-6.38z" clip-rule="evenodd" fill="#BD502F" fill-rule="evenodd"/>
<path d="m34.949 8.506c0.919 0.194 1.74 0.507 2.466 0.943 1.063 0.675 1.716 1.643 1.958 2.9 0.049 0.435-0.121 1.426-0.508 2.973l-1.16 1.088c-0.483 0.387-1.426 0.917-2.827 1.595-0.193-1.208-0.484-2.32-0.871-3.335-0.29-0.677-0.628-1.789-1.015-3.335l-0.508-2.103 0.87-0.797c0.291-0.098 0.823-0.074 1.595 0.071z" clip-rule="evenodd" fill="#EB7855" fill-rule="evenodd"/>
<linearGradient id="ac" x1="36.523" x2="43.411" y1="-.25" y2="-.25" gradientTransform="matrix(1.1371 .9002 -.9002 1.1371 -8.0499 -24.849)" gradientUnits="userSpaceOnUse">
	<stop stop-color="#FF543D" offset="0"/>
	<stop stop-color="#B31205" offset="1"/>
</linearGradient>
<path d="m34.878 6.04l1.232 0.363c1.016 0.483 2.006 1.257 2.973 2.321 0.773 0.821 1.522 2.464 2.248 4.93 0.048 0.291-0.241 0.653-0.87 1.088-0.387 0.291-0.773 0.459-1.16 0.508l-0.436 0.072-0.798-2.103c-0.482-1.16-1.595-2.296-3.335-3.408-0.677-0.386-1.257-0.604-1.74-0.653l-0.508 0.072c-0.049-0.096 0.097-0.483 0.436-1.16 0.579-1.159 1.232-1.837 1.958-2.03z" clip-rule="evenodd" fill="url(#ac)" fill-rule="evenodd"/>
<use transform="matrix(1.4502 0 0 -1.4502 33.55 6.6499)" x="-0.056" y="-2" width="3.306" height="1.988" enable-background="new" xlink:href="#af"/>
<path d="m33.064 10.391c0-0.387 0.29-0.411 0.87-0.072 0.532 0.29 0.87 0.677 1.015 1.16 0.387 1.45 0.484 2.9 0.291 4.351-0.049 0.677-0.193 1.306-0.436 1.885 0-0.966-0.169-1.837-0.507-2.61-0.532-1.016-0.919-2.296-1.161-3.843l-0.072-0.871z" clip-rule="evenodd" fill="#AD5630" fill-rule="evenodd"/>
<path d="m35.385 17.135c-0.145 0.192 0.291-1.112 1.305-3.916 0.194-0.291 0.46-0.218 0.799 0.218 0.289 0.435 0.411 0.941 0.362 1.522-0.049 0.483-0.412 0.917-1.087 1.304l-1.379 0.872z" clip-rule="evenodd" fill="#AD5630" fill-rule="evenodd"/>
<path d="m34.152 13.075c-0.097-0.194-0.169-0.412-0.218-0.653-0.097-0.435-0.072-0.725 0.072-0.871 0.291-0.289 0.436-0.096 0.436 0.581 0 0.194-0.096 0.507-0.29 0.943z" clip-rule="evenodd" fill="#C48A30" fill-rule="evenodd"/>
<path d="m36.327 15.539c0.05-0.289 0.122-0.555 0.218-0.797 0.145-0.483 0.314-0.629 0.507-0.435 0.291 0.29 0.05 0.701-0.725 1.232z" clip-rule="evenodd" fill="#C48A30" fill-rule="evenodd"/>
<path d="m34.007 11.551c0.193-0.338 0.291-0.241 0.291 0.291 0 0.194-0.073 0.387-0.219 0.581l-0.072-0.872z" clip-rule="evenodd" fill="#E0BB82" fill-rule="evenodd"/>
<path d="m36.764 14.451c0.24 0.194 0.144 0.437-0.291 0.725 0-0.144 0.024-0.289 0.072-0.435 0.049-0.29 0.12-0.386 0.219-0.29z" clip-rule="evenodd" fill="#E0BB82" fill-rule="evenodd"/>
<path d="m32.774 28.156l0.436-10.368 0.435 1.014 0.58 2.175c0.29 0.871 0.629 2.466 1.016 4.787 0.241 1.45 0.217 2.392-0.073 2.826l-2.394-0.434z" clip-rule="evenodd" fill="#BD502F" fill-rule="evenodd"/>
<path d="m33.21 17.788l1.015 4.495 0.218 2.176c-0.629 1.692-1.088 2.658-1.378 2.9-0.87 0.821-1.86 0.869-2.974 0.145-0.773-0.483-1.498-1.16-2.175-2.03-0.628-0.772-0.991-1.354-1.088-1.74l-0.217-1.595c0.483-0.338 1.016-0.701 1.595-1.087 1.16-0.823 2.006-1.354 2.538-1.596 0.87-0.388 1.692-0.943 2.466-1.668z" clip-rule="evenodd" fill="#EB7855" fill-rule="evenodd"/>
<linearGradient id="r" x1="26.466" x2="26.934" y1="32.182" y2="38.357" gradientTransform="matrix(1.4502 0 0 1.4502 -8.0502 -24.85)" gradientUnits="userSpaceOnUse">
	<stop stop-color="#FF543D" offset="0"/>
	<stop stop-color="#B31205" offset="1"/>
</linearGradient>
<path d="m26.466 27.432c-0.387-1.016-0.435-2.32-0.145-3.916l0.29-1.377 0.291 0.651c0.386 0.484 0.918 0.943 1.595 1.378 0.967 0.581 1.715 0.943 2.248 1.088 0.677 0.242 1.329 0.218 1.958-0.072 0.87-0.435 1.45-0.677 1.74-0.725l0.29 0.507c0.193 0.484 0.338 1.063 0.435 1.74 0.146 1.063 0.146 1.692 0 1.885-1.885 1.162-3.335 1.645-4.351 1.45-1.257-0.192-2.369-0.7-3.335-1.522l-1.016-1.087z" clip-rule="evenodd" fill="url(#r)" fill-rule="evenodd"/>
<use transform="matrix(1.4502 0 0 -1.4502 26.55 24.05)" x="-0.006" y="-3.595" width="2.712" height="3.597" enable-background="new" xlink:href="#ae"/>
<path d="m31.179 19.383c0.677-0.194 1.281-0.677 1.813-1.45l-0.726 2.031c-0.241 0.483-0.652 1.063-1.232 1.739-0.58 0.677-1.063 1.137-1.45 1.378-0.388 0.241-0.847 0.17-1.378-0.217-0.58-0.387-0.749-0.725-0.507-1.015 0.193-0.194 0.362-0.387 0.507-0.581 0.193-0.192 0.58-0.507 1.16-0.941 0.725-0.485 1.33-0.8 1.813-0.944z" clip-rule="evenodd" fill="#AD5630" fill-rule="evenodd"/>
<path d="m33.064 19.02c0 0.048 0.146 0.773 0.435 2.175 0.242 1.112 0.242 1.909 0 2.394-0.241 0.531-0.604 0.798-1.087 0.798-0.483-0.049-0.701-0.291-0.652-0.726 0.869-3.385 1.304-4.931 1.304-4.641z" clip-rule="evenodd" fill="#AD5630" fill-rule="evenodd"/>
<path d="m29.947 20.905l-0.291 1.16c-0.386 0.387-0.604 0.363-0.653-0.072 0-0.29 0.169-0.555 0.508-0.797l0.436-0.291z" clip-rule="evenodd" fill="#C48A30" fill-rule="evenodd"/>
<path d="m32.774 21.414c0.242 1.256 0.169 1.861-0.218 1.813-0.241-0.05-0.266-0.363-0.072-0.943l0.29-0.87z" clip-rule="evenodd" fill="#C48A30" fill-rule="evenodd"/>
<path d="m29.003 21.993l0.581-0.579-0.218 0.579c-0.289 0.484-0.41 0.484-0.363 0z" clip-rule="evenodd" fill="#E0BB82" fill-rule="evenodd"/>
<path d="m32.557 22.79c-0.097-0.048-0.097-0.216 0-0.507l0.146-0.435c0.145 0.677 0.096 0.992-0.146 0.942z" clip-rule="evenodd" fill="#E0BB82" fill-rule="evenodd"/>
<path d="m51.41 16.989l0.435 1.016c0.29 1.015 0.362 2.321 0.218 3.916l-2.03 7.686c-0.579-0.192-1.741-1.16-3.479-2.9l-2.394-2.61c0.387-1.498 1.281-3.407 2.682-5.729l2.685-4.278 1.883 2.899z" clip-rule="evenodd" fill="#D66E40" fill-rule="evenodd"/>
<linearGradient id="s" x1="43.554" x2="37.175" y1="34.973" y2="29.627" gradientTransform="matrix(1.4502 0 0 1.4502 -8.0502 -24.85)" gradientUnits="userSpaceOnUse">
	<stop stop-color="#FF543D" offset="0"/>
	<stop stop-color="#B31205" offset="1"/>
</linearGradient>
<path d="m51.991 30.84c-0.437-0.629-1.088-1.039-1.959-1.233-0.531-0.096-0.918-0.29-1.16-0.579l-0.29-0.437c0.871-1.208 1.402-3.432 1.596-6.67 0.145-2.272 0.072-4.255-0.218-5.946l-0.507-1.886 0.941 0.218c0.677 0.194 1.21 0.435 1.597 0.725l1.014 0.653 0.652 3.479c0.436 2.612 0.509 4.689 0.219 6.237-0.435 2.563-1.063 4.375-1.885 5.439z" clip-rule="evenodd" fill="url(#s)" fill-rule="evenodd"/>
<path d="m44.812 23.443c0.966-2.224 1.861-3.988 2.683-5.293 0.629-0.919 1.088-1.306 1.378-1.161 0.242 0.098 0.411 0.605 0.507 1.524 0.387 2.078-0.192 3.408-1.739 3.988l-2.829 0.942z" clip-rule="evenodd" fill="#AD5630" fill-rule="evenodd"/>
<path d="m44.304 24.168l0.508-0.362 1.45-0.362c1.016-0.241 1.691-0.291 2.029-0.145 0.678 0.24 0.896 1.208 0.653 2.9-0.097 0.725-0.314 1.45-0.653 2.176l-3.987-4.207z" clip-rule="evenodd" fill="#AD5630" fill-rule="evenodd"/>
<path d="m47.784 19.601c0.097-0.242 0.267-0.413 0.507-0.509 0.242-0.096 0.363-0.048 0.363 0.146 0 0.289-0.411 0.676-1.232 1.16l0.362-0.797z" clip-rule="evenodd" fill="#AB782A" fill-rule="evenodd"/>
<path d="m47.132 25.546l0.508 0.072c0.289 0.097 0.459 0.219 0.508 0.363 0.048 0.29-0.024 0.435-0.219 0.435-0.241 0.05-0.507-0.241-0.797-0.87z" clip-rule="evenodd" fill="#AB782A" fill-rule="evenodd"/>
<path d="m48.075 19.311c0.096-0.194 0.192-0.242 0.29-0.146 0.048 0.098 0.024 0.194-0.074 0.291-0.144 0.146-0.24 0.218-0.288 0.218-0.098 0.047-0.074-0.073 0.072-0.363z" clip-rule="evenodd" fill="#E0BB82" fill-rule="evenodd"/>
<use transform="matrix(1.4502 0 0 -1.4502 49.9 15.5)" y="-1.533" width="2.368" height="1.541" enable-background="new" xlink:href="#ad"/>
<path d="m16.387 28.375c-0.048-0.291 0.121-0.943 0.508-1.959 0.145-0.339 0.435-0.651 0.87-0.942 0.436-0.29 0.701-0.508 0.798-0.652 0.096-0.145 0.265-0.629 0.507-1.45 0.242-0.822 0.459-1.354 0.652-1.595 0.242-0.242 0.508-0.339 0.798-0.291 0.145 0.048 0.387 0.121 0.725 0.217 0.29 0 0.532 0.122 0.726 0.362 0.193 0.242 0.556 0.823 1.087 1.741 0.387 0.773 0.676 1.111 0.87 1.016 0.629-0.29 0.967-0.435 1.016-0.435 0.677 0 1.329 0.314 1.958 0.941 0.58 0.677 0.556 1.161-0.073 1.45-1.788 0.919-2.875 1.45-3.263 1.597-2.078 0.869-3.891 1.304-5.438 1.304-1.499 0-2.224-0.145-2.176-0.435 0.338-0.339 0.483-0.629 0.435-0.869z" clip-rule="evenodd" fill="#7BB342" fill-rule="evenodd"/>
<path d="m37.561 22.139c0.531-0.242 0.894-0.532 1.088-0.871 0.338-0.579 0.579-0.917 0.725-1.015 0.193-0.193 0.483-0.289 0.87-0.289 1.063 0 1.813 0.168 2.247 0.507 0.098 0.048 0.267 0.363 0.509 0.943 0.192 0.435 0.411 0.651 0.653 0.651 0.192 0 0.482-0.168 0.869-0.507 0.387-0.387 0.701-0.581 0.943-0.581 0.482 0 0.99 0.242 1.522 0.725-0.242 0.338-0.484 0.749-0.726 1.233-0.484 0.917-0.797 1.741-0.943 2.465-0.048 0.339 0.072 0.99 0.363 1.958 0.193 0.58-0.049 1.063-0.726 1.45-0.966 0.629-3.311 0.773-7.033 0.435-3.818-0.387-5.729-1.111-5.729-2.176 0-0.966 0.266-1.378 0.798-1.231 0.677 0.24 1.16 0.12 1.45-0.363 0.097-0.193 0.338-0.7 0.725-1.522 0.146-0.338 0.435-0.677 0.871-1.015 0.242-0.146 0.75-0.411 1.524-0.797z" clip-rule="evenodd" fill="#7BB342" fill-rule="evenodd"/>
<path d="m8.918 22.428c-0.193 0-0.291-0.217-0.291-0.651l0.073-1.089 1.016-0.29c0.773-0.194 1.522-0.218 2.248-0.072 1.063 0.241 2.079 0.701 3.045 1.376 1.209 0.871 1.982 1.862 2.321 2.974 0.338 1.111 0.435 1.934 0.29 2.464-0.097 0.339-0.387 0.701-0.87 1.088-0.532 0.387-1.644 0.362-3.336-0.072l-0.652 1.813c-1.063 0.097-1.789-0.362-2.175-1.378-0.291-0.675-0.653-1.909-1.088-3.697l-0.581-2.466z" clip-rule="evenodd" fill="#7A6227" fill-rule="evenodd"/>
<path d="m8.266 25.111c-1.064-1.645-1.112-2.948-0.146-3.916 1.016-1.111 2.9-0.773 5.656 1.016 1.257 0.87 2.104 2.006 2.538 3.407 0.387 1.402 0.049 2.079-1.015 2.031-0.918-0.048-1.765-0.146-2.538-0.29l-0.87-0.219-0.291 0.363c-0.193 0.338-0.29 0.652-0.29 0.942 0.048 0.436-0.073 0.87-0.362 1.307-0.871-0.194-1.499-0.509-1.886-0.943l-0.58-0.581 0.362-2.247-0.578-0.87z" clip-rule="evenodd" fill="#DED8A0" fill-rule="evenodd"/>
<path d="m10.875 26.853c0-0.146-0.29-0.363-0.87-0.653-0.677-0.29-1.063-0.581-1.161-0.871-0.096-0.482-0.024-0.846 0.218-1.088 0.29-0.289 0.628-0.265 1.015 0.074 0.581 0.531 0.847 1.375 0.798 2.538z" clip-rule="evenodd" fill="#968F48" fill-rule="evenodd"/>
<path d="m11.891 27.141c0.342-0.34 0.729-0.63 1.16-0.869 0.822-0.483 1.402-0.507 1.741-0.072 0.291 0.339 0 0.531-0.87 0.579-1.101-1e-3 -1.777 0.121-2.031 0.362z" clip-rule="evenodd" fill="#968F48" fill-rule="evenodd"/>
<path d="m45.827 23.733c-3.385 3.287-5.149 4.932-5.294 4.932-2.658 0-4.206-0.412-4.641-1.233-0.339-0.579-0.363-1.329-0.072-2.248 0.242-0.869 0.652-1.498 1.231-1.885 1.258-0.822 2.78-1.209 4.569-1.16 1.933 0.096 3.215 0.411 3.844 0.942 0.24 0.193 0.362 0.338 0.362 0.435 1e-3 0.048 1e-3 0.121 1e-3 0.217z" clip-rule="evenodd" fill="#7A6227" fill-rule="evenodd"/>
<path d="m37.052 27.287c-0.145-0.435-0.192-0.943-0.145-1.522 0.097-1.112 0.629-1.935 1.595-2.466 1.112-0.629 2.563-0.919 4.352-0.871 1.74 0.098 2.828 0.46 3.263 1.088 0.484 0.677 0.652 1.354 0.509 2.03-0.097 0.773-0.509 1.307-1.234 1.595l-2.392 0.509-0.146 1.595-2.465 0.218-0.073-1.378c-1.982 0.048-3.07-0.219-3.264-0.798z" clip-rule="evenodd" fill="#DED8A0" fill-rule="evenodd"/>
<path d="m41.911 28.229c-0.338 0.146-1.016 0.122-2.03-0.072-0.773-0.096-1.016-0.459-0.726-1.088 0.242-0.629 0.653-0.894 1.233-0.797 0.676 0.096 1.185 0.749 1.523 1.957z" clip-rule="evenodd" fill="#968F48" fill-rule="evenodd"/>
<path d="m42.999 28.084c-0.194 0.194-0.072-0.168 0.362-1.088 0.339-0.821 0.726-1.256 1.16-1.306 0.482-0.048 0.653 0.146 0.507 0.581-0.096 0.387-0.289 0.677-0.579 0.869-0.871 0.485-1.353 0.799-1.45 0.944z" clip-rule="evenodd" fill="#968F48" fill-rule="evenodd"/>
			<linearGradient id="t" x1="4.25" x2="49.25" y1="40.475" y2="40.475" gradientTransform="matrix(1.4502 0 0 1.4502 -8.0502 -24.85)" gradientUnits="userSpaceOnUse">
			<stop stop-color="#fff" offset="0"/>
			<stop stop-color="#A9CAD1" offset="1"/>
		</linearGradient>
		<path d="m56.631 23.589h0.798c-0.967 5.85-3.964 10.731-8.991 14.647-5.124 3.915-11.095 5.873-17.911 5.873s-12.762-1.958-17.838-5.873c-5.076-3.916-8.073-8.798-8.991-14.647h0.797c2.127 2.078 5.511 3.746 10.152 5.002 4.786 1.307 10.104 1.959 15.952 1.959 5.802 0 11.095-0.652 15.88-1.959 4.689-1.256 8.074-2.924 10.152-5.002z" clip-rule="evenodd" fill="url(#t)" fill-rule="evenodd"/>
		<path d="m56.123 22.574h1.16l0.072 0.725c0 2.175-2.61 4.036-7.83 5.583-5.271 1.546-11.603 2.321-18.999 2.321-7.444 0-13.777-0.775-18.998-2.321-5.269-1.547-7.904-3.408-7.904-5.583l0.145-0.725h1.45l-0.072 0.216c0 1.741 2.49 3.239 7.469 4.497 5.028 1.256 11.046 1.885 18.056 1.885 7.009 0 13.004-0.629 17.982-1.885 4.979-1.258 7.469-2.756 7.469-4.497v-0.216z" clip-rule="evenodd" fill="#fff" fill-rule="evenodd"/>
<path d="m4.64 24.677c1.016-0.339 2.104-0.17 3.263 0.507 0.58 0.339 1.063 0.701 1.45 1.088-0.145 0-0.338 0.024-0.58 0.072-0.58 0.146-1.208 0.484-1.886 1.016-1.111 0.821-1.474 1.813-1.087 2.973l-0.87-1.957c-0.29-1.308-0.387-2.539-0.29-3.699z" clip-rule="evenodd" fill="#7C9FA3" fill-rule="evenodd"/>
<path d="m15.444 33.016c0.193-1.161 0.459-2.007 0.797-2.538 0.725-0.871 3.142-1.548 7.251-2.031 2.9-0.386 5.39-0.58 7.469-0.58 1.45 0 4.085 0.29 7.903 0.871-0.531 0-1.232 0.507-2.102 1.522-0.291 0.387-0.992 0.991-2.104 1.813-0.483 0.387-0.968 0.507-1.45 0.362-0.822-0.242-1.257-0.362-1.306-0.362-0.532 0-0.87 0.12-1.015 0.362-0.146 0.242-0.411 0.992-0.799 2.248-0.289 0.967-0.676 1.426-1.16 1.378l-1.015-0.145c-0.096 0.145-0.387 0.048-0.87-0.29-0.629-0.435-1.137-0.629-1.523-0.581-0.918 0.146-1.765-0.024-2.538-0.507-0.58-0.29-1.329-0.362-2.248-0.218-0.967 0.193-1.861 0.557-2.683 1.087-0.822 0.629-1.402 0.943-1.741 0.943-0.338 0-0.652-0.338-0.942-1.016-0.142-0.385-0.117-1.158 0.076-2.318z" clip-rule="evenodd" fill="#7C9FA3" fill-rule="evenodd"/>
<path d="m51.917 28.375c1.354-0.242 2.732-0.411 4.134-0.509l-1.522 2.611c-0.994 1.702-2.105 3.201-3.336 4.495 0.24-0.265 0.554-0.701 0.942-1.306 0.291-0.435 0.459-1.014 0.508-1.739 0.049-0.677-0.049-1.088-0.289-1.233-1.016-0.048-1.669-0.192-1.959-0.435-0.677-0.677-1.28-1.232-1.813-1.669-0.339-0.24-1.063-0.435-2.176-0.579l-1.595-0.218 2.683-0.435c0.677 0 1.45 0.193 2.321 0.58 0.774 0.388 1.475 0.533 2.102 0.437z" clip-rule="evenodd" fill="#7C9FA3" fill-rule="evenodd"/>
<path d="m21.245 32.942c-1.789 0.242-3.312 0.798-4.568 1.668-1.16 0.773-2.296 0.677-3.408-0.29-0.532-0.436-1.185-1.28-1.958-2.538-0.291-0.435-0.145-0.726 0.435-0.87 0.968-0.242 1.572-0.459 1.813-0.652 0.436-0.339 1.136-1.088 2.103-2.248 0.339-0.387 0.918-0.677 1.74-0.871 0.387-0.096 0.87-0.217 1.45-0.362 0.338-0.097 1.523-0.048 3.553 0.146 0.58 0 1.088-0.096 1.522-0.29 0.291-0.145 0.75-0.41 1.378-0.797 0.58-0.291 3.094-0.122 7.542 0.507 2.996 0.435 5.244 1.258 6.742 2.466-0.869 0-1.57 0.096-2.102 0.29-0.098 0.048-0.532 0.411-1.306 1.088-0.677 0.579-1.378 0.894-2.104 0.941-0.725 0.05-1.28 0.291-1.667 0.726-0.242 0.242-0.58 0.701-1.015 1.378-0.339 0.435-0.701 0.701-1.088 0.797-0.532 0-1.016 0.024-1.451 0.074-0.483 0.096-1.015 0-1.595-0.291-0.58-0.29-0.991-0.41-1.233-0.362-0.435 0.145-0.725 0.192-0.87 0.145-0.096-0.048-0.387-0.217-0.87-0.507s-1.496-0.341-3.043-0.148z" clip-rule="evenodd" fill="#8ABD4D" fill-rule="evenodd"/>
<path d="m52.716 25.474c0.435-0.532 0.941-0.821 1.522-0.87 0.29 0 0.701 0.023 1.232 0.073 0.484-0.05 1.016 0 1.596 0.145 0.387 0 1.305-0.507 2.755-1.522 0.484-0.339 0.847-0.435 1.088-0.29 0.29 0.096 0.387 0.362 0.29 0.797 0 0.29-0.242 0.509-0.726 0.653-0.58 0.145-1.015 0.482-1.306 1.015-0.289 0.531-0.651 1.499-1.087 2.901-0.339 1.159-0.604 1.813-0.798 1.957-0.192 0.193-0.531 0.121-1.016-0.217-0.627-0.484-1.136-0.871-1.522-1.161-0.435-0.387-1.039-0.411-1.813-0.072-0.773 0.435-1.305 0.701-1.595 0.797-0.339 0.146-0.701 0.098-1.088-0.145-0.194-0.096-0.677-0.459-1.45-1.088-0.435-0.338-1.281-0.507-2.538-0.507l-1.74 0.145c0.29-0.096 0.991-0.314 2.104-0.652 0.772-0.291 1.378-0.459 1.813-0.508 1.402-0.193 2.127-0.29 2.175-0.29 0.918-0.243 1.619-0.63 2.104-1.161z" clip-rule="evenodd" fill="#8ABD4D" fill-rule="evenodd"/>
<path d="m9.861 26.344c-0.436 0.096-0.773 0.072-1.016-0.072-0.193-0.194-0.677-0.169-1.45 0.072-0.821 0.194-1.353 0.532-1.595 1.016-0.29 0.531-0.435 1.668-0.435 3.407 0 0.29-0.169 0.314-0.507 0.073-0.58-0.436-0.967-0.7-1.16-0.799-0.967-0.482-1.62-1.498-1.958-3.045-0.193-0.919-0.701-1.716-1.522-2.393-0.29-0.289-0.29-1.064 0-2.32 0.096-0.387 0.338-0.749 0.725-1.088 0.435-0.386 0.967-0.581 1.595-0.581h2.249c0.532 0 0.918 0.074 1.16 0.218 0.242 0.145 0.725 0.531 1.45 1.16 0.965 0.872 1.787 2.322 2.464 4.352z" clip-rule="evenodd" fill="#8ABD4D" fill-rule="evenodd"/>
<path d="m7.033 23.733c0.223-0.044 0.429-0.044 0.617 0l-0.544-0.145c-0.291-0.098-0.943-0.146-1.958-0.146-0.483 0-0.773 0.895-0.87 2.684-0.097 1.208-0.097 2.296 0 3.263-0.338-0.919-0.508-1.837-0.508-2.756l0.436-3.045c-0.097 0-0.242 0.048-0.436 0.145-0.338 0.145-0.628 0.387-0.87 0.726l-1.088 1.595c0.193-0.87 0.436-1.571 0.725-2.103 0.193-0.338 0.459-0.629 0.798-0.87l0.435-0.291c-0.435-0.338-0.967-0.507-1.595-0.507l-1.377 0.145 0.725-0.363c0.58-0.192 1.087-0.241 1.522-0.144 0.725 0.144 1.112 0.266 1.161 0.362l0.58-0.362h-0.219l-1.015-0.797 0.435 0.216c0.291 0.098 0.581 0.146 0.871 0.146 0.435 0 0.798 0.291 1.087 0.87h0.58c0.677 0 1.402 0.435 2.175 1.306 0.532 0.531 0.774 1.063 0.725 1.595l-0.29-0.435-0.58-0.362h-0.724c-0.483 0-1.087 0.218-1.813 0.652-0.435 0.29-0.725 0.749-0.87 1.378-0.097 0.339-0.145 0.628-0.145 0.87-0.048-1.016 0.193-1.909 0.725-2.683 0.386-0.532 0.822-0.847 1.305-0.944z" clip-rule="evenodd" fill="#719B3F" fill-rule="evenodd"/>
<path d="m17.402 29.462c-1.208 1.402-2.151 2.104-2.828 2.104h-0.871c1.16-0.339 1.958-0.943 2.393-1.813 0.532-1.064 1.837-1.597 3.916-1.597 0.483 0 1.402 0.122 2.755 0.362 1.064 0.194 1.692 0.219 1.885 0.072 1.161-0.772 1.765-1.159 1.813-1.159 0.193 0 0.483-0.169 0.87-0.508l-3.408 0.363c0.145-0.146 0.338-0.291 0.581-0.435 0.435-0.291 0.918-0.437 1.45-0.437 1.257 0 2.079-0.12 2.465-0.362 0.193-0.145 0.556-0.241 1.087-0.289h0.725l2.104 0.507c-0.242 0.048-0.508 0.097-0.799 0.145-0.628 0.098-1.038 0.218-1.231 0.362-0.146 0.098 0.169 0.29 0.942 0.581 0.87 0.29 1.377 0.557 1.522 0.797 0.29 0.435 0.483 1.185 0.58 2.248-0.241-0.531-0.58-0.99-1.015-1.377-0.339-0.339-0.919-0.652-1.741-0.943-0.387-0.096-0.821-0.314-1.305-0.652l-0.653-0.508-2.248 1.886 1.813 0.943c0.435 0.338 0.846 0.869 1.233 1.595 0.29 0.435 0.604 0.7 0.943 0.797-0.58 0-1.136-0.267-1.668-0.797-0.967-1.064-1.789-1.595-2.466-1.595h-0.942l-0.508 0.216c-0.387 0.242-0.725 0.509-1.015 0.798-0.436 0.532-0.967 0.847-1.595 0.943 0.435-0.629 0.845-1.112 1.233-1.45l0.87-0.653c-1.015-0.096-1.934-0.145-2.755-0.145-0.871-0.193-1.571-0.338-2.103-0.435-0.917-0.144-1.594 1e-3 -2.029 0.436z" clip-rule="evenodd" fill="#719B3F" fill-rule="evenodd"/>
<path d="m51.628 27.359c-0.05-0.097-0.314-0.219-0.799-0.363l-0.725-0.218 1.161-0.362h0.869c0.387 0 1.209-0.192 2.466-0.579l2.9-0.072c0.374-0.027 0.798-0.185 1.27-0.472-0.54 0.547-0.891 0.922-1.053 1.123-0.192 0.29-0.459 0.437-0.797 0.437l-0.435-0.146 0.145 0.581 0.508 1.378c-0.387-0.242-0.701-0.604-0.943-1.088-0.29-0.629-0.894-0.943-1.813-0.943-0.339 0-0.701 0.145-1.088 0.435l-0.435 0.363 0.725 0.146c0.483 0.048 0.87 0.241 1.16 0.579l-0.362-0.145c-0.145-0.096-0.411-0.121-0.798-0.072-0.725 0.049-1.136 0.072-1.231 0.072-0.339 0-0.557-0.096-0.653-0.29l-0.072-0.364z" clip-rule="evenodd" fill="#719B3F" fill-rule="evenodd"/>
</svg>
