<?xml version="1.0" encoding="UTF-8"?>
<svg version="1.0" viewBox="0 0 623.94 279.27" xmlns="http://www.w3.org/2000/svg" xmlns:xlink="http://www.w3.org/1999/xlink">
 <defs>
  <radialGradient id="ew" cx="404.6" cy="325.05" r="62.371" gradientTransform="matrix(1 0 0 .90121 0 32.113)" gradientUnits="userSpaceOnUse">
   <stop stop-color="#a5a6a4" offset="0"/>
   <stop stop-color="#a5a6a4" stop-opacity="0" offset="1"/>
  </radialGradient>
  <linearGradient id="dq">
   <stop stop-color="#a5a6a3" offset="0"/>
   <stop stop-color="#efefef" offset="1"/>
  </linearGradient>
  <filter id="dp" color-interpolation-filters="sRGB">
   <feGaussianBlur stdDeviation="0.76757793"/>
  </filter>
  <linearGradient id="er" x1="285.04" x2="464.18" y1="346.33" y2="346.33" gradientTransform="matrix(.9905 -.1375 .1375 .9905 -10.256 -4.8942)" gradientUnits="userSpaceOnUse">
   <stop stop-color="#c68708" offset=".022"/>
   <stop stop-color="#e1c621" offset=".8352"/>
  </linearGradient>
  <linearGradient id="eq" x1="314.34" x2="436.17" y1="279.47" y2="369.4" gradientTransform="matrix(.9905 -.1375 .1375 .9905 -10.256 -4.8942)" gradientUnits="userSpaceOnUse">
   <stop stop-color="#e1c621" offset="0"/>
   <stop stop-color="#fff37c" offset="1"/>
  </linearGradient>
  <radialGradient id="ep" cx="417.86" cy="378.47" r="55.942" gradientTransform="matrix(.9905 -.1375 .1375 .9905 -10.256 -4.8942)" gradientUnits="userSpaceOnUse">
   <stop stop-color="#908d7b" offset=".2143"/>
   <stop stop-color="#d8d6ce" offset="1"/>
  </radialGradient>
  <radialGradient id="eo" cx="297.38" cy="383.93" r="59.114" gradientTransform="matrix(.9905 -.1375 .1375 .9905 -10.256 -4.8942)" gradientUnits="userSpaceOnUse">
   <stop stop-color="#fff" offset=".0165"/>
   <stop stop-color="#d8d6ce" offset=".8187"/>
  </radialGradient>
  <radialGradient id="fw" cx="112.76" cy="272.12" r="15.377" gradientUnits="userSpaceOnUse" xlink:href="#dn"/>
  <radialGradient id="en" cx="92.416" cy="285.14" r="15.378" gradientUnits="userSpaceOnUse">
   <stop stop-color="#d28a6e" offset=".022"/>
   <stop stop-color="#c67457" offset=".1282"/>
   <stop stop-color="#b35037" offset=".3399"/>
   <stop stop-color="#a63826" offset=".5321"/>
   <stop stop-color="#9f291e" offset=".6962"/>
   <stop stop-color="#9d231b" offset=".8132"/>
   <stop stop-color="#e5352d" offset="1"/>
  </radialGradient>
  <radialGradient id="dz" cx="72.88" cy="283.51" r="15.377" gradientUnits="userSpaceOnUse">
   <stop stop-color="#d28a6e" offset=".022"/>
   <stop stop-color="#c67457" offset=".1282"/>
   <stop stop-color="#b35037" offset=".3399"/>
   <stop stop-color="#a63826" offset=".5321"/>
   <stop stop-color="#9f291e" offset=".6962"/>
   <stop stop-color="#9d231b" offset=".8132"/>
   <stop stop-color="#e5352d" offset="1"/>
  </radialGradient>
  <radialGradient id="dy" cx="59.859" cy="292.46" r="15.377" gradientUnits="userSpaceOnUse">
   <stop stop-color="#d28a6e" offset=".022"/>
   <stop stop-color="#c67457" offset=".1282"/>
   <stop stop-color="#b35037" offset=".3399"/>
   <stop stop-color="#a63826" offset=".5321"/>
   <stop stop-color="#9f291e" offset=".6962"/>
   <stop stop-color="#9d231b" offset=".8132"/>
   <stop stop-color="#e5352d" offset="1"/>
  </radialGradient>
  <radialGradient id="dx" cx="40.324" cy="283.51" r="15.377" gradientUnits="userSpaceOnUse">
   <stop stop-color="#d28a6e" offset=".022"/>
   <stop stop-color="#c67457" offset=".1282"/>
   <stop stop-color="#b35037" offset=".3399"/>
   <stop stop-color="#a63826" offset=".5321"/>
   <stop stop-color="#9f291e" offset=".6962"/>
   <stop stop-color="#9d231b" offset=".8132"/>
   <stop stop-color="#e5352d" offset="1"/>
  </radialGradient>
  <radialGradient id="fv" cx="93.229" cy="276.19" r="15.378" gradientUnits="userSpaceOnUse" xlink:href="#dm"/>
  <radialGradient id="fu" cx="73.694" cy="274.56" r="15.381" gradientUnits="userSpaceOnUse" xlink:href="#dl"/>
  <radialGradient id="ft" cx="60.673" cy="270.49" r="15.378" gradientUnits="userSpaceOnUse" xlink:href="#dk"/>
  <radialGradient id="fs" cx="41.138" cy="274.56" r="15.381" gradientUnits="userSpaceOnUse" xlink:href="#dj"/>
  <radialGradient id="fr" cx="13.889" cy="267.68" r="15.38" gradientUnits="userSpaceOnUse" xlink:href="#di"/>
  <radialGradient id="fq" cx="21.606" cy="272.93" r="15.377" gradientUnits="userSpaceOnUse" xlink:href="#dh"/>
  <radialGradient id="fp" cx="139.62" cy="264.79" r="15.377" gradientUnits="userSpaceOnUse" xlink:href="#dg"/>
  <radialGradient id="dw" cx="120.09" cy="268.86" r="15.378" gradientUnits="userSpaceOnUse">
   <stop stop-color="#d28a6e" offset=".022"/>
   <stop stop-color="#c67457" offset=".1282"/>
   <stop stop-color="#b35037" offset=".3399"/>
   <stop stop-color="#a63826" offset=".5321"/>
   <stop stop-color="#9f291e" offset=".6962"/>
   <stop stop-color="#9d231b" offset=".8132"/>
   <stop stop-color="#e5352d" offset="1"/>
  </radialGradient>
  <radialGradient id="fo" cx="100.55" cy="267.23" r="15.379" gradientUnits="userSpaceOnUse" xlink:href="#df"/>
  <radialGradient id="dv" cx="87.53" cy="263.16" r="15.377" gradientUnits="userSpaceOnUse">
   <stop stop-color="#d28a6e" offset=".022"/>
   <stop stop-color="#c67457" offset=".1282"/>
   <stop stop-color="#b35037" offset=".3399"/>
   <stop stop-color="#a63826" offset=".5321"/>
   <stop stop-color="#9f291e" offset=".6962"/>
   <stop stop-color="#9d231b" offset=".8132"/>
   <stop stop-color="#e5352d" offset="1"/>
  </radialGradient>
  <radialGradient id="fn" cx="67.998" cy="267.23" r="15.379" gradientUnits="userSpaceOnUse" xlink:href="#dd"/>
  <radialGradient id="fm" cx="48.463" cy="265.61" r="15.381" gradientUnits="userSpaceOnUse" xlink:href="#dc"/>
  <radialGradient id="du" cx="121.71" cy="250.95" r="15.377" gradientUnits="userSpaceOnUse">
   <stop stop-color="#d28a6e" offset=".022"/>
   <stop stop-color="#c67457" offset=".1282"/>
   <stop stop-color="#b35037" offset=".3399"/>
   <stop stop-color="#a63826" offset=".5321"/>
   <stop stop-color="#9f291e" offset=".6962"/>
   <stop stop-color="#9d231b" offset=".8132"/>
   <stop stop-color="#e5352d" offset="1"/>
  </radialGradient>
  <radialGradient id="fl" cx="102.18" cy="255.02" r="15.381" gradientUnits="userSpaceOnUse" xlink:href="#db"/>
  <radialGradient id="fk" cx="82.648" cy="253.4" r="15.38" gradientUnits="userSpaceOnUse" xlink:href="#da"/>
  <radialGradient id="fj" cx="69.626" cy="249.32" r="15.379" gradientUnits="userSpaceOnUse" xlink:href="#em"/>
  <radialGradient id="fi" cx="50.091" cy="253.4" r="15.38" gradientUnits="userSpaceOnUse" xlink:href="#el"/>
  <radialGradient id="fh" cx="30.556" cy="251.77" r="15.381" gradientUnits="userSpaceOnUse" xlink:href="#ek"/>
  <radialGradient id="dt" cx="143.69" cy="237.93" r="15.378" gradientUnits="userSpaceOnUse">
   <stop stop-color="#d28a6e" offset=".022"/>
   <stop stop-color="#c67457" offset=".1282"/>
   <stop stop-color="#b35037" offset=".3399"/>
   <stop stop-color="#a63826" offset=".5321"/>
   <stop stop-color="#9f291e" offset=".6962"/>
   <stop stop-color="#9d231b" offset=".8132"/>
   <stop stop-color="#e5352d" offset="1"/>
  </radialGradient>
  <radialGradient id="fg" cx="126.6" cy="233.05" r="15.38" gradientUnits="userSpaceOnUse" xlink:href="#ej"/>
  <radialGradient id="ff" cx="124.16" cy="242" r="15.379" gradientUnits="userSpaceOnUse" xlink:href="#ei"/>
  <radialGradient id="fe" cx="104.62" cy="240.37" r="15.378" gradientUnits="userSpaceOnUse" xlink:href="#eh"/>
  <radialGradient id="ds" cx="91.601" cy="236.3" r="15.379" gradientUnits="userSpaceOnUse">
   <stop stop-color="#d28a6e" offset=".022"/>
   <stop stop-color="#c67457" offset=".1282"/>
   <stop stop-color="#b35037" offset=".3399"/>
   <stop stop-color="#a63826" offset=".5321"/>
   <stop stop-color="#9f291e" offset=".6962"/>
   <stop stop-color="#9d231b" offset=".8132"/>
   <stop stop-color="#e5352d" offset="1"/>
  </radialGradient>
  <radialGradient id="fd" cx="72.066" cy="240.37" r="15.378" gradientUnits="userSpaceOnUse" xlink:href="#eg"/>
  <radialGradient id="fc" cx="52.534" cy="238.75" r="15.379" gradientUnits="userSpaceOnUse" xlink:href="#ef"/>
  <radialGradient id="fb" cx="107.88" cy="224.1" r="15.381" gradientUnits="userSpaceOnUse" xlink:href="#ee"/>
  <radialGradient id="fa" cx="88.343" cy="228.16" r="15.381" gradientUnits="userSpaceOnUse" xlink:href="#ed"/>
  <radialGradient id="ez" cx="68.812" cy="226.54" r="15.378" gradientUnits="userSpaceOnUse" xlink:href="#ec"/>
  <radialGradient id="dr" cx="83.461" cy="218.4" r="15.377" gradientUnits="userSpaceOnUse">
   <stop stop-color="#d28a6e" offset=".022"/>
   <stop stop-color="#c67457" offset=".1282"/>
   <stop stop-color="#b35037" offset=".3399"/>
   <stop stop-color="#a63826" offset=".5321"/>
   <stop stop-color="#9f291e" offset=".6962"/>
   <stop stop-color="#9d231b" offset=".8132"/>
   <stop stop-color="#e5352d" offset="1"/>
  </radialGradient>
  <radialGradient id="ey" cx="177.05" cy="221.69" r="64.244" gradientUnits="userSpaceOnUse" xlink:href="#eb"/>
  <radialGradient id="ex" cx="126.6" cy="241.5" r="60.32" gradientTransform="matrix(.9874 -.1579 .1579 .9874 -7.5726 -2.8441)" gradientUnits="userSpaceOnUse" xlink:href="#ea"/>
  <radialGradient id="ea" cx="126.6" cy="241.5" r="60.32" gradientTransform="matrix(.9874 -.1579 .1579 .9874 -7.5726 -2.8441)" gradientUnits="userSpaceOnUse">
   <stop stop-color="#fffbd5" offset="0"/>
   <stop stop-color="#f0f1ba" offset=".2654"/>
   <stop stop-color="#e0e7a0" offset=".5627"/>
   <stop stop-color="#d6e18f" offset=".8181"/>
   <stop stop-color="#d2de88" offset="1"/>
  </radialGradient>
  <radialGradient id="eb" cx="177.05" cy="221.69" r="64.244" gradientUnits="userSpaceOnUse">
   <stop stop-color="#fffbd5" offset="0"/>
   <stop stop-color="#f0f1ba" offset=".2654"/>
   <stop stop-color="#e0e7a0" offset=".5627"/>
   <stop stop-color="#d6e18f" offset=".8181"/>
   <stop stop-color="#d2de88" offset="1"/>
  </radialGradient>
  <radialGradient id="ec" cx="68.812" cy="226.54" r="15.378" gradientUnits="userSpaceOnUse">
   <stop stop-color="#d28a6e" offset=".022"/>
   <stop stop-color="#c67457" offset=".1282"/>
   <stop stop-color="#b35037" offset=".3399"/>
   <stop stop-color="#a63826" offset=".5321"/>
   <stop stop-color="#9f291e" offset=".6962"/>
   <stop stop-color="#9d231b" offset=".8132"/>
   <stop stop-color="#e5352d" offset="1"/>
  </radialGradient>
  <radialGradient id="ed" cx="88.343" cy="228.16" r="15.381" gradientUnits="userSpaceOnUse">
   <stop stop-color="#d28a6e" offset=".022"/>
   <stop stop-color="#c67457" offset=".1282"/>
   <stop stop-color="#b35037" offset=".3399"/>
   <stop stop-color="#a63826" offset=".5321"/>
   <stop stop-color="#9f291e" offset=".6962"/>
   <stop stop-color="#9d231b" offset=".8132"/>
   <stop stop-color="#e5352d" offset="1"/>
  </radialGradient>
  <radialGradient id="ee" cx="107.88" cy="224.1" r="15.381" gradientUnits="userSpaceOnUse">
   <stop stop-color="#d28a6e" offset=".022"/>
   <stop stop-color="#c67457" offset=".1282"/>
   <stop stop-color="#b35037" offset=".3399"/>
   <stop stop-color="#a63826" offset=".5321"/>
   <stop stop-color="#9f291e" offset=".6962"/>
   <stop stop-color="#9d231b" offset=".8132"/>
   <stop stop-color="#e5352d" offset="1"/>
  </radialGradient>
  <radialGradient id="ef" cx="52.534" cy="238.75" r="15.379" gradientUnits="userSpaceOnUse">
   <stop stop-color="#d28a6e" offset=".022"/>
   <stop stop-color="#c67457" offset=".1282"/>
   <stop stop-color="#b35037" offset=".3399"/>
   <stop stop-color="#a63826" offset=".5321"/>
   <stop stop-color="#9f291e" offset=".6962"/>
   <stop stop-color="#9d231b" offset=".8132"/>
   <stop stop-color="#e5352d" offset="1"/>
  </radialGradient>
  <radialGradient id="eg" cx="72.066" cy="240.37" r="15.378" gradientUnits="userSpaceOnUse">
   <stop stop-color="#d28a6e" offset=".022"/>
   <stop stop-color="#c67457" offset=".1282"/>
   <stop stop-color="#b35037" offset=".3399"/>
   <stop stop-color="#a63826" offset=".5321"/>
   <stop stop-color="#9f291e" offset=".6962"/>
   <stop stop-color="#9d231b" offset=".8132"/>
   <stop stop-color="#e5352d" offset="1"/>
  </radialGradient>
  <radialGradient id="eh" cx="104.62" cy="240.37" r="15.378" gradientUnits="userSpaceOnUse">
   <stop stop-color="#d28a6e" offset=".022"/>
   <stop stop-color="#c67457" offset=".1282"/>
   <stop stop-color="#b35037" offset=".3399"/>
   <stop stop-color="#a63826" offset=".5321"/>
   <stop stop-color="#9f291e" offset=".6962"/>
   <stop stop-color="#9d231b" offset=".8132"/>
   <stop stop-color="#e5352d" offset="1"/>
  </radialGradient>
  <radialGradient id="ei" cx="124.16" cy="242" r="15.379" gradientUnits="userSpaceOnUse">
   <stop stop-color="#d28a6e" offset=".022"/>
   <stop stop-color="#c67457" offset=".1282"/>
   <stop stop-color="#b35037" offset=".3399"/>
   <stop stop-color="#a63826" offset=".5321"/>
   <stop stop-color="#9f291e" offset=".6962"/>
   <stop stop-color="#9d231b" offset=".8132"/>
   <stop stop-color="#e5352d" offset="1"/>
  </radialGradient>
  <radialGradient id="ej" cx="126.6" cy="233.05" r="15.38" gradientUnits="userSpaceOnUse">
   <stop stop-color="#d28a6e" offset=".022"/>
   <stop stop-color="#c67457" offset=".1282"/>
   <stop stop-color="#b35037" offset=".3399"/>
   <stop stop-color="#a63826" offset=".5321"/>
   <stop stop-color="#9f291e" offset=".6962"/>
   <stop stop-color="#9d231b" offset=".8132"/>
   <stop stop-color="#e5352d" offset="1"/>
  </radialGradient>
  <radialGradient id="ek" cx="30.556" cy="251.77" r="15.381" gradientUnits="userSpaceOnUse">
   <stop stop-color="#d28a6e" offset=".022"/>
   <stop stop-color="#c67457" offset=".1282"/>
   <stop stop-color="#b35037" offset=".3399"/>
   <stop stop-color="#a63826" offset=".5321"/>
   <stop stop-color="#9f291e" offset=".6962"/>
   <stop stop-color="#9d231b" offset=".8132"/>
   <stop stop-color="#e5352d" offset="1"/>
  </radialGradient>
  <radialGradient id="el" cx="50.091" cy="253.4" r="15.38" gradientUnits="userSpaceOnUse">
   <stop stop-color="#d28a6e" offset=".022"/>
   <stop stop-color="#c67457" offset=".1282"/>
   <stop stop-color="#b35037" offset=".3399"/>
   <stop stop-color="#a63826" offset=".5321"/>
   <stop stop-color="#9f291e" offset=".6962"/>
   <stop stop-color="#9d231b" offset=".8132"/>
   <stop stop-color="#e5352d" offset="1"/>
  </radialGradient>
  <radialGradient id="em" cx="69.626" cy="249.32" r="15.379" gradientUnits="userSpaceOnUse">
   <stop stop-color="#d28a6e" offset=".022"/>
   <stop stop-color="#c67457" offset=".1282"/>
   <stop stop-color="#b35037" offset=".3399"/>
   <stop stop-color="#a63826" offset=".5321"/>
   <stop stop-color="#9f291e" offset=".6962"/>
   <stop stop-color="#9d231b" offset=".8132"/>
   <stop stop-color="#e5352d" offset="1"/>
  </radialGradient>
  <radialGradient id="da" cx="82.648" cy="253.4" r="15.38" gradientUnits="userSpaceOnUse">
   <stop stop-color="#d28a6e" offset=".022"/>
   <stop stop-color="#c67457" offset=".1282"/>
   <stop stop-color="#b35037" offset=".3399"/>
   <stop stop-color="#a63826" offset=".5321"/>
   <stop stop-color="#9f291e" offset=".6962"/>
   <stop stop-color="#9d231b" offset=".8132"/>
   <stop stop-color="#e5352d" offset="1"/>
  </radialGradient>
  <radialGradient id="db" cx="102.18" cy="255.02" r="15.381" gradientUnits="userSpaceOnUse">
   <stop stop-color="#d28a6e" offset=".022"/>
   <stop stop-color="#c67457" offset=".1282"/>
   <stop stop-color="#b35037" offset=".3399"/>
   <stop stop-color="#a63826" offset=".5321"/>
   <stop stop-color="#9f291e" offset=".6962"/>
   <stop stop-color="#9d231b" offset=".8132"/>
   <stop stop-color="#e5352d" offset="1"/>
  </radialGradient>
  <radialGradient id="dc" cx="48.463" cy="265.61" r="15.381" gradientUnits="userSpaceOnUse">
   <stop stop-color="#d28a6e" offset=".022"/>
   <stop stop-color="#c67457" offset=".1282"/>
   <stop stop-color="#b35037" offset=".3399"/>
   <stop stop-color="#a63826" offset=".5321"/>
   <stop stop-color="#9f291e" offset=".6962"/>
   <stop stop-color="#9d231b" offset=".8132"/>
   <stop stop-color="#e5352d" offset="1"/>
  </radialGradient>
  <radialGradient id="dd" cx="67.998" cy="267.23" r="15.379" gradientUnits="userSpaceOnUse">
   <stop stop-color="#d28a6e" offset=".022"/>
   <stop stop-color="#c67457" offset=".1282"/>
   <stop stop-color="#b35037" offset=".3399"/>
   <stop stop-color="#a63826" offset=".5321"/>
   <stop stop-color="#9f291e" offset=".6962"/>
   <stop stop-color="#9d231b" offset=".8132"/>
   <stop stop-color="#e5352d" offset="1"/>
  </radialGradient>
  <radialGradient id="df" cx="100.55" cy="267.23" r="15.379" gradientUnits="userSpaceOnUse">
   <stop stop-color="#d28a6e" offset=".022"/>
   <stop stop-color="#c67457" offset=".1282"/>
   <stop stop-color="#b35037" offset=".3399"/>
   <stop stop-color="#a63826" offset=".5321"/>
   <stop stop-color="#9f291e" offset=".6962"/>
   <stop stop-color="#9d231b" offset=".8132"/>
   <stop stop-color="#e5352d" offset="1"/>
  </radialGradient>
  <radialGradient id="dg" cx="139.62" cy="264.79" r="15.377" gradientUnits="userSpaceOnUse">
   <stop stop-color="#d28a6e" offset=".022"/>
   <stop stop-color="#c67457" offset=".1282"/>
   <stop stop-color="#b35037" offset=".3399"/>
   <stop stop-color="#a63826" offset=".5321"/>
   <stop stop-color="#9f291e" offset=".6962"/>
   <stop stop-color="#9d231b" offset=".8132"/>
   <stop stop-color="#e5352d" offset="1"/>
  </radialGradient>
  <radialGradient id="dh" cx="21.606" cy="272.93" r="15.377" gradientUnits="userSpaceOnUse">
   <stop stop-color="#d28a6e" offset=".022"/>
   <stop stop-color="#c67457" offset=".1282"/>
   <stop stop-color="#b35037" offset=".3399"/>
   <stop stop-color="#a63826" offset=".5321"/>
   <stop stop-color="#9f291e" offset=".6962"/>
   <stop stop-color="#9d231b" offset=".8132"/>
   <stop stop-color="#e5352d" offset="1"/>
  </radialGradient>
  <radialGradient id="di" cx="13.889" cy="267.68" r="15.38" gradientUnits="userSpaceOnUse">
   <stop stop-color="#d28a6e" offset=".022"/>
   <stop stop-color="#c67457" offset=".1282"/>
   <stop stop-color="#b35037" offset=".3399"/>
   <stop stop-color="#a63826" offset=".5321"/>
   <stop stop-color="#9f291e" offset=".6962"/>
   <stop stop-color="#9d231b" offset=".8132"/>
   <stop stop-color="#e5352d" offset="1"/>
  </radialGradient>
  <radialGradient id="dj" cx="41.138" cy="274.56" r="15.381" gradientUnits="userSpaceOnUse">
   <stop stop-color="#d28a6e" offset=".022"/>
   <stop stop-color="#c67457" offset=".1282"/>
   <stop stop-color="#b35037" offset=".3399"/>
   <stop stop-color="#a63826" offset=".5321"/>
   <stop stop-color="#9f291e" offset=".6962"/>
   <stop stop-color="#9d231b" offset=".8132"/>
   <stop stop-color="#e5352d" offset="1"/>
  </radialGradient>
  <radialGradient id="dk" cx="60.673" cy="270.49" r="15.378" gradientUnits="userSpaceOnUse">
   <stop stop-color="#d28a6e" offset=".022"/>
   <stop stop-color="#c67457" offset=".1282"/>
   <stop stop-color="#b35037" offset=".3399"/>
   <stop stop-color="#a63826" offset=".5321"/>
   <stop stop-color="#9f291e" offset=".6962"/>
   <stop stop-color="#9d231b" offset=".8132"/>
   <stop stop-color="#e5352d" offset="1"/>
  </radialGradient>
  <radialGradient id="dl" cx="73.694" cy="274.56" r="15.381" gradientUnits="userSpaceOnUse">
   <stop stop-color="#d28a6e" offset=".022"/>
   <stop stop-color="#c67457" offset=".1282"/>
   <stop stop-color="#b35037" offset=".3399"/>
   <stop stop-color="#a63826" offset=".5321"/>
   <stop stop-color="#9f291e" offset=".6962"/>
   <stop stop-color="#9d231b" offset=".8132"/>
   <stop stop-color="#e5352d" offset="1"/>
  </radialGradient>
  <radialGradient id="dm" cx="93.229" cy="276.19" r="15.378" gradientUnits="userSpaceOnUse">
   <stop stop-color="#d28a6e" offset=".022"/>
   <stop stop-color="#c67457" offset=".1282"/>
   <stop stop-color="#b35037" offset=".3399"/>
   <stop stop-color="#a63826" offset=".5321"/>
   <stop stop-color="#9f291e" offset=".6962"/>
   <stop stop-color="#9d231b" offset=".8132"/>
   <stop stop-color="#e5352d" offset="1"/>
  </radialGradient>
  <radialGradient id="dn" cx="112.76" cy="272.12" r="15.377" gradientUnits="userSpaceOnUse">
   <stop stop-color="#d28a6e" offset=".022"/>
   <stop stop-color="#c67457" offset=".1282"/>
   <stop stop-color="#b35037" offset=".3399"/>
   <stop stop-color="#a63826" offset=".5321"/>
   <stop stop-color="#9f291e" offset=".6962"/>
   <stop stop-color="#9d231b" offset=".8132"/>
   <stop stop-color="#e5352d" offset="1"/>
  </radialGradient>
  <radialGradient id="fy" cx="-568.72" cy="3.8716" r="89.204" gradientTransform="matrix(-.534 -.8455 -.8455 .534 -129.51 -72.103)" gradientUnits="userSpaceOnUse">
   <stop stop-color="#fff" offset="0"/>
   <stop stop-color="#e9e7e3" offset=".6035"/>
   <stop stop-color="#d8d6ce" offset="1"/>
  </radialGradient>
  <radialGradient id="do" cx="28.763" cy="424.67" r="85.592" gradientTransform="matrix(.87757 0 0 .96546 -463.04 -152.35)" gradientUnits="userSpaceOnUse">
   <stop stop-color="#fff" offset="0"/>
   <stop stop-color="#e9e7e3" offset=".6035"/>
   <stop stop-color="#d8d6ce" offset="1"/>
  </radialGradient>
  <radialGradient id="fx" cx="28.763" cy="424.67" r="85.592" gradientTransform="matrix(.87757 0 0 .96546 -463.04 -152.35)" gradientUnits="userSpaceOnUse" xlink:href="#do"/>
  <radialGradient id="fz" cx="236.41" cy="342.89" r="61.21" gradientUnits="userSpaceOnUse">
   <stop stop-color="#fff" offset=".0165"/>
   <stop stop-color="#d8d6ce" offset=".8187"/>
  </radialGradient>
  <radialGradient id="ga" cx="360.25" cy="337.05" r="57.559" gradientUnits="userSpaceOnUse">
   <stop stop-color="#908d7b" offset=".2143"/>
   <stop stop-color="#d8d6ce" offset="1"/>
  </radialGradient>
  <radialGradient id="gb" cx="28.763" cy="424.67" r="85.592" gradientTransform="matrix(.5331 0 0 .64439 22.439 -112.17)" gradientUnits="userSpaceOnUse" xlink:href="#do"/>
  <radialGradient id="gc" cx="112.76" cy="272.12" r="15.377" gradientTransform="matrix(.63209 0 0 .68927 493.23 93.88)" gradientUnits="userSpaceOnUse" xlink:href="#dn"/>
  <radialGradient id="gd" cx="93.229" cy="276.19" r="15.378" gradientTransform="matrix(.63209 0 0 .68927 491.61 93.88)" gradientUnits="userSpaceOnUse" xlink:href="#dm"/>
  <radialGradient id="ge" cx="73.694" cy="274.56" r="15.381" gradientTransform="matrix(.63209 0 0 .68927 493.23 93.88)" gradientUnits="userSpaceOnUse" xlink:href="#dl"/>
  <radialGradient id="gf" cx="60.673" cy="270.49" r="15.378" gradientTransform="matrix(.63209 0 0 .68927 493.23 93.88)" gradientUnits="userSpaceOnUse" xlink:href="#dk"/>
  <radialGradient id="gg" cx="41.138" cy="274.56" r="15.381" gradientTransform="matrix(.63209 0 0 .68927 493.23 93.88)" gradientUnits="userSpaceOnUse" xlink:href="#dj"/>
  <radialGradient id="gh" cx="13.889" cy="267.68" r="15.38" gradientTransform="matrix(.63209 0 0 .68927 499.8 90.196)" gradientUnits="userSpaceOnUse" xlink:href="#di"/>
  <radialGradient id="gi" cx="21.606" cy="272.93" r="15.377" gradientTransform="matrix(.63209 0 0 .68927 493.23 93.88)" gradientUnits="userSpaceOnUse" xlink:href="#dh"/>
  <radialGradient id="gj" cx="139.62" cy="264.79" r="15.377" gradientTransform="matrix(.63209 0 0 .68927 493.23 93.88)" gradientUnits="userSpaceOnUse" xlink:href="#dg"/>
  <radialGradient id="gk" cx="100.55" cy="267.23" r="15.379" gradientTransform="matrix(.63209 0 0 .68927 493.23 93.88)" gradientUnits="userSpaceOnUse" xlink:href="#df"/>
  <radialGradient id="gl" cx="67.998" cy="267.23" r="15.379" gradientTransform="matrix(.63209 0 0 .68927 493.23 93.88)" gradientUnits="userSpaceOnUse" xlink:href="#dd"/>
  <radialGradient id="gm" cx="48.463" cy="265.61" r="15.381" gradientTransform="matrix(.63209 0 0 .68927 493.23 93.88)" gradientUnits="userSpaceOnUse" xlink:href="#dc"/>
  <radialGradient id="gn" cx="102.18" cy="255.02" r="15.381" gradientTransform="matrix(.63209 0 0 .68927 491.61 93.88)" gradientUnits="userSpaceOnUse" xlink:href="#db"/>
  <radialGradient id="go" cx="82.648" cy="253.4" r="15.38" gradientTransform="matrix(.63209 0 0 .68927 493.23 93.88)" gradientUnits="userSpaceOnUse" xlink:href="#da"/>
  <radialGradient id="gp" cx="69.626" cy="249.32" r="15.379" gradientTransform="matrix(.63209 0 0 .68927 493.23 93.88)" gradientUnits="userSpaceOnUse" xlink:href="#em"/>
  <radialGradient id="gq" cx="50.091" cy="253.4" r="15.38" gradientTransform="matrix(.63209 0 0 .68927 494.86 93.88)" gradientUnits="userSpaceOnUse" xlink:href="#el"/>
  <radialGradient id="gr" cx="30.556" cy="251.77" r="15.381" gradientTransform="matrix(.63209 0 0 .68927 493.23 93.88)" gradientUnits="userSpaceOnUse" xlink:href="#ek"/>
  <radialGradient id="gs" cx="126.6" cy="233.05" r="15.38" gradientTransform="matrix(.63209 0 0 .68927 493.23 93.88)" gradientUnits="userSpaceOnUse" xlink:href="#ej"/>
  <radialGradient id="gt" cx="124.16" cy="242" r="15.379" gradientTransform="matrix(.63209 0 0 .68927 493.23 93.88)" gradientUnits="userSpaceOnUse" xlink:href="#ei"/>
  <radialGradient id="gu" cx="104.62" cy="240.37" r="15.378" gradientTransform="matrix(.63209 0 0 .68927 493.23 93.88)" gradientUnits="userSpaceOnUse" xlink:href="#eh"/>
  <radialGradient id="gv" cx="72.066" cy="240.37" r="15.378" gradientTransform="matrix(.63209 0 0 .68927 493.23 93.88)" gradientUnits="userSpaceOnUse" xlink:href="#eg"/>
  <radialGradient id="gw" cx="52.534" cy="238.75" r="15.379" gradientTransform="matrix(.63209 0 0 .68927 493.23 93.88)" gradientUnits="userSpaceOnUse" xlink:href="#ef"/>
  <radialGradient id="gx" cx="107.88" cy="224.1" r="15.381" gradientTransform="matrix(.63209 0 0 .68927 493.23 93.88)" gradientUnits="userSpaceOnUse" xlink:href="#ee"/>
  <radialGradient id="gy" cx="88.343" cy="228.16" r="15.381" gradientTransform="matrix(.63209 0 0 .68927 493.23 93.88)" gradientUnits="userSpaceOnUse" xlink:href="#ed"/>
  <radialGradient id="gz" cx="68.812" cy="226.54" r="15.378" gradientTransform="matrix(.63209 0 0 .68927 493.23 93.88)" gradientUnits="userSpaceOnUse" xlink:href="#ec"/>
  <radialGradient id="ha" cx="177.05" cy="221.69" r="64.244" gradientTransform="matrix(.63209 0 0 .68927 488.09 99.646)" gradientUnits="userSpaceOnUse" xlink:href="#eb"/>
  <radialGradient id="hb" cx="126.6" cy="241.5" r="60.32" gradientTransform="matrix(.62412 -.10884 .099806 .68059 488.45 91.919)" gradientUnits="userSpaceOnUse" xlink:href="#ea"/>
  <linearGradient id="es" x1="223.54" x2="408.07" y1="303.88" y2="303.88" gradientTransform="matrix(.54096 0 0 .60958 167.64 37.063)" gradientUnits="userSpaceOnUse">
   <stop stop-color="#c68708" offset=".022"/>
   <stop stop-color="#e1c621" offset=".8352"/>
  </linearGradient>
  <linearGradient id="et" x1="253.71" x2="379.22" y1="235" y2="327.64" gradientTransform="matrix(.54096 0 0 .60958 167.64 37.063)" gradientUnits="userSpaceOnUse">
   <stop stop-color="#e1c621" offset="0"/>
   <stop stop-color="#fff37c" offset="1"/>
  </linearGradient>
  <linearGradient id="eu" x1="434.34" x2="435.24" y1="553.16" y2="515.68" gradientTransform="matrix(-.58328 .63581 -.60381 -.66299 740.08 291.58)" gradientUnits="userSpaceOnUse" xlink:href="#dq"/>
  <linearGradient id="ev" x1="434.34" x2="435.24" y1="553.16" y2="515.68" gradientTransform="matrix(-.56204 .65325 -.75293 -.51143 837.04 213.34)" gradientUnits="userSpaceOnUse" xlink:href="#dq"/>
 </defs>
 <g transform="translate(1.9417 -108.44)">
  <g transform="matrix(2.2219 0 0 2.5352 -770.62 -572.43)">
   <path d="m370.66 302.38l-23.75 63.84h270l-12.25-63.84h-234z" fill="#c17d11"/>
   <path d="m350.66 378.72l-3.75-12.34h270l-2.25 12.34h-264z" fill="#8f5902"/>
   <path d="m377.44 301.38c-2.13 0.12-4.27 0.25-6.41 0.34l-0.25 0.63c10.2-0.23 20.37-0.6 30.57-0.97h-23.91zm58.97 2.5c-22.09 0-44.16 0.03-66.25 0.16l-0.25 0.75c57.23 0.84 114.48 3.27 171.72 1.15 21.39-0.48 42.76-1.03 64.15-1.34l-0.16-0.72c-1.39 0-2.78-0.01-4.16 0-55.02 0.26-110.05 0.01-165.06 0h0.01zm170 4c-79.23 0.17-158.46 0.09-237.69 0.09l-0.16 0.38c57.15 0.33 114.32-0.1 171.47 0.09h66.47l-0.09-0.56zm0.41 2.19c-78.48 0.72-156.96-0.07-235.44 0.25h-3.54l-0.12 0.31c59.84 0.3 119.72-0.05 179.56 0.13 19.88-0.08 39.77 0 59.66-0.1l-0.13-0.59h0.01zm0.37 1.93c-79.81 0.2-159.6 0.03-239.41 0.29 79.84 0.22 159.66 0.17 239.5 0.18l-0.1-0.48 0.01 0.01zm-152.47 2.32c-29.5 0.01-59 0.1-88.5 0.31l-0.12 0.37c80.52 1.3 161.09-0.08 241.62-0.21l-0.1-0.47c-50.97 0.14-101.94-0.02-152.91 0h0.01zm153.19 1.44c-77.6 0.18-155.21 0.05-232.81 0.28 77.64 0.18 155.27 0.18 232.91 0.22l-0.09-0.5h-0.01zm0.47 2.31c-81.18 0.24-162.35 0.07-243.53 0.31 81.2 0.19 162.39 0.15 243.59 0.19l-0.06-0.5zm-233.94 4.56c-3.86-0.01-7.66 0.07-11.28 0.28l-0.56 1.47c9.66 0.55 19.32 0.82 29 0.91 14.96-0.26 29.94-0.5 44.9-0.66-14.97 0.48-29.94 0.79-44.9 0.66-9.85 0.17-19.69 0.34-29.54 0.53l-0.15 0.47c58.27 0.1 116.53-0.44 174.78 1.03 23.43-0.4 47.19 0.36 70.34-3.35-25.25-2.47-51.65 0.33-77.19 0.88-30.86-0.61-61.72-0.58-92.59-0.25 7.9-0.26 15.79-0.55 23.69-0.85-21.75 0.08-43.51-0.85-65.25-0.96-6.75 0.11-14.1-0.14-21.25-0.16zm86.5 1.13c9.5-0.04 19-0.27 28.5-0.85l-2.45-0.08c-8.69 0.26-17.37 0.58-26.06 0.91l0.01 0.02zm-36.13 4.09c-21.21 0.85-42.41 0.58-63.62 0.31l-0.09 0.31c1.72 0.06 3.23 0.15 4.34 0.29-1.26 0.14-2.85 0.28-4.59 0.37l-0.22 0.56c13.93-0.39 27.87-0.82 41.81 0.38 44 1.05 88.02 0.03 132.03 0.37-27.39 0.36-54.88 0.02-82.31 1.07-24.21 0.09-48.42-0.32-72.63-1.19-6.37-0.11-12.74-0.06-19.12 0l-0.1 0.22c0.74 0.03 1.46 0.07 2.19 0.12 16.66 0.03 33.32 0.71 49.97 1.25-17.71 1.2-35.47 1.44-53.22 1.47l-0.19 0.53c10.76-0.07 21.53-0.33 32.28-0.53-10.8 1.22-21.63 1.21-32.47 1l-0.09 0.28c3.43 0.12 5.82 0.34 5.5 0.66-1.94 0.11-3.9 0.19-5.84 0.25l-0.13 0.37c24.86-0.1 49.73-0.58 74.6 0.28 55.3-0.04 111.94 0.1 166.47-0.18-71.6-0.36-143.21 0.21-214.75-0.82 23.64-1.31 47.3-0.99 70.93-1.78-14.84-0.16-29.7-0.38-44.56-0.68 4.81-0.17 9.63-0.34 14.44-0.47 11.1 0.32 22.2 0.76 33.31 1.03 6.82-0.26 13.63-0.6 20.44-1.13 17.17-0.5 34.36-0.8 51.56-0.75l-0.84-0.06c26.51-0.69 53.01-1.5 79.53-1.75-70.55 0.95-141.12 1.14-211.66-0.37-6.68-0.27-13.73-0.49-2.97-0.41 68.08-1.11 136.17-0.3 204.25-0.78-58.08-0.34-116.17-0.19-174.25-0.22zm105.93 3.59c15.69 1.19 31.37 2.33 47.07 3.31 6.69 0.23 14.24 0.86 21.56 1.28h0.12c4.27 0.25 8.46 0.42 12.38 0.41l-0.25-1.35c-26.86-2.57-53.87-3.56-80.88-3.65zm-72 1.87c-0.99 0.04-1.97 0.1-2.96 0.13 25.5 0.27 50.99 0.35 76.62 0.22 0.26-0.04 0.14-0.11-0.22-0.16h-0.03c-2.8-0.38-20.11-0.98-26.22-0.97-15.76 1.19-31.49 1.16-47.19 0.78zm-100.97 4l-0.31 0.88c29.94 0.21 59.88 1.21 89.81 1.78 25.08-0.77 50.17-1.53 75.25-1.78 5.68-0.08 11.35-0.18 17.03-0.28-60.59-0.47-121.19-0.22-181.78-0.6zm181.78 0.6c13.95 0.1 27.9 0.27 41.85 0.47 5.19-0.23 10.37-0.5 15.56-0.78-19.13-0.46-38.27-0.05-57.41 0.31zm41.85 0.47c-17.09 0.76-34.2 1.21-51.31 1.53 26.34-0.19 52.68-0.02 79-1.07-9.23-0.18-18.46-0.33-27.69-0.46zm-134.12 1.59c-4.87 0.15-9.73 0.29-14.6 0.44 13.6 0.08 27.19 0.09 40.78 0.19-3.8 0.03-7.62 0.08-11.43 0.12h24.84c-4.36-0.06-8.73-0.09-13.09-0.12 18.47-0.17 36.94-0.36 55.4-0.69-3.8 0.03-7.63 0.08-11.44 0.12-23.49 0.59-46.97 0.39-70.46-0.06zm14.75 0.75h-40c-7.43 0.21-14.86 0.39-22.28 0.56 10.98-0.05 21.95-0.13 32.93-0.22 9.78-0.14 19.57-0.25 29.35-0.34zm-62.28 0.56c-14.5 0.08-29 0.13-43.5 0.16l-0.16 0.41c14.56-0.02 29.1-0.24 43.66-0.57zm22.28-0.56c3.55-0.1 7.1-0.21 10.65-0.31-17.66-0.11-35.34-0.34-53-1.06-7.54 0.13-15.08 0.07-22.62-0.07l-0.16 0.41c21.25 0.29 42.51 0.39 63.75 1.03h1.38zm162.81 2.66c-8.01 0.01-16.33 0.1-23.56 0.06-29.64 0.07-59.27 0.21-88.91 0.37-39 0.01-78 0-117 0l-0.13 0.35c83.76 0.7 167.56 0.76 251.32-0.5-6.01-0.26-13.72-0.3-21.72-0.28zm-230.12 2.18l-0.1 0.29c69.56 0.44 139.13-0.21 208.69-0.07 6.58-0.03 29.9 0.01 27.29-0.09-78.63-0.11-157.25-0.09-235.88-0.13zm108.31 2.32c-36.39 0.01-72.8 0.03-109.19 0.03l-0.22 0.62c84.86 1.14 169.73-0.03 254.59-0.47-48.4-0.17-96.79-0.2-145.19-0.18h0.01zm-109.72 1.47l-0.1 0.28c73.75 0.37 147.47-0.27 221.22-0.13 7.26-0.02 28.48 0.01 28.22-0.06-83.11-0.06-166.23-0.07-249.34-0.09zm-0.85 2.28l-0.12 0.37c62.48 0.4 124.98-0.22 187.47-0.06 18.26-0.05 36.52-0.01 54.78-0.16-80.71-0.19-161.42-0.15-242.12-0.15h-0.01zm214.69 1.65c-36.1-0.04-72.24 0.43-108.34 0.1-35.67 0.01-71.33 0.02-107 0l-0.12 0.34c48.13 0.31 96.3-0.09 144.44 0.03 39.72-0.02 79.44 0.01 119.16 0.31l-0.06-0.28c-16.02-0.34-32.04-0.48-48.07-0.5h-0.01zm1.75 1.6c-72.65 0.14-145.32 0.58-217.97 0.87l-0.12 0.35c3.4-0.01 6.7-0.01 9.62 0.03 85.08 0 170.15-0.01 255.22 0l-0.12-0.63c-15.54-0.36-31.08-0.4-46.63-0.62zm-122.97 2.87c-26.38 0.11-52.74 1.36-79.12 1.93 76.05 0.23 152.11-0.09 228.16 0.16-49.69-0.71-99.36-2.24-149.04-2.09zm-96.46 1.9l-0.1 0.28c3.57-0.02 7.13-0.09 10.69-0.15-3.53 0-7.07-0.06-10.59-0.13zm266 0.03c-8.16 0.04-29.3 0.16-10.1 0.28 2.48 0.02 6.97 0.08 11.06 0.13l-0.09-0.41h-0.88 0.01zm-266.69 1.82l-0.19 0.5c34.87 0.75 69.72 2.85 104.62 1.93 54.64-0.01 109.29 0.01 163.94 0.03l-0.03-0.28c-74.27-0.85-148.6 0.86-222.87-0.85-15.15-0.71-30.3-1.15-45.47-1.34v0.01zm16.72 2.25c-4.88 0.02-9.75 0.08-14.63 0.12 1.99 0.03 3.96 0.12 5.94 0.28 14.65 0.34 29.31 0.72 43.97 1.06h17.59c-11.37-0.06-22.76-0.4-34.12-1.25-6.25-0.21-12.5-0.24-18.75-0.21zm-17.6 0.12v0.03c0.87 0 1.73-0.02 2.6-0.03-0.86-0.01-1.74-0.01-2.6 0zm147.25 0.22c-22.75 0-45.5 1-68.25 1.12h99.69c-1.95-0.18-3.89-0.38-5.84-0.59-8.53-0.38-17.07-0.53-25.6-0.53z" fill="#e9b96e" opacity=".5"/>
   <path d="m486.75 304.38c-26.91 1.19-53.92-0.73-80.77 1.89-12.73 0.16-25.49-0.63-38.2 0.48 8.96 1.53 18.19-1.22 27.28 0.11 21.15 0.33 42.19-2.45 63.35-1.48 12.04-0.03 24.17 0.37 36.15-0.95-2.6-0.19-5.21 0.05-7.81-0.05zm66.5 1.12c-9.45 0.83-16.56 0.62-26.34 1.34-24.75 2.38-49.63 0.81-74.45 1.19-27.87-0.12-55.77-0.1-83.61 0.93 7.91 0.81 23.48-0.25 34.31-0.3 40.07-0.71 80.18 0.8 120.22-0.66 22.94-1.86 46.09-2.56 69.05-1.51 4.42 1.19 15.56 0.97 4.85-0.56-14.67-1.02-29.37-0.11-44.04-0.42l0.01-0.01zm-110.47 5.07c-19.72 1.38-39.58-0.34-59.22 2.17-4.53 0.27-17.29-0.46-16.69 0.19 13.97 1.44 27.87-0.65 41.81-1.17 21.61 0.37 43.18-1.15 64.8-0.67 43.49-0.02 86.97-0.03 130.46-0.02-17.5-1.23-35.11-0.08-52.66-0.48-36.17 0-72.33-0.05-108.49-0.02h-0.01zm112.41 1.78c-10.5-0.31-15.08 2.21-24.39 1.43-17.1 1.49-34.3 4.38-51.47 3.9-25.64-0.4-51.27-1.9-76.84-0.28-12.89 0.05-25.78 0-38.67-0.02 10.58 1.3 21.52 0.27 32.25 0.63 24.81-0.04 49.53-3 74.36-2.25 21.52 0 43.09 0.62 64.54-1.46 12.43-0.26 24.72-2.01 37.18-1.4 9.89 0 19.77 0.03 29.66 0.01-10.52 0.03 8.19 0.55-0.65-0.39-15.32-0.37-30.65-0.02-45.97-0.17zm-93.81 5.44c-3.26-7.6-48.15 0.93-72.17 2.43-8.83 0.22-17.66 0.05-26.49 0.1 32.43 2.4 64.8-3.41 97.26-2.03 48.45 0.01 96.91-0.04 145.36 0.03-16.24-1.27-32.6-0.13-48.89-0.53-31.69-0.01-63.39 0-95.07 0zm-85.06 4.65c-5.16-0.04-21.49 1.68-8.44 1.11 38.05-1.22 77.63 2.73 115.7 2.42 41.38 0 81.26-2.99 122.65-3-17.78-1.17-35.64-0.13-53.46-0.48-58.82-0.02-117.63 0.03-176.44-0.05h-0.01zm-16.25 5.06c13.93 1.42 28.01 0.07 42.01 0.57h205.11c-13.54-1.4-27.24-0.09-40.85-0.57-68.76 0-137.52 0.01-206.27 0zm247.47 2.19c-42.2 1.55-84.43 0.29-126.64 0.72h-121.92c12.72 1.24 25.59 0.07 38.37 0.49 67.25-0.11 134.54 0.28 201.77-0.18 2.71-0.42 6.07 0.68 8.42-1.03zm-249.34 2.85c14.68 1.31 29.49 0.18 44.23 0.56h205.74c-19.19-1.19-38.47-0.15-57.69-0.5-64.1 0-128.19-0.02-192.28-0.06zm228.05 2.91c-76.4 0.1-152.79 0.08-229.19 0.06 23.58 1 50.24 1.15 73.86 1.43 60.26 0 117.52-0.99 177.8-0.96-7.43-1.38-14.99-0.07-22.47-0.53zm1.93 1.81c-77.26 0.1-154.52 0.07-231.78 0.03 17.41 1.07 34.91 0.09 52.35 0.43 66.77 0 133.54 0.03 200.31 0.07-6.89-1.31-13.92-0.12-20.87-0.53h-0.01zm-232.84 2.87c13.9 1.41 27.95 0.09 41.92 0.56 70.79-0.01 141.58-0.06 212.37-0.03-18.86-1.24-37.82-0.13-56.72-0.49-65.86-0.03-131.71-0.05-197.56-0.04h-0.01zm-0.78 2.13c12.84 1.52 25.85 0 38.76 0.56 68.9 0.22 137.8-0.45 206.69 0.39 4.81 0.15 14.8 0.6 4.54-0.37-31.98-1.13-64.02-0.25-96.02-0.52-51.32 0.01-102.65 0.04-153.97-0.06zm27.13 2.9c-7.52 0.34-25.6-0.54-26.4 0.56 85.1 0.02 170.2 0 255.3 0.01-16.73-1.23-35.58-1.17-52.37-1.54-59.51-0.01-117.02 1.02-176.54 0.98l0.01-0.01zm-23.92 4.35c-13.04 0.33 4.25 0.8 8.39 0.86 32.88 1.02 66.8-2.88 99.71-2.6 48.89 0 96.78 2.97 145.68 3.03-14.23-1.34-28.59-0.08-42.87-0.55-64.98-0.06-129.97 0.21-194.95-0.16-5.28-0.81-10.64-0.53-15.96-0.58zm-7 2.91c13.7 1.4 27.58-0.25 41.35 0.87 21.18 1.4 42.38 2.87 63.62 2.18 52.24-0.03 104.48-0.03 156.72 0.01-11.96-1.3-24.08-0.1-36.1-0.56-50.68-0.13-101.37 0.47-152.04-0.36-24.49-2.05-49-2.52-73.55-2.14zm-0.57 1.53c9.31 4.75 20.4 0.48 30.44 1.86 27.24-0.58 54.37 2.87 81.62 2.25 21.19 0.17 42.42-1 63.53 1.36 5.83 0.5 10.86-0.33 12.52 0.35 20.08 2.38 40.35 0.56 60.52 1.03 4.83 0.18 20.72-1.57 8.37-1.16-18.15 1.01-36.36 0.81-54.53 0.59-12.2-1.42-25.46-3.05-37.67-4.46-30.94-1.12-60.97 2.77-91.9 0.63-22.79-2.44-45.8 0.03-68.6-1.71-1.41-0.33-2.83-0.74-4.3-0.74zm-2.25 6.03c14.87 1.74 29.95-0.79 44.81 1.57 17.19 0.94 34.46 0.24 51.68 1.08 56.46 0.2 112.92-0.08 169.39 0.07-20.78-1.19-41.65-0.23-62.47-0.53h-112.71c2.22-0.49-10.71-0.64-14.1-0.73-12.68-0.05-25.37 0.44-37.95-1.38-12.88-0.46-25.76 0.3-38.64-0.08h-0.01zm-0.9 2.5c8.42 4.98 19.02 0.33 28.32 2.18 45.1 1.28 90.22 0.04 135.33 0.79 23.78 1.65 47.61 2.84 71.48 2.24 9.59 0.55 18.83-1.89 28.41-1.9 8.52-1.5-7.62-0.9-10.64-0.26-20.98 3.13-42.29 1.36-63.4 0.84-36.29-2.98-72.76-1.32-109.14-1.66-22.89 0.31-45.75-0.94-68.64-0.8-3.97-0.11-7.91-0.25-11.72-1.43zm-1.1 2.91c9.93 0.92 19.94 0.88 29.86 1.63 17.03-0.31 34.07 0.16 51.06 1.21h60.8c-25.93-1.12-51.97 0.97-77.82-1.75-17.12 0.07-34.25 0.19-51.32-1.09h-12.58z" fill="#8f5902" opacity=".5"/>
   <path d="m616.62 367.34c-88.12 0.09-176.23 0.04-264.34 0.12 88.14 0.07 176.27 0.06 264.41 0.07l-0.06-0.19h-0.01zm-253.91 1.62c-4.28-0.31-19.86 0.53-6.98 0.73 24.77 0.48 49.55 0.02 74.32-0.01-26.97 0.44-54.09 0-80.97 0.6 72.01-0.15 144.02 0.2 216.03 0.29 16.69-0.06 33.38-0.23 50.04-1.11-39.96-1.05-79.93 0.92-119.9 0.16-21.46-0.04-42.92-0.01-64.39 0.06 7.46-0.08 20.85-0.23 24.62-0.31-30.93-0.05-61.85-0.4-92.77-0.41zm93.87 0.41c8.53 0 26.23-0.1 29.33-0.3-9.77 0.04-19.55 0.2-29.33 0.3zm-39.21 1.47c-22.85 0.37-46.06 0.1-68.69 0.22 4.85 0.16 3.78-0.15 0.12 0.44 41.63-0.32 83.25 0.65 124.88 0.28 7.27-0.01 23.68-0.03 25.12-0.03-40.01-0.06-80.02-0.1-120.02-0.53 75.91-0.38 151.82-0.13 227.74-0.29-63.06-0.12-126.1-0.08-189.16-0.09h0.01zm199.19 0.63c-37.89 0.16-75.78 0.28-113.66 0.28 9.76-0.01 26.99 0 32.1 0.03-58.01 0.06-116.03 0.73-174.05-0.09-4.4-0.07-18.61 0.12-6.13 0.16 16.38 0.05 32.76 0.28 49.13 0.46-18.16 0.53-36.92 0.23-54.72 0.69 8.69 0.01 27.73-0.24 29.83-0.12-7.19 0.59-28.44-0.12-27.39 0.65-4.89 0.39 9.41 0.13 12.19 0.18 80.99 0.06 161.98 0.24 242.97 0.07-77.7-0.13-155.4 0.08-233.09-0.28 25.66-0.47 51.33-0.38 77-0.66-16.13-0.06-32.25-0.14-48.38-0.25 27.59-0.33 55.18 0.62 82.77-0.27 15.74-0.13 31.49-0.22 47.23-0.2 4.04-0.12 15.96-0.15 23.03-0.24 20.38-0.18 40.77-0.35 61.16-0.41h0.01zm-84.17 0.66c27.91 0.67 55.83 1.38 83.75 1.75-5.99-1.56-15.02-0.57-22.14-1.13-20.53-0.42-41.07-0.6-61.61-0.62zm-78.16 0.68c-7.4 0.07 7.99 0.04 10.78 0.06 5.03 0.01-8.86-0.03-10.78-0.06zm12.78 0.07c22.13 0.02 45.62 0.19 66.91 0-22.31-0.74-44.6 0.17-66.91 0zm-117.38 1.35c9.15 0.83 19.34 0.2 28.88 0.49 43.21 0.6 86.41 0.36 129.62-0.11 11.27-0.07 22.55-0.09 33.82-0.16-64.11-0.17-128.21-0.1-192.31-0.22h-0.01zm192.31 0.22c20.77-0.04 41.54 0.42 62.31-0.1-20.77-0.16-41.54-0.03-62.31 0.1zm45.41 0.18c-18.57 0.27-37.13 0.42-55.69 0.53 28.1-0.06 56.21-0.02 84.31-0.37-9.54-0.06-19.08-0.11-28.63-0.16h0.01zm-145.56 0.57c-3.8 0.04-13.84 0.11-14.46 0.15 14.29 0.03 28.57 0.03 42.86 0.06-5.28 0.02-17.51 0.04-6.5 0.04h21.06c-4.04-0.03-20.48-0.03-8.85-0.05 7.74-0.03 15.49-0.05 23.23-0.08-19.12 0.06-38.23 0-57.34-0.12zm16 0.25h-43.41c4.19-0.05 17.04-0.11 6.17-0.11-23.46 0.13-47.5-0.64-70.64-0.21 20.99 0.09 41.98 0.11 62.97 0.32-6.45 0.06-18.84 0.18-21.57 0.21 22.16-0.04 44.32-0.14 66.48-0.21zm-67.6 0.21c-13.31 0.09-26.97-0.07-40.06 0.16 13.35-0.02 26.71-0.06 40.06-0.16zm200.91 0.75c-80.17 0.19-160.86 0.04-240.69 0.29 88.09 0.23 176.17 0.24 264.25-0.19-7.85-0.11-15.71-0.1-23.56-0.1zm-240.56 0.79c82.13 0.31 164.54-0.03 246.78 0.03-82.26-0.04-164.52-0.02-246.78-0.03zm108.34 0.81c-36.03 0-72.06 0.03-108.09 0.03 27.93 0.68 56.6 0.22 84.82 0.38 59.92-0.02 119.85-0.22 179.78-0.32-52.17-0.06-104.34-0.1-156.5-0.09h-0.01zm-107.94 0.53c86.36 0.28 173-0.02 259.47 0.03-86.49-0.02-172.98-0.02-259.47-0.03z" fill="#c17d11" opacity=".5"/>
   <path d="m347.91 365.88l0.06 0.16c14.28 0.92 28.65-0.17 42.97 0.28h226.56c-2.4-0.22-4.81-0.34-7.22-0.44h-262.37zm269.62 2.03c-46.49 1.48-93.02 0.28-139.53 0.69h-129.28l0.12 0.34c12.25 0.57 24.61-0.23 36.88 0.13 74.28-0.11 148.58 0.28 222.84-0.16 2.85-0.39 6.37 0.56 8.94-0.78l0.03-0.22zm-22.84 2.71c-13.28-0.01-26.57 0.31-39.84 0.09-68.49 0-136.98-0.02-205.47-0.06l0.09 0.41c13.92 0.58 27.9-0.19 41.84 0.12h225.62v-0.06c-7.4-0.36-14.82-0.49-22.25-0.5h0.01zm15.22 2.72c-5.18 0.01-10.37 0.4-15.53 0.12-81.38 0.1-162.78 0.09-244.16 0.07l0.09 0.28c23.68 0.7 49.41 0.85 72.5 1.09 65.64 0 128.07-0.94 193.62-0.93l0.07-0.35c-2.19-0.22-4.39-0.29-6.59-0.29v0.01zm1.03 1.78c-4.81-0.01-9.64 0.34-14.44 0.09-81.92 0.1-163.83 0.08-245.75 0.04l0.13 0.37c15.79 0.35 31.63-0.24 47.44 0.03 72.59 0 145.19 0.06 217.78 0.1l0.09-0.41c-1.75-0.15-3.5-0.22-5.25-0.22zm-14.22 2.81c-13.05-0.01-26.14 0.32-39.19 0.1-68.64-0.01-137.29-0.03-205.94-0.02l0.07 0.22h262.03c-5.66-0.21-11.31-0.28-16.97-0.29v-0.01z" fill="#6d4302" opacity=".5"/>
  </g>
  <path d="m221.87 192.53l-151.49 182.31-2.3108 11.814 171.67-192.37-10.265-0.22817-7.599-1.5211z" fill="#2e3436" opacity=".2"/>
  <path d="m286.27 130.06l-223.15 251.04-5.266-3.5747 214.11-257.2c3.0885-3.6507 7.488-5.2733 11.643-2.4338l2.2664 1.5465c4.1772 2.8141 3.5551 7.0226 0.39994 10.623z" fill="url(#ev)"/>
  <path d="m209.14 194.12l-45.105 42.592s-5.977 4.8676-11.487 10.648l-102.1 110.41h-8.9989l101.05-118.27 9.0878-10.42 6.9991-8.5184 29.974-26.442h20.575z" fill="#2e3436" opacity=".2"/>
  <path transform="matrix(-.11821 -2.0122 -2.1393 .11119 911.52 1025.8)" d="m461.79 272.48c-34.29 32.46-84.1 73.09-117.71 106.27l0.81 0.67 118.15-105.43c1.88-1.26 2.33-1.43 2-2.85-1.24-1.19-2.19 0.21-3.25 1.35v-0.01z" fill="url(#ew)" filter="url(#dp)"/>
  <path d="m261.14 124.33l-230.53 243.36-4.2217-4.6395 223.28-251.29c3.1996-3.5747 7.3102-4.7409 10.665-1.0648l1.7998 1.9775c3.3551 3.6761 2.2664 8.1888-0.99987 11.662z" fill="url(#eu)"/>
  <path transform="matrix(2.2219 0 0 2.5352 -510.43 -1486.4)" d="m344.69 632.99c-34.29 32.47-68.7 64.41-102.31 97.59l0.82 0.66 102.75-96.75c1.87-1.25 2.32-1.43 2-2.84-1.25-1.2-2.2 0.21-3.25 1.34h-0.01z" fill="#a5a6a4" filter="url(#dp)"/>
  <g transform="matrix(.54096 0 0 .60958 167.64 37.063)">
   <path d="m316.41 267.53c-1.864 4.181-2.747 3.059-1.698 8.349 0.531 2.674 2.421 5.502 3.054 8.725 0.579 2.949 0.75 6.096 1.325 9.071 0.615 3.188 3.818 5.78 4.326 8.507 0.766 4.101-2.87 8.074-2.645 9.691 0.255 1.846 3.924 3.937 6.324 6.362 1.67 1.686 2.652 4.784 4.849 6.586 1.991 1.634 3.133 4.641 5.229 6.265 2.162 1.675 5.732 1.428 7.67 2.984 2.375 1.907 2.623 5.193 4.09 6.739 1.271 1.343 6.679 0.102 9.678 2.28 2.069 1.504 2.223 6.413 4.783 8.138 2.268 1.527 5.926 1.282 8.38 2.875 2.382 1.547 3.315 5.467 5.7 6.982 2.488 1.58 5.188 2.743 7.488 4.188 2.652 1.667 8.002-1.386 10.125-0.051 3.637 2.286 4.974 5.999 5.864 6.672 1.271 0.961 3.964 2.69 7.806 4.479 2.346 1.092 5.453 0.614 8.816 1.259 2.658 0.509 5.305 1.018 8.624 0.926 2.745-0.075 5.045-2.517 8.256-3.179 2.717-0.561 5.367-0.577 8.426-1.664 2.64-0.938 6.325 0.515 9.225-0.883 2.868-1.381 6.26-1.266 8.948-2.442 2.938-1.287 4.781-4.774 7.48-5.873 3.002-1.223 6.09-1.762 8.764-2.827 3.063-1.219 5.036-4.312 7.62-5.437 3.116-1.355 8.542 2.413 10.877 1.006 2.987-1.8 1.645-7.824 3.184-10.098 1.643-2.427 1.86-3.722 1.629-7.201-0.164-2.442-1.2-5.097-1.869-8.576-0.53-2.757 0.141-5.938-0.602-9.07-0.681-2.869-0.029-6.168-0.814-9.156-0.774-2.948-2.787-5.565-3.594-8.448-0.852-3.041 0.256-6.548-0.553-9.31-0.949-3.229-1.013-6.451-1.786-8.985-1.612-5.284 0.019-5.601-2.76-9.207-2.673-3.47-5.769 2.122-10.426-0.63-2.169-1.281-1.964-7.487-4.801-9.135-2.359-1.371-6.014-0.945-8.696-2.477-2.451-1.4-3.917-4.8-6.538-6.268-2.515-1.408-6.503-0.284-9.089-1.697-2.574-1.407-3.303-6.29-5.864-7.646-2.64-1.397-5.693-2.003-8.23-3.286-2.73-1.382-6.33-0.802-8.832-1.978-2.895-1.361-4.356-5.656-6.781-6.633-3.411-1.374-7.896 3.007-9.959 2.674-2.771-0.447-5.161-3.967-8.046-4.274-2.812-0.3-5.826 2.435-8.71 2.36-2.836-0.073-5.521-0.408-8.392-0.176-2.824 0.228-6.097-2.4-8.921-1.794-2.753 0.591-3.973 6.053-6.695 7.082-2.61 0.986-6.886-1.851-9.439-0.395-2.271 1.295-3.442 5.116-6.078 6.521-2.42 1.29-6.703-0.753-9.256 0.554-2.523 1.292-2.936 6.81-5.425 8.05-2.626 1.309-7.647-2.418-10.05-1.247-2.81 1.371-3.584 6.365-5.803 7.428-4.63 2.23-4.46-0.56-6.18 3.31l-8e-3 -0.02z" fill="url(#eo)"/>
   <path d="m489.01 276.9c-2.674-3.47-3.095-2.763-7.752-5.514-2.169-1.281-4.425-3.339-7.262-4.987-2.359-1.371-5.474-1.908-8.156-3.44-2.451-1.4-5.394-2.203-8.015-3.671-2.515-1.408-6.323-0.596-8.909-2.009-2.574-1.407-5.119-2.852-7.681-4.208-2.64-1.397-3.652-5.865-6.189-7.148-2.73-1.382-5.515-2.544-8.017-3.721-2.895-1.361-7.21 1.116-9.636 0.139-3.41-1.374-5.329-5.58-7.393-5.913-2.771-0.447-6.086 2.809-8.971 2.502-2.812-0.3-5.486-1.088-8.37-1.163-2.836-0.073-5.834-3.687-8.704-3.455-2.824 0.228-4.999 5.032-7.823 5.638-2.753 0.591-6.408-1.997-9.131-0.968-2.61 0.986-4.537 3.732-7.092 5.189-2.27 1.295-4.376 3.45-7.012 4.854-2.42 1.29-4.765 3.015-7.316 4.322-2.523 1.292-5.406 1.948-7.896 3.188-2.626 1.309-6.007 0.913-8.407 2.084-2.811 1.371-5.102 3.233-7.32 4.296-4.632 2.218-4.588 0.536-8.188 2.752-0.423 0.261-1.315 4.31-1.2 4.882 2.227 0.982 5.423 0.954 7.553 2.027 2.188 1.102 5.764-0.468 7.789 0.758 2.106 1.275 3.939 3.021 5.803 4.463 2.22 1.72 4.347 2.185 6.382 2.947 2.317 0.869 3.833 3.902 6.245 4.494 2.156 0.529 4.674-0.103 7.176 0.981 2.292 0.999 5.145 1.258 7.23 2.748 2.052 1.468 5.41 1.041 7.484 2.465 2.109 1.449 1.949 6.648 4.312 7.514 2.656 0.97 6.768-1.263 9.941-0.412 3.189 0.854 6.271 1.289 9.036 1.789 2.6 0.469 4.275 5.787 6.8 6.263 2.609 0.49 5.854-2.131 8.291-1.336 2.485 0.811 2.868 5.25 5.076 6.694 2.932 1.919 8.902-0.82 9.643 0.714 0.818 1.695-0.484 4.51 0.566 7.576 1.021 2.988 2.018 5.979 3.527 8.926 1.521 2.967-0.082 6.675 0.333 9.865 0.362 2.76 5.32 5.146 5.611 8.147 0.275 2.833-2.267 6.012-2.041 8.958 0.222 2.888 2.161 5.689 2.349 8.592 0.19 2.938 1.65 5.786 1.82 8.642 0.121 1.975-0.632 1.484-0.253 3.453 2.229-0.308 2.207-0.793 4.69-1.461 2.185-0.587 5.136 1.201 7.522 0.29 2.128-0.812 3.95-2.544 6.242-3.647 2.868-1.381 5.562-2.941 8.25-4.118 2.938-1.287 6.114-1.689 8.813-2.788 3.002-1.223 4.688-5.269 7.361-6.334 3.063-1.219 8.421 3.716 11.005 2.592 3.116-1.355 5.872-3.439 8.207-4.847 2.987-1.8 2.601-6.735 4.14-9.009 1.643-2.427 1.477-4.072 1.245-7.552-0.164-2.442 5.247-6.352 4.578-9.831-0.53-2.757-7.26-4.479-8.002-7.61-0.681-2.87-1.301-5.813-2.086-8.802-0.774-2.948-2.39-5.641-3.196-8.523-0.852-3.041 0.093-6.477-0.717-9.238-0.948-3.229 3.008-7.655 2.234-10.189-1.58-5.27-1.71-5.23-4.49-8.84l-0.029-0.01z" fill="url(#ep)"/>
   <path d="m426.07 305.71c7.523 4.087 25.541 12.566 41.271 4.53 9.806-5.019 24.409-13.546 30.297-22.214-2.567-3.987-5.829-6.946-9.407-9.24-5.626-3.619-86.411-46.12-93.748-50.329-8.749-5.007-14.435-6.421-25.636-2.667-5.543 1.855-35.939 12.676-48.473 17.346-2.526 0.94-4.143 2.008-5.212 3.21 11.103 5.067 25.595 12.098 37.53 18.665 20.22 11.1 65.86 36.61 73.38 40.69l-2e-3 9e-3z" fill="url(#eq)"/>
   <path d="m497.64 288.03c-5.888 8.668-20.491 17.195-30.297 22.214-15.729 8.036-33.747-0.443-41.271-4.53-7.523-4.079-53.165-29.591-73.378-40.698-11.936-6.567-26.428-13.598-37.53-18.665-2.286 2.533-1.966 5.754-1.36 10.15 0.607 4.37 3.971 7.499 19.473 16.336 11.896 6.776 65.504 38.692 101.53 56.195 26.166 12.729 52.956-7.099 58.82-12.31 6.275-4.897 7.967-9.402 7.238-15.532-0.39-3.24-1.76-10.86-3.22-13.15l-5e-3 -0.01z" fill="url(#er)"/>
   <path d="m382.3 281.41c6.688 4.727 33.222 17.001 40.128 21.735 3.273 2.247 7.515 4.535 11.071 6.123 2.993 1.342 6.764 3.396 9.6 4.103 16.641 4.156 42.451-14.516 54.537-25.348" fill="none" stroke="#faf19a" stroke-width="2.9883"/>
   <path d="m315.02 246.81c6.14 2.282 10.984 3.846 16.698 6.822 6.018 3.135 11.633 6.452 18.244 9.317" fill="none" stroke="#faf19a" stroke-width="2.9883"/>
   <path d="m351.92 264.36c3.548 2.505 8.695 6.461 12.46 8.423 3.613 1.896 11.335 6.647 15.713 7.405" fill="none" stroke="#344347" stroke-width="2.9883"/>
   <path d="m360.58 263.36c5.615 2.528 11.69 3.396 16.967 6.344 6.748 3.778 14.132 6.2 21.193 9.417 7.535 3.443 11.801 10.773 19.371 14.386 2.37 1.132 5.405 1.378 7.635 3.069 3.648 2.762 10.15 5.931 14.024 8.459 5.29 3.438 11.966 0.36 18.206-0.683" fill="none" stroke="#f9f2a4" stroke-width="2.9883"/>
   <path d="m370.65 250.18c12.637 7.278 28.635 13.121 41.552 19.867 8.712 4.548 15.531 10.044 24.583 13.554 8.382 3.244 18.222 4.966 26.381 8.579 2.481 1.108 8.89 5.224 11.405 4.354 7.938-2.744-8.609-12.169-11.971-13.243-6.847-2.179-12.263-6.544-18.637-9.808-5.504-2.812-11.416-4.509-17.054-7.054-9.199-4.156-18.935-8.967-26.533-15.52" fill="none" stroke="#f9f2a4" stroke-width="2.9883"/>
   <path d="m361.22 348.3l-12.706-80.481s18.573-19.213 26.247-22.821c7.675-3.625 34.027-7.283 34.027-7.283l28.903 12.869s-27.724 4.867-36.34 10.919c-8.613 6.054-24.128 21.514-24.128 21.514l11.188 82.479-27.19-17.2-1e-3 4e-3z" fill="#181b23" stroke="#181b23" stroke-width="2.9883"/>
   <g fill="#344347">
    <path d="m376.38 340.65c-5.315-4.505-11.952-9.617-18.764-13.919l1.966 11.999c1.518 1.471 3 2.995 4.507 4.413 6.251 5.878 12.595 9.397 19.155 13.646 1.336 0.87 2.865 2.26 4.477 3.817l-1.728-12.782c-3.22-2.14-6.38-4.42-9.63-7.18l0.017 6e-3z"/>
    <path d="m400.96 255.24c1.594 1.559 3.047 2.749 4.54 3.996 5.528-2.456 13.46-4.604 20.079-6.145-6.724-3.345-13.319-7.308-18.433-10.547-1.592-1.026-2.982-2.545-4.412-3.916-6.688 1.056-17.445 2.93-24.123 4.956 8.12 2.7 15.91 5.34 22.34 11.65l9e-3 6e-3z"/>
    <path d="m353.27 286.66c-0.688-0.66-1.564-1.213-2.316-1.844l3.881 23.767c5.076 2.812 10.186 5.579 15.584 7.984 3.699 1.651 7.832 3.519 12.068 5.562l-2.812-20.826c-9.61-3.8-18.28-6.84-26.4-14.64l-5e-3 -3e-3z"/>
   </g>
   <path d="m431.25 291.6c-1.026 1.543-9.438-2.316-18.764-8.631-9.315-6.299-16.029-12.655-14.984-14.184 1.027-1.546 7.559 5.117 16.873 11.408 9.33 6.31 17.91 9.86 16.87 11.4l5e-3 7e-3z" fill="#ead142"/>
   <path d="m489.03 286.92c-0.754 1.348-7.404-4.18-16.556-9.367-9.141-5.167-17.32-8.015-16.557-9.368 0.748-1.348 8.778 1.756 17.925 6.923 9.16 5.19 15.96 10.48 15.19 11.82l-2e-3 -8e-3z" fill="#ead142"/>
  </g>
  <g transform="matrix(.54096 0 0 .60958 167.64 37.063)">
   <path d="m224.5 271.27c-2.493 4.001-3.02 2.803-2.696 8.348 0.163 2.803 1.608 5.96 1.797 9.337 0.174 3.091-0.069 6.324 0.096 9.44 0.177 3.339 2.908 6.446 3.041 9.299 0.2 4.292-3.797 7.825-3.797 9.507 0 1.92 3.317 4.563 5.423 7.379 1.464 1.956 2.107 5.183 4.092 7.332 1.8 1.949 2.613 5.102 4.522 7.056 1.968 2.016 5.539 2.378 7.295 4.24 2.152 2.283 2.07 5.593 3.347 7.378 1.107 1.55 6.578 1.22 9.33 3.868 1.898 1.827 1.531 6.669 3.9 8.791 2.098 1.879 5.769 2.253 8.047 4.226 2.212 1.915 2.725 5.91 4.943 7.794 2.314 1.965 4.887 3.555 7.028 5.354 2.471 2.076 8.137-0.015 10.114 1.648 3.387 2.848 4.326 6.708 5.138 7.521 1.161 1.161 3.649 3.322 7.316 5.69 2.239 1.446 5.446 1.493 8.786 2.627 2.641 0.896 5.292 1.777 8.691 2.155 2.812 0.312 5.527-1.713 8.897-1.934 2.852-0.187 5.579 0.125 8.854-0.551 2.826-0.583 6.345 1.247 9.501 0.232 2.718-0.873 5.761-0.266 8.318-0.998 2.757-0.79 4.776-3.844 7.337-4.508 2.799-0.727 5.635-0.801 8.184-1.427 2.84-0.698 5.008-3.344 7.518-3.984 2.883-0.735 7.082 3.898 9.504 3.139 2.916-0.915 3.501-6.916 5.702-8.039 2.736-1.396 3.991-2.429 5.53-4.472 1.562-2.072 1.389-3.306 1.611-6.419 0.159-2.242 1.435-4.742 1.296-7.905-0.11-2.527 1.087-5.334 0.835-8.234-0.229-2.633-1.709-5.236-2.021-8.026-0.301-2.699 1.321-5.662 0.973-8.378-0.354-2.76 0.104-5.616-0.27-8.259-0.401-2.842-0.621-5.618-1.007-8.164-0.457-3.016-5.565-5.026-5.942-7.37-0.798-4.955 5.729-6.119 3.601-9.625-2.343-3.856-4.447-1.026-8.811-4.492-2.031-1.614-3.096-5.207-5.758-7.291-2.213-1.732-6.34-1.375-8.86-3.319-2.302-1.774-2.397-6.654-4.864-8.522-2.367-1.793-5.313-2.954-7.752-4.761-2.428-1.801-6.084-1.957-8.506-3.703-2.495-1.8-3.133-6.202-5.539-7.87-2.59-1.797-8.133 0.976-10.52-0.579-2.76-1.798-3.733-5.982-6.068-7.322-3.285-1.885-7.104-0.605-9.16-1.237-2.766-0.849-5.415-1.998-8.316-2.72-2.826-0.704-5.111-4.217-8.043-4.702-2.884-0.476-6.237 3.911-9.199 3.741-2.914-0.167-5.738-4.394-8.706-4.175-2.894 0.213-5.348 3.279-8.271 3.943-2.804 0.636-6.709-1.984-9.522-0.86-2.5 1-3.624 6.326-6.512 7.386-2.652 0.974-7.229-3.098-10.018-2.125-2.758 0.962-4.228 5.712-6.943 6.625-2.865 0.964-5.881 1.239-8.498 2.094-3.062 1.001-5.512 3.084-7.927 3.854-5.03 1.59-4.72-1.74-7.03 1.95l-0.011 0.017z" fill="url(#fz)"/>
  </g>
  <g transform="matrix(.54096 0 0 .60958 167.64 37.063)">
   <path d="m399.28 305.37c-2.343-3.856-2.735-3.146-7.099-6.612-2.031-1.614-4.065-3.999-6.727-6.083-2.213-1.732-5.271-2.775-7.791-4.72-2.303-1.774-5.16-3.049-7.627-4.917-2.367-1.793-6.27-1.635-8.708-3.442-2.428-1.8-4.822-3.632-7.244-5.378-2.495-1.8-3.026-6.317-5.433-7.985-2.59-1.797-5.256-3.385-7.643-4.939-2.76-1.798-7.38-0.102-9.715-1.442-3.285-1.885-4.736-6.249-6.795-6.881-2.764-0.849-6.544 1.776-9.445 1.054-2.826-0.704-5.46-1.852-8.392-2.336-2.884-0.476-5.455-4.352-8.417-4.522-2.914-0.167-5.816 4.14-8.783 4.359-2.894 0.213-6.229-2.722-9.153-2.059-2.803 0.636-5.187 3.061-8 4.185-2.5 1-4.972 2.848-7.86 3.908-2.652 0.974-5.296 2.375-8.086 3.347-2.758 0.962-5.775 1.266-8.491 2.179-2.865 0.964-6.221 0.193-8.837 1.048-3.062 1.001-5.676 2.535-8.091 3.305-5.04 1.607-4.728-0.042-8.717 1.708-0.469 0.206-1.83 3.971-1.794 4.573 2.13 1.317 5.325 1.8 7.346 3.195 2.077 1.433 5.832 0.498 7.726 2.035 1.969 1.599 3.608 3.615 5.304 5.352 2.021 2.069 4.116 2.884 6.084 3.951 2.242 1.216 3.43 4.37 5.809 5.317 2.124 0.845 4.755 0.636 7.151 2.096 2.199 1.341 5.018 2.072 6.935 3.888 1.887 1.787 5.271 1.943 7.185 3.69 1.948 1.776 1.232 6.831 3.521 8.049 2.574 1.366 6.995-0.136 10.113 1.182 3.133 1.323 6.222 2.224 8.971 3.125 2.586 0.847 3.645 6.207 6.153 7.05 2.593 0.87 6.201-1.146 8.576 0.011 2.42 1.18 2.34 5.565 4.391 7.352 2.721 2.372 8.864 0.641 9.402 2.312 0.594 1.845-1.033 4.486-0.396 7.765 0.62 3.193 1.256 6.387 2.378 9.606 1.13 3.241-0.837 6.779-0.864 10.094-0.021 2.866 4.401 5.996 4.273 9.101-0.12 2.929-2.983 5.82-3.169 8.858-0.183 2.979 1.287 6.104 1.068 9.092-0.223 3.023 0.781 6.133 0.548 9.07-0.157 2.032-0.811 1.595-0.706 3.648 2.316 3e-3 2.518-0.472 5.146-0.801 2.312-0.289 5.05 1.786 7.613 1.194 2.286-0.528 4.408-1.982 6.901-2.783 2.718-0.873 5.306-1.958 7.863-2.69 2.757-0.79 5.654-0.72 8.215-1.384 2.799-0.727 4.758-4.342 7.307-4.968 2.84-0.698 7.061 4.817 9.572 4.177 2.883-0.735 5.5-2.115 7.922-2.875 2.916-0.915 4.021-5.587 6.223-6.71 2.736-1.396 3.817-2.884 5.356-4.927 1.562-2.072 7.739-2.918 7.962-6.031 0.159-2.242-5.834-5.166-5.973-8.329-0.11-2.527-0.181-5.188-0.433-8.088-0.229-2.633-1.316-5.229-1.628-8.019-0.301-2.699 1.154-5.612 0.806-8.328-0.354-2.76 4.12-6.159 3.747-8.803-0.401-2.842-5.982-4.826-6.368-7.372-0.457-3.017 2.924-6.364 2.547-8.708-0.79-4.98 0.4-5.26-1.73-8.77l1e-3 0.026z" fill="url(#ga)"/>
  </g>
  <path d="m346.76 235.69c3.8398 3.1875 13.135 10.019 22.431 6.3762 5.8002-2.2737 14.511-6.3231 18.426-11.201-1.1122-2.6998-2.687-4.8236-4.484-6.5603-2.8287-2.7321-44.163-36.145-47.891-39.393-4.4462-3.872-7.4767-5.2369-13.942-3.872-3.2014 0.67663-20.814 4.7827-28.089 6.6042-1.4649 0.36636-2.4343 0.88938-3.1192 1.5447 5.7402 4.1098 13.197 9.7374 19.285 14.851 10.305 8.656 33.545 28.467 37.386 31.655l-0.00218-0.00487z" fill="url(#et)"/>
  <path d="m387.61 230.87c-3.915 4.8778-12.627 8.9273-18.426 11.201-9.2959 3.6428-18.591-3.1881-22.431-6.3762-3.8392-3.1875-27.078-22.998-37.384-31.651-6.0874-5.1131-13.545-10.741-19.285-14.851-1.459 1.3838-1.5277 3.4112-1.5277 6.1976 0 2.7712 1.6164 5.0101 9.4966 11.84 6.0436 5.2412 33.191 29.723 51.731 43.72 13.473 10.172 29.774 0.15179 33.412-2.5798 3.8392-2.5047 5.1181-5.1619 5.1846-9.0327 0.03246-2.0604-0.14065-6.9187-0.77357-8.467l0.00271-0.00182z" fill="url(#es)"/>
  <path d="m324.46 216.8c3.3274 3.5179 17.034 13.437 20.482 16.982 1.6348 1.6818 3.8046 3.4715 5.6422 4.7626 1.5498 1.0924 3.4762 2.6974 4.9828 3.3801 8.8691 4.0208 24.545-5.3655 32.047-11.058" fill="none" stroke="#faf19a" stroke-width="1.716"/>
  <path d="m309 203.56c1.7614 1.8678 4.3039 4.7718 6.2287 6.3189 1.8501 1.4868 5.7504 5.1131 8.1053 5.9592" fill="none" stroke="#344347" stroke-width="1.716"/>
  <path d="m313.85 203.69c2.905 2.0592 6.1919 3.1278 8.8794 5.4155 3.4319 2.9272 7.3246 5.0735 10.975 7.6843 3.8928 2.7888 5.6855 7.7167 9.5918 10.62 1.2215 0.90704 2.8731 1.3246 3.9756 2.5651 1.803 2.036 5.1494 4.5682 7.0942 6.4719 2.655 2.5974 6.577 1.26 10.101 1.1454" fill="none" stroke="#f9f2a4" stroke-width="1.716"/>
  <path d="m320.42 196.36c6.4131 5.6148 14.799 10.631 21.41 15.939 4.4619 3.5837 7.8023 7.5893 12.532 10.553 4.3759 2.7388 9.6773 4.6608 13.905 7.6142 1.2848 0.90035 4.5052 4.0128 5.9609 3.6892 4.5906-1.018-3.8203-8.311-5.5946-9.2686-3.6126-1.9452-6.2682-5.1266-9.5356-7.7063-2.82-2.2262-5.9555-3.7928-8.8696-5.8629-4.7616-3.3764-9.7693-7.2088-13.456-11.94" fill="none" stroke="#f9f2a4" stroke-width="1.716"/>
  <path d="m307.7 256.57l-0.84985-51.155s11.723-10.343 16.235-11.929c4.5186-1.591 19.343-1.591 19.343-1.591l14.966 10.5s-15.677 0.637-20.895 3.6581c-5.2192 3.0198-14.967 11.291-14.967 11.291l-0.13903 52.268-13.692-13.033-0.00109-0.00976z" fill="#181b23" stroke="#181b23" stroke-width="1.716"/>
  <g transform="matrix(.54096 0 0 .60958 167.64 37.063)" fill="#344347">
   <path d="m275.46 354.45c-4.787-5.345-10.834-11.503-17.178-16.86l0.31 12.525c1.343 1.71 2.638 3.478 3.976 5.135 5.55 6.895 11.521 11.376 17.609 16.641 1.242 1.079 2.602 2.714 4.027 4.529l0.047-13.284c-2.96-2.65-5.87-5.43-8.8-8.7l9e-3 0.014z"/>
   <path d="m312.64 270.78c1.4 1.823 2.721 3.233 4.062 4.724 5.982-1.723 14.388-2.79 21.356-3.426-6.386-4.366-12.56-9.346-17.312-13.379-1.482-1.266-2.685-3.012-3.952-4.618-6.975 0.136-18.209 0.526-25.319 1.642 7.93 3.94 15.5 7.72 21.16 15.07l5e-3 -0.013z"/>
   <path d="m259.54 296.09c-0.607-0.771-1.43-1.46-2.101-2.213l0.59 24.799c4.78 3.586 9.6 7.14 14.773 10.36 3.542 2.206 7.494 4.693 11.526 7.379l0.082-21.648c-9.28-5.25-17.7-9.57-24.87-18.68v3e-3z"/>
  </g>
  <path d="m309.72 200.84c-0.47983 0.83331-5.9089-3.0814-9.3219-5.5904-3.4129-2.5078-6.1638-5.7825-5.3139-6.0452 2.6756-0.82782 2.7779 2.036 6.1816 4.5401 3.4135 2.5054 8.9313 6.2604 8.4499 7.0955h0.00431z" fill="#cca724"/>
  <path d="m378.03 225.58c-0.55448 0.94361-5.7202-4.3518-12.789-9.7411-7.0601-5.3752-13.354-8.809-12.788-9.7404 0.55233-0.94666 6.7377 2.6614 13.797 8.0373 7.0758 5.3887 12.345 10.503 11.782 11.442l-0.00216 0.00246z" fill="#ead142"/>
  <path d="m365.5 235.14c-0.55558 0.93935-6.7334-1.4118-11.778-5.2625-5.0385-3.8385-7.0428-7.7124-6.4775-8.6462 0.55556-0.94243 4.0713 3.118 9.1104 6.9534 5.0472 3.8464 9.7049 6.0104 9.1423 6.9492l0.00325 0.00608z" fill="#ead142"/>
  <g transform="matrix(.63209 0 0 .68927 423.83 59.282)">
   <path d="m85.465 247.54s-4.938-58.063 97.004-61.285c-14.725 20.336-67.592 81.655-67.592 81.655l-29.415-20.38 3e-3 0.01z" fill="url(#ex)" stroke="#008a2e" stroke-width="2.9883"/>
   <path d="m97.943 243.47s4.582-61.904 112.34-48.147c-18.917 18.911-84.829 74.509-84.829 74.509l-27.507-26.36-4e-3 -2e-3z" fill="url(#ey)" stroke="#008a2e" stroke-width="2.9883"/>
   <path d="m7.715 271.06v41.241c0 22.791 5.422 32.556 18.444 44.493 13.022 11.936 34.729 21.7 55.349 5.422 20.621-16.279 29.299-18.444 40.155-21.702 10.85-3.256 22.792-8.678 23.872-31.47 1.085-22.786 18.456-44.498 9.771-60.775-8.687-16.278-80.312-27.124-80.312-27.124l-67.273 49.92-6e-3 -5e-3z" fill="#181b23" stroke="#181b23" stroke-width="2.9883"/>
   <path d="m90.128 312.3c-2.585-29.499-2.03-59.925-5.586-89.503-5.801-1.058-9.611-1.642-9.611-1.642l-8.44 6.257c3.601 19.145 5.919 36.73 0.974 57.247-3.641 15.156 3.328 27.595 6.146 41.905 2.503 12.747 1.529 26.599 1.367 39.771 2.159-1.155 4.324-2.411 6.466-4.109 4.202-3.315 7.815-5.93 11.148-8.206 0.964-14.29-1.197-27.34-2.464-41.73v0.01z" fill="#344347"/>
   <path d="m24.98 283.82c0.793-8.533 0.509-17.329 0.607-26.065l-17.935 13.3v41.241c0 14.784 2.329 24.07 7.487 32.038 1.15-9.503 2.691-18.152 3.399-22.191 2.274-13.03 5.276-25.57 6.442-38.33v7e-3z" fill="#344347"/>
   <path d="m139.81 274.08c5e-3 -13.268-6.707-26.996-10.016-40.292-2.528-0.84-5.114-1.646-7.763-2.416 1.038 11.545-0.087 23.771 0.571 34.412 1.073 17.154 6.508 33.661 8.626 50.803 0.783 6.332 0.548 13.074 0.11 19.914 2.698-1.536 5.185-3.566 7.332-6.257-0.555-6.367-0.986-12.724-0.794-18.338 0.43-12.59 1.93-25.14 1.93-37.81l4e-3 -0.016z" fill="#344347"/>
   <circle cx="82.593" cy="223.32" r="13.021" fill="url(#dr)"/>
   <path d="m80.965 231.46c0 7.19-5.83 13.022-13.021 13.022s-13.022-5.832-13.022-13.022c0-7.195 5.832-13.022 13.022-13.022s13.021 5.82 13.021 13.02v2e-3z" fill="url(#ez)"/>
   <path d="m100.5 233.09c0 7.192-5.831 13.022-13.02 13.022-7.198 0-13.029-5.83-13.029-13.022 0-7.195 5.831-13.027 13.029-13.027 7.189 0 13.02 5.83 13.02 13.03v-3e-3z" fill="url(#fa)"/>
   <path d="m120.04 229.01c0 7.192-5.832 13.029-13.027 13.029-7.19 0-13.022-5.837-13.022-13.029 0-7.188 5.832-13.02 13.022-13.02s13.03 5.83 13.03 13.02h-3e-3z" fill="url(#fb)"/>
   <path d="m64.687 243.66c0 7.197-5.831 13.028-13.022 13.028-7.19 0-13.02-5.831-13.02-13.028 0-7.19 5.829-13.021 13.02-13.021s13.022 5.83 13.022 13.02v1e-3z" fill="url(#fc)"/>
   <path d="m84.223 245.29c0 7.195-5.832 13.02-13.022 13.02-7.195 0-13.027-5.824-13.027-13.02 0-7.191 5.832-13.022 13.027-13.022 7.19 0 13.022 5.83 13.022 13.02v2e-3z" fill="url(#fd)"/>
   <circle cx="90.733" cy="241.22" r="13.024" fill="url(#ds)"/>
   <path d="m116.78 245.29c0 7.195-5.832 13.02-13.022 13.02-7.197 0-13.026-5.824-13.026-13.02 0-7.191 5.829-13.022 13.026-13.022 7.19 0 13.02 5.83 13.02 13.02l2e-3 2e-3z" fill="url(#fe)"/>
   <path d="m136.31 246.92c0 7.19-5.829 13.021-13.026 13.021-7.191 0-13.022-5.831-13.022-13.021 0-7.191 5.831-13.022 13.022-13.022 7.2 0 13.03 5.83 13.03 13.02l-4e-3 2e-3z" fill="url(#ff)"/>
   <path d="m138.75 237.97c0 7.19-5.831 13.026-13.021 13.026-7.191 0-13.022-5.836-13.022-13.026s5.831-13.022 13.022-13.022c7.19-0.01 13.02 5.83 13.02 13.02l1e-3 2e-3z" fill="url(#fg)"/>
   <circle cx="142.82" cy="242.85" r="13.022" fill="url(#dt)"/>
   <path d="m42.712 256.69c0 7.191-5.832 13.022-13.022 13.022-7.196 0-13.027-5.831-13.027-13.022 0-7.19 5.832-13.028 13.027-13.028 7.191 0 13.022 5.84 13.022 13.03v-2e-3z" fill="url(#fh)"/>
   <path d="m62.248 258.31c0 7.198-5.831 13.028-13.026 13.028-7.191 0-13.022-5.831-13.022-13.028 0-7.189 5.831-13.02 13.022-13.02 7.195 0 13.026 5.83 13.026 13.02z" fill="url(#fi)"/>
   <path d="m81.783 254.24c0 7.196-5.838 13.022-13.027 13.022-7.19 0-13.022-5.826-13.022-13.022 0-7.191 5.832-13.021 13.022-13.021 7.189 0 13.027 5.83 13.027 13.02v1e-3z" fill="url(#fj)"/>
   <path d="m94.804 258.31c0 7.198-5.831 13.028-13.021 13.028-7.198 0-13.027-5.831-13.027-13.028 0-7.189 5.829-13.02 13.027-13.02 7.191 0 13.021 5.83 13.021 13.02z" fill="url(#fk)"/>
   <path d="m114.34 259.94c0 7.197-5.836 13.028-13.027 13.028-7.19 0-13.021-5.831-13.021-13.028 0-7.19 5.831-13.021 13.021-13.021s13.03 5.83 13.03 13.02l-3e-3 1e-3z" fill="url(#fl)"/>
   <circle cx="120.85" cy="255.87" r="13.022" fill="url(#du)"/>
   <path d="m60.619 270.52c0 7.189-5.831 13.027-13.021 13.027-7.198 0-13.027-5.838-13.027-13.027 0-7.192 5.829-13.022 13.027-13.022 7.191 0 13.021 5.83 13.021 13.02v2e-3z" fill="url(#fm)"/>
   <path d="m80.153 272.15c0 7.189-5.83 13.021-13.027 13.021-7.19 0-13.02-5.832-13.02-13.021 0-7.191 5.83-13.023 13.02-13.023 7.197 0 13.027 5.83 13.027 13.02v3e-3z" fill="url(#fn)"/>
   <circle cx="86.661" cy="268.08" r="13.022" fill="url(#dv)"/>
   <path d="m112.71 272.15c0 7.189-5.831 13.021-13.027 13.021-7.19 0-13.021-5.832-13.021-13.021 0-7.191 5.831-13.023 13.021-13.023 7.197 0 13.027 5.83 13.027 13.02v3e-3z" fill="url(#fo)"/>
   <circle cx="119.22" cy="273.78" r="13.021" fill="url(#dw)"/>
   <path d="m151.77 269.71c0 7.188-5.829 13.02-13.021 13.02-7.19 0-13.021-5.832-13.021-13.02 0-7.192 5.831-13.022 13.021-13.022s13.02 5.83 13.02 13.02l1e-3 2e-3z" fill="url(#fp)"/>
   <path d="m33.759 277.85c0 7.196-5.832 13.021-13.022 13.021s-13.022-5.825-13.022-13.021c0-7.189 5.832-13.021 13.022-13.021s13.022 5.83 13.022 13.02v1e-3z" fill="url(#fq)"/>
   <path d="m26.042 272.6c0 7.189-5.829 13.021-13.02 13.021s-13.022-5.83-13.022-13.02c0-7.198 5.831-13.029 13.022-13.029s13.02 5.83 13.02 13.03v-2e-3z" fill="url(#fr)"/>
   <path d="m53.294 279.48c0 7.19-5.831 13.026-13.021 13.026-7.198 0-13.027-5.836-13.027-13.026 0-7.191 5.829-13.022 13.027-13.022 7.19 0 13.021 5.82 13.021 13.02v2e-3z" fill="url(#fs)"/>
   <path d="m72.828 275.41c0 7.189-5.83 13.021-13.027 13.021-7.19 0-13.02-5.832-13.02-13.021 0-7.191 5.829-13.022 13.02-13.022 7.198 0 13.027 5.83 13.027 13.02v2e-3z" fill="url(#ft)"/>
   <path d="m85.851 279.48c0 7.19-5.832 13.026-13.022 13.026-7.195 0-13.027-5.836-13.027-13.026 0-7.191 5.832-13.022 13.027-13.022 7.19 0 13.022 5.82 13.022 13.02v2e-3z" fill="url(#fu)"/>
   <path d="m105.38 281.1c0 7.19-5.831 13.021-13.027 13.021-7.191 0-13.021-5.831-13.021-13.021 0-7.191 5.831-13.022 13.021-13.022 7.202 0 13.027 5.83 13.027 13.02v2e-3z" fill="url(#fv)"/>
   <circle cx="39.455" cy="288.43" r="13.021" fill="url(#dx)"/>
   <circle cx="58.991" cy="297.38" r="13.021" fill="url(#dy)"/>
   <circle cx="72.012" cy="288.43" r="13.022" fill="url(#dz)"/>
   <circle cx="91.547" cy="290.06" r="13.022" fill="url(#en)"/>
   <path d="m124.92 277.04c0 7.192-5.83 13.022-13.021 13.022s-13.022-5.83-13.022-13.022c0-7.188 5.832-13.02 13.022-13.02s13.02 5.83 13.02 13.02h1e-3z" fill="url(#fw)"/>
  </g>
  <polygon transform="matrix(.63209 0 0 .68927 423.83 59.282)" points="33.778 371.23 33.778 371.23 33.771 371.23" fill="#f29769"/>
  <path d="m547.26 264.5s-3.1212-40.021 61.315-42.242c-9.3074 14.017-42.724 56.283-42.724 56.283l-18.593-14.047 0.0019 0.00688z" fill="url(#hb)" stroke="#008a2e" stroke-width="1.9725"/>
  <path d="m550 267.46s2.8962-42.669 71.008-33.187c-11.957 13.035-53.619 51.357-53.619 51.357l-17.387-18.169-0.00252-0.00137z" fill="url(#ha)" stroke="#008a2e" stroke-width="1.9725"/>
  <g transform="matrix(.63209 0 0 .68927 493.23 93.88)">
   <path d="m7.715 271.06v41.241c0 22.791 5.422 32.556 18.444 44.493 13.022 11.936 34.729 21.7 55.349 5.422 20.621-16.279 29.299-18.444 40.155-21.702 10.85-3.256 22.792-8.678 23.872-31.47 1.085-22.786 18.456-44.498 9.771-60.775-8.687-16.278-80.312-27.124-80.312-27.124l-67.273 49.92-6e-3 -5e-3z" fill="#181b23" stroke="#181b23" stroke-width="2.9883"/>
   <path d="m90.128 312.3c-2.585-29.499-2.03-59.925-5.586-89.503-5.801-1.058-9.611-1.642-9.611-1.642l-8.44 6.257c3.601 19.145 5.919 36.73 0.974 57.247-3.641 15.156 3.328 27.595 6.146 41.905 2.503 12.747 1.529 26.599 1.367 39.771 2.159-1.155 4.324-2.411 6.466-4.109 4.202-3.315 7.815-5.93 11.148-8.206 0.964-14.29-1.197-27.34-2.464-41.73v0.01z" fill="#344347"/>
   <path d="m24.98 283.82c0.793-8.533 0.509-17.329 0.607-26.065l-17.935 13.3v41.241c0 14.784 2.329 24.07 7.487 32.038 1.15-9.503 2.691-18.152 3.399-22.191 2.274-13.03 5.276-25.57 6.442-38.33v7e-3z" fill="#344347"/>
   <path d="m139.81 274.08c5e-3 -13.268-6.707-26.996-10.016-40.292-2.528-0.84-5.114-1.646-7.763-2.416 1.038 11.545-0.087 23.771 0.571 34.412 1.073 17.154 6.508 33.661 8.626 50.803 0.783 6.332 0.548 13.074 0.11 19.914 2.698-1.536 5.185-3.566 7.332-6.257-0.555-6.367-0.986-12.724-0.794-18.338 0.43-12.59 1.93-25.14 1.93-37.81l4e-3 -0.016z" fill="#344347"/>
  </g>
  <circle transform="matrix(.63209 0 0 .68927 493.23 93.88)" cx="82.593" cy="223.32" r="13.021" fill="url(#dr)"/>
  <path d="m544.41 253.42c0 4.9559-3.6851 8.9757-8.2304 8.9757s-8.231-4.0198-8.231-8.9757c0-4.9593 3.6863-8.9757 8.231-8.9757s8.2304 4.0116 8.2304 8.9744v0.00138z" fill="url(#gz)"/>
  <path d="m556.76 254.54c0 4.9573-3.6857 8.9757-8.2298 8.9757-4.5498 0-8.2354-4.0185-8.2354-8.9757 0-4.9593 3.6857-8.9792 8.2354-8.9792 4.5441 0 8.2298 4.0185 8.2298 8.9812v-0.00207z" fill="url(#gy)"/>
  <path d="m569.11 251.73c0 4.9573-3.6863 8.9806-8.2342 8.9806-4.5447 0-8.231-4.0233-8.231-8.9806 0-4.9545 3.6863-8.9744 8.231-8.9744s8.2361 4.0185 8.2361 8.9744h-0.0019z" fill="url(#gx)"/>
  <path d="m534.12 261.83c0 4.9607-3.6857 8.9799-8.231 8.9799-4.5447 0-8.2298-4.0192-8.2298-8.9799 0-4.9559 3.6844-8.975 8.2298-8.975s8.231 4.0185 8.231 8.9744v6.9e-4z" fill="url(#gw)"/>
  <path d="m546.47 262.95c0 4.9593-3.6863 8.9744-8.231 8.9744-4.5478 0-8.2342-4.0143-8.2342-8.9744 0-4.9566 3.6863-8.9757 8.2342-8.9757 4.5447 0 8.231 4.0185 8.231 8.9744v0.00138z" fill="url(#gv)"/>
  <circle transform="matrix(.63209 0 0 .68927 493.23 93.88)" cx="90.733" cy="241.22" r="13.024" fill="url(#ds)"/>
  <path d="m567.05 262.95c0 4.9593-3.6863 8.9744-8.231 8.9744-4.5491 0-8.2335-4.0143-8.2335-8.9744 0-4.9566 3.6844-8.9757 8.2335-8.9757 4.5447 0 8.2298 4.0185 8.2298 8.9744l0.00127 0.00138z" fill="url(#gu)"/>
  <path d="m579.39 264.08c0 4.9559-3.6844 8.975-8.2335 8.975-4.5453 0-8.231-4.0192-8.231-8.975 0-4.9566 3.6857-8.9757 8.231-8.9757 4.551 0 8.2361 4.0185 8.2361 8.9744l-0.00254 0.00139z" fill="url(#gt)"/>
  <path d="m580.94 257.91c0 4.9559-3.6857 8.9785-8.2304 8.9785-4.5453 0-8.231-4.0226-8.231-8.9785s3.6857-8.9757 8.231-8.9757c4.5447-0.00689 8.2298 4.0185 8.2298 8.9744l6.4e-4 0.00138z" fill="url(#gs)"/>
  <circle transform="matrix(.63209 0 0 .68927 491.26 97.563)" cx="142.82" cy="242.85" r="13.022" fill="url(#dt)"/>
  <path d="m520.23 270.81c0 4.9566-3.6863 8.9757-8.231 8.9757-4.5485 0-8.2342-4.0192-8.2342-8.9757 0-4.9559 3.6863-8.9799 8.2342-8.9799 4.5453 0 8.231 4.0254 8.231 8.9812v-0.00139z" fill="url(#gr)"/>
  <path d="m534.2 271.93c0 4.9614-3.6857 8.9799-8.2335 8.9799-4.5453 0-8.231-4.0192-8.231-8.9799 0-4.9552 3.6857-8.9744 8.231-8.9744 4.5478 0 8.2335 4.0185 8.2335 8.9744z" fill="url(#gq)"/>
  <path d="m544.93 269.12c0 4.96-3.6901 8.9757-8.2342 8.9757-4.5447 0-8.231-4.0157-8.231-8.9757 0-4.9566 3.6863-8.975 8.231-8.975 4.5441 0 8.2342 4.0185 8.2342 8.9744v6.9e-4z" fill="url(#gp)"/>
  <path d="m553.16 271.93c0 4.9614-3.6857 8.9799-8.2304 8.9799-4.5497 0-8.2342-4.0192-8.2342-8.9799 0-4.9552 3.6844-8.9744 8.2342-8.9744 4.5453 0 8.2304 4.0185 8.2304 8.9744z" fill="url(#go)"/>
  <path d="m563.89 273.05c0 4.9607-3.6888 8.9799-8.2342 8.9799-4.5447 0-8.2304-4.0192-8.2304-8.9799 0-4.9559 3.6857-8.975 8.2304-8.975s8.2361 4.0185 8.2361 8.9744l-0.0019 6.8e-4z" fill="url(#gn)"/>
  <circle transform="matrix(.63209 0 0 .68927 493.23 93.88)" cx="120.85" cy="255.87" r="13.022" fill="url(#du)"/>
  <path d="m531.55 280.34c0 4.9552-3.6857 8.9792-8.2304 8.9792-4.5498 0-8.2342-4.024-8.2342-8.9792 0-4.9573 3.6844-8.9757 8.2342-8.9757 4.5453 0 8.2304 4.0185 8.2304 8.9744v0.00138z" fill="url(#gm)"/>
  <path d="m543.9 281.47c0 4.9552-3.6851 8.975-8.2342 8.975-4.5447 0-8.2298-4.0198-8.2298-8.975 0-4.9566 3.685-8.9764 8.2298-8.9764 4.5491 0 8.2342 4.0185 8.2342 8.9744v0.00207z" fill="url(#gl)"/>
  <circle transform="matrix(.63209 0 0 .68927 493.23 93.88)" cx="86.661" cy="268.08" r="13.022" fill="url(#dv)"/>
  <path d="m564.48 281.47c0 4.9552-3.6857 8.975-8.2342 8.975-4.5447 0-8.2304-4.0198-8.2304-8.975 0-4.9566 3.6857-8.9764 8.2304-8.9764 4.5491 0 8.2342 4.0185 8.2342 8.9744v0.00207z" fill="url(#gk)"/>
  <circle transform="matrix(.63209 0 0 .68927 493.23 93.88)" cx="119.22" cy="273.78" r="13.021" fill="url(#dw)"/>
  <path d="m589.17 279.78c0 4.9545-3.6844 8.9744-8.2304 8.9744-4.5447 0-8.2304-4.0198-8.2304-8.9744 0-4.9573 3.6857-8.9757 8.2304-8.9757s8.2298 4.0185 8.2298 8.9744l6.4e-4 0.00139z" fill="url(#gj)"/>
  <path d="m514.57 285.39c0 4.96-3.6863 8.975-8.231 8.975s-8.231-4.015-8.231-8.975c0-4.9552 3.6863-8.975 8.231-8.975s8.231 4.0185 8.231 8.9744v7e-4z" fill="url(#gi)"/>
  <path d="m516.26 278.09c0 4.9552-3.6844 8.975-8.2298 8.975s-8.231-4.0185-8.231-8.9744c0-4.9614 3.6857-8.9806 8.231-8.9806s8.2298 4.0185 8.2298 8.9812v-0.00138z" fill="url(#gh)"/>
  <path d="m526.92 286.52c0 4.9559-3.6857 8.9785-8.2304 8.9785-4.5497 0-8.2342-4.0226-8.2342-8.9785 0-4.9566 3.6844-8.9757 8.2342-8.9757 4.5447 0 8.2304 4.0116 8.2304 8.9744v0.00138z" fill="url(#gg)"/>
  <path d="m539.27 283.71c0 4.9552-3.685 8.975-8.2342 8.975-4.5447 0-8.2298-4.0198-8.2298-8.975 0-4.9566 3.6844-8.9757 8.2298-8.9757 4.5498 0 8.2342 4.0185 8.2342 8.9744v0.00138z" fill="url(#gf)"/>
  <path d="m547.5 286.52c0 4.9559-3.6863 8.9785-8.231 8.9785-4.5478 0-8.2342-4.0226-8.2342-8.9785 0-4.9566 3.6863-8.9757 8.2342-8.9757 4.5447 0 8.231 4.0116 8.231 8.9744v0.00138z" fill="url(#ge)"/>
  <path d="m558.22 287.63c0 4.9559-3.6857 8.975-8.2342 8.975-4.5453 0-8.2304-4.0192-8.2304-8.975 0-4.9566 3.6857-8.9757 8.2304-8.9757 4.5523 0 8.2342 4.0185 8.2342 8.9744v0.00138z" fill="url(#gd)"/>
  <circle transform="matrix(.63209 0 0 .68927 493.23 93.88)" cx="39.455" cy="288.43" r="13.021" fill="url(#dx)"/>
  <circle transform="matrix(.63209 0 0 .68927 493.23 93.88)" cx="58.991" cy="297.38" r="13.021" fill="url(#dy)"/>
  <circle transform="matrix(.63209 0 0 .68927 493.23 93.88)" cx="72.012" cy="288.43" r="13.022" fill="url(#dz)"/>
  <circle transform="matrix(.63209 0 0 .68927 487.98 96.09)" cx="91.547" cy="290.06" r="13.022" fill="url(#en)"/>
  <path d="m572.19 284.84c0 4.9573-3.685 8.9757-8.2304 8.9757s-8.231-4.0185-8.231-8.9757c0-4.9545 3.6863-8.9744 8.231-8.9744s8.2298 4.0185 8.2298 8.9744h6.3e-4z" fill="url(#gc)"/>
  <path d="m345.93 259.46c-22.557 0-40.844 11.461-40.844 25.599v31.577c0 14.138 18.288 25.599 40.844 25.599 22.557 0 40.846-11.461 40.846-25.599v-31.577c0-14.13-18.291-25.596-40.847-25.596l0.0012-0.00267z" fill="#181b23" stroke="#181b23" stroke-width="1.9028"/>
  <path d="m317.8 311.35c0.80185-3.8452 0.78728-7.0148 0.56737-10.696-0.41854-6.9688 1.4428-13.791 1.2162-20.725-0.1561-4.7682-0.66273-9.1967-1.1803-13.712-2.2404 1.2855-4.265 2.7152-6.0024 4.2843 0.01094 7.2738-0.082 14.449-1.0175 21.64-0.31893 2.4662-0.04618 4.9237-0.32318 7.3866-0.2442 2.1885-1.492 4.6394-1.1135 6.918 0.19134 1.1687 1.0072 2.31 1.5247 3.3853 1.6171 3.3572 1.5989 3.4433 0.44649 7.6743-0.69858 2.5676-1.8649 6.1865-2.9037 9.9682 2.0168 2.6958 4.7225 5.1506 8.0338 7.2311-0.15976-1.0606-0.31831-2.1031-0.4149-3.1083-0.71256-7.4153-0.36509-12.915 1.167-20.244v-0.00266z" fill="#344347"/>
  <path d="m374.8 319.51c-0.6913-2.8987-0.58135-5.5965-1.06-8.5379-0.41188-2.4969-1.1633-4.8303-1.5217-7.3005-0.3329-2.2873 0.43252-4.8196 0.02127-7.0902-0.40033-2.2092-1.9676-4.1061-2.6729-6.1872-1.574-4.6274-3.2014-9.9723-2.7124-14.927 0.30556-3.1316 0.99017-6.0697 0.88325-9.2674-0.03158-0.97047-0.18771-1.9489-0.3827-2.9221-6.226-2.4041-13.529-3.8184-21.379-3.8184-2.3005 0-4.5426 0.14883-6.7405 0.37843 0.35901 1.5672 0.66761 3.1316 0.67732 4.7288 0.01398 2.0297-0.91909 4.0781-0.68765 6.2025 0.32925 3.0342 2.7864 5.7026 2.6626 8.8423-0.02492 0.61205-1.0704 0.67478-1.1736 1.3829-0.20229 1.391 0.53883 3.3112 0.12027 4.6127-1.4032 4.3711-3.0355 3.2531-0.13484 8.4605 1.6493 2.9614 2.9286 4.9057 3.3757 7.6556 0.46837 2.8633 1.5278 8.4178 0.84743 10.974-0.40701 1.5258-1.9245 0.38445-1.6517 2.5903 0.11724 0.94644 1.3893 2.0484 2.0454 2.591-3.3466 5.1814-4.5694 10.599-6.2502 16.615-0.65304 2.3367-1.0849 2.575-0.32257 4.7749 0.39424 1.1373 1.1943 2.0063 2.1802 2.7492 1.659 0.12548 3.3362 0.21558 5.0523 0.21558 10.113 0 19.352-2.318 26.485-6.1325 1.5357-1.8188 1.1633-2.4889 1.2763-5.6099 0.15794-4.2916 2.0229-6.9548 1.0631-10.986v0.00534z" fill="#22363b"/>
  <path d="m386.62 285.06c0-1.8822-1.1518-3.406-2.7124-3.9186-0.17009-0.64676-0.38574-1.2782-0.63723-1.9049 0.36145-0.63608 0.62691-1.3489 0.62691-2.1552 0-2.2987-1.6918-4.1562-3.7839-4.1562-0.06318 0-0.11298 0.03471-0.17738 0.03804-0.06317-2.2359-1.7088-4.0273-3.7584-4.0273-0.47869 0-0.92883 0.1208-1.3504 0.30034-0.45743-0.32771-0.83345-0.69414-1.3188-1.0052-0.24845-2.0297-1.7659-3.6196-3.6837-3.6196-0.29887 0-0.56435 0.11347-0.84439 0.18689-0.62387-0.49458-1.3504-0.84898-2.1802-0.84898-0.55704 0-1.0776 0.14817-1.5533 0.38645-0.02429-0.00934-0.05285-0.01536-0.07715-0.0287-0.54307-1.5652-1.8971-2.6871-3.5136-2.6871-0.89785 0-1.6845 0.38979-2.3333 0.96178-0.36631-0.0861-0.75204-0.1395-1.1208-0.21758-0.65972-1.2154-1.8145-2.0724-3.202-2.0724-0.92153 0-1.7374 0.40447-2.3928 1.0092-0.69009-0.81427-1.6554-1.3402-2.7506-1.3402-0.83709 0-1.5673 0.35509-2.1948 0.86167-0.68039-0.73685-1.6128-1.196-2.6449-1.196-1.2301 0-2.2689 0.68146-2.9608 1.6786-1.741 0.12081-3.4541 0.26497-5.1161 0.52528-0.62874-0.50992-1.3656-0.87234-2.2094-0.87234-1.3188 0-2.422 0.7829-3.0987 1.9049-0.79458 0.20289-1.5108 0.48254-2.2768 0.72083-0.56313-0.36709-1.1846-0.63073-1.8856-0.63073-1.546 0-2.8654 1.0238-3.4541 2.4809-0.51331-0.28834-1.074-0.48657-1.6906-0.48657-1.4154 0-2.5994 0.8837-3.2481 2.1465-0.23024-0.04673-0.44042-0.15219-0.68462-0.15219-1.6201 0-2.9742 1.1266-3.5166 2.6998-1.5314 0.08611-2.8047 1.1413-3.3265 2.6458-0.04252-0.00401-0.07472-0.02871-0.11724-0.02871-2.0921 0-3.7827 1.8588-3.7827 4.1575 0 0.71283 0.20594 1.3522 0.49327 1.9356-1.0042 0.74887-1.7021 1.9489-1.7021 3.3819 0 1.3042 0.58196 2.4228 1.436 3.1824 0 0.05473-0.02551 0.10479-0.02551 0.15951 0 0.72084 0.23692 1.403 0.33958 2.1078-0.86443 0.76421-1.4488 1.8815-1.4488 3.1944 0 2.1231 1.4676 3.8104 3.3423 4.0601 0.03585 2.258 1.6985 4.0847 3.7694 4.0847 0.16704 0 0.30433-0.08076 0.46835-0.10012 0.19136 0.17955 0.43192 0.33439 0.6342 0.51394 0.12028 2.1705 1.7258 3.9079 3.7372 3.9079 0.14519 0 0.26547-0.07409 0.407-0.0901 0.52911 1.5965 1.8862 2.7499 3.5252 2.7499 0.70163 0 1.3188-0.26432 1.8825-0.63007 0.88023 0.37778 1.8546 0.65743 2.7834 0.99316 0.55279 1.5344 1.9044 2.6297 3.5033 2.6297 0.74051 0 1.3893-0.29702 1.9706-0.69881 0.66699 1.1887 1.809 2.0257 3.1734 2.0257 1.0345 0 1.9676-0.4592 2.648-1.1954 2.4602 0.30769 5.0037 0.47922 7.6086 0.47922 6.4392 0 12.414-1.0866 17.742-2.848 0.63481 0.53395 1.3935 0.90705 2.2549 0.90705 1.2404 0 2.2902-0.69746 2.9778-1.71 0.31162 0.08944 0.61718 0.21026 0.95736 0.21026 2.0532 0 3.7013-1.8041 3.762-4.04 0.05286-0.03604 0.09174-0.07342 0.14155-0.10947 0.61719 0.48391 1.3292 0.82564 2.145 0.82564 2.0921 0 3.7839-1.8622 3.7839-4.1568 0-0.56865-0.10692-1.1146-0.29462-1.6085 0.71621-0.81896 1.4683-1.6212 2.0308-2.4929 0.18163 0.02603 0.34444 0.11614 0.53275 0.11614 2.0915 0 3.7827-1.8622 3.7827-4.1562 0-0.74755-0.2272-1.4103-0.54307-2.017 0.71681-0.77423 1.1603-1.8154 1.1603-2.9835l-0.0085 0.01603z" fill="url(#gb)"/>
  <polygon transform="matrix(.60747 0 0 .66744 304.21 -10.486)" points="24.962 466.44 38.878 464.58 48.157 471.07 67.646 474.79 69.509 461.8 76.932 454.38 69.509 444.17 40.734 435.82 27.747 444.17" fill="#ea651a"/>
  <polygon transform="matrix(.60747 0 0 .66744 308.32 -9.7493)" points="37.956 433.97 62.083 445.1 72.292 459.02 85.278 462.73 77.854 441.38 52.804 409.83 33.315 419.12" fill="#ee9960"/>
  <path d="m347.44 282.04c-5.8457-5.6098-0.56755-21.358 13.714-12.635 14.285 8.7221 18.097 13.877 9.0059 16.99-9.0835 3.1163-19.475 4.9865-20.777 1.2508-1.2988-3.7377-1.9451-5.5998-1.9451-5.5998l0.00183-0.00601z" fill="#fdd180"/>
  <g transform="matrix(.60747 0 0 .66744 297.15 -10.486)">
   <polygon points="64.658 450.35 73.898 433.55 102.46 453.72 94.903 474.72" fill="#b1b772"/>
   <polygon points="73.898 433.55 78.099 427.67 105.82 441.95 102.46 453.72" fill="#5e6a21"/>
  </g>
  <polygon transform="matrix(.60747 0 0 .66744 303.72 -10.486)" points="33.778 371.23 33.778 371.23 33.771 371.23" fill="#f29769"/>
  <g transform="matrix(.63209 0 0 .68927 493.23 93.88)">
   <path d="m-402.06 238.13c-32.586 0-59.005 16.579-59.005 37.029v45.677c0 20.451 26.419 37.029 59.005 37.029 32.587 0 59.007-16.578 59.007-37.029v-45.677c0-20.439-26.424-37.025-59.009-37.025l0.00176-0.00386z" fill="#181b23" stroke="#181b23" stroke-width="2.7506"/>
   <path d="m-442.7 313.2c1.1584-5.562 1.1373-10.147 0.81965-15.472-0.60465-10.08 2.0842-19.948 1.7569-29.979-0.22553-6.8972-0.95743-13.303-1.7051-19.834-3.2365 1.8595-6.1614 3.9275-8.6713 6.1973 0.0158 10.522-0.11847 20.9-1.4699 31.303-0.46072 3.5674-0.06669 7.1222-0.46686 10.685-0.35279 3.1657-2.1553 6.7109-1.6086 10.007 0.27644 1.6905 1.455 3.3414 2.2027 4.8968 2.3361 4.8562 2.3098 4.9808 0.64502 11.101-1.0092 3.7141-2.6942 8.9488-4.1948 14.419 2.9135 3.8995 6.8222 7.4504 11.606 10.46-0.23081-1.5341-0.45985-3.0422-0.59939-4.4961-1.0294-10.726-0.52742-18.682 1.6858-29.282v-0.00386z" fill="#344347"/>
   <path d="m-360.35 325c-0.99868-4.193-0.83983-8.0954-1.5314-12.35-0.595-3.6118-1.6806-6.987-2.1983-10.56-0.48091-3.3086 0.62483-6.9716 0.03071-10.256-0.57832-3.1957-2.8425-5.9395-3.8613-8.9498-2.2738-6.6935-4.6248-14.425-3.9184-21.592 0.44141-4.5299 1.4304-8.7799 1.276-13.405-0.04563-1.4038-0.27117-2.8191-0.55287-4.2268-8.9942-3.4776-19.544-5.5234-30.885-5.5234-3.3234 0-6.5625 0.2153-9.7376 0.54742 0.51864 2.2669 0.96445 4.5299 0.97849 6.8403 0.02019 2.936-1.3278 5.8989-0.99341 8.972 0.47564 4.389 4.0254 8.2489 3.8464 12.79-0.03599 0.88532-1.5463 0.97608-1.6955 2.0004-0.29223 2.012 0.77841 4.7896 0.17376 6.6723-2.0272 6.3228-4.3852 4.7056-0.19482 12.238 2.3826 4.2837 4.2308 7.0961 4.8767 11.074 0.67661 4.1418 2.2071 12.176 1.2242 15.874-0.58798 2.207-2.7802 0.5561-2.3861 3.7469 0.16937 1.369 2.007 2.963 2.9548 3.7479-4.8346 7.4948-6.6011 15.331-9.0294 24.034-0.94339 3.3801-1.5674 3.7247-0.466 6.9069 0.56955 1.6451 1.7253 2.9022 3.1496 3.9767 2.3967 0.1815 4.8196 0.31184 7.2988 0.31184 14.609 0 27.956-3.353 38.261-8.8706 2.2185-2.6309 1.6806-3.6002 1.8438-8.1147 0.22817-6.2079 2.9223-10.06 1.5358-15.891v0.00773z" fill="#22363b"/>
   <path d="m-343.27 275.17c0-2.7226-1.6639-4.9267-3.9184-5.6682-0.24572-0.93553-0.55726-1.8488-0.92057-2.7554 0.52215-0.92008 0.90565-1.9512 0.90565-3.1175 0-3.325-2.444-6.0119-5.4664-6.0119-0.09127 0-0.16323 0.05021-0.25625 0.05504-0.09127-3.2343-2.4686-5.8256-5.4295-5.8256-0.69153 0-1.3418 0.17474-1.9508 0.43445-0.66081-0.47404-1.204-1.0041-1.9052-1.454-0.35893-2.936-2.5511-5.2357-5.3216-5.2357-0.43177 0-0.81527 0.16413-1.2198 0.27033-0.90127-0.7154-1.9508-1.2281-3.1496-1.2281-0.80473 0-1.5568 0.21433-2.244 0.559-0.0351-0.01352-0.07635-0.02221-0.11145-0.04152-0.78455-2.264-2.7407-3.8869-5.0759-3.8869-1.297 0-2.4335 0.56383-3.3708 1.3912-0.52918-0.12455-1.0864-0.20178-1.6191-0.31474-0.95304-1.7581-2.6213-2.9978-4.6257-2.9978-1.3313 0-2.5099 0.58507-3.4568 1.4598-0.99692-1.1778-2.3914-1.9386-3.9736-1.9386-1.2093 0-2.2641 0.51363-3.1707 1.2464-0.98288-1.0659-2.33-1.7301-3.821-1.7301-1.7771 0-3.2777 0.98573-4.2773 2.4281-2.5151 0.17474-4.9899 0.38328-7.3909 0.75981-0.90829-0.73761-1.9728-1.2618-3.1917-1.2618-1.9052 0-3.4989 1.1325-4.4765 2.7554-1.1479 0.2935-2.1825 0.69803-3.2891 1.0427-0.81351-0.53099-1.7113-0.91235-2.724-0.91235-2.2334 0-4.1395 1.481-4.9899 3.5886-0.74155-0.41708-1.5516-0.70382-2.4423-0.70382-2.0447 0-3.7551 1.2783-4.6924 3.1049-0.3326-0.06758-0.63624-0.22012-0.98902-0.22012-2.3405 0-4.2966 1.6297-5.0803 3.9053-2.2124 0.12454-4.0518 1.6509-4.8056 3.8271-0.06142-0.00579-0.10794-0.04152-0.16937-0.04152-3.0224 0-5.4646 2.6888-5.4646 6.0138 0 1.0311 0.2975 1.956 0.71259 2.7998-1.4506 1.0832-2.459 2.8191-2.459 4.892 0 1.8865 0.84071 3.5046 2.0746 4.6033 0 0.07917-0.03686 0.15158-0.03686 0.23074 0 1.0427 0.34225 2.0294 0.49056 3.0489-1.2488 1.1054-2.093 2.7216-2.093 4.6207 0 3.0711 2.1202 5.5118 4.8284 5.8729 0.05177 3.2661 2.4537 5.9086 5.4453 5.9086 0.24133 0 0.43966-0.11682 0.67661-0.14482 0.27644 0.25971 0.62395 0.4837 0.91619 0.7434 0.17375 3.1397 2.4932 5.6528 5.3988 5.6528 0.20974 0 0.38351-0.10717 0.58798-0.13034 0.76437 2.3094 2.7249 3.9777 5.0926 3.9777 1.0136 0 1.9052-0.38232 2.7196-0.91139 1.2716 0.54645 2.6792 0.95097 4.021 1.4366 0.7986 2.2196 2.7512 3.8039 5.061 3.8039 1.0698 0 2.007-0.42963 2.8468-1.0108 0.96357 1.7195 2.6134 2.9302 4.5844 2.9302 1.4945 0 2.8425-0.66423 3.8254-1.7291 3.5542 0.44508 7.2286 0.6932 10.992 0.6932 9.3023 0 17.933-1.5718 25.631-4.1196 0.91706 0.77237 2.0132 1.312 3.2576 1.312 1.792 0 3.3084-1.0089 4.3019-2.4735 0.45019 0.12937 0.89162 0.30412 1.383 0.30412 2.9662 0 5.3471-2.6096 5.4348-5.8439 0.07636-0.05213 0.13252-0.1062 0.20448-0.15833 0.89161 0.69995 1.9201 1.1943 3.0987 1.1943 3.0224 0 5.4664-2.6936 5.4664-6.0129 0-0.82257-0.15445-1.6123-0.42562-2.3268 1.0347-1.1846 2.1211-2.3451 2.9337-3.606 0.26239 0.03765 0.49758 0.16798 0.76963 0.16798 3.0215 0 5.4646-2.6936 5.4646-6.0119 0-1.0813-0.32822-2.04-0.78455-2.9176 1.0355-1.1199 1.6762-2.626 1.6762-4.3156l-0.01229 0.02317z" fill="url(#fx)"/>
   <polygon transform="matrix(.87757 0 0 .96546 -463.04 -152.35)" points="24.962 466.44 38.878 464.58 48.157 471.07 67.646 474.79 69.509 461.8 76.932 454.38 69.509 444.17 40.734 435.82 27.747 444.17" fill="#ea651a"/>
   <polygon transform="matrix(.87757 0 0 .96546 -463.04 -152.35)" points="37.956 433.97 62.083 445.1 72.292 459.02 85.278 462.73 77.854 441.38 52.804 409.83 33.315 419.12" fill="#ee9960"/>
   <path d="m-399.87 270.79c-8.4449-8.1147-11.258-35.157 9.3742-22.54 20.636 12.617 36.581 24.335 23.448 28.839-13.122 4.5077-28.135 7.2129-30.015 1.8093-1.8762-5.4066-2.81-8.1002-2.81-8.1002l0.00263-0.00869z" fill="#fdd180"/>
   <g transform="matrix(.87757 0 0 .96546 -463.04 -152.35)">
    <polygon points="64.658 450.35 73.898 433.55 102.46 453.72 94.903 474.72" fill="#b1b772"/>
    <polygon points="73.898 433.55 78.099 427.67 105.82 441.95 102.46 453.72" fill="#5e6a21"/>
   </g>
   <g transform="matrix(.87757 0 0 .96546 -463.04 -152.35)">
    <path d="m207.35 434.93c19.832 31.395 21.391 66.018 3.484 77.33l-39.998 25.267c-17.913 11.311-48.509-4.968-68.335-36.362-19.833-31.396-21.391-66.018-3.483-77.33l39.997-25.266c17.91-11.32 48.51 4.96 68.34 36.36l-5e-3 1e-3z" fill="#181b23" stroke="#181b23" stroke-width="2.9883"/>
    <path d="m166.34 515.6c4.166-4.19 8.193-6.712 13.05-9.351 9.198-4.995 16.202-13.044 25.186-18.274 6.174-3.602 12.232-6.438 18.409-9.326 0.336 4.145 0.308 8.105-0.153 11.783-9.22 5.801-18.228 11.674-26.515 18.73-2.843 2.415-6.2 4.004-9.077 6.355-2.557 2.096-4.564 5.79-7.779 7.086-1.653 0.672-3.813 0.45-5.633 0.589-5.674 0.438-5.767 0.531-10.115 5.516-2.638 3.03-6.194 7.549-10.075 12.019-5.187-0.648-10.674-2.452-16.219-5.394 1.482-0.624 2.947-1.242 4.302-1.909 10.03-4.97 16.69-9.85 24.62-17.84l-1e-3 0.016z" fill="#344347"/>
    <path d="m105.89 442.79c4.279-1.355 7.605-3.667 11.75-5.359 3.524-1.425 7.144-2.241 10.588-3.723 3.188-1.366 5.719-4.46 8.959-5.702 3.152-1.209 6.933-0.543 10.184-1.228 7.249-1.511 15.45-3.523 21.299-8.171 3.694-2.93 6.817-6.234 10.961-8.643 1.254-0.736 2.633-1.297 4.039-1.805 8.516 6.741 16.727 15.776 23.632 26.703 2.02 3.198 3.805 6.438 5.445 9.677-2.298 0.758-4.551 1.581-6.589 2.842-2.58 1.605-4.354 4.547-7.249 5.925-4.133 1.967-9.67 0.683-13.54 3.368-0.753 0.524 0.087 2.03-0.724 2.736-1.582 1.395-4.665 1.903-5.947 3.526-4.303 5.45-1.454 6.828-10.6 6.957-5.2 0.076-8.786-0.152-12.66 1.424-4.039 1.646-12.013 4.61-14.649 7.604-1.577 1.793 1.207 2.987-1.828 4.373-1.302 0.596-3.818-0.292-5.079-0.776-3.625 8.808-9.414 14.842-15.553 21.997-2.388 2.779-2.307 3.567-5.767 4.267-1.786 0.362-3.59-0.058-5.399-0.835-1.616-2.205-3.203-4.471-4.715-6.858-8.89-14.07-14.071-28.786-15.513-41.766 0.95-3.595 2.129-3.613 5.981-6.27 5.305-3.63 7.044-8.36 12.982-10.25l-8e-3 -0.013z" fill="#22363b"/>
    <path d="m139.14 398.77c2.381-1.506 5.323-1.122 7.349 0.642 0.969-0.28 1.955-0.484 2.971-0.637 0.489-1.01 1.155-1.956 2.182-2.597 2.906-1.838 6.747-0.97 8.586 1.938 0.059 0.094 0.059 0.186 0.111 0.279 2.889-1.704 6.601-0.847 8.405 2.008 0.42 0.665 0.666 1.389 0.805 2.118 0.818 0.374 1.611 0.607 2.434 1.033 2.79-1.277 6.135-0.438 7.821 2.229 0.263 0.414 0.355 0.875 0.509 1.324 1.173 0.474 2.265 1.204 2.995 2.354 0.484 0.774 0.757 1.621 0.875 2.475 0.028 0.023 0.063 0.057 0.105 0.081 2.456-0.496 5.071 0.49 6.49 2.742 0.788 1.251 0.986 2.655 0.834 4.018 0.426 0.442 0.833 0.932 1.261 1.381 2.118-0.052 4.221 0.87 5.439 2.804 0.812 1.276 1.016 2.735 0.823 4.138 1.64 0.308 3.157 1.23 4.121 2.754 0.735 1.167 0.928 2.463 0.835 3.748 1.534 0.355 2.936 1.283 3.84 2.72 1.086 1.717 1.133 3.706 0.479 5.463 1.376 2.521 2.702 5.02 3.828 7.539 1.204 0.468 2.307 1.204 3.048 2.383 1.16 1.833 1.138 3.992 0.316 5.836 0.437 1.268 0.71 2.487 1.084 3.742 0.964 0.489 1.844 1.144 2.457 2.119 1.36 2.153 1.22 4.809-0.104 6.794 0.817 0.482 1.559 1.108 2.1 1.966 1.244 1.968 1.168 4.325 0.141 6.233 0.263 0.287 0.578 0.49 0.793 0.836 1.425 2.251 1.185 5.036-0.327 7.05 1.239 2.206 1.015 4.822-0.432 6.746 0.047 0.06 0.106 0.083 0.14 0.141 1.839 2.912 0.976 6.754-1.937 8.592-0.905 0.572-1.898 0.794-2.89 0.864-0.063 1.996-0.969 3.927-2.783 5.077-1.651 1.039-3.584 1.127-5.294 0.543-0.07 0.048-0.111 0.122-0.181 0.165-0.916 0.576-1.983 0.791-2.971 1.213-0.203 1.814-1.108 3.525-2.771 4.576-2.686 1.697-6.118 1.003-8.078-1.406-2.896 1.756-6.671 0.905-8.494-1.979-0.146-0.229-0.162-0.491-0.28-0.729-0.395-0.123-0.805-0.335-1.213-0.474-2.854 1.568-6.467 0.723-8.229-2.071-0.129-0.205-0.141-0.434-0.246-0.644-2.492 0.544-5.143-0.425-6.584-2.702-0.619-0.98-0.821-2.048-0.856-3.128-1.249-0.922-2.463-2.054-3.707-3.074-2.428 0.453-5.001-0.55-6.408-2.773-0.654-1.033-0.847-2.172-0.853-3.304-2.089 0.023-4.149-0.894-5.352-2.796-0.911-1.441-1.15-3.105-0.812-4.641-2.557-3.181-5.008-6.577-7.295-10.207-5.662-8.96-9.539-18.147-11.994-26.973-1.232-0.454-2.376-1.215-3.129-2.409-1.091-1.729-1.133-3.747-0.456-5.516-0.385-0.362-0.812-0.689-1.107-1.162-1.804-2.86-0.97-6.596 1.809-8.468 0-0.106 0.016-0.187 0.016-0.287-1.155-0.473-2.218-1.19-2.936-2.322-1.838-2.912-0.962-6.759 1.943-8.592 0.719-0.455 1.501-0.747 2.295-0.876 0.407-1.651 0.764-3.345 1.372-4.826-0.193-0.229-0.449-0.387-0.613-0.647-1.839-2.907-0.97-6.753 1.938-8.593 0.946-0.595 1.985-0.812 3.035-0.858 0.33-1.55 1.26-3 2.74-3.94l7e-3 -0.033z" fill="url(#fy)"/>
    <polygon points="178.72 505.67 172.85 492.92 162.41 488.53 148.86 474.04 158.85 465.53 161.16 455.29 173.76 456.11 196.18 475.98 196.06 491.42" fill="#ea651a"/>
    <polygon points="199.23 477.34 176.94 462.89 159.71 461.69 149.64 452.69 171.66 447.57 211.7 451.9 214.26 473.33" fill="#ee9960"/>
    <path d="m177.41 450.88c12.245 3.648 37.641-8.602 14.038-21.496-23.609-12.903-43.578-21.782-39.527-6.642 4.04 15.14 10.804 31.097 16.682 29.919 5.88-1.18 8.81-1.78 8.81-1.78l-3e-3 -1e-3z" fill="#fdd180"/>
    <polygon points="171.12 463.52 180.39 446.74 148.09 433.35 134.36 450.96" fill="#b1b772"/>
    <polygon points="180.39 446.74 183.12 440.04 156.23 424.22 148.09 433.35" fill="#5e6a21"/>
   </g>
   <polygon transform="matrix(.87757 0 0 .96546 -463.04 -152.35)" points="33.778 371.23 33.778 371.23 33.771 371.23" fill="#f29769"/>
  </g>
  <polygon transform="matrix(.63209 0 0 .68927 493.23 93.88)" points="33.778 371.23 33.778 371.23 33.771 371.23" fill="#f29769"/>
 </g>
</svg>
